<svg width="28" height="33" viewBox="0 0 28 33" fill="none" xmlns="http://www.w3.org/2000/svg">
<g clip-path="url(#clip0_101_1869)">
<path d="M22.8389 0.211004C20.5828 -0.438356 17.3455 0.430066 15.2903 2.50723C13.2467 4.57658 12.0916 7.48697 13.0226 10.1509L22.8389 0.211004Z" fill="#A7D147"/>
<path d="M22.8388 0.210938C23.4801 2.49543 22.6225 5.77353 20.5712 7.85461C18.5276 9.92395 15.6534 11.0936 13.0226 10.1508L22.8388 0.210938Z" fill="#3C7E0A"/>
<path d="M15.4255 14.5793C15.4255 15.3538 14.8074 15.9797 14.0425 15.9797C13.2776 15.9797 12.6595 15.3538 12.6595 14.5793V7.95658C12.6595 7.18204 13.2776 6.55615 14.0425 6.55615C14.8074 6.55615 15.4255 7.18204 15.4255 7.95658V14.5793Z" fill="#3F2009"/>
<path d="M14 13.1163C12.8217 12.6351 11.5353 12.3652 10.1871 12.3652C4.56236 12.3691 0 16.9851 0 22.6846C0 28.3841 4.56236 33 10.1871 33C11.5353 33 12.8217 32.734 14 32.2489V13.1163Z" fill="#5BB02B"/>
<path d="M14 32.2489C15.1783 32.7301 16.4647 33 17.8129 33C23.4376 33 28 28.3802 28 22.6846C28 16.989 23.4376 12.3691 17.8129 12.3691C16.4647 12.3691 15.1783 12.6351 14 13.1202V32.2529V32.2489Z" fill="#3C9820"/>
<path d="M7.28201 20.3296C7.28201 21.4915 6.35099 22.4342 5.20364 22.4342C4.05629 22.4342 3.12527 21.4915 3.12527 20.3296C3.12527 19.1678 4.05629 18.2251 5.20364 18.2251C6.35099 18.2251 7.28201 19.1678 7.28201 20.3296Z" fill="#A7D147"/>
<path d="M10.3957 16.5076C10.3957 17.3799 9.70033 18.0841 8.83886 18.0841C7.97738 18.0841 7.28201 17.376 7.28201 16.5076C7.28201 15.6392 7.97738 14.9312 8.83886 14.9312C9.70033 14.9312 10.3957 15.6353 10.3957 16.5076Z" fill="#A7D147"/>
</g>
<defs>
<clipPath id="clip0_101_1869">
<rect width="28" height="33" fill="white"/>
</clipPath>
</defs>
</svg>
