<svg width="17" height="17" viewBox="0 0 17 17" fill="none" xmlns="http://www.w3.org/2000/svg">
<path d="M12.6924 10.1434C12.5089 10.3212 12.4246 10.5783 12.4664 10.8305L13.0961 14.3155C13.1493 14.6108 13.0246 14.9097 12.7774 15.0805C12.5351 15.2575 12.2128 15.2788 11.9486 15.1371L8.81142 13.5009C8.70233 13.4428 8.58121 13.4116 8.45725 13.4081H8.26529C8.19871 13.418 8.13354 13.4392 8.07404 13.4718L4.93612 15.1159C4.781 15.1938 4.60533 15.2214 4.43321 15.1938C4.01387 15.1145 3.73408 14.715 3.80279 14.2935L4.43321 10.8085C4.475 10.5542 4.39071 10.2957 4.20725 10.115L1.64946 7.63587C1.43554 7.42833 1.36117 7.11667 1.45892 6.83546C1.55383 6.55496 1.79608 6.35025 2.08862 6.30421L5.60904 5.7935C5.87679 5.76587 6.11196 5.60296 6.23237 5.36212L7.78362 2.18171C7.82046 2.11087 7.86792 2.04571 7.92529 1.99046L7.98904 1.94087C8.02233 1.90404 8.06058 1.87358 8.10308 1.84879L8.18029 1.82046L8.30071 1.77087H8.59892C8.86525 1.7985 9.09971 1.95787 9.22225 2.19587L10.794 5.36212C10.9074 5.59375 11.1277 5.75454 11.382 5.7935L14.9024 6.30421C15.1999 6.34671 15.4485 6.55212 15.547 6.83546C15.6397 7.1195 15.5597 7.43117 15.3415 7.63587L12.6924 10.1434Z" fill="white"/>
</svg>
