<svg width="315" height="256" viewBox="0 0 315 256" fill="none" xmlns="http://www.w3.org/2000/svg">
<path fill-rule="evenodd" clip-rule="evenodd" d="M28.3315 252.515C-5.43763 238.468 -11.7362 177.318 24.3246 155.221C54.5992 136.67 20.6103 110.803 31.8925 80.6571C46.6159 41.3125 100.004 55.6587 117.284 44.8813C136.315 33.0127 135.704 6.66717 165.146 1.3264C206.911 -6.25021 253.003 19.2219 253.502 62.656C253.904 97.6552 247.791 110.848 275.406 123.701C340.967 154.216 311.407 240.179 284.078 252.516H28.3315V252.515Z" fill="#E9EFFC"/>
<path fill-rule="evenodd" clip-rule="evenodd" d="M304.55 254.094C304.55 253.041 303.698 252.188 302.647 252.188H11.7144C10.6638 252.188 9.81107 253.041 9.81107 254.094C9.81107 255.146 10.6638 255.999 11.7144 255.999H302.647C303.698 255.999 304.55 255.146 304.55 254.094Z" fill="#6484C1"/>
<path fill-rule="evenodd" clip-rule="evenodd" d="M30.1988 145.108C23.7044 139.064 21.2464 123.16 26.7422 122.323C31.9227 121.536 32.9342 138.626 30.1988 145.108Z" fill="#448E52"/>
<path fill-rule="evenodd" clip-rule="evenodd" d="M32.7552 154.722C30.8104 146.061 37.7616 131.549 42.7669 133.971C47.4851 136.252 38.6708 150.923 32.7552 154.722Z" fill="#448E52"/>
<path fill-rule="evenodd" clip-rule="evenodd" d="M38.4684 169.676C36.912 160.936 44.5037 146.75 49.396 149.393C54.0076 151.884 44.5472 166.145 38.4684 169.676Z" fill="#448E52"/>
<path fill-rule="evenodd" clip-rule="evenodd" d="M46.6559 184.691C44.126 176.183 50.0733 161.23 55.232 163.305C60.0948 165.26 52.2997 180.497 46.6559 184.691Z" fill="#448E52"/>
<path fill-rule="evenodd" clip-rule="evenodd" d="M55.02 196.644C52.6762 188.083 58.9486 173.264 64.0605 175.451C68.8788 177.512 60.753 192.576 55.02 196.644Z" fill="#448E52"/>
<path fill-rule="evenodd" clip-rule="evenodd" d="M64.5108 207.619C61.5459 199.253 66.7133 184.013 71.972 185.818C76.9284 187.519 69.9294 203.139 64.5108 207.619Z" fill="#448E52"/>
<path fill-rule="evenodd" clip-rule="evenodd" d="M35.5143 163.047C26.6924 163.93 13.1491 155.262 16.1564 150.58C18.9908 146.167 32.4656 156.706 35.5143 163.047Z" fill="#448E52"/>
<path fill-rule="evenodd" clip-rule="evenodd" d="M41.8346 176.992C33.4337 179.827 18.2981 174.411 20.184 169.174C21.9612 164.238 37.4482 171.495 41.8346 176.992Z" fill="#448E52"/>
<path fill-rule="evenodd" clip-rule="evenodd" d="M50.1778 190.525C42.4968 194.958 26.5933 192.626 27.4145 187.12C28.1889 181.931 44.7972 185.999 50.1778 190.525Z" fill="#448E52"/>
<path fill-rule="evenodd" clip-rule="evenodd" d="M60.0198 202.91C52.9643 208.285 36.8943 207.998 37.0085 202.433C37.1173 197.188 54.1074 199.106 60.0198 202.91Z" fill="#448E52"/>
<path fill-rule="evenodd" clip-rule="evenodd" d="M69.615 213.045C62.5595 218.42 46.4896 218.133 46.6038 212.568C46.7125 207.323 63.7026 209.24 69.615 213.045Z" fill="#448E52"/>
<path fill-rule="evenodd" clip-rule="evenodd" d="M80.348 220.997C80.348 220.997 39.5733 192.507 30.1228 141.541C30.0575 141.186 29.716 140.952 29.3625 141.018C29.0079 141.084 28.7741 141.425 28.8404 141.779C38.39 193.281 79.6018 222.068 79.6018 222.068C79.8966 222.275 80.3044 222.202 80.51 221.906C80.7156 221.61 80.6438 221.203 80.348 220.997Z" fill="#448E52"/>
<path fill-rule="evenodd" clip-rule="evenodd" d="M21.075 211.865C20.9923 206.607 21.5862 200.854 23.1328 194.622C23.1328 194.622 28.236 194.663 35.8865 196.91L36.352 205.091L38.1694 197.623C43.8633 199.512 50.6904 202.588 57.7644 207.599L54.0403 218.885L60.5749 209.685C71.5003 218.171 82.7389 231.44 91.1029 252.187H38.8362C38.8362 252.187 32.703 247.23 27.6432 237.682H45.0858L25.9574 234.222C23.644 229.03 21.7874 222.744 21.2348 215.406L36.9284 216.545L21.075 211.863V211.865Z" fill="#36873F"/>
<path fill-rule="evenodd" clip-rule="evenodd" d="M41.9022 237.684C47.646 238.361 53.553 238.611 57.7643 237.684L79.1583 249.315L75.395 252.188H38.8361C38.8361 252.188 32.7029 247.231 27.6432 237.684H41.9022Z" fill="#2A6F34"/>
<path fill-rule="evenodd" clip-rule="evenodd" d="M21.4632 217.788C21.3719 217.008 21.2958 216.215 21.2348 215.408L36.9284 216.547L21.075 211.865C20.9923 206.607 21.5862 200.854 23.1328 194.622C23.1328 194.622 28.236 194.663 35.8865 196.91L36.352 205.091L38.1694 197.623C39.3604 198.018 51.3147 202.353 52.5959 202.859C55.9785 210.797 52.51 226.179 43.413 226.736C36.836 227.139 27.8923 222.131 21.4643 217.787L21.4632 217.788Z" fill="#60AC4F"/>
<path fill-rule="evenodd" clip-rule="evenodd" d="M23.0379 195.01C23.0695 194.881 23.101 194.752 23.1326 194.622C23.1326 194.622 23.4045 194.624 23.9179 194.656C26.6685 197.382 29.5529 200.33 32.4852 203.452C32.6484 203.495 32.7713 203.627 32.8028 203.791L32.8343 203.824C34.4484 205.55 36.044 207.291 37.62 209.051C38.9893 210.581 40.3423 212.126 41.6791 213.686L41.7324 213.749L45.7653 200.636C46.0296 200.758 46.2939 200.883 46.5604 201.01L42.4013 214.534L42.4034 214.537C43.1289 215.391 43.85 216.25 44.5657 217.113C46.8606 219.885 49.099 222.706 51.2634 225.582C53.79 228.939 56.2165 232.373 58.5038 235.9L58.5321 235.943L68.173 216.381C68.3894 216.596 68.6048 216.814 68.8212 217.034L59.0814 236.798L59.0988 236.825C60.727 239.379 62.2801 241.981 63.7289 244.642C64.9068 246.804 66.0162 249.005 67.0331 251.249C67.1756 251.561 67.3148 251.875 67.4529 252.19H66.5023C66.0085 251.079 65.4919 249.979 64.9546 248.889L64.9231 248.825C64.9144 248.825 64.9046 248.825 64.8959 248.825L34.5963 247.901C34.3516 247.617 34.1004 247.318 33.8426 247.006L64.4804 247.939L64.4608 247.901C62.6521 244.331 60.6399 240.867 58.494 237.49C56.1708 233.835 53.6899 230.282 51.1024 226.811L51.0796 226.781L22.9792 225.789C22.902 225.498 22.8269 225.205 22.753 224.909L50.4074 225.886C44.619 218.214 38.2421 210.866 32.073 204.286L21.5196 203.365C21.5533 203.077 21.5903 202.789 21.6284 202.5L31.1757 203.333C28.5566 200.566 25.893 197.842 23.187 195.16L23.0358 195.011L23.0379 195.01Z" fill="#B5E7B2"/>
<path fill-rule="evenodd" clip-rule="evenodd" d="M66.3393 252.188C66.3393 252.188 45.0074 236.288 46.6062 222.316C48.0909 209.34 65.3028 215.692 65.3028 215.692C65.3028 215.692 43.7849 200.671 45.0063 184.773C45.6774 176.033 54.6907 176.458 59.9744 178.696C63.0873 180.013 48.2594 164.394 49.3057 150.771C49.9442 142.466 59.9559 139.248 69.0389 146.013C73.9093 149.641 80.1045 169.44 80.1045 169.44C80.1045 169.44 85.2165 157.484 95.8612 161.481C108.389 166.185 106.795 202.032 106.795 202.032C106.795 202.032 111.994 190.876 123.534 194.598C137.058 198.96 127.583 252.19 127.583 252.19H66.3393V252.188Z" fill="#62B45F"/>
<path fill-rule="evenodd" clip-rule="evenodd" d="M107.311 201.092C108.879 198.487 114.078 191.545 123.535 194.595C137.059 198.956 127.584 252.187 127.584 252.187H66.3403C66.3403 252.187 45.0084 236.286 46.6072 222.315C47.0629 218.332 49 216.17 51.4657 215.088C61.4405 226.218 78.113 234.405 96.1787 224.692C103.414 220.802 106.279 210.57 107.312 201.092H107.311Z" fill="#439847"/>
<path fill-rule="evenodd" clip-rule="evenodd" d="M127.767 251.113C127.652 251.809 127.585 252.187 127.585 252.187H66.3395C66.3395 252.187 58.3867 246.259 52.5558 238.46C57.5894 239.866 78.8637 245.555 91.5707 245.003C109.235 244.235 124.355 210.263 124.355 210.263L127.767 251.113Z" fill="#398942"/>
<path fill-rule="evenodd" clip-rule="evenodd" d="M45.0227 187.62C44.9422 186.676 44.9335 185.725 45.0064 184.771C45.6775 176.032 54.6908 176.456 59.9746 178.694C63.0874 180.012 48.2596 164.393 49.3059 150.77C49.9443 142.464 59.9561 139.246 69.039 146.012C73.9094 149.639 80.1047 169.438 80.1047 169.438C80.1047 169.438 85.0861 157.79 95.4535 161.334C96.2094 173.912 100.95 213.826 71.0446 207.253C57.0412 204.175 49.1503 194.817 45.0227 187.62Z" fill="#75BC57"/>
<path fill-rule="evenodd" clip-rule="evenodd" d="M45.4035 182.554C47.3308 176.126 55.1846 176.665 59.9746 178.694C63.0874 180.012 48.2596 164.393 49.3059 150.77C49.9444 142.464 59.9561 139.246 69.039 146.012C73.9095 149.639 80.1047 169.438 80.1047 169.438C80.1047 169.438 85.0861 157.79 95.4535 161.334C95.4655 161.541 95.4796 161.754 95.4938 161.973C85.8703 162.87 80.3201 175.167 80.3201 175.167C80.3201 175.167 66.4624 147.07 58.8348 151.531C48.3575 157.659 63.6432 182.845 63.6432 182.845C54.5908 177.711 47.247 181.437 45.4035 182.555V182.554Z" fill="#9BD378"/>
<path fill-rule="evenodd" clip-rule="evenodd" d="M103.21 252.188H104.785C103.57 247.618 102.044 242.752 100.305 237.737L117.013 208.233C117.22 207.867 117.091 207.401 116.725 207.194C116.36 206.986 115.895 207.116 115.688 207.482L99.6353 235.829C95.2326 223.417 89.6203 210.227 84.2452 198.439L92.2687 175.875C92.4101 175.478 92.2024 175.042 91.8065 174.901C91.4106 174.76 90.9744 174.968 90.8341 175.364L83.3348 196.453C74.1856 176.552 65.9728 161.122 65.9728 161.122C65.7748 160.751 65.3137 160.61 64.9428 160.809C64.5719 161.007 64.4316 161.469 64.6295 161.84C64.6295 161.84 72.863 177.298 82.0123 197.203L58.1744 189.708C57.773 189.582 57.3456 189.806 57.2194 190.207C57.0933 190.609 57.3173 191.037 57.7176 191.163L82.8661 199.071C88.2793 210.94 93.9317 224.23 98.3334 236.701L62.7403 226.187C62.3379 226.069 61.9137 226.3 61.7951 226.702C61.6766 227.107 61.9072 227.53 62.3096 227.65L98.9523 238.474C100.592 243.224 102.04 247.838 103.208 252.191L103.21 252.188Z" fill="#C9EACF"/>
<path fill-rule="evenodd" clip-rule="evenodd" d="M248.57 213.045C252.097 215.732 257.879 217.004 262.764 216.909C267.65 216.813 271.638 215.35 271.58 212.567C271.471 207.323 254.481 209.24 248.569 213.045H248.57ZM253.674 207.619C255.157 203.436 254.606 197.534 253.027 192.904C251.449 188.275 248.842 184.915 246.212 185.818C241.256 187.519 248.255 203.139 253.673 207.619H253.674ZM258.165 202.91C261.694 205.597 267.474 206.87 272.36 206.774C277.246 206.678 281.234 205.215 281.177 202.433C281.068 197.188 264.078 199.106 258.165 202.91ZM263.165 196.644C264.337 192.363 263.354 186.518 261.441 182.017C259.527 177.516 256.682 174.358 254.126 175.451C249.308 177.512 257.433 192.576 263.166 196.644H263.165ZM268.008 190.525C271.849 192.741 277.745 193.267 282.579 192.549C287.412 191.833 291.183 189.872 290.772 187.12C289.997 181.931 273.389 185.999 268.008 190.525ZM271.53 184.691C272.795 180.437 271.94 174.571 270.125 170.029C268.31 165.486 265.533 162.267 262.954 163.304C258.091 165.259 265.888 180.496 271.53 184.69V184.691ZM276.352 176.992C280.552 178.41 286.436 177.764 291.035 176.11C295.633 174.456 298.945 171.793 298.002 169.175C296.225 164.239 280.738 171.496 276.352 176.993V176.992ZM279.718 169.676C280.496 165.306 278.987 159.575 276.673 155.266C274.358 150.958 271.237 148.072 268.79 149.393C264.179 151.884 273.639 166.145 279.718 169.676ZM282.672 163.047C287.082 163.488 292.674 161.542 296.786 158.901C300.899 156.259 303.533 152.922 302.03 150.581C299.196 146.168 285.721 156.707 282.672 163.048V163.047ZM285.432 154.722C286.405 150.392 285.153 144.598 283.033 140.19C280.913 135.783 277.923 132.76 275.421 133.971C270.703 136.252 279.517 150.923 285.432 154.722ZM287.988 145.108C291.235 142.085 293.473 136.599 294.213 131.762C294.953 126.926 294.193 122.742 291.445 122.323C286.265 121.536 285.253 138.626 287.988 145.108Z" fill="#448E52"/>
<path fill-rule="evenodd" clip-rule="evenodd" d="M238.586 222.068C238.586 222.068 279.798 193.282 289.347 141.779C289.412 141.424 289.179 141.084 288.825 141.018C288.47 140.953 288.13 141.187 288.064 141.541C278.613 192.506 237.839 220.997 237.839 220.997C237.543 221.204 237.471 221.611 237.676 221.906C237.882 222.201 238.29 222.274 238.585 222.068H238.586Z" fill="#448E52"/>
<path fill-rule="evenodd" clip-rule="evenodd" d="M297.112 211.865C297.194 206.607 296.601 200.854 295.054 194.622C295.054 194.622 289.951 194.663 282.3 196.91L281.835 205.091L280.017 197.623C274.323 199.512 267.496 202.588 260.421 207.599L264.145 218.885L257.611 209.685C246.685 218.171 235.447 231.44 227.083 252.187H279.35C279.35 252.187 285.484 247.23 290.543 237.682H273.101L292.228 234.222C294.542 229.03 296.399 222.744 296.952 215.406L281.258 216.545L297.112 211.863V211.865Z" fill="#36873F"/>
<path fill-rule="evenodd" clip-rule="evenodd" d="M276.283 237.684C270.539 238.361 264.632 238.611 260.421 237.684L239.027 249.315L242.79 252.188H279.349C279.349 252.188 285.483 247.231 290.542 237.684H276.283Z" fill="#2A6F34"/>
<path fill-rule="evenodd" clip-rule="evenodd" d="M296.722 217.788C296.814 217.008 296.89 216.215 296.951 215.408L281.257 216.547L297.111 211.865C297.193 206.607 296.6 200.854 295.053 194.622C295.053 194.622 289.95 194.663 282.299 196.91L281.834 205.091L280.016 197.623C278.825 198.018 266.871 202.353 265.59 202.859C262.207 210.797 265.676 226.179 274.773 226.736C281.35 227.139 290.293 222.131 296.722 217.787V217.788Z" fill="#60AC4F"/>
<path fill-rule="evenodd" clip-rule="evenodd" d="M295.148 195.01C295.117 194.881 295.085 194.752 295.054 194.622C295.054 194.622 294.782 194.624 294.268 194.656C291.518 197.382 288.633 200.33 285.701 203.452C285.538 203.495 285.415 203.627 285.384 203.791L285.352 203.824C283.738 205.55 282.142 207.291 280.566 209.051C279.197 210.581 277.844 212.126 276.507 213.686L276.453 213.749L272.42 200.636C272.156 200.758 271.891 200.883 271.625 201.01L275.784 214.534L275.782 214.537C275.056 215.391 274.335 216.25 273.62 217.113C271.325 219.885 269.086 222.706 266.922 225.582C264.395 228.939 261.969 232.373 259.683 235.9L259.654 235.943L250.013 216.381C249.797 216.596 249.582 216.814 249.364 217.034L259.104 236.798L259.087 236.825C257.458 239.379 255.905 241.981 254.456 244.642C253.278 246.804 252.169 249.005 251.152 251.249C251.011 251.561 250.87 251.875 250.732 252.19H251.683C252.177 251.079 252.693 249.979 253.231 248.889L253.262 248.825C253.271 248.825 253.281 248.825 253.289 248.825L283.589 247.901C283.834 247.617 284.085 247.318 284.343 247.006L253.705 247.939L253.724 247.901C255.533 244.331 257.545 240.867 259.691 237.49C262.014 233.835 264.495 230.282 267.083 226.811L267.106 226.781L295.206 225.789C295.283 225.498 295.358 225.205 295.432 224.909L267.778 225.886C273.566 218.214 279.943 210.866 286.112 204.286L296.666 203.365C296.632 203.077 296.595 202.789 296.557 202.5L287.01 203.333C289.629 200.566 292.292 197.842 294.998 195.16L295.149 195.011L295.148 195.01Z" fill="#B5E7B2"/>
<path fill-rule="evenodd" clip-rule="evenodd" d="M251.846 252.188C251.846 252.188 273.178 236.288 271.579 222.316C270.095 209.34 252.883 215.692 252.883 215.692C252.883 215.692 274.401 200.671 273.179 184.773C272.508 176.033 263.495 176.458 258.211 178.696C255.098 180.013 269.926 164.394 268.88 150.771C268.241 142.466 258.229 139.248 249.147 146.013C244.276 149.641 238.081 169.44 238.081 169.44C238.081 169.44 232.969 157.484 222.324 161.481C209.797 166.185 211.39 202.032 211.39 202.032C211.39 202.032 206.191 190.876 194.651 194.598C181.128 198.96 190.601 252.19 190.601 252.19H251.846V252.188Z" fill="#62B45F"/>
<path fill-rule="evenodd" clip-rule="evenodd" d="M210.876 201.092C209.307 198.487 204.109 191.545 194.651 194.595C181.128 198.956 190.601 252.187 190.601 252.187H251.846C251.846 252.187 273.178 236.286 271.579 222.315C271.124 218.332 269.187 216.17 266.721 215.088C256.746 226.218 240.074 234.405 222.007 224.692C214.772 220.802 211.907 210.57 210.874 201.092H210.876Z" fill="#439847"/>
<path fill-rule="evenodd" clip-rule="evenodd" d="M190.419 251.113C190.534 251.809 190.601 252.187 190.601 252.187H251.846C251.846 252.187 259.799 246.259 265.631 238.46C260.598 239.866 239.323 245.555 226.616 245.003C208.952 244.235 193.832 210.263 193.832 210.263L190.42 251.113H190.419Z" fill="#398942"/>
<path fill-rule="evenodd" clip-rule="evenodd" d="M273.163 187.62C273.244 186.676 273.252 185.725 273.179 184.771C272.508 176.032 263.495 176.456 258.211 178.694C255.099 180.012 269.926 164.393 268.88 150.77C268.242 142.464 258.229 139.246 249.147 146.012C244.276 149.639 238.081 169.438 238.081 169.438C238.081 169.438 233.101 157.79 222.732 161.334C221.977 173.912 217.235 213.826 247.141 207.253C261.145 204.175 269.036 194.817 273.163 187.62Z" fill="#75BC57"/>
<path fill-rule="evenodd" clip-rule="evenodd" d="M272.782 182.554C270.855 176.126 263.001 176.665 258.211 178.694C255.098 180.012 269.926 164.393 268.88 150.77C268.241 142.464 258.229 139.246 249.147 146.012C244.276 149.639 238.081 169.438 238.081 169.438C238.081 169.438 233.101 157.79 222.732 161.334C222.72 161.541 222.706 161.754 222.692 161.973C232.316 162.87 237.866 175.167 237.866 175.167C237.866 175.167 251.723 147.07 259.351 151.531C269.828 157.659 254.543 182.845 254.543 182.845C263.595 177.711 270.939 181.437 272.782 182.555V182.554Z" fill="#9BD378"/>
<path fill-rule="evenodd" clip-rule="evenodd" d="M214.975 252.188H213.4C214.615 247.618 216.141 242.752 217.88 237.737L201.173 208.233C200.965 207.867 201.095 207.401 201.46 207.194C201.826 206.986 202.291 207.116 202.498 207.482L218.55 235.829C222.953 223.417 228.565 210.227 233.94 198.439L225.917 175.875C225.776 175.478 225.983 175.042 226.379 174.901C226.775 174.76 227.211 174.968 227.352 175.364L234.851 196.453C244 176.552 252.213 161.122 252.213 161.122C252.411 160.751 252.872 160.61 253.243 160.809C253.614 161.007 253.754 161.469 253.556 161.84C253.556 161.84 245.323 177.298 236.173 197.203L260.011 189.708C260.413 189.582 260.84 189.806 260.965 190.207C261.091 190.609 260.867 191.037 260.467 191.163L235.319 199.071C229.905 210.94 224.253 224.23 219.851 236.701L255.444 226.187C255.848 226.069 256.271 226.3 256.389 226.702C256.508 227.107 256.277 227.53 255.875 227.65L219.232 238.474C217.592 243.224 216.144 247.838 214.976 252.191L214.975 252.188Z" fill="#C9EACF"/>
<path fill-rule="evenodd" clip-rule="evenodd" d="M114.729 214.549V252.195H200.747L203.14 213.401L114.729 214.549Z" fill="#E3EDF7"/>
<path fill-rule="evenodd" clip-rule="evenodd" d="M200.702 252.194L203.14 213.4L114.729 214.547V252.194H117.921C117.921 252.194 116.187 224.887 125.481 223.238C134.483 221.641 176.154 219.308 194.092 224.65C200.001 226.408 198.31 252.195 198.31 252.195H200.702V252.194Z" fill="#C3D5E9"/>
<path fill-rule="evenodd" clip-rule="evenodd" d="M87.9383 166.343C87.9383 166.343 76.5213 192.187 93.9399 201.537L112.304 181.772L114.73 170.416L87.9394 166.342L87.9383 166.343Z" fill="#FCBDD1"/>
<path fill-rule="evenodd" clip-rule="evenodd" d="M229.93 166.343C229.93 166.343 241.347 192.187 223.929 201.537L205.565 181.772L203.138 170.416L229.929 166.342L229.93 166.343Z" fill="#FCBDD1"/>
<path fill-rule="evenodd" clip-rule="evenodd" d="M114.226 170.34L87.9384 166.342C87.9384 166.342 87.4163 167.524 86.7659 169.471L106.737 176.004L108.981 182.59L114.226 170.339V170.34Z" fill="#FA8BAB"/>
<path fill-rule="evenodd" clip-rule="evenodd" d="M229.93 166.343C229.93 166.343 241.347 192.187 223.929 201.537L205.565 181.772L203.138 170.416L229.929 166.342L229.93 166.343Z" fill="#FCBDD1"/>
<path fill-rule="evenodd" clip-rule="evenodd" d="M205.826 170.009L229.93 166.343C229.93 166.343 230.819 168.355 231.723 171.461L211.029 175.434L208.888 182.632L205.825 170.009H205.826Z" fill="#FA8BAB"/>
<path fill-rule="evenodd" clip-rule="evenodd" d="M149.824 96.0627L149.096 120.081H168.476L167.748 96.0627H149.823H149.824Z" fill="#FCBDD1"/>
<path fill-rule="evenodd" clip-rule="evenodd" d="M149.513 106.343C155.699 108.867 161.884 108.882 168.07 106.646L167.783 97.2204H149.79L149.512 106.343H149.513Z" fill="#E05C86"/>
<path fill-rule="evenodd" clip-rule="evenodd" d="M149.005 112.419C149.005 112.419 152.069 119.826 158.198 120.081C167.47 120.468 168.569 112.419 168.569 112.419C168.569 112.419 207.28 117.084 219.847 127.544C227.897 134.246 233.929 167.517 233.929 167.517C222.712 169.988 214.851 171.685 205.148 172.529C205.148 172.529 209.276 215.129 203.596 216.064C180.619 219.848 118.826 220.816 111.974 216.064C107.492 211.575 113.748 172.529 113.748 172.529C104.1 171.625 94.4458 168.83 83.5335 166.343C83.5335 166.343 98.4929 127.166 107.614 122.016C119.966 115.042 149.006 112.419 149.006 112.419H149.005Z" fill="#E25061"/>
<path fill-rule="evenodd" clip-rule="evenodd" d="M137.023 113.935C137.562 115.645 138.364 118.403 138.491 120.048C138.491 120.048 141.671 119.499 143.531 119.761C145.391 120.022 158.822 122.989 161.074 123.74L196.915 117.845C203.753 119.647 210.528 121.919 215.557 124.689L213.529 130.6C213.529 130.6 214.839 133.944 214.024 136.109C213.208 138.274 211.335 143.244 211.335 143.244V171.85C209.324 172.116 207.28 172.343 205.147 172.529C205.147 172.529 205.213 173.007 205.32 173.86L113.731 172.629L113.747 172.529C111.258 172.296 108.768 171.937 106.257 171.489V141.594H110.14C110.14 141.594 107.587 127.876 107.215 122.261C107.349 122.173 107.481 122.091 107.614 122.016C110.005 120.667 113.02 119.48 116.327 118.444L118.501 117.795C124.595 116.063 131.394 114.8 137.023 113.935Z" fill="#CB3443"/>
<path fill-rule="evenodd" clip-rule="evenodd" d="M157.235 252.194H158.105V239.734C158.105 239.494 157.911 239.299 157.67 239.299C157.43 239.299 157.235 239.494 157.235 239.734V252.194Z" fill="#2E4865"/>
<path fill-rule="evenodd" clip-rule="evenodd" d="M149.096 111.865C149.096 111.865 152.03 119.961 158.198 120.081C163.031 120.176 167.256 116.569 168.477 112.419C168.98 110.845 173.158 110.286 173.025 113.236C172.921 115.531 166.205 123.685 158.198 123.685C151.352 123.685 145.295 117.278 144.347 112.836C144.014 111.276 147.807 109.227 149.096 111.864V111.865Z" fill="#FDF0F2"/>
<path fill-rule="evenodd" clip-rule="evenodd" d="M197.741 123.73L193.519 111.743L185.33 121.377L176.505 153.337L190.63 152.147L197.74 123.729L197.741 123.73Z" fill="#3C88E4"/>
<path fill-rule="evenodd" clip-rule="evenodd" d="M185.337 121.376L162.923 114.77L151.416 155.506L173.831 162.112L185.337 121.376Z" fill="#57A0F5"/>
<path fill-rule="evenodd" clip-rule="evenodd" d="M184.716 123.575L162.302 116.968L160.702 122.63L183.116 129.237L184.716 123.575Z" fill="#6FAEF6"/>
<path fill-rule="evenodd" clip-rule="evenodd" d="M178.651 145.048L156.237 138.441L151.416 155.506L173.832 162.112L178.652 145.048H178.651Z" fill="#197EF1"/>
<path fill-rule="evenodd" clip-rule="evenodd" d="M182.184 132.54L159.77 125.934L156.564 137.283L178.979 143.889L182.184 132.54Z" fill="#E6EFFB"/>
<path fill-rule="evenodd" clip-rule="evenodd" d="M193.544 111.703L171.13 105.096L162.92 114.771L185.335 121.377L193.544 111.703Z" fill="#67A9F5"/>
<path fill-rule="evenodd" clip-rule="evenodd" d="M191.166 114.506L168.752 107.9L165.299 111.968L187.713 118.575L191.166 114.506Z" fill="#90C0F7"/>
<path fill-rule="evenodd" clip-rule="evenodd" d="M193.544 111.703L171.13 105.096L171.576 103.478L193.99 110.084L193.544 111.703Z" fill="#C5E0FC"/>
<path fill-rule="evenodd" clip-rule="evenodd" d="M126.474 109.165L125.246 99.5237L115.647 100.749L116.875 110.39C114.462 110.699 112.271 111.962 110.783 113.904C109.297 115.846 108.635 118.305 108.945 120.743C110.659 134.204 113.651 157.702 113.651 157.702L141.448 154.153C141.448 154.153 138.456 130.656 136.742 117.195C136.432 114.758 135.176 112.542 133.25 111.036C131.324 109.531 128.886 108.858 126.473 109.166L126.474 109.165Z" fill="#7FC8FD"/>
<path fill-rule="evenodd" clip-rule="evenodd" d="M134.934 112.748C136.206 119.374 136.478 130.868 134.482 135.341C132.358 140.1 119.993 144.631 115.724 141.598C111.989 138.945 109.543 122.215 108.99 118.071C108.848 118.946 108.831 119.846 108.945 120.742L112.597 149.427L113.067 149.97L140.371 145.697L136.742 117.193C136.534 115.562 135.904 114.032 134.933 112.747L134.934 112.748ZM125.402 100.749L125.247 99.5237L115.648 100.749L115.919 102.878L125.402 100.749Z" fill="#5AA8ED"/>
<path fill-rule="evenodd" clip-rule="evenodd" d="M115.872 117.45C117.456 112.721 126.288 111.718 129.026 115.611C132.451 120.478 134.941 145.835 134.941 145.835L118.88 147.469C118.88 147.469 113.977 123.107 115.871 117.45H115.872Z" fill="#96D4FD"/>
<path fill-rule="evenodd" clip-rule="evenodd" d="M126.121 97.0102C126.058 96.5125 125.602 96.1596 125.106 96.2239L114.634 97.5613C114.136 97.6244 113.784 98.0807 113.848 98.5774L114.034 100.04C114.097 100.538 114.553 100.891 115.049 100.826L125.522 99.4889C126.019 99.4257 126.371 98.9694 126.307 98.4728L126.121 97.0102Z" fill="#204A85"/>
<path fill-rule="evenodd" clip-rule="evenodd" d="M123.453 96.9024C123.421 96.6486 123.189 96.4689 122.934 96.5005L116.804 97.2835C116.551 97.3162 116.37 97.5482 116.403 97.803L116.701 100.148C116.734 100.402 116.965 100.582 117.22 100.55L123.35 99.7666C123.603 99.7339 123.784 99.502 123.751 99.2471L123.453 96.9024Z" fill="#3062A7"/>
<path fill-rule="evenodd" clip-rule="evenodd" d="M137.504 124.457L109.869 127.985L111.695 142.326L139.331 138.798L137.504 124.457Z" fill="#D7EEFE"/>
<path fill-rule="evenodd" clip-rule="evenodd" d="M110.627 127.888L109.869 127.985L111.695 142.326L116 141.776C115.905 141.72 115.814 141.661 115.725 141.599C113.548 140.052 111.809 133.72 110.628 127.888H110.627ZM135.935 124.657C135.925 128.992 135.496 133.07 134.483 135.341C133.703 137.089 131.542 138.805 128.909 140.127L139.331 138.796L137.662 124.456L135.935 124.656V124.657Z" fill="#BADEF7"/>
<path fill-rule="evenodd" clip-rule="evenodd" d="M131.993 125.16C132.938 129.887 133.702 135.334 134.215 139.45L117.784 141.547C117.082 137.511 116.219 132.046 115.76 127.233L131.993 125.16Z" fill="#E7F5FE"/>
<path fill-rule="evenodd" clip-rule="evenodd" d="M205.552 143.799C205.552 143.799 221.721 109.585 218.761 99.2569C216.378 90.9408 209.835 92.4056 207.441 93.0928C204.141 94.0403 197.265 97.6408 199.284 105.32C196.977 105.32 183.939 109.766 188.082 123.711C183.5 124.741 173.427 133.64 177.183 143.797H205.553L205.552 143.799Z" fill="#F5AD42"/>
<path fill-rule="evenodd" clip-rule="evenodd" d="M180.466 143.799C180.26 140.192 180.288 128.959 188.081 124.19C188.081 124.19 189.674 109.118 199.384 105.433C199.834 100.306 206.263 92.5592 216.138 94.5021C213.196 91.6629 209.199 92.5875 207.441 93.0917C204.141 94.0392 197.265 97.6397 199.284 105.319C196.977 105.319 183.939 109.765 188.082 123.71C183.5 124.74 173.427 133.639 177.183 143.796H180.468L180.466 143.799Z" fill="#F9CC64"/>
<path fill-rule="evenodd" clip-rule="evenodd" d="M216.164 94.5282C217.217 95.5541 218.134 97.0668 218.761 99.2569C221.721 109.585 205.552 143.799 205.552 143.799H187.978C201.381 123.104 204.538 126.108 209.027 125.122C212.79 116.243 216.067 105.423 216.164 94.5293V94.5282Z" fill="#D38922"/>
<path fill-rule="evenodd" clip-rule="evenodd" d="M198.878 105.477C198.878 105.477 199.37 106.764 200.104 108.032C200.614 108.914 201.245 109.781 201.899 110.241C202.096 110.38 202.367 110.332 202.505 110.136C202.643 109.94 202.595 109.667 202.4 109.529C201.831 109.128 201.3 108.363 200.856 107.596C200.159 106.39 199.689 105.165 199.689 105.165C199.603 104.941 199.351 104.829 199.127 104.915C198.903 105.001 198.791 105.253 198.877 105.478L198.878 105.477Z" fill="#BF7207"/>
<path fill-rule="evenodd" clip-rule="evenodd" d="M187.568 123.674C187.568 123.674 188.739 126.998 190.939 129.52C191.097 129.701 191.372 129.719 191.553 129.561C191.733 129.403 191.752 129.128 191.594 128.947C189.502 126.548 188.388 123.385 188.388 123.385C188.308 123.159 188.059 123.039 187.833 123.119C187.607 123.199 187.487 123.448 187.568 123.675V123.674Z" fill="#BF7207"/>
<path fill-rule="evenodd" clip-rule="evenodd" d="M211.193 124.107C212.201 121.405 213.323 118.257 213.683 116.736C213.683 116.736 212.903 120.984 212.03 124.603C213.429 122.87 215.643 120.473 217.671 119.759C217.671 119.759 213.75 123.278 212.452 127.049C212.452 127.049 217.19 123.625 221.25 123.601C217.671 124.842 211.084 130.009 210.605 131.512L206.958 129.41C206.958 129.41 209.103 122.3 206.958 117.336C206.958 117.336 209.567 120.021 209.389 124.496C209.389 124.496 210.926 120.343 211.212 117.336C211.212 117.336 211.658 120.911 211.193 124.106V124.107Z" fill="#518628"/>
<path fill-rule="evenodd" clip-rule="evenodd" d="M191.705 145.976C191.705 145.976 198.293 129.104 204.919 127.723C209.32 126.806 212.17 130.158 212.427 132.2C213.055 137.208 204.919 145.976 204.919 145.976H191.705Z" fill="#FF8E04"/>
<path fill-rule="evenodd" clip-rule="evenodd" d="M211.644 130.327C212.088 130.973 212.356 131.636 212.427 132.2C213.055 137.208 204.919 145.976 204.919 145.976H191.705C191.705 145.976 192.293 144.471 193.293 142.323C195.223 142.431 201.986 142.645 204.919 140.604C207.712 138.661 210.639 132.558 211.644 130.327Z" fill="#E67700"/>
<path fill-rule="evenodd" clip-rule="evenodd" d="M194.756 139.35C197.295 134.46 201.101 128.519 204.92 127.723C206.482 127.397 207.848 127.61 208.971 128.109C208.152 130.142 206.125 136.79 201.521 139.104C199.421 140.159 196.317 139.697 194.756 139.35Z" fill="#FFB41F"/>
<path fill-rule="evenodd" clip-rule="evenodd" d="M193.86 141.134C194.764 142.13 197.004 144.269 200.866 145.976H199.341C196.352 144.455 194.479 142.747 193.556 141.767C193.654 141.562 193.755 141.35 193.861 141.135L193.86 141.134ZM195.956 137.141C196.477 137.798 199.803 141.696 206.855 143.705C206.699 143.899 206.549 144.082 206.407 144.255C199.877 142.326 196.52 138.826 195.612 137.752C195.724 137.548 195.839 137.345 195.956 137.141ZM198.298 133.42C198.44 133.346 198.617 133.384 198.714 133.517C198.714 133.517 201.913 137.898 209.483 140.116C209.356 140.308 209.229 140.499 209.102 140.685C201.422 138.376 198.186 133.901 198.186 133.901C198.135 133.83 198.116 133.746 198.127 133.666C198.183 133.583 198.241 133.501 198.298 133.42ZM201.087 130.068C201.554 130.661 204.734 134.437 211.503 136.501C211.415 136.699 211.322 136.899 211.225 137.099C204.546 135.04 201.285 131.353 200.626 130.536C200.779 130.375 200.933 130.218 201.088 130.068H201.087ZM204.248 127.916C205.508 129.187 208.149 131.4 212.458 132.967C212.451 133.186 212.429 133.41 212.395 133.639C207.67 131.954 204.856 129.498 203.605 128.192C203.818 128.086 204.034 127.993 204.248 127.916Z" fill="#A44F00"/>
<path fill-rule="evenodd" clip-rule="evenodd" d="M164.929 127.466L138.496 121.359L130.634 155.449L157.067 161.556L164.929 127.467V127.466Z" fill="#BCCFFB"/>
<path fill-rule="evenodd" clip-rule="evenodd" d="M160.798 126.769L142.514 122.545L134.763 156.152L153.046 160.375L160.798 126.769Z" fill="#D4E1FC"/>
<path fill-rule="evenodd" clip-rule="evenodd" d="M155.589 125.565L147.724 123.749L139.972 157.355L147.837 159.172L155.589 125.565Z" fill="#DDE8FD"/>
<path fill-rule="evenodd" clip-rule="evenodd" d="M151.713 122.82C159.007 124.51 164.929 126.599 164.929 127.482C164.929 128.365 159.007 127.709 151.713 126.019C144.42 124.328 138.497 122.239 138.497 121.356C138.497 120.473 144.42 121.13 151.713 122.82Z" fill="#4A71BD"/>
<path fill-rule="evenodd" clip-rule="evenodd" d="M151.713 123.526C158.611 125.124 164.211 126.97 164.211 127.647C164.211 128.323 158.611 127.574 151.713 125.975C144.816 124.376 139.215 122.53 139.215 121.854C139.215 121.178 144.816 121.927 151.713 123.526Z" fill="#8FABE3"/>
<path fill-rule="evenodd" clip-rule="evenodd" d="M164.768 127.482C164.767 127.525 164.717 127.54 164.657 127.567C164.557 127.614 164.415 127.647 164.238 127.673C163.587 127.765 162.486 127.723 161.056 127.564C159.748 127.419 158.171 127.166 156.412 126.83C154.981 126.556 153.43 126.233 151.811 125.839C150.469 125.539 149.176 125.209 147.953 124.887C145.761 124.308 143.803 123.721 142.251 123.165C140.843 122.662 139.771 122.2 139.162 121.817C138.966 121.694 138.82 121.584 138.732 121.481C138.692 121.435 138.659 121.397 138.658 121.358C138.658 121.269 138.587 121.197 138.497 121.197C138.408 121.197 138.336 121.269 138.336 121.358C138.331 121.549 138.531 121.825 138.955 122.127C139.559 122.556 140.631 123.099 142.052 123.684C143.592 124.318 145.538 125.013 147.737 125.663C148.962 126.025 150.266 126.363 151.616 126.687C153.258 127.048 154.829 127.353 156.283 127.579C158.073 127.858 159.68 128.027 161.009 128.108C162.865 128.222 164.185 128.147 164.724 127.917C164.983 127.806 165.096 127.65 165.091 127.485C165.091 127.396 165.02 127.324 164.93 127.324C164.841 127.324 164.769 127.396 164.769 127.485L164.768 127.482Z" fill="#4A71BD"/>
<path fill-rule="evenodd" clip-rule="evenodd" d="M162.408 138.395L135.975 132.288L132.745 146.295L159.178 152.401L162.408 138.395Z" fill="#6C9F4C"/>
<path fill-rule="evenodd" clip-rule="evenodd" d="M158.151 137.41L140.232 133.271L137.002 147.277L154.921 151.417L158.151 137.41Z" fill="#84BB59"/>
<path fill-rule="evenodd" clip-rule="evenodd" d="M153.329 136.296L145.056 134.385L141.826 148.391L150.098 150.302L153.329 136.296Z" fill="#A7CF7E"/>
<path fill-rule="evenodd" clip-rule="evenodd" d="M208.557 143.799H109.016V210.816H208.557V143.799ZM175.618 148.938H141.954C141.954 152.374 144.735 153.915 148.167 153.915H169.404C172.836 153.915 175.617 152.374 175.617 148.938H175.618Z" fill="#F3B058"/>
<path fill-rule="evenodd" clip-rule="evenodd" d="M203.667 143.799H208.557V210.816H109.016V143.799H113.97V181.771L153.886 206.267C157.561 207.813 161.236 207.88 164.911 206.267L203.667 182.375V143.799ZM141.955 148.938H141.36C141.36 148.938 141.353 149.124 141.34 149.43C141.283 150.789 141.783 152.114 142.723 153.095C143.664 154.077 144.964 154.631 146.323 154.631H171.515C174.27 154.631 176.503 152.396 176.503 149.637V148.938H175.619C175.619 152.374 172.838 153.915 169.406 153.915H148.169C144.737 153.915 141.956 152.374 141.956 148.938H141.955Z" fill="#EA902A"/>
<path fill-rule="evenodd" clip-rule="evenodd" d="M191.224 158.768C177.679 155.126 141.264 155.126 127.719 158.768C114.595 162.296 118.151 181.444 118.151 181.444L148.151 197.425C155.566 200.671 162.646 200.562 169.424 197.425L199.423 181.444C199.423 181.444 204.35 162.296 191.224 158.768Z" fill="#FAC36B"/>
<path fill-rule="evenodd" clip-rule="evenodd" d="M109.016 181.772L138.542 199.058C138.542 199.058 148.394 200.16 148.183 203.058C147.974 205.926 142.343 204.241 142.343 204.241C142.343 204.241 148.092 205.762 150.188 207.712C153.506 210.798 143.33 220.905 137.6 221.282C130.719 221.735 124.534 215.935 124.534 215.935L93.8758 201.537L109.017 181.772H109.016Z" fill="#FCBDD1"/>
<path fill-rule="evenodd" clip-rule="evenodd" d="M98.9759 203.932C105.406 205.865 122.924 211.281 126.512 213.946C130.112 216.62 141.536 217.204 146.199 216.577C143.488 219.077 140.115 221.117 137.6 221.282C130.719 221.735 124.534 215.935 124.534 215.935L98.977 203.933L98.9759 203.932Z" fill="#F69DB9"/>
<path fill-rule="evenodd" clip-rule="evenodd" d="M208.776 181.772L179.25 199.058C179.25 199.058 169.144 199.715 169.609 202.994C170.012 205.841 175.448 204.241 175.448 204.241C175.448 204.241 169.7 205.762 167.603 207.712C164.286 210.798 174.462 220.905 180.191 221.282C187.073 221.735 193.257 215.935 193.257 215.935L223.916 201.537L208.775 181.772H208.776Z" fill="#FCBDD1"/>
<path fill-rule="evenodd" clip-rule="evenodd" d="M217.409 204.593L193.258 215.935C193.258 215.935 187.074 221.735 180.192 221.282C178.144 221.147 175.527 219.769 173.162 217.913C177.023 217.309 187.411 215.597 189.307 214.391C191.06 213.273 208.707 207.438 217.41 204.593H217.409Z" fill="#F69DB9"/>
<path fill-rule="evenodd" clip-rule="evenodd" d="M141.558 219.952L133.952 216.653C133.731 216.557 133.63 216.3 133.726 216.08C133.822 215.86 134.077 215.757 134.298 215.853L142.495 219.409C142.181 219.602 141.869 219.784 141.558 219.952ZM146.228 216.55L137.163 212.616C136.942 212.521 136.841 212.265 136.937 212.044C137.032 211.823 137.288 211.721 137.509 211.817L146.91 215.896C146.688 216.116 146.461 216.335 146.228 216.549V216.55ZM149.538 212.729L140.192 208.674C139.971 208.578 139.87 208.321 139.966 208.101C140.061 207.88 140.317 207.779 140.538 207.875L149.991 211.976C149.854 212.223 149.702 212.475 149.537 212.729H149.538Z" fill="#E26E93"/>
<path fill-rule="evenodd" clip-rule="evenodd" d="M175.136 219.309L182.928 215.928C183.149 215.832 183.404 215.934 183.5 216.155C183.596 216.375 183.494 216.632 183.274 216.728L176.06 219.858C175.753 219.687 175.444 219.504 175.136 219.309ZM170.762 215.777L179.717 211.892C179.938 211.796 180.193 211.898 180.289 212.119C180.385 212.34 180.284 212.596 180.063 212.692L171.438 216.434C171.207 216.218 170.982 215.998 170.762 215.777ZM167.725 211.838L176.687 207.95C176.908 207.854 177.163 207.955 177.259 208.176C177.355 208.397 177.253 208.653 177.033 208.749L168.167 212.596C168.005 212.34 167.857 212.087 167.725 211.838Z" fill="#E26E93"/>
<path fill-rule="evenodd" clip-rule="evenodd" d="M138.711 198.778L105.767 178.955C105.613 178.862 105.413 178.912 105.319 179.067C105.227 179.221 105.277 179.422 105.431 179.515L138.375 199.339C138.529 199.431 138.729 199.381 138.823 199.226C138.915 199.072 138.865 198.871 138.711 198.778Z" fill="#B34367"/>
<path fill-rule="evenodd" clip-rule="evenodd" d="M179.201 199.341L213.425 179.518C213.581 179.427 213.634 179.227 213.544 179.071C213.453 178.915 213.253 178.862 213.098 178.952L178.874 198.776C178.718 198.866 178.665 199.066 178.755 199.222C178.846 199.378 179.046 199.431 179.201 199.341Z" fill="#B34367"/>
<path fill-rule="evenodd" clip-rule="evenodd" d="M133.171 83.4034C133.171 83.4034 135.07 89.317 139.712 89.2855L139.16 83.4034H133.171ZM183.288 83.4034C183.288 83.4034 181.389 89.317 176.747 89.2855L177.299 83.4034H183.288Z" fill="#803A0F"/>
<path fill-rule="evenodd" clip-rule="evenodd" d="M184.623 76.1677C184.623 76.1677 191.523 50.5714 179.126 49.7786C178.699 37.739 155.247 32.8317 152.259 37.9644C149.556 40.3495 153.306 44.3126 154.319 44.7068C155.333 45.1011 140.646 38.3772 133.738 44.7068C130.325 47.8346 131.478 53.7482 135.188 55.665C135.188 55.665 129.467 53.6317 128.863 61.1059C128.366 67.27 131.093 76.1666 131.093 76.1666H184.623V76.1677Z" fill="#803A0F"/>
<path fill-rule="evenodd" clip-rule="evenodd" d="M152.676 43.242C151.49 41.7729 150.486 39.5283 152.26 37.9644C155.248 32.8317 178.699 37.739 179.127 49.7786C186.033 50.2207 186.95 58.3604 186.409 65.4818C185.671 56.6484 181.909 51.0789 178.214 50.5257C179.274 43.4293 166.697 38.6745 159.886 37.6562C154.309 36.822 152.982 41.4168 152.676 43.242ZM128.877 64.6694C128.992 62.1972 129.837 55.9155 135.426 55.6987C135.426 55.6987 131.327 48.7363 136.982 44.9148C141.671 41.7456 150.164 43.4119 152.161 43.8639C147.957 42.4187 138.777 40.0892 133.738 44.7068C130.325 47.8346 131.478 53.7482 135.188 55.665C135.188 55.665 129.467 53.6317 128.864 61.1059C128.773 62.2266 128.79 63.4376 128.877 64.6694Z" fill="#B3611E"/>
<path fill-rule="evenodd" clip-rule="evenodd" d="M185.916 69.7466C183.48 70.326 178.529 71.7069 177.292 73.5997L138.336 74.2183C138.336 74.2183 133.268 70.1168 129.673 70.3575C130.32 73.6454 131.094 76.1677 131.094 76.1677H184.624C184.624 76.1677 185.358 73.4439 185.917 69.7466H185.916Z" fill="#6A2C0B"/>
<path fill-rule="evenodd" clip-rule="evenodd" d="M138.774 77.3232C138.774 77.3232 135.761 71.9726 131.817 75.3182C126.848 79.534 133.699 88.2138 138.774 83.4426V77.3221V77.3232Z" fill="#E76489"/>
<path fill-rule="evenodd" clip-rule="evenodd" d="M177.293 77.3232C177.293 77.3232 180.305 71.9726 184.249 75.3182C189.219 79.534 182.367 88.2138 177.293 83.4426V77.3221V77.3232Z" fill="#E76489"/>
<path fill-rule="evenodd" clip-rule="evenodd" d="M140.062 81.283C140.062 81.283 138.05 78.5266 134.401 78.8087C134.161 78.8272 133.982 79.0374 134 79.277C134.019 79.5166 134.229 79.6963 134.468 79.6778C137.618 79.4338 139.36 81.7982 139.36 81.7982C139.503 81.992 139.775 82.0334 139.968 81.8918C140.162 81.7492 140.203 81.4769 140.062 81.283Z" fill="#A9244E"/>
<path fill-rule="evenodd" clip-rule="evenodd" d="M176.707 81.7992C176.707 81.7992 178.45 79.4338 181.6 79.6788C181.839 79.6973 182.049 79.5176 182.067 79.278C182.086 79.0385 181.906 78.8283 181.667 78.8097C178.018 78.5266 176.006 81.2841 176.006 81.2841C175.863 81.478 175.906 81.7502 176.099 81.8929C176.293 82.0355 176.565 81.9931 176.707 81.7992Z" fill="#A9244E"/>
<path fill-rule="evenodd" clip-rule="evenodd" d="M137.56 62.3845C137.56 62.3845 136.272 74.0005 138.056 84.1157C139.044 89.7233 140.58 94.8702 142.966 97.3206C148.362 102.862 156.203 104.881 159.329 104.881C162.455 104.881 171.418 101.114 174.654 95.9701C176.837 92.5015 177.974 86.4234 178.555 80.3835C179.424 71.342 177.292 62.3845 177.292 62.3845H137.56Z" fill="#FCBDD1"/>
<path fill-rule="evenodd" clip-rule="evenodd" d="M179.125 66.6449H137.56V80.9585C137.729 82.1684 137.92 83.3773 138.136 84.5622C139.233 81.4104 141.52 74.4982 141.642 71.3954C141.642 71.3954 146.23 70.632 148.378 69.0398C150.526 67.4476 154.351 68.3515 155.339 69.0398C156.327 69.7281 162.643 71.4063 164.577 69.6856C166.511 67.9649 168.531 68.5671 169.476 69.0398C170.421 69.5135 172.527 70.4163 173.687 69.6856C173.687 69.6856 175.517 79.5198 178.229 83.2913C179.013 77.2208 179.143 70.7518 179.125 66.6438V66.6449Z" fill="#F586A4"/>
<path fill-rule="evenodd" clip-rule="evenodd" d="M157.837 82.9896C157.837 82.9896 159.3 86.0466 159.994 88.3467C160.164 88.913 160.288 89.4303 160.326 89.8376C160.344 90.0217 160.348 90.1752 160.316 90.2907C160.158 90.5019 159.834 90.6076 159.514 90.6904C158.886 90.8537 158.225 90.8624 158.225 90.8624C157.985 90.8657 157.792 91.0628 157.796 91.3035C157.799 91.5442 157.996 91.7369 158.236 91.7337C158.236 91.7337 159.291 91.7184 160.107 91.4178C160.529 91.2632 160.884 91.0269 161.077 90.7187C161.091 90.6958 161.103 90.6718 161.113 90.6468C161.197 90.4344 161.227 90.1306 161.193 89.7592C161.152 89.304 161.018 88.7257 160.828 88.0951C160.118 85.7416 158.623 82.6139 158.623 82.6139C158.52 82.3971 158.26 82.3057 158.042 82.4091C157.826 82.5126 157.735 82.7729 157.838 82.9907L157.837 82.9896Z" fill="#DF4374"/>
<path fill-rule="evenodd" clip-rule="evenodd" d="M163.177 95.7861C160.083 96.1575 157.357 96.0976 154.846 95.7861C156.498 101.092 163.246 99.0054 163.177 95.7861Z" fill="#E43C3C"/>
<path fill-rule="evenodd" clip-rule="evenodd" d="M137.64 82.1924C137.762 82.5344 140.259 72.5607 139.802 69.2053C139.802 69.2053 144.128 69.7531 147.188 68.0879C150.247 66.4227 153.224 66.4641 155.009 67.5674C157.906 69.3589 161.899 70.767 164.873 68.0879C167.577 65.6506 173.058 70.7343 174.83 67.5674C175.363 73.6127 177.004 76.6981 178.468 80.2539C179.234 75.2278 180.764 68.2099 180.552 60.2434H137.07C137.054 67.7416 136.626 75.0895 137.639 82.1913L137.64 82.1924Z" fill="#803A0F"/>
<path fill-rule="evenodd" clip-rule="evenodd" d="M137.072 73.3688C138.096 72.3429 139.208 69.5386 139.208 68.0868C139.208 68.0868 145.175 68.6597 147.105 66.2877C148.456 64.6291 153.099 64.5071 155.693 66.2877C158.435 68.1707 161.512 68.749 162.692 67.6327C164.475 65.9479 166.848 65.3348 168.558 66.2877C170.951 67.6207 174.982 68.3471 175.921 65.9468C175.921 65.9468 177.548 70.7409 179.815 71.7799L178.995 77.0477C178.803 78.189 178.622 79.2606 178.471 80.2539C177.006 76.697 175.364 73.6128 174.832 67.5674C173.061 70.7344 167.58 65.6506 164.875 68.0879C161.902 70.7681 157.909 69.3589 155.011 67.5674C153.226 66.4641 150.25 66.4228 147.19 68.0879C144.131 69.7531 139.804 69.2053 139.804 69.2053C140.262 72.5596 137.765 82.5333 137.643 82.1924C137.308 79.8422 137.161 75.7713 137.074 73.3699L137.072 73.3688Z" fill="#6A2C0B"/>
<path d="M149.824 84.1157C150.66 84.1157 151.338 82.9108 151.338 81.4246C151.338 79.9384 150.66 78.7335 149.824 78.7335C148.988 78.7335 148.31 79.9384 148.31 81.4246C148.31 82.9108 148.988 84.1157 149.824 84.1157Z" fill="#742F0A"/>
<path d="M166.244 84.1157C167.08 84.1157 167.758 82.9108 167.758 81.4246C167.758 79.9384 167.08 78.7335 166.244 78.7335C165.407 78.7335 164.73 79.9384 164.73 81.4246C164.73 82.9108 165.407 84.1157 166.244 84.1157Z" fill="#742F0A"/>
<path fill-rule="evenodd" clip-rule="evenodd" d="M143.677 77.3722C143.677 77.3722 147.074 73.2675 154.541 75.2017C154.832 75.2769 155.129 75.1015 155.204 74.8107C155.279 74.5199 155.104 74.2226 154.813 74.1475C146.558 72.0097 142.832 76.6861 142.832 76.6861C142.643 76.9192 142.679 77.2622 142.911 77.4517C143.144 77.6412 143.487 77.6053 143.676 77.3722H143.677Z" fill="#CA6908"/>
<path fill-rule="evenodd" clip-rule="evenodd" d="M173.234 76.685C173.234 76.685 169.507 72.0086 161.252 74.1464C160.962 74.2215 160.787 74.5188 160.862 74.8096C160.937 75.1004 161.234 75.2757 161.524 75.2006C168.992 73.2664 172.388 77.3711 172.388 77.3711C172.578 77.6042 172.92 77.6401 173.153 77.4506C173.386 77.2611 173.422 76.9181 173.232 76.685H173.234Z" fill="#CA6908"/>
</svg>
