<svg width="342" height="227" viewBox="0 0 342 227" fill="none" xmlns="http://www.w3.org/2000/svg">
<path fill-rule="evenodd" clip-rule="evenodd" d="M29.7771 223.899H321.726C321.726 223.899 348.388 211.791 340.561 163.801C336.445 138.566 307.736 133.68 301.308 117.57C292.124 94.5512 309.875 77.8511 301.308 42.6061C292.039 4.47128 236.156 -9.23663 206.489 6.25851C174.649 22.8878 181.165 48.5556 154.009 57.2327C130.09 64.8746 110.92 38.0618 61.2311 52.3923C-5.94387 71.7667 -19.9919 177.998 29.7771 223.899Z" fill="#E9EFFC"/>
<path fill-rule="evenodd" clip-rule="evenodd" d="M59.6779 172.587C59.6779 172.587 26.9538 138.318 33.5228 90.1777C33.5609 89.8947 33.363 89.6346 33.0813 89.5954C32.7986 89.5573 32.5387 89.7543 32.4996 90.0373C25.8621 138.677 58.932 173.3 58.932 173.3C59.1288 173.506 59.4561 173.514 59.6616 173.317C59.8671 173.12 59.8747 172.792 59.6779 172.586V172.587Z" fill="#285B35"/>
<path fill-rule="evenodd" clip-rule="evenodd" d="M55.5807 168.686C52.7524 165.951 48.5224 164.593 44.9471 164.228C41.3717 163.863 38.452 164.493 38.2422 165.731C37.717 168.846 50.1687 170.925 55.5796 168.685L55.5807 168.686ZM52.6686 164.547C51.5454 160.774 52.2891 156.39 53.6125 153.046C54.9359 149.702 56.8388 147.397 58.0339 147.782C61.0383 148.749 57.1476 160.77 52.6686 164.547ZM49.6011 159.969C46.7728 157.234 42.5428 155.875 38.9675 155.511C35.3921 155.146 32.4724 155.775 32.2637 157.014C31.7385 160.129 44.1902 162.208 49.6011 159.968V159.969ZM45.7735 153.774C45.4125 149.854 47.0011 145.702 48.9541 142.682C50.9071 139.663 53.2254 137.777 54.3215 138.388C57.078 139.927 50.906 150.95 45.7735 153.774ZM43.2942 149.004C40.4659 146.269 36.2359 144.91 32.6606 144.547C29.0852 144.182 26.1656 144.811 25.9557 146.05C25.4305 149.165 37.8822 151.244 43.2931 149.004H43.2942ZM41.1151 143.836C40.7541 139.916 42.3427 135.764 44.2957 132.745C46.2487 129.725 48.567 127.839 49.6631 128.452C52.4196 129.991 46.2476 141.014 41.1151 143.837V143.836ZM38.4553 138.03C36.0924 134.884 32.1277 132.876 28.6546 131.953C25.1815 131.03 22.1987 131.191 21.7975 132.382C20.7895 135.375 32.7584 139.39 38.4553 138.029V138.03ZM36.3523 131.417C36.71 127.496 39.0273 123.703 41.4978 121.09C43.9673 118.476 46.5901 117.044 47.5568 117.846C49.9871 119.862 41.9132 129.575 36.3534 131.417H36.3523ZM34.9006 126.029C32.8498 122.67 29.0961 120.292 25.7273 119.04C22.3586 117.788 19.3737 117.662 18.8604 118.809C17.5697 121.693 29.1004 126.837 34.9006 126.029ZM33.8415 120.324C34.6429 116.47 37.3777 112.967 40.1288 110.651C42.8799 108.337 45.6484 107.213 46.5173 108.12C48.7018 110.399 39.5753 119.129 33.8415 120.323V120.324ZM32.8998 115.163C31.1752 111.626 27.664 108.902 24.4279 107.336C21.1929 105.771 18.233 105.363 17.6143 106.455C16.0571 109.203 27.0496 115.417 32.8998 115.162V115.163ZM32.4866 109.986C33.3217 106.14 36.0859 102.659 38.8565 100.369C41.6272 98.0788 44.4055 96.9783 45.2667 97.8926C47.4318 100.191 38.2302 108.841 32.4866 109.986ZM32.0756 104.429C31.2198 100.587 28.436 97.1209 25.6523 94.8461C22.8686 92.5712 20.0848 91.4871 19.2291 92.4058C17.0771 94.7165 26.3265 103.315 32.0756 104.429ZM32.2419 98.2899C33.3119 94.5021 36.2849 91.1987 39.1915 89.0827C42.0981 86.9679 44.9384 86.0405 45.7419 87.0071C47.7612 89.4343 38.0454 97.5019 32.2419 98.2899ZM32.5507 94.5685C32.2702 90.6425 30.0269 86.8035 27.6085 84.1434C25.1902 81.4821 22.5967 79.9986 21.6148 80.7811C19.1453 82.7491 27.0279 92.6191 32.5507 94.5685ZM32.8454 91.4316C35.4247 88.4601 36.5567 84.1608 36.7318 80.5678C36.9068 76.9749 36.125 74.0894 34.8778 73.9457C31.7428 73.5843 30.3248 86.1407 32.8454 91.4316Z" fill="#337544"/>
<path fill-rule="evenodd" clip-rule="evenodd" d="M36.1446 223.711C36.1446 223.711 14.1955 211.144 16.4671 199.629C18.2819 190.427 33.1031 197.108 33.1031 197.108C33.1031 197.108 12.1088 183.211 16.4671 173.872C20.5491 165.123 31.4905 172.397 31.4905 172.397C31.4905 172.397 12.4296 146.607 25.9524 138.774C40.3115 130.457 48.1733 165.674 48.1733 165.674C48.1733 165.674 50.9679 151.797 59.7345 153.556C69.1655 155.449 66.2285 185.918 66.2285 185.918C66.2285 185.918 71.9025 172.501 79.8198 178.027C89.6466 184.886 81.1606 223.71 81.1606 223.71H36.1446V223.711Z" fill="#539D55"/>
<path fill-rule="evenodd" clip-rule="evenodd" d="M66.0307 165.298C67.3214 174.574 66.2275 185.919 66.2275 185.919C66.2275 185.919 71.9015 172.502 79.8188 178.028C80.3125 178.372 80.7594 178.798 81.1639 179.295L80.0581 223.711L34.3711 222.628C29.1951 219.34 14.5925 209.128 16.4661 199.629C18.281 190.427 33.1022 197.108 33.1022 197.108C33.1022 197.108 12.1078 183.211 16.4661 173.872C16.7129 173.344 16.9848 172.874 17.2773 172.457C18.2505 181.572 26.6463 192.83 41.0119 193.667C58.9495 194.712 64.2952 176.53 66.0307 165.297V165.298Z" fill="#3B7D4F"/>
<path fill-rule="evenodd" clip-rule="evenodd" d="M21.4973 169.699C26.1176 168.827 31.4894 172.398 31.4894 172.398C31.4894 172.398 12.4284 146.608 25.9512 138.775C40.3103 130.458 48.1722 165.675 48.1722 165.675C48.1722 165.675 50.9668 151.798 59.7334 153.557C59.7627 153.562 59.7921 153.569 59.8193 153.575C58.7112 157.484 57.5379 162.362 57.1758 166.531C56.432 175.093 50.5427 183.705 37.6527 180.607C32.5028 179.369 26.0415 174.01 21.4973 169.699Z" fill="#74B357"/>
<path fill-rule="evenodd" clip-rule="evenodd" d="M63.2677 223.711H64.8466L61.8258 216.841L74.5027 189.403C74.6701 189.04 74.5125 188.61 74.1504 188.443C73.7882 188.275 73.3587 188.433 73.1913 188.795L61.0494 215.076L49.7024 189.274L55.6559 167.867C55.7625 167.482 55.5374 167.083 55.1536 166.975C54.7697 166.869 54.3706 167.094 54.2641 167.478L48.7836 187.183L36.1252 158.399C35.9643 158.034 35.538 157.868 35.1727 158.028C34.8073 158.188 34.642 158.616 34.8019 158.982L47.395 187.619L29.5737 179.943C29.2072 179.785 28.782 179.955 28.6244 180.322C28.4667 180.689 28.6363 181.114 29.0028 181.272L48.2508 189.563L59.6304 215.437L31.6245 205.303C31.2493 205.167 30.835 205.362 30.6991 205.737C30.5632 206.113 30.7578 206.527 31.133 206.663L60.435 217.267L63.2688 223.711H63.2677Z" fill="#367843"/>
<path fill-rule="evenodd" clip-rule="evenodd" d="M27.2977 223.711C18.0146 204.669 34.9573 199.734 39.5809 216.088C39.5809 216.088 31.1329 186.201 40.8923 182.932C49.5752 180.024 54.9121 196.399 58.4657 215.39C58.4657 215.39 50.2657 171.569 62.8414 168.739C77.3581 165.472 76.9503 223.899 76.9503 223.899L27.2988 223.711H27.2977Z" fill="#70BA55"/>
<path fill-rule="evenodd" clip-rule="evenodd" d="M27.275 223.664C20.0362 208.767 28.8702 202.528 35.25 208.399C33.844 208.368 31.803 208.64 29.7597 210.032C26.4062 212.318 27.1272 222.026 27.275 223.664ZM37.2204 205.293C35.7317 196.38 35.051 184.888 40.8914 182.932C44.5309 181.713 47.5832 183.882 50.1615 188.212C48.5086 186.515 46.5611 185.667 44.4113 186.869C39.0287 189.879 37.5988 199.972 37.2193 205.293H37.2204ZM56.1769 197.248C55.2689 184.83 55.7822 170.327 62.8405 168.739C65.7928 168.075 68.1285 169.962 69.976 173.393C62.0739 175.392 57.4959 191.778 56.1769 197.248Z" fill="#90D466"/>
<path fill-rule="evenodd" clip-rule="evenodd" d="M52.8828 193.965C55.1413 199.8 56.9616 207.361 58.4644 215.392C58.4644 215.392 57.3215 209.281 56.543 201.478C57.7978 207.568 60.4141 218.597 62.9031 223.847L56.6626 223.823C57.8479 213.164 53.6027 196.655 52.8828 193.967V193.965ZM36.4283 209.662C37.7017 211.238 38.8119 213.369 39.5807 216.088C39.5807 216.088 39.0805 214.319 38.4639 211.595C39.7188 215.136 41.9229 219.946 44.8807 223.777L37.1264 223.748C39.2817 220.298 36.7774 210.918 36.4272 209.662H36.4283Z" fill="#4C954C"/>
<path fill-rule="evenodd" clip-rule="evenodd" d="M286.045 172.587C286.045 172.587 318.769 138.318 312.2 90.1777C312.162 89.8947 312.36 89.6346 312.641 89.5954C312.924 89.5573 313.184 89.7543 313.223 90.0373C319.86 138.677 286.791 173.3 286.791 173.3C286.594 173.506 286.266 173.514 286.061 173.317C285.854 173.12 285.848 172.792 286.045 172.586V172.587Z" fill="#285B35"/>
<path fill-rule="evenodd" clip-rule="evenodd" d="M290.143 168.686C292.971 165.951 297.201 164.593 300.776 164.228C304.352 163.863 307.271 164.493 307.481 165.731C308.006 168.846 295.555 170.925 290.144 168.685L290.143 168.686ZM293.054 164.547C294.177 160.774 293.433 156.39 292.11 153.046C290.786 149.702 288.883 147.397 287.688 147.782C284.684 148.749 288.575 160.77 293.054 164.547ZM296.121 159.969C298.949 157.234 303.179 155.875 306.755 155.511C310.33 155.146 313.25 155.775 313.46 157.014C313.985 160.129 301.533 162.208 296.122 159.968L296.121 159.969ZM299.949 153.774C300.31 149.854 298.721 145.702 296.768 142.682C294.815 139.663 292.498 137.777 291.401 138.388C288.644 139.927 294.816 150.95 299.949 153.774ZM302.428 149.004C305.256 146.269 309.486 144.91 313.062 144.547C316.637 144.182 319.557 144.811 319.766 146.05C320.292 149.165 307.84 151.244 302.429 149.004H302.428ZM304.607 143.836C304.968 139.916 303.379 135.764 301.426 132.745C299.474 129.725 297.156 127.839 296.059 128.452C293.303 129.991 299.475 141.014 304.607 143.837V143.836ZM307.267 138.03C309.631 134.884 313.594 132.876 317.068 131.953C320.541 131.03 323.523 131.191 323.925 132.382C324.933 135.375 312.964 139.39 307.267 138.029V138.03ZM309.37 131.417C309.012 127.496 306.695 123.703 304.225 121.09C301.756 118.476 299.134 117.044 298.166 117.846C295.736 119.862 303.81 129.575 309.37 131.417ZM310.822 126.029C312.872 122.67 316.626 120.292 319.995 119.04C323.364 117.788 326.348 117.662 326.862 118.809C328.152 121.693 316.622 126.837 310.822 126.029ZM311.882 120.324C311.08 116.47 308.346 112.967 305.594 110.651C302.843 108.337 300.076 107.213 299.206 108.12C297.021 110.399 306.148 119.129 311.881 120.323L311.882 120.324ZM312.823 115.163C314.548 111.626 318.059 108.902 321.295 107.336C324.53 105.771 327.49 105.363 328.109 106.455C329.666 109.203 318.675 115.417 312.823 115.162V115.163ZM313.237 109.986C312.402 106.14 309.637 102.659 306.867 100.369C304.096 98.0788 301.318 96.9783 300.457 97.8926C298.292 100.191 307.493 108.841 313.237 109.986ZM313.648 104.429C314.503 100.587 317.287 97.1209 320.071 94.8461C322.855 92.5712 325.638 91.4871 326.494 92.4058C328.646 94.7165 319.397 103.315 313.647 104.429H313.648ZM313.481 98.2899C312.411 94.5021 309.438 91.1987 306.532 89.0827C303.625 86.9679 300.785 86.0405 299.981 87.0071C297.962 89.4343 307.678 97.5019 313.481 98.2899ZM313.173 94.5685C313.453 90.6425 315.696 86.8035 318.115 84.1434C320.533 81.4821 323.127 79.9986 324.108 80.7811C326.578 82.7491 318.695 92.6191 313.173 94.5685ZM312.878 91.4316C310.299 88.4601 309.167 84.1608 308.991 80.5678C308.816 76.9749 309.598 74.0894 310.845 73.9457C313.98 73.5843 315.398 86.1407 312.878 91.4316Z" fill="#337544"/>
<path fill-rule="evenodd" clip-rule="evenodd" d="M309.578 223.711C309.578 223.711 331.527 211.144 329.255 199.629C327.44 190.427 312.619 197.108 312.619 197.108C312.619 197.108 333.614 183.211 329.255 173.872C325.173 165.123 314.232 172.397 314.232 172.397C314.232 172.397 333.293 146.607 319.77 138.774C305.411 130.457 297.549 165.674 297.549 165.674C297.549 165.674 294.754 151.797 285.988 153.556C276.557 155.449 279.494 185.918 279.494 185.918C279.494 185.918 273.82 172.501 265.903 178.027C256.076 184.886 264.562 223.71 264.562 223.71H309.577L309.578 223.711Z" fill="#539D55"/>
<path fill-rule="evenodd" clip-rule="evenodd" d="M279.691 165.298C278.4 174.574 279.494 185.919 279.494 185.919C279.494 185.919 273.82 172.502 265.903 178.028C265.409 178.372 264.962 178.798 264.558 179.295L265.664 223.711L311.35 222.628C316.525 219.34 331.129 209.128 329.257 199.629C327.442 190.427 312.62 197.108 312.62 197.108C312.62 197.108 333.615 183.211 329.257 173.872C329.01 173.344 328.738 172.874 328.445 172.457C327.472 181.572 319.076 192.83 304.711 193.667C286.773 194.712 281.427 176.53 279.692 165.297L279.691 165.298Z" fill="#3B7D4F"/>
<path fill-rule="evenodd" clip-rule="evenodd" d="M324.225 169.699C319.604 168.827 314.233 172.398 314.233 172.398C314.233 172.398 333.294 146.608 319.771 138.775C305.412 130.458 297.55 165.675 297.55 165.675C297.55 165.675 294.755 151.798 285.989 153.557C285.959 153.562 285.93 153.569 285.903 153.575C287.011 157.484 288.184 162.362 288.546 166.531C289.29 175.093 295.179 183.705 308.069 180.607C313.219 179.369 319.681 174.01 324.225 169.699Z" fill="#74B357"/>
<path fill-rule="evenodd" clip-rule="evenodd" d="M282.454 223.711H280.875L283.896 216.841L271.219 189.403C271.051 189.04 271.209 188.61 271.571 188.443C271.933 188.275 272.363 188.433 272.53 188.795L284.672 215.076L296.019 189.274L290.066 167.867C289.959 167.482 290.184 167.083 290.568 166.975C290.952 166.869 291.351 167.094 291.458 167.478L296.939 187.183L309.597 158.399C309.758 158.034 310.184 157.868 310.55 158.028C310.915 158.188 311.081 158.616 310.921 158.982L298.328 187.619L316.149 179.943C316.515 179.785 316.94 179.955 317.098 180.322C317.256 180.689 317.086 181.114 316.72 181.272L297.472 189.563L286.092 215.437L314.098 205.303C314.473 205.167 314.887 205.362 315.023 205.737C315.159 206.113 314.965 206.527 314.59 206.663L285.288 217.267L282.454 223.711Z" fill="#367843"/>
<path fill-rule="evenodd" clip-rule="evenodd" d="M318.425 223.711C327.708 204.669 310.765 199.734 306.142 216.088C306.142 216.088 314.59 186.201 304.83 182.932C296.147 180.024 290.81 196.399 287.257 215.39C287.257 215.39 295.457 171.569 282.881 168.739C268.364 165.472 268.772 223.899 268.772 223.899L318.424 223.711H318.425Z" fill="#70BA55"/>
<path fill-rule="evenodd" clip-rule="evenodd" d="M318.448 223.664C325.686 208.767 316.852 202.528 310.473 208.399C311.879 208.368 313.92 208.64 315.963 210.032C319.316 212.318 318.595 222.026 318.448 223.664ZM308.502 205.293C309.991 196.38 310.672 184.888 304.831 182.932C301.191 181.713 298.139 183.882 295.561 188.212C297.214 186.515 299.161 185.667 301.311 186.869C306.694 189.879 308.124 199.972 308.503 205.293H308.502ZM289.546 197.248C290.454 184.83 289.94 170.327 282.882 168.739C279.93 168.075 277.594 169.962 275.747 173.393C283.649 175.392 288.226 191.778 289.546 197.248Z" fill="#90D466"/>
<path fill-rule="evenodd" clip-rule="evenodd" d="M292.84 193.965C290.582 199.8 288.761 207.361 287.258 215.392C287.258 215.392 288.401 209.281 289.18 201.478C287.925 207.568 285.308 218.597 282.819 223.847L289.061 223.823C287.876 213.164 292.121 196.655 292.84 193.967V193.965ZM309.294 209.662C308.021 211.238 306.911 213.369 306.142 216.088C306.142 216.088 306.642 214.319 307.259 211.595C306.004 215.136 303.8 219.946 300.842 223.777L308.596 223.748C306.441 220.298 308.945 210.918 309.295 209.662H309.294Z" fill="#4C954C"/>
<path fill-rule="evenodd" clip-rule="evenodd" d="M332.208 225.45C332.208 224.594 331.514 223.9 330.659 223.9H11.339C10.4843 223.9 9.79053 224.594 9.79053 225.45C9.79053 226.305 10.4843 227 11.339 227H330.659C331.514 227 332.208 226.305 332.208 225.45Z" fill="#62719E"/>
<path fill-rule="evenodd" clip-rule="evenodd" d="M236.367 49.0921C239.787 45.8322 246.996 45.6679 251.49 50.3906C254.942 54.0184 251.388 59.613 258.006 61.2718C263.04 62.5344 264.659 69.9772 263.35 74.0883C262.71 76.0954 263.279 78.1885 264.477 80.1096C265.839 82.2919 268.012 84.2555 270.149 85.6258C278.836 91.1976 274.848 100.092 273.581 105.248H210.343C210.343 105.248 206.318 96.3928 214.166 88.9968C218.753 84.6745 220.388 79.425 218.386 74.9144C215.59 68.6167 216.863 60.978 221.491 58.4332C225.579 56.1855 224.097 53.6767 226.199 50.3906C227.704 48.0374 232.529 46.1207 236.366 49.0921H236.367Z" fill="#803A0F"/>
<path fill-rule="evenodd" clip-rule="evenodd" d="M209.496 102.131C208.992 98.8918 209.224 93.6553 214.168 88.9979C218.755 84.6756 220.39 79.4261 218.388 74.9155C215.592 68.6178 216.866 60.979 221.493 58.4343C225.581 56.1866 224.099 53.6777 226.201 50.3917C227.706 48.0385 232.532 46.1218 236.368 49.0932C239.788 45.8333 246.997 45.669 251.491 50.3917C254.943 54.0195 251.389 59.6141 258.007 61.2729C263.041 62.5355 264.66 69.9783 263.351 74.0894C262.711 76.0965 263.28 78.1896 264.478 80.1107C265.84 82.293 268.013 84.2566 270.15 85.6269C276.181 89.4953 276.102 94.9636 275.067 99.6723H274.061C275.057 90.12 267.648 84.8084 264.926 82.3072C262.204 79.8059 261.744 77.5049 262.191 73.9773C262.879 68.559 260.711 62.3581 257.692 62.0022C253.236 61.4776 252.283 58.1785 251.9 55.3997C251.518 52.6209 249.184 49.4121 245.552 48.7308C241.338 47.9395 235.866 50.2078 235.866 50.2078C230.744 47.3245 226.802 51.2625 225.562 55.3997C224.624 58.5322 226.043 57.5461 221.353 60.6122C216.872 63.5413 219.793 73.0956 220.588 75.9887C222.05 81.3156 218.476 87.351 215.687 89.5486C211.274 93.0262 211.954 101.882 211.954 101.882L209.496 102.129V102.131Z" fill="#AA5822"/>
<path fill-rule="evenodd" clip-rule="evenodd" d="M225.543 65.0999C225.543 65.0999 222.677 70.4159 224.836 79.6905C227.286 90.2147 217.692 88.8661 217.692 99.6722H264.065C264.065 99.6722 267.336 93.0469 261.129 86.8253C257.824 83.5132 254.254 84.2544 253.422 79.6905C252.554 74.9373 249.523 76.3686 247.938 73.9784C245.799 70.7555 245.554 65.8117 245.554 65.8117L225.544 65.0999H225.543Z" fill="#6B2B0B"/>
<path fill-rule="evenodd" clip-rule="evenodd" d="M212.221 177.29L213.603 223.915H276.84L278.885 174.988L212.222 177.29H212.221Z" fill="#202D67"/>
<path fill-rule="evenodd" clip-rule="evenodd" d="M212.434 184.506C215.837 184.66 258.979 186.542 273.064 183.212L271.149 223.915H276.839L278.884 174.988L212.221 177.29L212.435 184.506H212.434ZM242.33 197.365L246.841 223.915H242.992L242.329 197.365H242.33Z" fill="#161F50"/>
<path fill-rule="evenodd" clip-rule="evenodd" d="M242.167 223.915H242.994L242.747 197.775C242.745 197.547 242.558 197.364 242.33 197.366C242.103 197.368 241.919 197.555 241.921 197.783L242.167 223.915Z" fill="#0C112B"/>
<path fill-rule="evenodd" clip-rule="evenodd" d="M173.942 121.068C173.942 121.068 166.258 114.355 163.794 115.589C161.931 116.52 163.722 119.098 164.509 119.884C164.509 119.884 161.488 118.472 157.361 117.127C154.419 116.168 151.885 125.244 153.29 128.209C155.26 132.367 164.971 134.806 166.828 134.314L173.942 121.068Z" fill="#FCBDD1"/>
<path fill-rule="evenodd" clip-rule="evenodd" d="M170.099 118.078C172.194 119.541 173.942 121.068 173.942 121.068L166.828 134.314C164.971 134.806 155.26 132.367 153.29 128.209C152.903 127.393 152.815 126.113 152.952 124.707C155.257 126.378 160.566 130.081 162.874 130.476L170.1 118.078H170.099Z" fill="#FA95B5"/>
<path fill-rule="evenodd" clip-rule="evenodd" d="M248.205 73.9773L250.083 98.0418L234.156 99.6712V82.6751C240.769 80.9901 244.284 80.6995 248.205 73.9773Z" fill="#FCBDD1"/>
<path fill-rule="evenodd" clip-rule="evenodd" d="M248.925 83.4032C245.297 88.0063 238.769 90.6915 234.156 90.8537V84.6876C240.769 83.0027 244.579 82.7121 248.5 75.9898L248.925 83.4032Z" fill="#E5668A"/>
<path fill-rule="evenodd" clip-rule="evenodd" d="M234.156 92.1554C234.156 92.1554 233.626 97.774 238.256 97.6717C243.752 97.5498 249.271 90.8548 249.271 90.8548C249.271 90.8548 277.473 94.5315 284.434 103.619C291.394 112.706 294.779 128.76 292.151 139.817C289.87 149.412 279.895 156.417 279.895 156.417C279.895 156.417 280.803 172.836 279.895 176.32C278.987 179.803 213.057 181.482 210.031 177.999C207.005 174.515 212.22 144.365 212.22 144.365C212.22 144.365 210.265 150.826 199.056 152.935C189.104 154.809 162.185 138.001 162.185 138.001L172.24 116.17L196.447 127.712C196.447 127.712 204.265 105.257 210.03 100.329C217.018 94.3552 234.154 92.1565 234.154 92.1565L234.156 92.1554Z" fill="#E64C5E"/>
<path fill-rule="evenodd" clip-rule="evenodd" d="M246.533 93.6172C248.201 92.1533 249.272 90.8537 249.272 90.8537C249.272 90.8537 277.475 94.5304 284.435 103.618C290.319 111.299 293.648 123.959 292.949 134.37C291.873 129.391 286.77 107.597 278.885 102.131C271.136 96.7596 248.926 93.2243 248.926 93.2243L246.534 93.6172H246.533ZM197.673 124.357C200.098 117.906 205.656 104.068 210.031 100.327C217.019 94.3541 234.155 92.1554 234.155 92.1554C234.155 92.1554 233.976 94.0548 234.736 95.6243C230.311 96.5974 216.431 99.7659 212.22 102.131C207.686 104.678 199.29 121.126 197.672 124.357H197.673Z" fill="#F06C7C"/>
<path fill-rule="evenodd" clip-rule="evenodd" d="M269.423 116.169L279.895 156.417C279.895 156.417 280.803 172.836 279.895 176.32C279.741 176.913 277.703 177.453 274.414 177.925C277.278 172.856 274.99 162.536 274.126 162.934C265.09 167.108 251.67 170.172 251.67 170.172C251.349 169.509 251.036 168.864 250.729 168.231C248.109 169.656 243.269 170.641 240.728 170.172C237.23 169.527 232.106 160.119 234.11 156.613C235.259 154.604 239.225 153.608 239.225 153.608C237.726 153.566 235.793 153.068 236.417 150.968C236.832 149.57 240.335 148.276 243.201 148.074C242.926 147.047 242.663 145.969 242.413 144.83L267.255 133.45L269.423 116.17V116.169ZM173.251 144.302C175.445 144.908 192.241 149.39 201.167 147.046C208.542 145.108 209.313 137.204 209.313 137.204C209.313 137.204 208.198 123.436 216.276 122.664C216.276 122.664 209.002 127.683 212.772 137.204L212.221 145.005C212.161 145.154 212.1 145.301 212.039 145.446C212.154 144.751 212.221 144.363 212.221 144.363C212.221 144.363 210.266 150.824 199.057 152.933C193.301 154.016 181.869 148.85 173.251 144.302Z" fill="#C13142"/>
<path fill-rule="evenodd" clip-rule="evenodd" d="M234.156 92.0793C234.156 92.0793 233.928 97.6641 238.255 97.6706C243.517 97.6782 249.277 90.8537 249.277 90.8537C250.915 88.913 253.833 90.3747 253.371 91.4773C253.371 91.4773 244.928 101.638 236.712 100.688C231.601 100.097 230.485 93.1579 230.485 93.1579C230.217 91.461 233.679 90.5271 234.155 92.0793H234.156Z" fill="white"/>
<path fill-rule="evenodd" clip-rule="evenodd" d="M176.88 118.38L166.316 140.463C163.771 138.989 162.185 138 162.185 138L172.24 116.169L176.88 118.38Z" fill="white"/>
<path fill-rule="evenodd" clip-rule="evenodd" d="M226.427 59.6261C226.427 59.6261 223.872 71.6535 225.239 78.0992C225.773 80.6136 230.062 85.2449 233.17 86.0874C236.78 87.0659 243.37 83.7766 245.425 82.2908C247.736 80.6201 249.68 76.2728 249.68 76.2728C249.68 76.2728 254.247 78.3256 254.768 72.6254C255.142 68.5351 249.533 67.9375 248.466 73.1V60.9518L226.427 59.6261Z" fill="#FCBDD1"/>
<path fill-rule="evenodd" clip-rule="evenodd" d="M226.143 61.0835C225.907 62.3646 225.568 64.3772 225.294 66.6597C227.119 66.4452 233.635 65.7094 235.729 63.2387C235.729 63.2387 238.997 67.2474 245.447 66.7097L247.895 74.3648V61.0835H226.143Z" fill="#FA8BAB"/>
<path d="M241.326 78.8481C242.235 78.8481 242.972 78.1108 242.972 77.2013C242.972 76.2918 242.235 75.5545 241.326 75.5545C240.418 75.5545 239.681 76.2918 239.681 77.2013C239.681 78.1108 240.418 78.8481 241.326 78.8481Z" fill="#FF5858"/>
<path d="M228.616 77.3994C229.525 77.3994 230.261 76.6621 230.261 75.7525C230.261 74.843 229.525 74.1057 228.616 74.1057C227.707 74.1057 226.971 74.843 226.971 75.7525C226.971 76.6621 227.707 77.3994 228.616 77.3994Z" fill="#FF5858"/>
<path fill-rule="evenodd" clip-rule="evenodd" d="M250.706 74.0469C250.748 73.6127 251.156 73.0967 251.735 73.063C251.994 73.0478 252.284 73.1316 252.594 73.3482C252.717 73.4342 252.887 73.4037 252.973 73.2807C253.058 73.1577 253.028 72.9879 252.905 72.9019C252.473 72.6004 252.065 72.4981 251.702 72.5199C250.835 72.571 250.226 73.346 250.164 73.9958C250.15 74.1449 250.26 74.2777 250.408 74.2918C250.557 74.306 250.69 74.1961 250.704 74.0469H250.706Z" fill="#CB4670"/>
<path fill-rule="evenodd" clip-rule="evenodd" d="M248.489 73.0499L247.818 74.8459L246.477 65.6899C246.477 65.6899 239.432 66.3244 235.747 62.4049C235.747 62.4049 232.73 65.5462 225.236 65.0313L225.755 57.1673L250.317 59.6261L248.488 73.0499H248.489Z" fill="#803A0F"/>
<path fill-rule="evenodd" clip-rule="evenodd" d="M225.579 65.052L225.567 65.0314C225.567 65.0314 234.146 63.9973 235.424 60.793C235.424 60.793 240.536 64.7799 247.429 65.0314L248.035 74.2679L247.818 74.8459L246.478 65.6899C246.478 65.6899 239.432 66.3244 235.747 62.4049C235.747 62.4049 232.821 65.4515 225.578 65.0531L225.579 65.052Z" fill="#6B2B0B"/>
<path fill-rule="evenodd" clip-rule="evenodd" d="M235.118 73.2393C235.118 73.2393 233.953 74.7457 233.319 75.9724C233.148 76.3044 233.016 76.6168 232.948 76.8769C232.898 77.0696 232.885 77.2394 232.906 77.3776C232.895 77.7705 233.173 78.0372 233.553 78.1863C234.004 78.3637 234.584 78.3724 234.584 78.3724C234.734 78.3746 234.857 78.2538 234.859 78.1036C234.861 77.9534 234.74 77.8304 234.59 77.8282C234.59 77.8282 234.118 77.8239 233.752 77.6802C233.595 77.6192 233.439 77.5463 233.451 77.3809C233.453 77.3558 233.451 77.3319 233.446 77.3068C233.43 77.2285 233.446 77.1283 233.476 77.013C233.534 76.7844 233.653 76.5123 233.803 76.2227C234.417 75.0331 235.548 73.5735 235.548 73.5735C235.64 73.4548 235.619 73.2839 235.499 73.1914C235.381 73.1 235.21 73.1207 235.118 73.2393Z" fill="#E6567F"/>
<path fill-rule="evenodd" clip-rule="evenodd" d="M235.601 81.7053C235.601 81.7053 236.186 81.9001 236.888 81.8664C237.619 81.8315 238.467 81.5529 238.956 80.6081C239.025 80.4753 238.973 80.311 238.84 80.2413C238.706 80.1727 238.542 80.225 238.474 80.3578C238.094 81.0914 237.429 81.296 236.862 81.3232C236.267 81.3515 235.771 81.1894 235.771 81.1894C235.629 81.1425 235.474 81.2198 235.428 81.3624C235.381 81.505 235.458 81.6585 235.601 81.7064V81.7053Z" fill="#E03333"/>
<path fill-rule="evenodd" clip-rule="evenodd" d="M229.419 71.4619C230.417 70.9732 231.891 70.7468 232.609 72.2173C232.688 72.3794 232.883 72.4458 233.045 72.3675C233.207 72.288 233.274 72.0921 233.195 71.931C232.275 70.048 230.41 70.2504 229.132 70.8752C228.97 70.9547 228.903 71.1506 228.982 71.3117C229.061 71.4739 229.256 71.5402 229.418 71.4619H229.419Z" fill="#672808"/>
<path fill-rule="evenodd" clip-rule="evenodd" d="M238.876 73.0184C238.876 73.0184 240.249 71.6611 242.446 73.0652C242.598 73.1621 242.799 73.1174 242.896 72.9661C242.993 72.8138 242.948 72.6124 242.797 72.5155C241.733 71.8363 240.828 71.709 240.125 71.7906C239.029 71.918 238.409 72.5623 238.409 72.5623C238.283 72.6908 238.285 72.8976 238.414 73.0238C238.542 73.1501 238.748 73.1479 238.875 73.0184H238.876Z" fill="#672808"/>
<path fill-rule="evenodd" clip-rule="evenodd" d="M227.617 69.3841C227.617 69.3841 231.549 66.8077 234.661 69.568C234.84 69.7269 235.115 69.7106 235.275 69.531C235.434 69.3514 235.418 69.076 235.238 68.916C231.662 65.7432 227.143 68.6526 227.143 68.6526C226.942 68.7832 226.885 69.0532 227.015 69.2545C227.146 69.4559 227.415 69.5136 227.617 69.383V69.3841Z" fill="#CA6B12"/>
<path fill-rule="evenodd" clip-rule="evenodd" d="M237.893 69.9098C240.233 69.2709 242.543 69.6616 244.571 71.635C244.743 71.8026 245.019 71.7982 245.187 71.6263C245.354 71.4543 245.35 71.1778 245.178 71.0102C242.897 68.7909 240.297 68.3511 237.664 69.0695C237.433 69.1326 237.296 69.3721 237.359 69.6039C237.422 69.8358 237.661 69.9729 237.893 69.9098Z" fill="#CA6B12"/>
<path fill-rule="evenodd" clip-rule="evenodd" d="M248.621 149.376C248.621 149.376 238.852 149.276 238.152 151.629C237.528 153.729 241.404 153.689 242.902 153.732C242.902 153.732 236.581 154.769 235.433 156.779C233.429 160.285 238.346 167.315 241.844 167.96C245.727 168.678 253.552 163.673 253.552 163.673L248.621 149.377V149.376Z" fill="#FCBDD1"/>
<path fill-rule="evenodd" clip-rule="evenodd" d="M238.564 165.948C238.727 166.11 238.894 166.265 239.061 166.411L244.979 163.922C245.136 163.856 245.21 163.674 245.144 163.516C245.078 163.358 244.896 163.284 244.739 163.351L238.565 165.948H238.564ZM236.214 162.826C236.314 163.008 236.42 163.189 236.529 163.366L243.539 160.416C243.697 160.35 243.771 160.168 243.704 160.01C243.638 159.852 243.456 159.778 243.299 159.845L236.213 162.826H236.214ZM235.016 159.426C235.042 159.633 235.079 159.842 235.126 160.053L242.59 156.913C242.747 156.846 242.821 156.664 242.755 156.507C242.689 156.349 242.507 156.275 242.35 156.341L235.016 159.427V159.426Z" fill="#D43D6D"/>
<path fill-rule="evenodd" clip-rule="evenodd" d="M243.674 149.618C246.195 149.351 248.622 149.376 248.622 149.376L253.553 163.672C253.553 163.672 245.728 168.675 241.845 167.959C240.971 167.798 240.007 167.237 239.084 166.432C242.047 166.205 246.255 165.586 247.187 163.907C248.534 161.48 244.384 151.318 243.674 149.618Z" fill="#FA95B5"/>
<path fill-rule="evenodd" clip-rule="evenodd" d="M286.429 116.169C288.885 124.058 294.068 132.983 292.151 139.816C290.425 145.976 285.516 152.773 279.934 156.369C272.391 161.229 252.173 166.962 252.173 166.962C248.783 159.946 246.163 154.922 244.26 146.251L270.128 135.584L269.424 116.168H286.429V116.169Z" fill="#E64C5E"/>
<path fill-rule="evenodd" clip-rule="evenodd" d="M249.145 144.238C250.484 149.02 253.631 158.902 256.871 165.554C254.049 166.431 252.173 166.962 252.173 166.962C250.391 163.273 245.599 153.88 244.26 146.225L249.145 144.237V144.238Z" fill="white"/>
<path fill-rule="evenodd" clip-rule="evenodd" d="M252.261 167.26C252.261 167.26 273.618 160.903 280.105 156.629C280.248 156.535 280.288 156.342 280.193 156.2C280.1 156.057 279.907 156.017 279.764 156.112C273.315 160.36 252.084 166.666 252.084 166.666C251.92 166.715 251.826 166.887 251.875 167.051C251.924 167.216 252.096 167.309 252.26 167.26H252.261ZM270.497 135.51L274.953 133.737C275.112 133.674 275.19 133.494 275.126 133.335C275.063 133.176 274.882 133.097 274.724 133.162L270.522 134.833L269.792 116.154C269.784 115.926 269.591 115.748 269.364 115.756C269.137 115.765 268.958 115.958 268.967 116.185L269.704 135.053C266.982 136.201 244.099 145.845 244.099 145.845C243.889 145.933 243.79 146.176 243.879 146.386C243.967 146.596 244.209 146.695 244.42 146.607L270.288 135.704C270.381 135.665 270.452 135.595 270.496 135.51H270.497ZM216.028 122.332C213.973 123.87 212.404 125.605 211.684 127.996C210.977 130.346 211.091 133.346 212.434 137.448L211.81 144.196C211.79 144.424 211.956 144.625 212.183 144.646C212.41 144.666 212.612 144.5 212.632 144.272L213.264 137.438C213.269 137.382 213.263 137.325 213.244 137.27C211.948 133.34 211.799 130.477 212.475 128.234C213.142 126.016 214.616 124.42 216.523 122.993C216.706 122.856 216.743 122.597 216.607 122.414C216.471 122.231 216.211 122.194 216.028 122.33V122.332ZM196.19 127.853L198.692 132.145C198.778 132.293 198.968 132.343 199.116 132.257C199.264 132.171 199.314 131.981 199.227 131.833L196.725 127.541C196.639 127.393 196.449 127.343 196.301 127.43C196.153 127.516 196.103 127.706 196.19 127.854V127.853Z" fill="#610C1A"/>
<path fill-rule="evenodd" clip-rule="evenodd" d="M162.11 158.355C162.11 158.355 167.122 158.053 169.038 151.457C170.581 146.148 169.329 141.494 167.486 137.982C165.237 133.696 162.11 131.112 162.11 131.112V158.356V158.355Z" fill="#2A62DA"/>
<path fill-rule="evenodd" clip-rule="evenodd" d="M110.369 71.0396V84.6267C105.254 86.9777 99.9075 86.317 94.4487 84.1935L95.945 62.3461C99.7096 67.5718 104.625 70.8817 110.369 71.0407V71.0396Z" fill="#FCBDD1"/>
<path fill-rule="evenodd" clip-rule="evenodd" d="M95.3501 71.0396L95.946 62.345C99.7106 67.5707 104.624 70.8806 110.37 71.0396V77.8337C106.816 77.7041 99.1843 78.5586 95.3501 71.0396Z" fill="#E5668A"/>
<path fill-rule="evenodd" clip-rule="evenodd" d="M139.098 167.892V223.915H107.044L106.717 196.528L104.833 223.915H67.6084V166.095L139.097 167.892H139.098Z" fill="#212E66"/>
<path fill-rule="evenodd" clip-rule="evenodd" d="M112.425 223.915H107.044L106.752 199.523L107.211 186.75L112.424 223.915H112.425ZM74.0979 223.915H67.6094V166.095L139.098 167.892V174.143C127.629 175.587 75.4549 175.548 75.4549 175.548L74.0968 223.915H74.0979Z" fill="#1A2556"/>
<path fill-rule="evenodd" clip-rule="evenodd" d="M127.821 167.608L127.825 167.628C127.93 168.173 128.057 168.712 128.204 169.248C128.312 169.638 128.432 170.025 128.562 170.408C129.356 172.738 130.58 174.951 132.328 176.701C132.625 176.998 132.937 177.282 133.261 177.548C133.781 177.976 134.335 178.359 134.916 178.698V223.914H135.742V179.135C136.736 179.615 137.85 179.991 139.098 180.227V179.38C131.53 177.845 129.292 170.806 128.662 167.627L127.822 167.607L127.821 167.608ZM81.7836 166.451C81.5976 167.939 80.6538 173.387 76.575 176.81C76.4336 176.836 76.3172 176.932 76.265 177.062C74.2186 178.666 71.425 179.762 67.6181 179.676H67.6094V180.504C71.3207 180.585 74.1218 179.607 76.2357 178.124V223.915H77.0621V177.492C81.4563 173.827 82.4327 167.952 82.6133 166.472L81.7847 166.452L81.7836 166.451Z" fill="#7C88BB"/>
<path fill-rule="evenodd" clip-rule="evenodd" d="M90.3003 62.345C90.3003 62.345 91.9086 67.4575 95.8928 67.5076V62.6868L90.3003 62.345Z" fill="#6E2B08"/>
<path fill-rule="evenodd" clip-rule="evenodd" d="M94.4489 79.1986C94.4489 79.1986 99.7261 85.4745 104.63 85.1883C109.054 84.9303 110.369 80.5199 110.369 80.5199C110.369 80.5199 119.298 81.4734 127.856 83.5284C133.26 84.8258 138.518 86.563 141.285 88.7769C149.025 94.9669 160.382 127.877 160.382 127.877H142.468C142.468 127.877 143.608 165.529 141.285 167.892C138.963 170.255 68.1644 171.267 65.8037 167.958C63.443 164.649 65.8037 153.376 65.8037 153.376C65.8037 153.376 45.7467 141.213 44.7517 131.029C43.772 121.009 55.6572 92.6333 64.2726 86.1135C71.7681 80.4416 94.4479 79.2007 94.4479 79.2007L94.4489 79.1986Z" fill="#4481EE"/>
<path fill-rule="evenodd" clip-rule="evenodd" d="M65.3643 153.102V151.47L83.962 105.858L82.979 110.202H153.548C157.449 119.374 160.383 127.877 160.383 127.877H142.469C142.469 127.877 143.266 154.21 142.168 164.213L107.421 164.68C105.428 166.537 102.487 168.944 99.2529 170.07C96.4322 170.073 93.6441 170.059 90.9507 170.025C87.7907 169.243 84.1697 167.662 82.1982 164.68C80.4878 166.118 78.9186 167.338 78.3445 167.408L65.3643 157.516V155.861C65.5959 154.373 65.8047 153.376 65.8047 153.376C65.8047 153.376 65.6492 153.282 65.3643 153.103V153.102Z" fill="#2A62DA"/>
<path fill-rule="evenodd" clip-rule="evenodd" d="M94.5445 78.8067C94.5445 78.8067 99.615 85.6683 104.861 85.0054C108.924 84.4917 110.624 79.8342 110.624 79.8342C111.266 78.4214 114.98 79.3379 114.422 81.0272C114.422 81.0272 111.052 88.7747 104.861 88.7889C94.7783 88.8117 90.333 79.8342 90.333 79.8342C89.9568 78.5324 92.7731 76.6701 94.5434 78.8067H94.5445Z" fill="#D7E4FB"/>
<path d="M116.028 119.232H84.2588V160.247H116.028V119.232Z" fill="#F39420"/>
<path fill-rule="evenodd" clip-rule="evenodd" d="M84.2589 128.799L99.6173 143.958C100.034 144.333 97.2402 146.928 95.3786 149.254C97.9068 149.991 101.771 151.459 102.583 153.153C103.855 155.808 98.544 155.96 98.544 155.96C98.544 155.96 101.002 159.05 106.508 159.903C106.889 159.961 107.174 160.081 107.374 160.249H84.2578V128.8L84.2589 128.799Z" fill="#D86E0C"/>
<path fill-rule="evenodd" clip-rule="evenodd" d="M116.028 119.232H84.2588V160.247H89.3608V122.82H116.028V119.232Z" fill="#D6770A"/>
<path fill-rule="evenodd" clip-rule="evenodd" d="M84.2588 128.799V160.248H89.3608V133.834L84.2588 128.799Z" fill="#A35309"/>
<path d="M162.177 119.232H116.028V160.247H162.177V119.232Z" fill="#FFC35C"/>
<path d="M162.177 119.232H116.028V122.82H162.177V119.232Z" fill="#F7A026"/>
<path fill-rule="evenodd" clip-rule="evenodd" d="M162.177 119.232H116.028V122.82H156.851V160.247H162.177V119.232Z" fill="#F9A52F"/>
<path fill-rule="evenodd" clip-rule="evenodd" d="M162.177 155.875V137.175C160.662 136.467 158.64 136.074 158.032 136.703C156.672 138.111 158.116 140.27 159.476 141.102C159.476 141.102 155.184 139.115 153.03 139.739C150.877 140.363 150.998 151.856 153.627 154.666C155.12 156.262 160.038 156.095 162.177 155.875Z" fill="#F7A026"/>
<path d="M118.567 111.323H82.1982V119.438H118.567V111.323Z" fill="#FBAE41"/>
<path d="M110.29 111.323H82.1982V116.887H110.29V111.323Z" fill="#FFC369"/>
<path d="M164.173 111.323H118.567V119.438H164.173V111.323Z" fill="#FFC86B"/>
<path d="M164.172 111.323H123.941V116.887H164.172V111.323Z" fill="#FFD792"/>
<path fill-rule="evenodd" clip-rule="evenodd" d="M116.241 119.664L162.178 119.542L162.176 118.921L84.2578 119.128V119.749H116.028C116.111 119.749 116.186 119.716 116.241 119.664Z" fill="#814806"/>
<path d="M154.322 130.892H122.552V143.111H154.322V130.892Z" fill="#ECA731"/>
<path d="M154.987 130.21H123.218V142.429H154.987V130.21Z" fill="#FFF9F0"/>
<path fill-rule="evenodd" clip-rule="evenodd" d="M128.776 129.076L126.478 126.789L119.26 134.054L121.557 136.341L128.776 129.076Z" fill="#FFE8C0"/>
<path fill-rule="evenodd" clip-rule="evenodd" d="M158.478 139.939L156.18 137.653L148.962 144.918L151.26 147.205L158.478 139.939Z" fill="#FFE8C0"/>
<path fill-rule="evenodd" clip-rule="evenodd" d="M165.452 139.987C163.893 138.219 159.655 136.138 158.533 137.3C157.173 138.707 159.023 140.414 160.383 141.244C160.383 141.244 155.78 139.362 153.627 139.986C151.474 140.61 150.998 150.47 153.627 153.279C155.382 155.154 161.867 154.827 163.012 154.528C166.593 153.592 167.611 142.434 165.452 139.986V139.987Z" fill="#FCBDD1"/>
<path fill-rule="evenodd" clip-rule="evenodd" d="M164.98 139.513C165.156 139.672 165.314 139.831 165.454 139.987C167.612 142.435 166.593 153.593 163.014 154.529C161.868 154.828 155.382 155.155 153.628 153.28C152.903 152.505 152.414 151.194 152.131 149.687C154.219 150.769 158.148 152.363 161.557 151.225C164.919 150.104 165.015 141.756 164.98 139.513Z" fill="#F797B5"/>
<path fill-rule="evenodd" clip-rule="evenodd" d="M152.182 149.952C152.228 150.172 152.278 150.386 152.332 150.595L160.22 151.567C160.39 151.588 160.544 151.467 160.566 151.297C160.586 151.127 160.466 150.973 160.296 150.951L152.182 149.952ZM151.83 146.367C151.831 146.575 151.835 146.783 151.843 146.994L160.221 148.025C160.391 148.046 160.545 147.925 160.567 147.755C160.587 147.586 160.467 147.431 160.297 147.409L151.831 146.367H151.83ZM152.128 142.861C152.089 143.059 152.055 143.262 152.023 143.472L160.221 144.483C160.391 144.503 160.545 144.382 160.567 144.213C160.587 144.043 160.467 143.888 160.297 143.866L152.129 142.861H152.128Z" fill="#CF6E8D"/>
<path fill-rule="evenodd" clip-rule="evenodd" d="M91.9161 148.788C91.9161 148.788 100.351 150.835 101.488 153.21C102.761 155.864 97.0182 155.297 97.0182 155.297C97.0182 155.297 100.224 159.627 105.73 160.478C109.854 161.116 103.67 168.301 95.3773 167.946C91.952 167.799 83.8281 165.733 81.4043 160.049L91.9151 148.791L91.9161 148.788Z" fill="#FCBDD1"/>
<path fill-rule="evenodd" clip-rule="evenodd" d="M103.348 165.929C101.268 167.163 98.4701 168.078 95.3798 167.945C91.9545 167.798 83.8305 165.732 81.4067 160.049L91.9175 148.79C91.9175 148.79 93.1223 149.082 94.6838 149.574C92.9331 151.62 88.5379 157.246 89.2947 161.386C89.808 164.197 97.6372 165.884 103.348 165.93V165.929Z" fill="#F797B5"/>
<path fill-rule="evenodd" clip-rule="evenodd" d="M95.7504 167.956C93.5452 167.09 91.0811 165.822 89.2054 164.039C89.0814 163.921 89.076 163.724 89.1945 163.6C89.3119 163.476 89.5087 163.47 89.6327 163.589C91.8543 165.7 94.924 167.066 97.3576 167.89C96.8334 167.941 96.2974 167.965 95.7515 167.956H95.7504ZM101.517 166.844C98.9049 166.085 94.8772 164.579 92.1185 161.958C91.9945 161.84 91.9891 161.643 92.1076 161.519C92.2251 161.395 92.4219 161.389 92.5458 161.508C95.4905 164.305 99.9227 165.793 102.392 166.447C102.111 166.587 101.818 166.719 101.517 166.844ZM105.783 164.034C104.122 163.682 97.985 162.18 94.2161 158.599C94.0921 158.481 94.0867 158.284 94.2052 158.16C94.3237 158.036 94.5195 158.03 94.6434 158.149C98.6755 161.98 105.499 163.355 106.249 163.497C106.11 163.674 105.956 163.855 105.784 164.034H105.783Z" fill="#CF6E8D"/>
<path fill-rule="evenodd" clip-rule="evenodd" d="M51.4445 105.858H83.9609L77.3909 124.635L96.1952 144.781C97.6164 146.062 81.1033 163.604 78.549 163.917L66.8997 154.343C66.8997 154.343 45.69 141.212 44.694 131.027C44.1786 125.749 47.5419 114.089 51.4435 105.857L51.4445 105.858Z" fill="#4481EE"/>
<path fill-rule="evenodd" clip-rule="evenodd" d="M77.133 123.87L72.1223 118.65C71.9646 118.486 71.7026 118.481 71.5384 118.638C71.3742 118.796 71.3688 119.059 71.5264 119.223L76.996 124.92L96.2625 145.018C96.4202 145.182 96.6822 145.188 96.8464 145.03C97.0106 144.872 97.0161 144.61 96.8584 144.446L77.7703 124.533L84.287 106.617C84.3653 106.402 84.2544 106.165 84.0402 106.086C83.826 106.008 83.5889 106.119 83.5106 106.334L77.133 123.868V123.87Z" fill="#0A3073"/>
<path fill-rule="evenodd" clip-rule="evenodd" d="M78.6893 163.675L65.92 153.406C65.7873 153.299 65.5916 153.32 65.485 153.454C65.3784 153.586 65.3991 153.782 65.5329 153.889L78.3021 164.158C78.4348 164.265 78.6305 164.244 78.7371 164.111C78.8437 163.978 78.823 163.782 78.6893 163.675Z" fill="#0A3073"/>
<path fill-rule="evenodd" clip-rule="evenodd" d="M125.448 42.15C125.448 42.15 124.879 50.5528 122.204 55.4889L120.037 43.245L125.448 42.15Z" fill="#612705"/>
<path fill-rule="evenodd" clip-rule="evenodd" d="M95.238 57.9281C95.238 57.9281 92.937 53.3904 89.4998 55.6446C86.3996 57.6778 88.2678 64.9639 94.7062 62.8294C94.7062 62.8294 96.7168 69.7008 102.097 72.6037C108.934 76.2924 119.861 73.1229 122.16 68.854C126.029 61.6691 120.531 43.245 120.531 43.245H95.238V57.9281Z" fill="#FCBDD1"/>
<path fill-rule="evenodd" clip-rule="evenodd" d="M120.688 43.7947H95.6914L96.3906 60.375C96.3906 60.375 98.5262 51.9602 98.7111 50.6312C98.7111 50.6312 115.535 51.4377 118.544 49.7321C121.839 47.8644 119.588 46.3297 119.588 46.3297L121.41 46.5626C121.108 45.3207 120.846 44.3563 120.69 43.7947H120.688Z" fill="#EE86A0"/>
<path fill-rule="evenodd" clip-rule="evenodd" d="M93.3441 59.8884C93.3441 59.8884 93.2484 58.9937 92.5286 58.5725C92.1382 58.3439 91.5543 58.2372 90.68 58.5464C90.5104 58.6062 90.4212 58.7934 90.481 58.9632C90.5408 59.133 90.7278 59.2223 90.8975 59.1624C91.5129 58.9447 91.924 58.9752 92.1991 59.1363C92.6438 59.3964 92.6949 59.9548 92.6949 59.9548C92.7134 60.1344 92.8733 60.265 93.0527 60.2465C93.2321 60.228 93.3626 60.068 93.3441 59.8884Z" fill="#D26185"/>
<path fill-rule="evenodd" clip-rule="evenodd" d="M95.2384 57.9284L96.3878 60.4612C96.3878 60.4612 97.6209 50.6891 97.5872 49.592C97.5872 49.592 112.37 50.8372 116.349 49.592C121.608 47.9462 119.2 46.122 116.349 45.556C116.349 45.556 125.808 47.6426 129.169 43.2463C134.118 36.7712 128.662 33.7192 124.681 34.9273C124.681 34.9273 128.78 33.5287 129.169 29.6745C129.696 24.4521 118.36 22.2251 111.252 28.3662C111.252 28.3662 115.651 23.9852 112.438 22.125C109.003 20.1364 90.8236 22.5103 90.7888 33.2555C90.7888 33.2555 87.768 33.2457 85.8237 36.9845C83.7272 41.015 88.1257 57.8032 88.1257 57.8032C88.1257 57.8032 88.9054 54.7392 91.9033 55.2454C93.9411 55.5893 95.2384 57.9295 95.2384 57.9295V57.9284Z" fill="#803A0F"/>
<path fill-rule="evenodd" clip-rule="evenodd" d="M85.83 46.74C85.8865 44.7492 86.4346 35.0555 91.753 34.1684C91.753 34.1684 93.8126 25.6263 102.774 23.7803C108.47 22.6069 112.782 22.8562 113.046 25.9463C113.747 24.6173 114.046 23.0543 112.436 22.1237C109.001 20.1351 90.8222 22.509 90.7874 33.2541C90.7874 33.2541 87.7666 33.2443 85.8224 36.9831C84.9329 38.692 85.2123 42.6964 85.8289 46.7411L85.83 46.74ZM126.015 34.6811C129.159 34.4601 132.41 36.6218 130.637 40.8014C129.992 37.2966 126.938 35.2329 126.015 34.6811ZM114.885 26.053C121.654 23.0031 129.612 25.278 129.168 29.672C128.99 31.4375 128.033 32.6881 127.048 33.5252C127.531 32.3224 127.587 29.5959 126.014 28.0601C123.399 25.5076 116.725 25.9169 114.884 26.053H114.885Z" fill="#A2581B"/>
<path fill-rule="evenodd" clip-rule="evenodd" d="M129.542 42.7334C129.425 42.901 129.3 43.0719 129.168 43.245C126.053 47.3212 117.695 45.8246 116.493 45.5851C116.445 45.5754 116.396 45.5645 116.349 45.5547C116.349 45.5547 116.399 45.5656 116.493 45.5851C119.28 46.1827 121.518 47.9732 116.349 49.5906C112.37 50.8358 97.5867 49.5906 97.5867 49.5906C97.6204 50.6878 96.3873 60.4599 96.3873 60.4599L95.2379 57.927C95.2379 57.927 93.9407 55.5869 91.9029 55.2429C88.9049 54.7368 88.1253 57.8008 88.1253 57.8008C88.1253 57.8008 87.3978 55.0242 86.6758 51.4573C89.1757 51.3409 93.2926 51.4301 95.2379 53.0377C95.2379 53.0377 95.6425 49.8029 95.2379 46.1653C95.2379 46.1653 113.134 50.2764 117.712 48.0722C119.499 47.2124 116.868 45.2173 110.106 43.9405C110.106 43.9405 123.391 45.8126 129.542 42.7334Z" fill="#6E2B08"/>
<path d="M106.525 59.9211C107.073 59.9211 107.517 59.1828 107.517 58.2721C107.517 57.3614 107.073 56.6231 106.525 56.6231C105.978 56.6231 105.534 57.3614 105.534 58.2721C105.534 59.1828 105.978 59.9211 106.525 59.9211Z" fill="#53250E"/>
<path d="M116.653 59.6969C117.201 59.6969 117.645 58.9586 117.645 58.0479C117.645 57.1372 117.201 56.3989 116.653 56.3989C116.106 56.3989 115.662 57.1372 115.662 58.0479C115.662 58.9586 116.106 59.6969 116.653 59.6969Z" fill="#53250E"/>
<path fill-rule="evenodd" clip-rule="evenodd" d="M120.376 54.6127C118.658 52.967 116.274 51.8132 113.033 53.5798C112.796 53.7093 112.708 54.0065 112.838 54.2437C112.967 54.481 113.264 54.5692 113.501 54.4397C116.236 52.9474 118.248 53.9303 119.698 55.3202C119.893 55.5074 120.204 55.5009 120.389 55.305C120.577 55.1101 120.57 54.7988 120.374 54.6127H120.376Z" fill="#D17219"/>
<path fill-rule="evenodd" clip-rule="evenodd" d="M102.473 55.8394C104.039 53.9597 106.926 52.979 109.656 54.468C109.893 54.5975 110.191 54.5093 110.319 54.272C110.449 54.0348 110.361 53.7365 110.124 53.6081C106.929 51.8655 103.551 53.0138 101.72 55.2125C101.547 55.4203 101.576 55.7295 101.782 55.9025C101.99 56.0756 102.299 56.0473 102.472 55.8405L102.473 55.8394Z" fill="#D17219"/>
<path fill-rule="evenodd" clip-rule="evenodd" d="M108.599 68.2814C108.599 68.2814 110.148 70.7348 113.398 69.5582C113.596 69.4863 113.698 69.2676 113.626 69.0706C113.554 68.8725 113.336 68.7701 113.139 68.842C110.509 69.7944 109.24 67.8689 109.24 67.8689C109.125 67.6926 108.891 67.6414 108.713 67.7546C108.537 67.8689 108.486 68.104 108.599 68.2814Z" fill="#E82E2E"/>
<path fill-rule="evenodd" clip-rule="evenodd" d="M112.441 59.046C112.441 59.046 113.631 61.0999 114.398 62.6193C114.668 63.1549 114.888 63.6164 114.968 63.8819C114.59 64.682 113.557 64.6069 113.557 64.6069C113.348 64.5949 113.168 64.756 113.156 64.966C113.144 65.1761 113.305 65.3557 113.515 65.3677C113.515 65.3677 115.208 65.4428 115.724 64.0452C115.747 63.981 115.753 63.9113 115.741 63.8439C115.691 63.5728 115.43 62.9753 115.077 62.2754C114.301 60.7385 113.097 58.6628 113.097 58.6628C112.992 58.4811 112.759 58.419 112.578 58.5246C112.396 58.6302 112.334 58.8631 112.44 59.0449L112.441 59.046Z" fill="#DF5E87"/>
<path d="M214.447 156.104H192.782V184.075H214.447V156.104Z" fill="#F4A22F"/>
<path fill-rule="evenodd" clip-rule="evenodd" d="M209.658 182.777V159.417H192.782V156.104H214.447V184.075H192.782V182.777H209.658Z" fill="#D6770A"/>
<path d="M192.781 156.104H161.31V184.075H192.781V156.104Z" fill="#FFC35C"/>
<path d="M189.881 162.383H165.042V180.238H189.881V162.383Z" fill="#FFD786"/>
<path fill-rule="evenodd" clip-rule="evenodd" d="M161.31 182.777H192.781V184.075H161.31V182.777ZM161.31 156.104H192.781V159.871H161.31V156.104Z" fill="#F9A52F"/>
<path d="M215.852 150.89H194.973V156.363H215.852V150.89Z" fill="#F9A939"/>
<path d="M194.973 150.89H159.949V156.425H194.973V150.89Z" fill="#FFC86B"/>
<path fill-rule="evenodd" clip-rule="evenodd" d="M161.309 156.689H214.446C214.626 156.689 214.772 156.544 214.772 156.363C214.772 156.182 214.626 156.036 214.446 156.036H161.309C161.129 156.036 160.983 156.182 160.983 156.363C160.983 156.544 161.129 156.689 161.309 156.689Z" fill="#814806"/>
<path d="M214.165 190.333H188.154V223.914H214.165V190.333Z" fill="#F4A22F"/>
<path fill-rule="evenodd" clip-rule="evenodd" d="M214.164 190.333V223.914H208.415V194.311H188.154V190.333H214.165H214.164Z" fill="#D6770A"/>
<path d="M188.154 190.333H150.369V223.914H188.154V190.333Z" fill="#FFC35C"/>
<path d="M184.671 199.348H154.849V220.784H184.671V199.348Z" fill="#FFD786"/>
<path d="M188.154 190.333H150.369V194.856H188.154V190.333Z" fill="#F9A52F"/>
<path d="M215.852 184.074H190.786V190.644H215.852V184.074Z" fill="#F9A939"/>
<path d="M190.784 184.074H148.735V190.719H190.784V184.074Z" fill="#FFC86B"/>
<path fill-rule="evenodd" clip-rule="evenodd" d="M150.369 190.971H214.165C214.345 190.971 214.491 190.825 214.491 190.645C214.491 190.464 214.345 190.318 214.165 190.318H150.369C150.189 190.318 150.043 190.464 150.043 190.645C150.043 190.825 150.189 190.971 150.369 190.971Z" fill="#814806"/>
</svg>
