<svg width="54" height="54" viewBox="0 0 54 54" fill="none" xmlns="http://www.w3.org/2000/svg">
<g clip-path="url(#clip0_186_9019)">
<path d="M17.2052 24.7303C16.7469 24.7303 16.3752 24.3587 16.3752 23.9003V22.2404C16.3752 21.782 16.7469 21.4104 17.2052 21.4104C17.6636 21.4104 18.0352 21.782 18.0352 22.2404V23.9003C18.0352 24.3587 17.6636 24.7303 17.2052 24.7303Z" fill="#66334D"/>
<path d="M32.9746 22.2404V23.9003C32.9746 24.3585 32.6028 24.7303 32.1447 24.7303H22.185C21.7268 24.7303 21.355 24.3585 21.355 23.9003V22.2404C21.355 20.8676 22.4721 19.7505 23.8449 19.7505H30.4847C31.8575 19.7505 32.9746 20.8676 32.9746 22.2404Z" fill="#66334D"/>
<path d="M32.9746 22.2404V23.9003C32.9746 24.3585 32.6028 24.7303 32.1446 24.7303H27.1648V19.7505H30.4847C31.8575 19.7505 32.9746 20.8676 32.9746 22.2404Z" fill="#66334D"/>
<path d="M32.9746 22.2404V23.9003C32.9746 24.3585 32.6028 24.7303 32.1446 24.7303H27.1648V19.7505H30.4847C31.8575 19.7505 32.9746 20.8676 32.9746 22.2404Z" fill="#4D2739"/>
<path d="M41.3298 25.5603V32.2001L27.1649 33.5281L13 32.2001V25.5603C13 24.1875 14.1171 23.0704 15.4899 23.0704H38.8399C40.2127 23.0704 41.3298 24.1875 41.3298 25.5603Z" fill="#8C466A"/>
<path d="M41.3297 25.5603V32.2001L27.1648 33.5281V23.0704H38.8398C40.2126 23.0704 41.3297 24.1875 41.3297 25.5603Z" fill="#66334D"/>
<path d="M41.3298 32.2001V38.8399C41.3298 40.2127 40.2127 41.3298 38.8399 41.3298H15.4899C14.1171 41.3298 13 40.2127 13 38.8399V32.2001H41.3298Z" fill="#FF8FB8"/>
<path d="M41.3297 32.2001V38.8399C41.3297 40.2127 40.2126 41.3298 38.8398 41.3298H27.1648V32.2001H41.3297Z" fill="#FF5F96"/>
<path d="M27.1648 26.3903C23.9611 26.3903 21.355 28.9964 21.355 32.2001C21.355 35.3977 23.9561 38.0099 27.1648 38.0099C30.3751 38.0099 32.9746 35.3966 32.9746 32.2001C32.9746 28.9964 30.3685 26.3903 27.1648 26.3903Z" fill="#FFF2FB"/>
<path d="M32.9746 32.2001C32.9746 35.3966 30.3751 38.0099 27.1648 38.0099V26.3903C30.3685 26.3903 32.9746 28.9964 32.9746 32.2001Z" fill="#FFDFEA"/>
<path d="M27.165 29.7101C25.7922 29.7101 24.675 30.8273 24.675 32.2001C24.675 33.5695 25.7889 34.69 27.165 34.69C28.54 34.69 29.6549 33.5706 29.6549 32.2001C29.6549 30.8273 28.5378 29.7101 27.165 29.7101Z" fill="#FFDFEA"/>
<path d="M29.6547 32.2001C29.6547 33.5707 28.5398 34.69 27.1648 34.69V29.7102C28.5376 29.7102 29.6547 30.8273 29.6547 32.2001Z" fill="#FFBFBF"/>
<path d="M17.2052 28.0502C17.6636 28.0502 18.0352 27.6786 18.0352 27.2202C18.0352 26.7619 17.6636 26.3903 17.2052 26.3903C16.7468 26.3903 16.3752 26.7619 16.3752 27.2202C16.3752 27.6786 16.7468 28.0502 17.2052 28.0502Z" fill="white"/>
<path d="M37.1247 28.0502H35.4647C35.0064 28.0502 34.6348 27.6786 34.6348 27.2202C34.6348 26.7619 35.0064 26.3903 35.4647 26.3903H37.1247C37.5831 26.3903 37.9547 26.7619 37.9547 27.2202C37.9547 27.6786 37.5831 28.0502 37.1247 28.0502Z" fill="white"/>
<path d="M27.9949 13.83V15.4899C27.9949 15.9481 27.6231 16.3199 27.1649 16.3199C26.7068 16.3199 26.335 15.9481 26.335 15.4899V13.83C26.335 13.3718 26.7068 13 27.1649 13C27.6231 13 27.9949 13.3718 27.9949 13.83Z" fill="#FFE580"/>
<path d="M27.9948 13.83V15.4899C27.9948 15.9481 27.6229 16.3199 27.1648 16.3199V13C27.6229 13 27.9948 13.3718 27.9948 13.83Z" fill="#FFCC66"/>
<path d="M29.311 17.4936C28.9868 17.1695 28.9868 16.644 29.311 16.3199L30.4847 15.1461C30.8088 14.822 31.3343 14.822 31.6585 15.1461C31.9826 15.4703 31.9826 15.9958 31.6585 16.3199L30.4847 17.4936C30.1606 17.8178 29.6351 17.8178 29.311 17.4936Z" fill="#FFCC66"/>
<path d="M23.845 17.4936L22.6713 16.3199C22.3472 15.9958 22.3472 15.4703 22.6713 15.1461C22.9954 14.822 23.5208 14.822 23.845 15.1461L25.0188 16.3199C25.3429 16.644 25.3429 17.1695 25.0188 17.4936C24.6947 17.8177 24.1692 17.8178 23.845 17.4936Z" fill="#FFE580"/>
</g>
<circle cx="27" cy="27" r="26.5" stroke="#09051C" stroke-opacity="0.4" stroke-dasharray="2 2"/>
<defs>
<clipPath id="clip0_186_9019">
<rect width="28.3298" height="28.3298" fill="white" transform="translate(13 13)"/>
</clipPath>
</defs>
</svg>
