<svg width="34" height="18" viewBox="0 0 34 18" fill="none" xmlns="http://www.w3.org/2000/svg">
<path d="M0.27409 17.711C0.27409 17.711 0.271351 17.711 0.269524 17.711C0.117886 17.7082 -0.00269464 17.5831 4.5801e-05 17.4303C0.0603356 13.7207 0.833142 10.567 2.29654 8.0556C3.57359 5.86445 5.32747 4.22178 7.51069 3.17361C10.8595 1.56591 14.4422 1.72695 16.9899 2.77881C17.2183 2.59936 17.4603 2.42451 17.7134 2.25334C21.2321 -0.115412 25.0979 -0.645484 28.3189 0.800248C31.3882 2.17788 33.4572 5.12456 33.9971 8.88567C34.019 9.03659 33.9149 9.17648 33.765 9.19856C33.6161 9.22065 33.4764 9.11574 33.4545 8.96482C32.942 5.39512 30.989 2.60304 28.096 1.30455C25.0495 -0.0620385 21.3764 0.450547 18.0175 2.71163C17.8595 2.81838 17.7061 2.92605 17.559 3.03648C18.0404 3.27575 18.4752 3.54815 18.8534 3.84723C20.357 5.03437 20.9973 6.6025 20.6566 8.26173C20.0519 11.2093 18.3829 11.6253 17.6933 11.6676C16.26 11.7541 14.8313 10.6645 14.2997 9.07524C13.6438 7.11233 14.4641 4.97732 16.5076 3.17821C14.1124 2.27635 10.8303 2.19076 7.74454 3.67239C5.66272 4.67179 3.98739 6.24084 2.76698 8.33536C1.352 10.7639 0.604774 13.8266 0.546311 17.4404C0.543571 17.5914 0.422078 17.7119 0.272267 17.7119L0.27409 17.711ZM17.0785 3.41471C15.057 5.09879 14.2184 7.09484 14.8213 8.89856C15.2753 10.2559 16.4701 11.1891 17.6622 11.1164C18.8534 11.0437 19.7504 9.96238 20.1213 8.15038C20.4173 6.70649 19.8473 5.33346 18.5163 4.28252C18.1043 3.95675 17.6193 3.6641 17.0785 3.41563V3.41471Z" fill="white"/>
</svg>
