<svg width="73" height="77" viewBox="0 0 73 77" fill="none" xmlns="http://www.w3.org/2000/svg">
<path d="M43.3036 41.4692C43.3036 44.849 40.2224 47.5947 36.4143 47.5947C32.6131 47.5947 29.5251 44.8551 29.5251 41.4692V6.12557C29.5251 2.74573 32.6062 0 36.4143 0C40.2155 0 43.3036 2.73957 43.3036 6.12557V41.4692Z" fill="#FF5E5B"/>
<path d="M43.3036 41.4692V6.12557C43.3036 2.74573 40.2225 0 36.4144 0V47.5947C40.2156 47.5947 43.3036 44.8551 43.3036 41.4692Z" fill="#E72D41"/>
<path d="M50.3471 74.5275C68.9229 67.6861 77.744 48.7506 70.0497 32.234C62.3553 15.7173 41.0592 7.87398 22.4833 14.7154C3.90753 21.5568 -4.91364 40.4923 2.78071 57.0089C10.4751 73.5256 31.7713 81.3689 50.3471 74.5275Z" fill="#C33432"/>
<path d="M59.7686 26.3001C55.1365 22.1815 48.7388 19.6389 41.6765 19.6389C34.6141 19.6389 28.2165 22.1877 23.5844 26.3001L41.6765 42.3866L59.7686 26.3001Z" fill="#FF5E5B"/>
<path d="M59.7685 58.4732C64.4006 54.3546 67.2601 48.6662 67.2601 42.3867C67.2601 36.1072 64.3937 30.4188 59.7685 26.3002L41.6764 42.3867L59.7685 58.4732Z" fill="#E72D41"/>
<path d="M41.6696 65.1403C48.732 65.1403 55.1296 62.5916 59.7617 58.4791L41.6696 42.3926L23.5775 58.4791C28.2096 62.5977 34.6073 65.1403 41.6696 65.1403Z" fill="#FF3F3C"/>
<path d="M23.5775 26.3002C18.9455 30.4188 16.0859 36.1072 16.0859 42.3867C16.0859 48.6662 18.9524 54.3546 23.5775 58.4732L41.6696 42.3867L23.5775 26.3002Z" fill="#E72D41"/>
<path d="M18.0107 27.7897C18.0107 29.7105 16.259 31.268 14.0987 31.268C11.9385 31.268 10.1868 29.7105 10.1868 27.7897C10.1868 25.8689 11.9385 24.3114 14.0987 24.3114C16.259 24.3114 18.0107 25.8689 18.0107 27.7897Z" fill="white"/>
<path d="M13.0394 38.0399C13.0394 40.1761 11.0938 41.9061 8.69118 41.9061C6.2886 41.9061 4.34299 40.1761 4.34299 38.0399C4.34299 35.9036 6.2886 34.1737 8.69118 34.1737C11.0938 34.1737 13.0394 35.9036 13.0394 38.0399Z" fill="#FF5E5B"/>
<path d="M41.6696 25.5735C40.7211 25.5735 39.9456 26.2568 39.9456 27.1064V30.6278C39.9456 31.4713 40.7141 32.1608 41.6696 32.1608C42.6251 32.1608 43.3937 31.4774 43.3937 30.6278V27.1064C43.3937 26.263 42.6251 25.5735 41.6696 25.5735Z" fill="#834328"/>
<path d="M41.6696 52.4768C40.7211 52.4768 39.9456 53.1602 39.9456 54.0098V57.5312C39.9456 58.3746 40.7141 59.0641 41.6696 59.0641C42.6251 59.0641 43.3937 58.3808 43.3937 57.5312V54.0098C43.3937 53.1663 42.6251 52.4768 41.6696 52.4768Z" fill="#834328"/>
<path d="M28.5557 38.2864C29.2273 38.8836 30.3144 38.8836 30.986 38.2864C31.6576 37.6893 31.6576 36.7227 30.986 36.1256L28.1887 33.6384C27.5171 33.0412 26.4301 33.0412 25.7585 33.6384C25.0868 34.2356 25.0868 35.2021 25.7585 35.7993L28.5557 38.2864Z" fill="#834328"/>
<path d="M34.261 28.2391C33.5894 27.642 32.5023 27.642 31.8307 28.2391C31.1591 28.8363 31.1591 29.8028 31.8307 30.4L34.628 32.8872C35.2996 33.4843 36.3866 33.4843 37.0582 32.8872C37.7299 32.29 37.7299 31.3235 37.0582 30.7263L34.261 28.2391Z" fill="#834328"/>
<path d="M48.7181 51.8917C48.0464 51.2945 46.9594 51.2945 46.2878 51.8917C45.6162 52.4888 45.6162 53.4554 46.2878 54.0526L49.085 56.5397C49.7566 57.1369 50.8437 57.1369 51.5153 56.5397C52.1869 55.9426 52.1869 54.976 51.5153 54.3788L48.7181 51.8917Z" fill="#834328"/>
<path d="M54.7903 46.4924C54.1187 45.8953 53.0317 45.8953 52.36 46.4924C51.6884 47.0896 51.6884 48.0562 52.36 48.6533L55.1573 51.1405C55.8289 51.7377 56.9159 51.7377 57.5876 51.1405C58.2592 50.5433 58.2592 49.5768 57.5876 48.9796L54.7903 46.4924Z" fill="#834328"/>
<path d="M48.7181 32.8813L51.5153 30.3941C52.1869 29.7969 52.1869 28.8304 51.5153 28.2332C50.8437 27.6361 49.7566 27.6361 49.085 28.2332L46.2878 30.7204C45.6162 31.3176 45.6162 32.2841 46.2878 32.8813C46.9594 33.4784 48.0464 33.4784 48.7181 32.8813Z" fill="#834328"/>
<path d="M52.36 38.2864C53.0317 38.8836 54.1187 38.8836 54.7903 38.2864L57.5876 35.7993C58.2592 35.2021 58.2592 34.2356 57.5876 33.6384C56.9159 33.0412 55.8289 33.0412 55.1573 33.6384L52.36 36.1256C51.6884 36.7227 51.6884 37.6893 52.36 38.2864Z" fill="#834328"/>
<path d="M30.986 46.4924C30.3144 45.8953 29.2273 45.8953 28.5557 46.4924L25.7585 48.9796C25.0868 49.5768 25.0868 50.5433 25.7585 51.1405C26.4301 51.7377 27.5171 51.7377 28.1887 51.1405L30.986 48.6533C31.6576 48.0562 31.6576 47.0896 30.986 46.4924Z" fill="#834328"/>
<path d="M34.628 51.8917L31.8307 54.3788C31.1591 54.976 31.1591 55.9426 31.8307 56.5397C32.5023 57.1369 33.5894 57.1369 34.261 56.5397L37.0582 54.0526C37.7299 53.4554 37.7299 52.4888 37.0582 51.8917C36.3866 51.2945 35.2996 51.2945 34.628 51.8917Z" fill="#834328"/>
<path d="M58.7854 40.786H54.8249C53.8764 40.786 53.1009 41.4693 53.1009 42.3189C53.1009 43.1685 53.8694 43.8518 54.8249 43.8518H58.7854C59.7339 43.8518 60.5094 43.1685 60.5094 42.3189C60.5094 41.4693 59.7409 40.786 58.7854 40.786Z" fill="#834328"/>
<path d="M30.2383 42.3124C30.2383 41.4689 29.4697 40.7794 28.5142 40.7794H24.5538C23.6052 40.7794 22.8297 41.4628 22.8297 42.3124C22.8297 43.1619 23.5983 43.8453 24.5538 43.8453H28.5142C29.4628 43.8453 30.2383 43.1619 30.2383 42.3124Z" fill="#834328"/>
</svg>
