<svg width="357" height="236" viewBox="0 0 357 236" fill="none" xmlns="http://www.w3.org/2000/svg">
<path fill-rule="evenodd" clip-rule="evenodd" d="M20.9365 235.999C20.9365 235.999 -22.7372 182.516 16.0714 138.82C39.3859 112.569 55.1368 122.964 67.8115 100.951C79.7386 80.2368 61.6722 52.0015 82.6994 24.6585C107.89 -8.09921 153.998 -4.24824 177.051 13.247C205.451 34.8 205.473 55.7752 225.775 65.3379C244.293 74.0605 263.558 50.6054 287.882 53.1147C333.645 57.8351 348.275 98.5264 333.884 129.452C315.862 168.179 390.094 179.616 338.19 235.898L20.9365 236V235.999Z" fill="#E9EFFC"/>
<g clip-path="url(#clip0_113_3800)">
<path d="M193.525 71.0268C193.525 112.095 252.991 207.901 252.991 207.901C252.991 207.901 312.458 111.447 312.458 71.0268C312.458 38.2264 285.834 9.96148 252.991 9.96148C220.148 9.96148 193.525 38.2264 193.525 71.0268Z" fill="#337544"/>
<path d="M253.887 107.813C273.741 107.813 289.836 91.7383 289.836 71.9089C289.836 52.0795 273.741 36.0046 253.887 36.0046C234.033 36.0046 217.938 52.0795 217.938 71.9089C217.938 91.7383 234.033 107.813 253.887 107.813Z" fill="#EEEEEE"/>
<path d="M244.207 40.2612C245.591 42.677 246.565 45.4568 248.551 49.7878C248.378 52.7252 243.552 55.5267 239.703 54.3731C238.486 47.4343 237.457 47.7107 236.199 43.3847C236.144 43.1961 241.544 41.8271 244.207 40.2612Z" fill="#F2A19C"/>
<path d="M250.001 31.9546C251.781 36.2601 253.451 38.7408 249.846 42.2019C246.563 45.3543 239.614 50.4679 235.602 47.681C233.167 45.9904 233.097 45.2702 231.422 42.7874C230.937 42.0676 228.708 42.7398 229.454 40.2595C230.595 36.4584 230.334 33.7703 230.86 31.7894C231.865 28.0134 233.854 25.227 237.809 24.6494C244.015 23.7447 247.372 25.5946 250.001 31.9546Z" fill="url(#paint0_linear_113_3800)"/>
<path d="M234.858 34.5265C237.213 34.3086 237.489 34.9828 239.45 36.9143C241.41 38.8458 243.146 38.1461 246.037 37.7433C248.929 37.3405 248.755 40.1863 247.575 41.0617C246.396 41.9371 244.994 42.3583 245.541 43.5633C246.088 44.7683 250.728 46.1055 254.229 38.5116C260.251 25.452 252.806 25.0371 247.453 24.4904C241.493 23.881 238.768 23.49 238.768 23.49L225.513 21.9106C225.226 23.6203 225.3 25.3712 225.731 27.0505C226.163 28.7298 226.941 30.3003 228.016 31.661C228.839 32.6562 229.892 33.4369 231.084 33.936C232.276 34.4352 233.571 34.6378 234.858 34.5265Z" fill="url(#paint1_linear_113_3800)"/>
<path d="M239.579 53.686L248.524 49.7305C252.523 51.9102 256.104 54.7801 259.101 58.2073C260.763 60.097 262.282 62.1083 263.643 64.2243C269.889 73.9329 268.47 77.6813 271.876 83.4164C271.883 83.4291 271.89 83.4414 271.898 83.4532C275.298 89.1749 279.106 92.0091 277.575 98.9182C273.915 102.355 266.17 107.813 253.331 107.813C235.77 107.813 226.828 95.2777 225.285 93.5679C242.824 81.3561 239.579 53.686 239.579 53.686Z" fill="url(#paint2_linear_113_3800)"/>
<path d="M234.77 44.0389C234.726 44.3943 234.585 44.7311 234.364 45.0129C234.142 45.2947 233.848 45.511 233.513 45.6385C233.178 45.7661 232.815 45.8 232.461 45.7368C232.108 45.6735 231.779 45.5154 231.51 45.2794C231.282 45.0832 231.546 44.6918 231.777 44.8909C231.977 45.0804 232.227 45.2111 232.497 45.2685C232.767 45.326 233.048 45.308 233.308 45.2165C233.569 45.125 233.799 44.9636 233.974 44.7499C234.149 44.5363 234.261 44.2787 234.299 44.0054C234.345 43.7068 234.816 43.7398 234.77 44.0389Z" fill="#1C2868"/>
<path d="M220.157 94.4374C220.157 94.4374 205.799 97.3359 202.037 97.3359C200.31 97.3359 197.787 95.5261 195.504 94.9138C191.279 93.7799 187.137 92.5159 186.668 94.043C186.109 95.8528 191.607 96.4107 191.28 97.7508C190.489 100.999 177.975 97.1322 177.331 100.024C176.27 104.784 185.931 108.031 190.245 107.582C195.581 107.026 199.66 103.685 202.45 103.976C208.96 104.969 215.563 105.212 222.128 104.699L220.157 94.4374Z" fill="#FFBEB6"/>
<path d="M239.579 53.6859C239.579 53.6859 240.899 83.0839 225.284 86.3341C216.443 88.1745 206.574 89.5547 206.574 89.5547L211.184 112.484C211.184 112.484 221.045 114.118 228.208 108.708C236.198 102.672 239.842 103.016 243.767 102.016C253.055 100.441 258.329 93.59 259.393 86.7306C260.67 78.486 256.545 62.5308 248.524 49.7297L239.579 53.6859Z" fill="#23286B"/>
</g>
<g clip-path="url(#clip1_113_3800)">
<path d="M70.1929 60.963L56.1776 45.8881L68.7195 37.605L84.9411 50.0378L70.1929 60.963Z" fill="#D62929"/>
<path d="M83.044 16.5958C83.044 16.5958 68.0089 10.2773 52.4357 26.002" stroke="#1D225E" stroke-width="5.48877" stroke-miterlimit="10" stroke-linecap="round"/>
<path d="M68.5125 40.4877L84.0205 50.038L60.7762 87.7179L45.2681 78.1676L68.5125 40.4877Z" fill="#E94A47"/>
<path d="M85.0608 16.1217C85.0608 16.1217 67.471 10.1601 53.3573 27.9377L61.1622 37.7532C61.1622 37.7532 75.1419 17.9189 85.6698 19.4994" fill="url(#paint3_linear_113_3800)"/>
<path d="M147.569 90.7554C147.256 89.3536 151.658 86.5136 150.423 85.5709C149.407 84.7959 140.355 90.7667 136.937 91.2487C129.497 92.2986 119.043 88.4958 119.043 88.4958L116.514 100.433C120.403 100.952 131.894 96.5592 138.031 95.5834C140.672 95.6914 142.253 98.9121 147.521 99.562C152.002 100.115 160.973 98.2911 161.015 94.4444C161.056 90.5976 148.329 94.1548 147.569 90.7554Z" fill="url(#paint4_linear_113_3800)"/>
<path d="M97.3002 39.9358C97.3002 39.9358 97.2583 50.8258 103.025 63.9888C106.814 72.638 114.085 76.5375 119.081 79.3921C122.964 81.6099 125.653 81.7446 125.653 81.7446L125.025 110.167C125.025 110.167 122.158 110.326 121.284 110.016C114.16 107.485 111.933 103.515 107.843 101.832C102.669 99.7021 91.9391 101.524 87.1123 86.5693C82.2856 71.6149 83.0156 58.7745 89.3391 37.9042" fill="#89B3F4"/>
<path d="M96.8424 214.74L90.6809 231.913H134.18C134.18 231.913 131.949 227.615 124.514 224.431C117.079 221.248 110.139 214.739 110.139 214.739H96.8424" fill="#12275B"/>
<path d="M62.6076 214.733L56.4462 231.906H99.9445C99.9445 231.906 97.7144 227.607 90.2806 224.424C82.8468 221.24 75.9043 214.733 75.9043 214.733H62.6076Z" fill="#12275B"/>
<path d="M110.98 148.501C110.233 138.899 107.718 130.155 106.177 121.388C105.964 120.179 105.681 118.986 105.522 117.768C104.762 111.935 102.292 93.0983 101.783 90.5554L90.4417 91.8718L85.0006 92.7288C85.0006 92.7288 81.1422 93.4677 78.2608 94.9859C77.1476 100.465 76.8892 107.266 78.7081 115.239C83.9511 138.226 84.3586 134.998 83.552 151.129C82.7454 167.261 85.3671 161.816 86.1733 178.752C86.9795 195.687 78.0041 192.782 86.4916 214.659L110.138 214.743C110.138 214.743 112.112 163.055 110.98 148.501Z" fill="#0E1D48"/>
<path d="M102.102 124.806C102.102 124.806 102.392 93.2686 103.501 89.3105L70.8619 91.2224L68.9831 94.8532C68.6184 94.7791 69.3182 94.9277 68.9831 94.8532C66.2445 105.049 66.5927 115.827 69.9837 125.825C78.348 150.905 73.2466 150.787 69.8898 157.307C66.2006 164.473 66.1889 171.942 64.6452 177.975C62.9632 184.549 58.3597 186.784 54.9389 197.485C53.1778 203.112 52.0562 208.918 51.5956 214.795L75.9051 214.73C75.9051 214.73 99.1454 162.188 100.26 151.234C101.265 141.366 101.265 137.519 102.102 124.806Z" fill="#183167"/>
<path opacity="0.86" d="M80.797 102.349C80.8203 102.359 80.8466 102.359 80.8701 102.35C80.8936 102.34 80.9125 102.322 80.9226 102.299C80.9328 102.275 80.9331 102.248 80.9235 102.224C80.9138 102.2 80.895 102.18 80.8711 102.17C80.8477 102.16 80.8215 102.16 80.798 102.169C80.7744 102.179 80.7556 102.197 80.7455 102.22C80.7353 102.244 80.7351 102.271 80.7447 102.295C80.7544 102.319 80.7731 102.339 80.797 102.349ZM80.3028 99.7026C80.3276 99.7125 80.3552 99.7126 80.3801 99.7029C80.405 99.6932 80.4253 99.6744 80.4368 99.6502C80.4457 99.6256 80.4447 99.5984 80.4339 99.5745C80.4231 99.5506 80.4034 99.5318 80.379 99.5222C80.3682 99.5168 80.3564 99.5137 80.3443 99.5129C80.3323 99.5121 80.3202 99.5137 80.3087 99.5175C80.2973 99.5214 80.2867 99.5275 80.2777 99.5355C80.2686 99.5435 80.2612 99.5532 80.2559 99.564L80.2513 99.5753C80.2412 99.5993 80.2409 99.6262 80.2505 99.6503C80.2602 99.6745 80.2789 99.6938 80.3028 99.7042V99.7026ZM71.1494 110.577C71.1727 110.587 71.199 110.587 71.2225 110.578C71.246 110.568 71.2649 110.55 71.275 110.527C71.2821 110.515 71.2865 110.501 71.288 110.487C71.2895 110.474 71.2882 110.459 71.2839 110.446C71.2797 110.433 71.2728 110.42 71.2635 110.41C71.2542 110.4 71.2429 110.391 71.2302 110.385C71.2175 110.379 71.2037 110.376 71.1897 110.376C71.1757 110.376 71.1618 110.378 71.1489 110.384C71.136 110.389 71.1244 110.397 71.1148 110.408C71.1052 110.418 71.0979 110.43 71.0933 110.443L71.0895 110.452C71.0812 110.477 71.0827 110.503 71.0935 110.527C71.1043 110.55 71.1237 110.568 71.1477 110.578L71.1494 110.577ZM88.8648 104.795C88.8695 104.807 88.8765 104.818 88.8855 104.827C88.8945 104.837 88.9053 104.844 88.9173 104.85C88.9292 104.855 88.9421 104.858 88.9552 104.858C88.9682 104.859 88.9812 104.856 88.9934 104.852C89.0047 104.847 89.0152 104.841 89.024 104.833C89.0329 104.825 89.0401 104.815 89.0452 104.804C89.0502 104.793 89.0531 104.781 89.0535 104.769C89.054 104.757 89.052 104.745 89.0478 104.734L89.0428 104.722C89.0342 104.698 89.0165 104.679 88.9936 104.668C88.9707 104.657 88.9445 104.656 88.9205 104.664C88.8957 104.674 88.8759 104.693 88.8653 104.718C88.8548 104.742 88.8545 104.77 88.8644 104.795L88.8648 104.795ZM77.3682 98.4573C77.3837 98.475 77.4056 98.4859 77.4291 98.4876C77.4527 98.4894 77.4759 98.4818 77.4939 98.4665L77.5018 98.4589C77.5108 98.4509 77.5182 98.4411 77.5234 98.4302C77.5287 98.4193 77.5317 98.4074 77.5324 98.3953C77.533 98.3833 77.5313 98.3712 77.5273 98.3597C77.5233 98.3483 77.517 98.3378 77.5089 98.3288L77.5031 98.3229C77.4875 98.3053 77.4657 98.2945 77.4422 98.2927C77.4187 98.2909 77.3955 98.2983 77.3774 98.3133L77.3699 98.3208C77.3516 98.3372 77.3406 98.3602 77.3393 98.3847C77.3379 98.4091 77.3464 98.4331 77.3628 98.4514L77.3686 98.4573H77.3682ZM85.1957 104.671C85.1975 104.697 85.2088 104.722 85.2275 104.741C85.2462 104.759 85.2711 104.771 85.2974 104.772C85.3234 104.771 85.3477 104.759 85.3654 104.74C85.3832 104.721 85.3931 104.696 85.3931 104.671C85.3931 104.645 85.3832 104.62 85.3654 104.601C85.3477 104.582 85.3234 104.57 85.2974 104.569C85.2711 104.571 85.2464 104.582 85.2279 104.601C85.2094 104.62 85.1984 104.644 85.1969 104.671H85.1957ZM78.7632 107.328C78.7641 107.354 78.7752 107.379 78.7941 107.397C78.813 107.414 78.8382 107.424 78.8642 107.423C78.8891 107.425 78.9138 107.417 78.9327 107.401C78.9517 107.384 78.9635 107.361 78.9655 107.336V107.327C78.9647 107.301 78.9537 107.275 78.9348 107.256C78.9159 107.238 78.8905 107.227 78.8638 107.226C78.8373 107.228 78.8124 107.239 78.7938 107.258C78.7752 107.277 78.7642 107.302 78.7628 107.328H78.7632ZM67.8278 102.925C67.8432 102.943 67.8621 102.958 67.8833 102.97C67.9046 102.981 67.9279 102.988 67.9519 102.99C67.9758 102.992 68 102.99 68.023 102.983C68.046 102.975 68.0673 102.964 68.0858 102.948L68.0929 102.943C68.1297 102.91 68.1521 102.864 68.1553 102.816C68.1586 102.767 68.1423 102.718 68.1101 102.681C68.079 102.644 68.0344 102.621 67.9861 102.616C67.9377 102.612 67.8895 102.627 67.8521 102.658L67.8454 102.663C67.8086 102.696 67.7861 102.741 67.7828 102.79C67.7795 102.839 67.7957 102.888 67.8278 102.925ZM71.2281 99.9448C71.2597 99.9822 71.3048 100.006 71.3536 100.01C71.4023 100.014 71.4508 99.9985 71.4882 99.967L71.4936 99.9628C71.5123 99.9468 71.5276 99.9272 71.5387 99.9052C71.5498 99.8832 71.5565 99.8592 71.5583 99.8347C71.5601 99.8101 71.5571 99.7854 71.5494 99.762C71.5417 99.7387 71.5294 99.717 71.5133 99.6984L71.5104 99.6954C71.4793 99.6588 71.435 99.6359 71.3871 99.6319C71.3392 99.6279 71.2916 99.6431 71.2549 99.6741L71.252 99.677C71.2145 99.7101 71.1911 99.7564 71.1866 99.8062C71.1822 99.856 71.197 99.9056 71.2281 99.9448ZM81.3887 114.353C81.386 114.402 81.4028 114.451 81.4356 114.489C81.4684 114.526 81.5146 114.549 81.5642 114.553C81.6116 114.558 81.6591 114.544 81.6963 114.514C81.7334 114.484 81.7571 114.441 81.7623 114.393V114.382C81.7651 114.333 81.7482 114.284 81.7153 114.246C81.6824 114.209 81.6361 114.186 81.5864 114.182C81.5379 114.178 81.4899 114.194 81.4528 114.225C81.4157 114.257 81.3925 114.301 81.3883 114.35L81.3887 114.353ZM81.6966 109.814C81.6937 109.839 81.696 109.865 81.7033 109.889C81.7105 109.913 81.7226 109.936 81.7388 109.955C81.755 109.975 81.7749 109.991 81.7974 110.002C81.8199 110.014 81.8446 110.02 81.8698 110.022C81.895 110.024 81.9204 110.021 81.9443 110.012C81.9682 110.004 81.9902 109.991 82.0089 109.974C82.0277 109.957 82.0428 109.937 82.0534 109.914C82.064 109.891 82.0698 109.866 82.0705 109.841V109.837C82.0747 109.788 82.0595 109.74 82.0281 109.702C81.9968 109.665 81.9518 109.641 81.903 109.636C81.8527 109.635 81.8037 109.652 81.7657 109.685C81.7277 109.718 81.7036 109.764 81.6982 109.814H81.6966ZM80.3262 104.784C80.3223 104.833 80.338 104.882 80.37 104.919C80.402 104.957 80.4475 104.98 80.4967 104.984H80.5021C80.5495 104.989 80.5969 104.975 80.634 104.946C80.6712 104.916 80.695 104.872 80.7002 104.825V104.814C80.702 104.764 80.6848 104.714 80.6521 104.676C80.6193 104.638 80.5735 104.613 80.5235 104.607C80.4738 104.605 80.4251 104.622 80.388 104.655C80.3509 104.688 80.3284 104.734 80.3254 104.784L80.3262 104.784ZM82.3784 101.624C82.3771 101.672 82.3945 101.719 82.427 101.755C82.4594 101.79 82.5044 101.812 82.5525 101.815C82.6006 101.819 82.6482 101.804 82.6853 101.773C82.7224 101.742 82.7461 101.698 82.7515 101.65V101.647C82.7542 101.622 82.7518 101.597 82.7446 101.573C82.7373 101.549 82.7253 101.526 82.7093 101.507C82.6932 101.488 82.6735 101.472 82.6512 101.461C82.629 101.449 82.6046 101.442 82.5796 101.44C82.5546 101.438 82.5295 101.441 82.5058 101.449C82.482 101.457 82.4601 101.47 82.4413 101.487C82.4226 101.503 82.4073 101.523 82.3965 101.546C82.3857 101.569 82.3795 101.593 82.3784 101.618V101.624ZM72.8074 109.888C72.8502 109.911 72.9003 109.916 72.9467 109.902C72.9931 109.888 73.032 109.856 73.0549 109.813L73.0587 109.806C73.0804 109.761 73.0834 109.709 73.067 109.662C73.0507 109.615 73.0164 109.577 72.9716 109.555H72.9695C72.9263 109.532 72.8759 109.528 72.8293 109.542C72.7827 109.556 72.7437 109.588 72.7207 109.631L72.7182 109.637C72.6982 109.682 72.6963 109.733 72.7129 109.78C72.7295 109.827 72.7633 109.865 72.8074 109.888V109.888ZM74.3989 105.397C74.4417 105.42 74.4918 105.424 74.5382 105.41C74.5847 105.396 74.6236 105.364 74.6464 105.321L74.6498 105.314C74.6714 105.269 74.6744 105.218 74.6581 105.171C74.6418 105.124 74.6074 105.085 74.5626 105.063C74.5194 105.041 74.469 105.036 74.4224 105.05C74.3757 105.065 74.3367 105.097 74.3139 105.14L74.3109 105.146C74.291 105.191 74.2892 105.242 74.3058 105.289C74.3225 105.336 74.3564 105.374 74.4006 105.397H74.3989ZM76.828 101.749C76.8732 101.77 76.9248 101.772 76.9718 101.756C77.0188 101.739 77.0573 101.705 77.0792 101.66C77.1007 101.615 77.104 101.564 77.0884 101.516C77.0728 101.469 77.0395 101.429 76.9955 101.406C76.95 101.385 76.8979 101.381 76.85 101.397C76.8022 101.412 76.762 101.446 76.7379 101.49C76.7174 101.536 76.7152 101.589 76.7319 101.637C76.7485 101.685 76.7826 101.725 76.8275 101.75L76.828 101.749ZM79.136 98.5836C79.1572 98.595 79.1804 98.6021 79.2044 98.6045C79.2283 98.6068 79.2525 98.6045 79.2755 98.5975C79.2985 98.5906 79.32 98.5792 79.3386 98.5639C79.3572 98.5487 79.3726 98.5299 79.3839 98.5087L79.3873 98.5016C79.4084 98.4566 79.4116 98.4052 79.396 98.358C79.3804 98.3107 79.3473 98.2712 79.3035 98.2476C79.2583 98.2265 79.2066 98.224 79.1595 98.2406C79.1125 98.2573 79.074 98.2919 79.0522 98.3368C79.0298 98.3787 79.0248 98.4278 79.0385 98.4733C79.0521 98.5189 79.0833 98.5572 79.1251 98.5799L79.1339 98.5836H79.136ZM71.3801 112.554C71.3966 112.601 71.4309 112.639 71.4755 112.661C71.5202 112.683 71.5717 112.686 71.6189 112.671C71.665 112.655 71.7032 112.622 71.7249 112.578C71.7467 112.535 71.7503 112.484 71.7349 112.438C71.729 112.416 71.7187 112.394 71.7046 112.375C71.6904 112.357 71.6727 112.341 71.6525 112.329C71.6322 112.317 71.6098 112.309 71.5865 112.306C71.5632 112.303 71.5394 112.304 71.5167 112.31L71.5016 112.314C71.4552 112.332 71.4172 112.367 71.3948 112.411C71.3725 112.456 71.3674 112.507 71.3806 112.555L71.3801 112.554ZM88.4942 106.849C88.5114 106.895 88.5455 106.934 88.5898 106.957C88.6341 106.98 88.6853 106.985 88.7333 106.972C88.7801 106.955 88.8184 106.92 88.8399 106.875C88.8613 106.83 88.8643 106.778 88.8481 106.731C88.8403 106.708 88.8281 106.686 88.8121 106.668C88.796 106.649 88.7765 106.634 88.7546 106.623C88.7327 106.612 88.7089 106.606 88.6845 106.604C88.66 106.602 88.6355 106.605 88.6123 106.613C88.589 106.621 88.5676 106.633 88.549 106.649C88.5305 106.665 88.5154 106.685 88.5044 106.707C88.4934 106.728 88.4869 106.752 88.4851 106.777C88.4834 106.801 88.4864 106.826 88.4942 106.849ZM87.6704 104.631C87.6771 104.654 87.6881 104.675 87.7029 104.693C87.7178 104.711 87.736 104.726 87.7567 104.737C87.7774 104.749 87.8001 104.756 87.8236 104.758C87.847 104.76 87.8706 104.758 87.8932 104.751L87.9028 104.749C87.9264 104.742 87.9484 104.73 87.9676 104.714C87.9867 104.699 88.0025 104.68 88.0142 104.658C88.0259 104.636 88.0331 104.612 88.0356 104.588C88.038 104.563 88.0356 104.539 88.0285 104.515L88.0255 104.507C88.0176 104.484 88.0052 104.462 87.989 104.444C87.9728 104.425 87.9531 104.41 87.9311 104.399C87.8866 104.377 87.8351 104.374 87.7881 104.39C87.741 104.406 87.7022 104.44 87.6803 104.484C87.6583 104.529 87.6549 104.58 87.6708 104.627L87.6704 104.631ZM79.8785 107.363C79.895 107.41 79.9292 107.448 79.9738 107.47C80.0183 107.492 80.0697 107.495 80.1168 107.48C80.1625 107.465 80.2006 107.434 80.2228 107.391C80.245 107.349 80.2495 107.299 80.2353 107.254L80.2324 107.246C80.2179 107.199 80.1853 107.159 80.1417 107.135C80.0982 107.112 80.0471 107.106 79.9996 107.12C79.9521 107.137 79.913 107.172 79.8904 107.217C79.8679 107.262 79.8636 107.314 79.8785 107.362V107.363ZM69.7451 96.5224C69.7615 96.5692 69.7957 96.6078 69.8403 96.6296C69.8849 96.6515 69.9363 96.6549 69.9834 96.6391C70.0061 96.6321 70.0271 96.6206 70.0453 96.6054C70.0635 96.5903 70.0785 96.5716 70.0894 96.5506C70.1004 96.5297 70.1071 96.5067 70.1092 96.4831C70.1113 96.4595 70.1087 96.4357 70.1015 96.4132L70.099 96.4052C70.0845 96.3579 70.0519 96.3182 70.0083 96.2948C69.9648 96.2713 69.9137 96.2659 69.8662 96.2797C69.8187 96.2965 69.7796 96.3311 69.7571 96.3761C69.7345 96.4211 69.7302 96.4731 69.7451 96.5211V96.5224ZM68.8983 107.783C68.9352 107.802 68.978 107.807 69.0183 107.796C69.0586 107.786 69.0935 107.761 69.1163 107.726C69.139 107.691 69.148 107.649 69.1413 107.608C69.1347 107.567 69.113 107.53 69.0805 107.504L69.0746 107.5C69.0394 107.476 68.9961 107.467 68.9542 107.475C68.9123 107.483 68.8752 107.507 68.851 107.542L68.846 107.55C68.8232 107.588 68.816 107.633 68.8257 107.676C68.8355 107.719 68.8615 107.756 68.8983 107.781V107.783ZM71.0283 104.339C71.0657 104.362 71.1106 104.37 71.1534 104.36C71.1961 104.35 71.2333 104.324 71.257 104.287C71.2813 104.248 71.2894 104.202 71.2794 104.157C71.2694 104.113 71.2423 104.074 71.2038 104.05C71.1658 104.028 71.1206 104.022 71.078 104.033C71.0355 104.044 70.999 104.071 70.9764 104.109C70.9645 104.127 70.9563 104.147 70.9522 104.168C70.9482 104.19 70.9484 104.212 70.9529 104.233C70.9574 104.254 70.966 104.274 70.9783 104.292C70.9906 104.31 71.0063 104.325 71.0246 104.337L71.0283 104.339ZM73.0905 100.797C73.0938 100.817 73.1015 100.837 73.1131 100.854C73.1248 100.871 73.1401 100.885 73.158 100.896C73.1953 100.919 73.2402 100.926 73.2829 100.917C73.3257 100.907 73.3629 100.881 73.3866 100.844C73.4109 100.806 73.419 100.759 73.409 100.714C73.3991 100.67 73.3719 100.631 73.3334 100.607C73.3103 100.592 73.284 100.583 73.2566 100.581C73.2293 100.579 73.2019 100.584 73.1768 100.595H73.1701C73.141 100.606 73.1176 100.629 73.1052 100.658C73.0915 100.678 73.083 100.701 73.0804 100.725C73.0778 100.749 73.0813 100.774 73.0905 100.796V100.797ZM75.2888 97.4522C75.3265 97.4738 75.3708 97.4804 75.4131 97.4708C75.4554 97.4612 75.4925 97.436 75.5171 97.4003C75.5399 97.3614 75.5471 97.3153 75.5373 97.2713C75.5275 97.2273 75.5015 97.1886 75.4643 97.163C75.427 97.14 75.3821 97.1326 75.3394 97.1423C75.2966 97.152 75.2594 97.1781 75.2357 97.2149C75.2114 97.2534 75.2033 97.3 75.2133 97.3445C75.2232 97.389 75.2504 97.4277 75.2888 97.4522ZM85.5479 110.521C85.5594 110.564 85.5872 110.602 85.6256 110.626C85.664 110.649 85.7101 110.658 85.7544 110.649C85.7751 110.644 85.7948 110.635 85.8122 110.623C85.8296 110.611 85.8444 110.595 85.8557 110.577C85.867 110.559 85.8747 110.539 85.8782 110.518C85.8817 110.497 85.8811 110.476 85.8762 110.455V110.448C85.8671 110.405 85.8414 110.368 85.8047 110.343C85.768 110.319 85.7233 110.31 85.6802 110.319H85.6765C85.6341 110.33 85.5976 110.358 85.5743 110.395C85.551 110.432 85.5426 110.477 85.5508 110.52L85.5479 110.521ZM84.6416 106.565C84.6523 106.607 84.6791 106.644 84.7162 106.666C84.7534 106.689 84.798 106.697 84.8405 106.687C84.8613 106.683 84.8809 106.674 84.8983 106.662C84.9156 106.649 84.9304 106.634 84.9417 106.616C84.953 106.598 84.9607 106.578 84.9642 106.557C84.9678 106.536 84.9672 106.514 84.9624 106.493V106.487C84.9532 106.444 84.9275 106.406 84.8909 106.382C84.8542 106.358 84.8095 106.349 84.7664 106.357H84.7626C84.7198 106.37 84.6834 106.398 84.6611 106.437C84.6388 106.475 84.6324 106.521 84.6433 106.564L84.6416 106.565ZM84.0595 102.179C84.0686 102.222 84.0943 102.259 84.131 102.284C84.1676 102.308 84.2123 102.317 84.2555 102.308H84.2592C84.2797 102.304 84.2992 102.296 84.3166 102.285C84.334 102.274 84.349 102.259 84.3607 102.242C84.3723 102.224 84.3805 102.205 84.3846 102.185C84.3888 102.164 84.3889 102.143 84.3849 102.123C84.384 102.118 84.3827 102.113 84.3811 102.108C84.3719 102.065 84.3462 102.027 84.3094 102.003C84.2727 101.979 84.2278 101.97 84.1847 101.979H84.1817C84.1395 101.99 84.1033 102.017 84.0808 102.054C84.0582 102.092 84.0512 102.136 84.0611 102.179H84.0595ZM78.8688 112.366C78.8793 112.409 78.9065 112.446 78.9446 112.469C78.9826 112.492 79.0282 112.499 79.0715 112.489C79.1148 112.478 79.1521 112.451 79.1752 112.413C79.1984 112.375 79.2055 112.33 79.195 112.286C79.1842 112.244 79.1576 112.207 79.1205 112.183C79.0834 112.159 79.0387 112.15 78.9953 112.158C78.9515 112.17 78.9141 112.198 78.8907 112.237C78.8674 112.276 78.8598 112.322 78.8696 112.367L78.8688 112.366ZM76.9075 108.655C76.9015 108.699 76.9128 108.743 76.9392 108.779C76.9656 108.815 77.0048 108.839 77.0487 108.846C77.07 108.85 77.0918 108.849 77.1128 108.844C77.1339 108.84 77.1538 108.831 77.1714 108.818C77.189 108.806 77.204 108.79 77.2155 108.772C77.227 108.753 77.2348 108.733 77.2384 108.712C77.2448 108.668 77.2345 108.623 77.2095 108.586C77.1844 108.549 77.1465 108.523 77.1031 108.512C77.0582 108.506 77.0126 108.517 76.976 108.544C76.9394 108.571 76.9148 108.611 76.9075 108.656V108.655ZM79.7081 103.833C79.7038 103.854 79.7036 103.875 79.7076 103.896C79.7116 103.917 79.7197 103.937 79.7314 103.954C79.743 103.972 79.7581 103.987 79.7757 103.999C79.7932 104.011 79.8129 104.019 79.8337 104.023H79.8425C79.8855 104.031 79.9296 104.021 79.9652 103.995C80.0007 103.97 80.0249 103.932 80.0322 103.889C80.0387 103.845 80.0284 103.8 80.0033 103.763C79.9783 103.726 79.9403 103.7 79.897 103.69C79.853 103.684 79.8087 103.696 79.7733 103.723C79.7379 103.749 79.7144 103.789 79.7077 103.833L79.7081 103.833ZM78.2289 100.637C78.2215 100.68 78.2315 100.724 78.2566 100.76C78.2818 100.796 78.3201 100.821 78.3633 100.829C78.3846 100.833 78.4063 100.832 78.4274 100.827C78.4485 100.823 78.4684 100.814 78.486 100.801C78.5037 100.789 78.5187 100.773 78.5301 100.755C78.5416 100.737 78.5494 100.716 78.553 100.695C78.5573 100.674 78.5574 100.653 78.5534 100.632C78.5494 100.611 78.5414 100.592 78.5297 100.574C78.518 100.556 78.503 100.541 78.4854 100.529C78.4679 100.517 78.4481 100.509 78.4274 100.505H78.4186C78.398 100.501 78.3768 100.501 78.3561 100.505C78.3355 100.509 78.3159 100.517 78.2984 100.528C78.281 100.54 78.266 100.555 78.2543 100.573C78.2427 100.59 78.2346 100.61 78.2305 100.63V100.64L78.2289 100.637ZM91.982 105.428C92.0053 105.462 92.0412 105.486 92.082 105.494C92.1227 105.501 92.165 105.493 92.1993 105.47C92.2029 105.467 92.2062 105.465 92.2094 105.462C92.2276 105.45 92.2431 105.434 92.2551 105.415C92.267 105.397 92.2752 105.376 92.2791 105.354C92.283 105.332 92.2825 105.31 92.2777 105.289C92.273 105.267 92.264 105.247 92.2513 105.229L92.2488 105.226C92.2224 105.19 92.1831 105.166 92.1393 105.16C92.0955 105.153 92.0508 105.164 92.0151 105.19C91.9796 105.216 91.9558 105.255 91.9487 105.298C91.9415 105.341 91.9517 105.386 91.977 105.421L91.9803 105.426L91.982 105.428ZM69.6689 98.464C69.6886 98.4812 69.7142 98.4902 69.7404 98.4891C69.7666 98.488 69.7914 98.4769 69.8096 98.4581C69.8267 98.438 69.8356 98.4123 69.8344 98.3859C69.8332 98.3596 69.8221 98.3347 69.8033 98.3162C69.7837 98.2989 69.758 98.2898 69.7318 98.2909C69.7056 98.292 69.6808 98.3032 69.6626 98.3221C69.6457 98.3422 69.637 98.368 69.6381 98.3943C69.6393 98.4205 69.6503 98.4454 69.6689 98.464ZM78.4881 101.193C78.4889 101.212 78.4955 101.231 78.5068 101.246C78.5182 101.262 78.534 101.274 78.5521 101.28C78.5702 101.287 78.5898 101.288 78.6086 101.284C78.6273 101.279 78.6443 101.269 78.6573 101.255C78.6704 101.241 78.679 101.223 78.682 101.204C78.685 101.185 78.6823 101.165 78.6742 101.148C78.6661 101.13 78.6531 101.116 78.6366 101.106C78.6202 101.096 78.6012 101.091 78.5819 101.091C78.569 101.092 78.5564 101.095 78.5447 101.1C78.533 101.106 78.5224 101.113 78.5137 101.123C78.505 101.132 78.4982 101.143 78.4938 101.155C78.4894 101.167 78.4875 101.18 78.4881 101.193ZM78.3989 98.7979C78.4013 98.8243 78.4139 98.8488 78.4339 98.8663C78.454 98.8837 78.48 98.8928 78.5065 98.8916C78.5193 98.8912 78.5319 98.8883 78.5436 98.883C78.5552 98.8777 78.5657 98.8702 78.5744 98.8608C78.5831 98.8514 78.5898 98.8404 78.5942 98.8283C78.5986 98.8163 78.6005 98.8035 78.5999 98.7908C78.6001 98.7658 78.5904 98.7417 78.5729 98.7238C78.5554 98.7059 78.5316 98.6957 78.5065 98.6954H78.4994C78.4863 98.6952 78.4733 98.6977 78.4611 98.7027C78.4489 98.7076 78.4379 98.7149 78.4285 98.7241C78.4192 98.7333 78.4118 98.7443 78.4067 98.7564C78.4016 98.7684 78.3989 98.7814 78.3989 98.7945V98.7983V98.7979ZM73.8733 99.1992C73.8978 99.206 73.9239 99.2039 73.947 99.1931C73.97 99.1824 73.9885 99.1637 73.9989 99.1406C74.0084 99.1168 74.0081 99.0902 73.9979 99.0666C73.9878 99.0431 73.9687 99.0245 73.9449 99.0151H73.9407C73.9179 99.0053 73.8922 99.005 73.8692 99.0141C73.8461 99.0232 73.8276 99.041 73.8176 99.0636C73.8176 99.0669 73.8151 99.0699 73.8138 99.0736C73.805 99.0983 73.8062 99.1254 73.8171 99.1492C73.8279 99.173 73.8476 99.1917 73.872 99.2013L73.8733 99.1992ZM91.1724 109.51C91.1771 109.522 91.1842 109.533 91.1931 109.542C91.202 109.551 91.2126 109.558 91.2243 109.563C91.236 109.568 91.2486 109.57 91.2612 109.57C91.2739 109.57 91.2864 109.567 91.2981 109.562H91.3018C91.3251 109.552 91.3433 109.533 91.3527 109.51C91.3622 109.486 91.3619 109.46 91.3521 109.437C91.3482 109.426 91.3421 109.415 91.3342 109.406C91.3262 109.397 91.3166 109.39 91.3059 109.385C91.2951 109.38 91.2835 109.377 91.2716 109.376C91.2597 109.375 91.2477 109.377 91.2365 109.381C91.2321 109.382 91.2278 109.384 91.2239 109.387C91.2007 109.397 91.1823 109.415 91.1729 109.439C91.1635 109.463 91.1637 109.489 91.1737 109.512L91.1724 109.51ZM69.1852 98.9309C69.1978 98.9389 69.2119 98.9443 69.2266 98.9468C69.2413 98.9493 69.2563 98.9489 69.2709 98.9456C69.2854 98.9423 69.2992 98.9362 69.3114 98.9275C69.3235 98.9189 69.3339 98.908 69.3418 98.8954C69.3577 98.8696 69.3628 98.8386 69.3561 98.8091C69.3495 98.7795 69.3316 98.7538 69.3062 98.7372C69.2826 98.7218 69.2539 98.7163 69.2263 98.7219C69.1987 98.7276 69.1744 98.7439 69.1588 98.7673L69.1563 98.7715C69.1475 98.7832 69.1412 98.7964 69.1376 98.8105C69.1341 98.8246 69.1333 98.8393 69.1355 98.8537C69.1376 98.8681 69.1426 98.882 69.1501 98.8944C69.1576 98.9069 69.1676 98.9177 69.1793 98.9263L69.1852 98.9309ZM78.6468 102.055C78.649 102.069 78.6538 102.082 78.6609 102.093C78.6681 102.105 78.6776 102.115 78.6887 102.123C78.6998 102.131 78.7124 102.137 78.7258 102.14C78.7392 102.143 78.753 102.144 78.7666 102.142L78.7796 102.139C78.8083 102.132 78.8332 102.114 78.8489 102.089C78.8646 102.064 78.8698 102.034 78.8633 102.005C78.8558 101.976 78.8382 101.951 78.8136 101.935C78.789 101.918 78.7592 101.911 78.7297 101.914C78.7151 101.918 78.7014 101.925 78.6894 101.934C78.6773 101.943 78.6673 101.955 78.6597 101.968C78.6521 101.981 78.6471 101.995 78.6452 102.01C78.6432 102.025 78.6442 102.04 78.6481 102.055H78.6468ZM78.0546 99.3824C78.0582 99.397 78.0645 99.4107 78.0734 99.4228C78.0822 99.4348 78.0934 99.4451 78.1062 99.4528C78.119 99.4606 78.1332 99.4658 78.148 99.4681C78.1628 99.4703 78.1779 99.4697 78.1924 99.4661C78.2212 99.4594 78.2462 99.4415 78.2619 99.4164C78.2776 99.3913 78.2827 99.3611 78.2762 99.3322C78.2686 99.3036 78.2509 99.2786 78.2263 99.262C78.2018 99.2454 78.172 99.2382 78.1426 99.2418C78.1132 99.2506 78.088 99.2698 78.0718 99.2959C78.0556 99.322 78.0495 99.353 78.0546 99.3833V99.3824ZM73.0897 100.797C73.1024 100.806 73.1166 100.813 73.1316 100.818C73.1599 100.823 73.189 100.816 73.2125 100.8C73.236 100.783 73.2521 100.758 73.2572 100.73V100.725C73.2619 100.697 73.2559 100.668 73.2404 100.644C73.2249 100.62 73.2011 100.602 73.1735 100.595H73.1663C73.1381 100.59 73.109 100.596 73.0855 100.613C73.062 100.629 73.0459 100.654 73.0407 100.683V100.687C73.0368 100.708 73.0394 100.73 73.0482 100.749C73.0569 100.769 73.0714 100.785 73.0897 100.796V100.797ZM73.516 97.9899C73.5099 98.0183 73.5153 98.0479 73.531 98.0724C73.5467 98.0968 73.5714 98.1141 73.5998 98.1204C73.6293 98.1257 73.6597 98.1198 73.685 98.1037C73.7103 98.0877 73.7286 98.0627 73.7363 98.0338C73.74 98.0037 73.7325 97.9733 73.7154 97.9482C73.6983 97.9231 73.6727 97.9051 73.6434 97.8974C73.6288 97.895 73.6139 97.8955 73.5996 97.8988C73.5852 97.9022 73.5717 97.9083 73.5597 97.9169C73.5477 97.9255 73.5375 97.9364 73.5298 97.9489C73.522 97.9614 73.5168 97.9753 73.5144 97.9899H73.516ZM83.2905 111.429C83.2986 111.442 83.3091 111.453 83.3216 111.462C83.3341 111.47 83.3482 111.476 83.3631 111.479C83.378 111.483 83.3933 111.483 83.4082 111.48C83.4231 111.477 83.4372 111.47 83.4497 111.462C83.4622 111.453 83.4728 111.442 83.4809 111.429C83.4889 111.416 83.4943 111.402 83.4966 111.387C83.499 111.372 83.4983 111.357 83.4945 111.342C83.4908 111.327 83.4841 111.313 83.4748 111.301C83.4606 111.277 83.4373 111.259 83.41 111.252C83.3828 111.245 83.3538 111.249 83.3295 111.263L83.3219 111.268C83.2968 111.286 83.2795 111.312 83.2736 111.342C83.2678 111.372 83.2738 111.403 83.2905 111.429ZM77.8649 104.093C77.873 104.106 77.8835 104.117 77.896 104.126C77.9085 104.135 77.9226 104.141 77.9375 104.144C77.9523 104.147 77.9677 104.147 77.9826 104.144C77.9975 104.141 78.0116 104.135 78.0241 104.126C78.0366 104.117 78.0472 104.106 78.0552 104.093C78.0633 104.081 78.0687 104.066 78.071 104.051C78.0734 104.036 78.0727 104.021 78.0689 104.006C78.0651 103.992 78.0584 103.978 78.0492 103.966C78.0422 103.954 78.0329 103.943 78.0219 103.935C78.0108 103.926 77.9981 103.92 77.9847 103.916C77.9712 103.913 77.9572 103.912 77.9434 103.914C77.9296 103.916 77.9163 103.921 77.9043 103.928L77.8963 103.932C77.8713 103.95 77.854 103.976 77.8482 104.006C77.8423 104.036 77.8483 104.068 77.8649 104.093ZM69.1173 106.043C69.1254 106.056 69.136 106.067 69.1484 106.076C69.1609 106.085 69.175 106.091 69.1899 106.094C69.2048 106.097 69.2201 106.097 69.235 106.094C69.2499 106.091 69.264 106.085 69.2765 106.076C69.289 106.067 69.2996 106.056 69.3077 106.043C69.3157 106.031 69.3211 106.016 69.3235 106.001C69.3258 105.986 69.3251 105.971 69.3213 105.956C69.3176 105.941 69.3109 105.928 69.3016 105.916C69.2874 105.891 69.2641 105.874 69.2368 105.867C69.2096 105.859 69.1806 105.863 69.1563 105.878L69.1488 105.883C69.1236 105.9 69.1062 105.926 69.1003 105.956C69.0944 105.987 69.1005 106.018 69.1173 106.043ZM70.9927 101.512C71.0103 101.535 71.036 101.55 71.0645 101.555C71.0929 101.559 71.122 101.553 71.1457 101.536C71.1694 101.52 71.1859 101.495 71.1917 101.467C71.1975 101.439 71.1923 101.409 71.177 101.385C71.17 101.373 71.1607 101.362 71.1496 101.354C71.1386 101.345 71.1259 101.339 71.1124 101.335C71.0989 101.332 71.0848 101.331 71.0709 101.333C71.0571 101.335 71.0438 101.339 71.0317 101.346L71.0242 101.351C70.999 101.369 70.9817 101.395 70.9758 101.425C70.97 101.455 70.976 101.487 70.9927 101.512ZM83.18 107.045C83.1975 107.068 83.2232 107.083 83.2517 107.088C83.2802 107.092 83.3093 107.085 83.333 107.069C83.3566 107.052 83.3731 107.028 83.3789 106.999C83.3848 106.971 83.3795 106.942 83.3642 106.917C83.3572 106.905 83.3479 106.895 83.3368 106.886C83.3257 106.878 83.313 106.872 83.2995 106.868C83.286 106.865 83.2719 106.864 83.2581 106.866C83.2443 106.868 83.2309 106.872 83.2189 106.879L83.2114 106.884C83.1862 106.901 83.1689 106.928 83.163 106.958C83.1572 106.988 83.1632 107.019 83.18 107.045ZM83.8727 107.988C83.8896 108.012 83.9156 108.029 83.9449 108.034C83.9742 108.04 84.0044 108.033 84.0289 108.016C84.0534 107.999 84.0701 107.973 84.0755 107.944C84.0808 107.915 84.0743 107.885 84.0574 107.86C84.0431 107.836 84.0198 107.818 83.9926 107.811C83.9653 107.804 83.9364 107.808 83.912 107.822L83.9045 107.827C83.8794 107.845 83.8621 107.871 83.8561 107.901C83.8502 107.931 83.8561 107.962 83.8727 107.988ZM68.8212 112.098C68.8151 112.149 68.8289 112.201 68.8597 112.242C68.8904 112.283 68.9359 112.311 68.9867 112.32C69.037 112.328 69.0885 112.316 69.1298 112.286C69.1711 112.256 69.1988 112.211 69.207 112.16C69.2136 112.109 69.1998 112.057 69.1685 112.015C69.1372 111.974 69.0909 111.946 69.0394 111.938C69.0145 111.934 68.989 111.935 68.9644 111.941C68.9398 111.947 68.9166 111.958 68.8961 111.973C68.8756 111.987 68.8583 112.006 68.8451 112.028C68.8319 112.049 68.8231 112.073 68.8192 112.098H68.8212ZM69.5399 107.462C69.5355 107.487 69.5361 107.512 69.5416 107.537C69.547 107.562 69.5573 107.585 69.5718 107.606C69.5864 107.626 69.6048 107.644 69.6261 107.657C69.6475 107.671 69.6713 107.68 69.6961 107.684H69.6986C69.7482 107.693 69.7991 107.682 69.8403 107.653C69.8814 107.624 69.9094 107.58 69.9181 107.53V107.525C69.922 107.477 69.9079 107.43 69.8786 107.392C69.8494 107.354 69.8071 107.329 69.7599 107.32C69.7128 107.312 69.6643 107.322 69.6238 107.347C69.5834 107.373 69.5539 107.412 69.5412 107.458V107.462L69.5399 107.462ZM70.2519 102.827C70.2451 102.879 70.2588 102.931 70.2901 102.972C70.3215 103.014 70.3679 103.042 70.4194 103.049C70.457 103.054 70.4951 103.047 70.5289 103.03C70.5628 103.013 70.5909 102.987 70.6098 102.954C70.6287 102.921 70.6375 102.884 70.6352 102.846C70.6329 102.808 70.6195 102.772 70.5967 102.742C70.5739 102.711 70.5428 102.689 70.5071 102.676C70.4714 102.663 70.4328 102.661 70.396 102.671C70.3593 102.68 70.326 102.699 70.3004 102.727C70.2748 102.755 70.2579 102.79 70.2519 102.827ZM70.9735 98.1924C70.9676 98.2299 70.9729 98.2683 70.9889 98.3028C71.0048 98.3372 71.0306 98.3662 71.063 98.386C71.0954 98.4058 71.133 98.4156 71.171 98.4141C71.2089 98.4126 71.2456 98.3999 71.2763 98.3776C71.3071 98.3553 71.3305 98.3244 71.3437 98.2888C71.3569 98.2532 71.3592 98.2145 71.3503 98.1775C71.3415 98.1406 71.3219 98.1071 71.2941 98.0813C71.2662 98.0555 71.2313 98.0385 71.1938 98.0325C71.1442 98.0239 71.0933 98.0353 71.0522 98.0642C71.011 98.093 70.983 98.137 70.9743 98.1865V98.1924H70.9735ZM87.8836 107.634C87.9154 107.675 87.9617 107.702 88.013 107.71C88.0643 107.717 88.1166 107.705 88.1591 107.676C88.1997 107.645 88.2266 107.6 88.2338 107.549C88.241 107.499 88.228 107.448 88.1977 107.407C88.1695 107.366 88.1262 107.338 88.0771 107.328C88.028 107.319 87.9772 107.33 87.9359 107.358L87.9288 107.363C87.8884 107.394 87.8616 107.44 87.8538 107.49C87.846 107.541 87.8578 107.592 87.8869 107.634L87.8836 107.634ZM84.6462 103.203C84.661 103.224 84.6797 103.241 84.7012 103.255C84.7228 103.268 84.7468 103.277 84.7718 103.281C84.7968 103.285 84.8224 103.284 84.8471 103.279C84.8718 103.273 84.8951 103.262 84.9157 103.247C84.9363 103.233 84.9538 103.214 84.9671 103.192C84.9805 103.171 84.9895 103.147 84.9936 103.122C84.9977 103.097 84.9968 103.071 84.9911 103.047C84.9853 103.022 84.9747 102.999 84.9599 102.978C84.946 102.958 84.9282 102.94 84.9075 102.927C84.8868 102.913 84.8636 102.904 84.8393 102.899C84.8149 102.895 84.79 102.895 84.7657 102.9C84.7415 102.905 84.7185 102.915 84.6981 102.929L84.691 102.934C84.6502 102.965 84.623 103.01 84.6152 103.061C84.6074 103.112 84.6196 103.163 84.6491 103.205L84.6462 103.203ZM81.2342 99.9168C81.2642 99.958 81.3092 99.9858 81.3595 99.9941C81.4098 100.002 81.4614 99.9906 81.5031 99.9611C81.5439 99.9288 81.571 99.8822 81.5788 99.8307C81.5866 99.7792 81.5745 99.7267 81.5449 99.6837C81.5305 99.6638 81.5123 99.6469 81.4914 99.634C81.4704 99.6211 81.4471 99.6124 81.4228 99.6085C81.3984 99.6047 81.3736 99.6056 81.3497 99.6113C81.3257 99.617 81.3031 99.6274 81.2832 99.6419L81.2773 99.6465C81.2567 99.6611 81.2392 99.6796 81.2258 99.7009C81.2123 99.7223 81.2032 99.7461 81.199 99.7709C81.1947 99.7958 81.1955 99.8213 81.2011 99.8459C81.2067 99.8705 81.2171 99.8937 81.2317 99.9143V99.9172L81.2342 99.9168ZM77.9642 109.713C77.9784 109.762 78.0105 109.804 78.0541 109.83C78.0977 109.857 78.1497 109.867 78.2 109.857C78.2489 109.843 78.2904 109.81 78.3158 109.766C78.3412 109.722 78.3485 109.67 78.3361 109.621C78.3256 109.571 78.2961 109.528 78.2539 109.501C78.2117 109.474 78.1604 109.464 78.1112 109.474H78.107C78.0566 109.487 78.0132 109.519 77.9864 109.564C77.9596 109.608 77.9516 109.661 77.9642 109.712V109.713ZM76.4925 105.461C76.5044 105.511 76.5358 105.554 76.5798 105.582C76.6238 105.609 76.6767 105.617 76.727 105.606C76.777 105.594 76.8202 105.562 76.847 105.518C76.8738 105.474 76.8821 105.422 76.87 105.372C76.858 105.322 76.8266 105.279 76.7827 105.252C76.7388 105.225 76.6861 105.217 76.6361 105.229C76.6116 105.234 76.5884 105.245 76.5679 105.259C76.5473 105.273 76.5298 105.292 76.5163 105.313C76.5028 105.334 76.4936 105.357 76.4892 105.382C76.4848 105.407 76.4854 105.432 76.4908 105.457V105.46L76.4925 105.461ZM75.7696 100.581C75.7801 100.63 75.8097 100.673 75.8518 100.701C75.894 100.728 75.9453 100.738 75.9945 100.727H75.9983C76.0367 100.72 76.0719 100.701 76.0994 100.673C76.1269 100.645 76.1454 100.61 76.1525 100.571C76.1597 100.533 76.1552 100.493 76.1395 100.457C76.1239 100.421 76.0978 100.391 76.0648 100.37C76.0317 100.349 75.9931 100.338 75.954 100.34C75.9148 100.341 75.877 100.354 75.8452 100.376C75.8134 100.399 75.7893 100.431 75.7758 100.468C75.7623 100.505 75.7602 100.545 75.7696 100.583V100.581ZM75.1473 111.216C75.156 111.252 75.1752 111.285 75.2025 111.31C75.2297 111.335 75.2638 111.352 75.3006 111.359C75.3373 111.365 75.3751 111.36 75.4092 111.345C75.4434 111.33 75.4723 111.306 75.4926 111.274C75.5128 111.243 75.5234 111.206 75.5231 111.169C75.5227 111.132 75.5115 111.096 75.4907 111.065C75.4699 111.034 75.4405 111.01 75.4061 110.995C75.3717 110.981 75.3339 110.977 75.2972 110.984C75.2467 110.995 75.2025 111.025 75.1744 111.069C75.1463 111.112 75.1366 111.165 75.1473 111.216ZM73.8239 106.209C73.8343 106.26 73.8642 106.304 73.9073 106.333C73.9503 106.361 74.0028 106.371 74.0534 106.361C74.1024 106.35 74.1452 106.32 74.1732 106.279C74.2012 106.237 74.2122 106.186 74.2041 106.137C74.1929 106.086 74.1629 106.041 74.1201 106.012C74.0772 105.982 74.0248 105.97 73.9734 105.978C73.9234 105.99 73.8799 106.02 73.852 106.064C73.8241 106.107 73.8141 106.159 73.8239 106.209ZM73.3372 102.04C73.3443 102.077 73.3623 102.112 73.3889 102.139C73.4155 102.166 73.4496 102.185 73.4869 102.193C73.5242 102.201 73.563 102.198 73.5985 102.184C73.6339 102.17 73.6645 102.145 73.6862 102.114C73.708 102.083 73.72 102.046 73.7208 102.008C73.7216 101.97 73.7111 101.932 73.6906 101.9C73.6701 101.868 73.6406 101.842 73.6058 101.827C73.5709 101.812 73.5323 101.807 73.4947 101.813C73.4444 101.824 73.4 101.853 73.3707 101.895C73.3414 101.937 73.3294 101.989 73.3372 102.04ZM72.4393 97.4522C72.4466 97.5004 72.4728 97.5438 72.512 97.5729C72.5512 97.6019 72.6004 97.6144 72.6487 97.6074L72.6608 97.6053C72.7103 97.5949 72.7538 97.5656 72.782 97.5236C72.8102 97.4816 72.8208 97.4303 72.8116 97.3806C72.8019 97.3316 72.7732 97.2883 72.7318 97.2602C72.6904 97.2321 72.6396 97.2214 72.5904 97.2304C72.5411 97.2394 72.4974 97.2674 72.4687 97.3084C72.4399 97.3493 72.4285 97.3999 72.4368 97.4492V97.4522H72.4393ZM82.1137 105.026C82.1429 105.068 82.1876 105.098 82.2382 105.107C82.2888 105.117 82.3412 105.106 82.3838 105.077C82.4255 105.048 82.4542 105.004 82.4637 104.955C82.4732 104.905 82.4627 104.854 82.4345 104.812C82.4092 104.769 82.368 104.739 82.3201 104.727C82.2722 104.715 82.2215 104.722 82.179 104.747L82.1702 104.753C82.1486 104.767 82.13 104.784 82.1153 104.806C82.1007 104.827 82.0903 104.85 82.0848 104.875C82.0793 104.9 82.0788 104.926 82.0834 104.951C82.0879 104.977 82.0973 105.001 82.1112 105.022L82.1137 105.026ZM80.3773 101.55C80.4066 101.59 80.4505 101.618 80.4996 101.626C80.5488 101.635 80.5995 101.625 80.641 101.597C80.6825 101.569 80.7117 101.526 80.7224 101.478C80.733 101.429 80.7243 101.378 80.6981 101.335C80.6728 101.293 80.6316 101.262 80.5837 101.25C80.5358 101.238 80.4851 101.246 80.4427 101.271L80.4334 101.276C80.39 101.304 80.3594 101.348 80.3485 101.399C80.3376 101.45 80.3472 101.502 80.3752 101.546L80.3773 101.55ZM76.1533 98.8029C76.1747 98.834 76.2048 98.8581 76.2399 98.8723C76.2749 98.8864 76.3134 98.89 76.3504 98.8825C76.3875 98.8751 76.4215 98.8569 76.4483 98.8303C76.4751 98.8036 76.4935 98.7697 76.5012 98.7328C76.509 98.6958 76.5056 98.6574 76.4917 98.6223C76.4777 98.5872 76.4538 98.5569 76.4228 98.5353C76.3918 98.5137 76.3551 98.5016 76.3173 98.5006C76.2796 98.4996 76.2423 98.5097 76.2102 98.5297C76.1886 98.5435 76.17 98.5614 76.1553 98.5824C76.1407 98.6034 76.1303 98.6271 76.1248 98.6522C76.1193 98.6772 76.1188 98.7031 76.1233 98.7283C76.1279 98.7535 76.1373 98.7776 76.1512 98.7991L76.1533 98.8029ZM75.2361 103.144C75.2505 103.179 75.2783 103.207 75.3134 103.222C75.3484 103.236 75.3878 103.236 75.4229 103.222L75.4287 103.22C75.4629 103.204 75.4897 103.176 75.5037 103.141C75.5177 103.106 75.5177 103.067 75.5037 103.032C75.4976 103.015 75.4881 102.999 75.4758 102.986C75.4636 102.972 75.4488 102.961 75.4323 102.953C75.4158 102.946 75.3979 102.941 75.3797 102.94C75.3615 102.94 75.3433 102.942 75.3261 102.948L75.3115 102.955C75.2772 102.97 75.2502 102.999 75.2362 103.034C75.2222 103.069 75.2221 103.108 75.2361 103.143V103.144ZM73.8578 99.9076C73.8649 99.9261 73.8757 99.943 73.8895 99.9572C73.9033 99.9714 73.9199 99.9827 73.9382 99.9903C73.9566 99.9979 73.9762 100.002 73.9961 100.001C74.0159 100.001 74.0355 99.9969 74.0536 99.9889C74.0718 99.9808 74.0881 99.9692 74.1016 99.9546C74.115 99.9401 74.1254 99.9229 74.132 99.9042C74.1387 99.8856 74.1414 99.8657 74.1402 99.8459C74.1389 99.8262 74.1336 99.8068 74.1246 99.7892C74.1101 99.7541 74.0823 99.7262 74.0473 99.7116C74.0123 99.6971 73.9729 99.6969 73.9378 99.7113L73.9323 99.7143C73.8973 99.7306 73.87 99.7599 73.8561 99.7959C73.8422 99.832 73.8428 99.872 73.8578 99.9076ZM72.4791 96.6634C72.491 96.6895 72.5104 96.7115 72.5348 96.7267C72.5592 96.7419 72.5875 96.7495 72.6163 96.7486C72.645 96.7477 72.6728 96.7383 72.6962 96.7217C72.7196 96.705 72.7376 96.6818 72.7479 96.655C72.7581 96.6282 72.7602 96.599 72.7539 96.571C72.7476 96.5429 72.7331 96.5174 72.7123 96.4976C72.6915 96.4778 72.6653 96.4646 72.637 96.4596C72.6087 96.4546 72.5795 96.4581 72.5532 96.4697C72.5179 96.4858 72.4904 96.5152 72.4766 96.5514C72.4627 96.5876 72.4636 96.6278 72.4791 96.6634ZM67.8304 102.781C67.8317 102.82 67.8478 102.856 67.8754 102.883C67.903 102.909 67.9398 102.924 67.9782 102.924C68.016 102.921 68.0515 102.905 68.0776 102.877C68.1038 102.85 68.1188 102.814 68.1197 102.776C68.1195 102.757 68.1154 102.738 68.1079 102.72C68.1003 102.703 68.0894 102.687 68.0757 102.674C68.062 102.66 68.0458 102.65 68.0281 102.643C68.0104 102.636 67.9914 102.632 67.9723 102.632C67.954 102.632 67.9358 102.636 67.9187 102.643C67.9017 102.649 67.8862 102.659 67.8731 102.672C67.86 102.685 67.8495 102.7 67.8423 102.717C67.8351 102.734 67.8314 102.752 67.8312 102.771C67.831 102.774 67.831 102.778 67.8312 102.781H67.8304ZM80.6294 98.6041C80.6551 98.6309 80.6903 98.6463 80.7274 98.6471C80.7645 98.6479 80.8003 98.6339 80.8271 98.6083L80.8321 98.6033C80.8597 98.5767 80.8756 98.5403 80.8764 98.5021C80.8772 98.4638 80.8628 98.4268 80.8363 98.3991L80.8296 98.3924C80.8036 98.3664 80.7684 98.3519 80.7316 98.3519C80.6949 98.3519 80.6596 98.3664 80.6336 98.3924L80.6286 98.3978C80.6019 98.4246 80.5868 98.4609 80.5868 98.4987C80.5868 98.5365 80.6019 98.5728 80.6286 98.5995V98.6025L80.6294 98.6041ZM69.457 99.267C69.4758 99.2955 69.5052 99.3155 69.5387 99.3225C69.5722 99.3295 69.6071 99.3229 69.6358 99.3042C69.6567 99.2901 69.673 99.2701 69.6827 99.2469C69.6924 99.2236 69.6951 99.198 69.6905 99.1732C69.6858 99.1485 69.674 99.1256 69.6565 99.1074C69.639 99.0893 69.6166 99.0766 69.592 99.071C69.5674 99.0654 69.5417 99.0672 69.518 99.076C69.4944 99.0848 69.4738 99.1003 69.4589 99.1207C69.444 99.141 69.4354 99.1652 69.434 99.1904C69.4327 99.2156 69.4388 99.2406 69.4515 99.2623L69.457 99.267Z" fill="white"/>
<path d="M90.6801 32.1163C90.6801 32.1163 90.4741 36.0388 89.3362 37.9059C89.3362 37.9059 94.8376 38.9901 97.3001 39.9358L97.7876 34.9019L90.6801 32.1163Z" fill="url(#paint5_linear_113_3800)"/>
<path d="M100.905 35.0559C103.968 33.8072 105.501 30.7735 106.16 30.8643C106.819 30.9551 108.277 30.8016 108.444 30.1111C108.604 29.4215 107.749 26.8774 107.562 24.4471C107.543 24.2226 107.539 23.9971 107.549 23.7721C107.549 23.7608 107.552 23.7562 107.545 23.747L107.551 23.6215C107.555 23.4671 107.557 23.203 107.539 22.8541C107.269 20.4442 106.977 19.9249 106.317 19.3504C104.726 17.9591 103.686 15.7572 98.2378 15.733C95.3974 15.72 91.9084 15.6556 89.2171 19.3504C86.3818 23.242 88.7594 27.8323 89.8617 28.8361C90.964 29.84 92.3326 30.4153 91.6546 31.5753C91.4083 31.8709 91.0611 32.0647 90.68 32.1192L90.9732 32.3628C91.0653 32.4398 91.1614 32.5122 91.2613 32.5799L92.6459 33.5227C95.1386 35.199 98.0338 36.23 100.905 35.0559Z" fill="#FFBEB6"/>
<path d="M103.379 23.5457C101.182 22.4021 100.917 23.85 98.7374 25.5995C96.5579 27.349 94.6331 26.3476 91.7559 25.6413C88.8787 24.935 88.7577 27.8294 89.8587 28.8357C90.9597 29.8421 92.3326 30.4116 91.655 31.5732C90.9773 32.7348 86.3638 33.5365 83.6139 25.5016C78.8814 11.6837 89.4684 9.89987 94.9158 9.50528C104.908 8.78137 110.18 15.125 110.18 15.125L114.051 13.9605C114.552 18.2767 109.772 25.5032 103.379 23.5457Z" fill="url(#paint6_linear_113_3800)"/>
<path d="M89.1782 38.4298C89.1782 38.4298 82.4907 40.2475 75.0695 51.4338C68.3523 61.5601 69.3377 64.5629 65.2472 70.2483C61.1568 75.9337 58.597 82.6614 59.9494 91.1031C59.9494 91.1031 80.1776 104.091 105.429 94.608L98.1707 41.2961C95.6202 40.335 91.8627 38.8993 89.1782 38.4298Z" fill="#3E96F4"/>
<path d="M108.988 24.9798C108.863 25.3312 108.644 25.6418 108.355 25.8783C108.066 26.1148 107.718 26.2681 107.349 26.3219C106.979 26.3756 106.602 26.3277 106.258 26.1833C105.913 26.0389 105.615 25.8035 105.394 25.5024C105.207 25.2513 105.565 24.9132 105.754 25.1676C105.915 25.4059 106.138 25.5952 106.4 25.7149C106.661 25.8345 106.951 25.8798 107.237 25.8458C107.522 25.8118 107.793 25.6999 108.019 25.5222C108.245 25.3445 108.418 25.1081 108.518 24.8387C108.632 24.5462 109.104 24.6852 108.988 24.9798Z" fill="#1C2868"/>
<path d="M146.019 67.9715H185.284V99.4163H146.019V67.9715Z" fill="url(#paint7_linear_113_3800)"/>
<path d="M144.444 67.9715H186.693V74.0042H144.444V67.9715Z" fill="#428DFC"/>
<path opacity="0.86" d="M184.125 85.0683C184.13 85.0506 184.131 85.0321 184.128 85.0141C184.125 84.996 184.118 84.9787 184.109 84.9631C184.099 84.9475 184.087 84.934 184.072 84.9234C184.057 84.9127 184.04 84.9051 184.022 84.9009H184.019C183.983 84.8919 183.945 84.8973 183.913 84.916C183.881 84.9347 183.857 84.9651 183.847 85.0009C183.84 85.0377 183.846 85.0758 183.866 85.1077C183.885 85.1397 183.916 85.1633 183.952 85.1738C183.97 85.1784 183.989 85.1793 184.008 85.1765C184.027 85.1736 184.045 85.1671 184.061 85.1573C184.077 85.1475 184.091 85.1346 184.102 85.1193C184.113 85.104 184.121 85.0867 184.125 85.0683Z" fill="#FCC25F"/>
<path opacity="0.86" d="M180.692 82.5158C180.69 82.4794 180.673 82.4455 180.646 82.4213C180.618 82.3972 180.583 82.3847 180.546 82.3865C180.511 82.3882 180.478 82.4038 180.455 82.4298C180.431 82.4557 180.419 82.49 180.42 82.525V82.5325C180.423 82.5689 180.44 82.6028 180.467 82.6269C180.495 82.651 180.53 82.6634 180.567 82.6614C180.585 82.6602 180.602 82.6555 180.618 82.6475C180.634 82.6395 180.648 82.6284 180.66 82.6148C180.672 82.6013 180.68 82.5856 180.686 82.5686C180.692 82.5516 180.694 82.5336 180.692 82.5158Z" fill="#FCC25F"/>
<path opacity="0.86" d="M183.88 82.4317C183.917 82.4273 183.951 82.4094 183.974 82.3815C183.998 82.3536 184.011 82.3178 184.01 82.281C184.009 82.2632 184.004 82.2457 183.996 82.2297C183.988 82.2137 183.977 82.1994 183.963 82.1877C183.949 82.176 183.934 82.1672 183.917 82.1616C183.9 82.1561 183.882 82.154 183.864 82.1555C183.845 82.1556 183.826 82.1594 183.809 82.1668C183.792 82.1743 183.777 82.1851 183.764 82.1987C183.751 82.2123 183.741 82.2284 183.735 82.246C183.728 82.2636 183.725 82.2823 183.726 82.3009C183.727 82.3196 183.732 82.3379 183.741 82.3546C183.749 82.3713 183.761 82.3862 183.775 82.3983C183.789 82.4104 183.806 82.4194 183.824 82.4249C183.842 82.4303 183.861 82.4321 183.879 82.43L183.88 82.4317Z" fill="#FCC25F"/>
<path opacity="0.86" d="M184.071 88.8397C184.053 88.8109 184.025 88.7897 183.992 88.7801C183.959 88.7705 183.924 88.7732 183.893 88.7878C183.862 88.8023 183.838 88.8275 183.824 88.8589C183.811 88.8902 183.809 88.9253 183.82 88.9577C183.837 88.9891 183.865 89.0127 183.899 89.0237C183.933 89.0348 183.97 89.0323 184.002 89.0169C184.035 89.0015 184.06 88.9743 184.072 88.9409C184.085 88.9076 184.085 88.8706 184.071 88.8376V88.8397Z" fill="#FCC25F"/>
<path opacity="0.86" d="M183.517 79.5105C183.521 79.495 183.521 79.4788 183.518 79.463C183.516 79.4472 183.51 79.4321 183.502 79.4185C183.493 79.405 183.482 79.3932 183.469 79.3839C183.456 79.3747 183.441 79.3681 183.426 79.3645C183.395 79.3564 183.363 79.3607 183.336 79.3764C183.308 79.3921 183.288 79.4179 183.28 79.4482V79.4532C183.273 79.4855 183.279 79.5192 183.297 79.5473C183.314 79.5754 183.341 79.5958 183.373 79.6043C183.405 79.6098 183.437 79.6031 183.464 79.5857C183.49 79.5683 183.509 79.5414 183.517 79.5105Z" fill="#FCC25F"/>
<path opacity="0.86" d="M182.88 87.2459C182.958 87.2459 183.022 87.1822 183.022 87.1036C183.022 87.025 182.958 86.9614 182.88 86.9614C182.801 86.9614 182.737 87.025 182.737 87.1036C182.737 87.1822 182.801 87.2459 182.88 87.2459Z" fill="#FCC25F"/>
<path opacity="0.86" d="M183.075 76.2973C183.086 76.2645 183.084 76.2284 183.069 76.197C183.054 76.1656 183.027 76.1415 182.994 76.1299L182.984 76.1266C182.95 76.1154 182.913 76.1179 182.881 76.1335C182.849 76.1492 182.825 76.1767 182.813 76.2103C182.801 76.2446 182.804 76.2822 182.819 76.315C182.835 76.3478 182.863 76.3731 182.897 76.3856C182.932 76.3955 182.97 76.3919 183.003 76.3756C183.036 76.3593 183.061 76.3314 183.075 76.2973Z" fill="#FCC25F"/>
<path opacity="0.86" d="M182.317 91.7278C182.312 91.6904 182.291 91.6567 182.261 91.634C182.231 91.6113 182.193 91.6014 182.155 91.6065C182.118 91.6125 182.085 91.633 182.063 91.6634C182.042 91.6937 182.033 91.7315 182.039 91.7684C182.045 91.8055 182.065 91.8388 182.095 91.8614C182.125 91.884 182.163 91.8942 182.2 91.8898C182.237 91.8836 182.27 91.8631 182.292 91.8328C182.314 91.8025 182.323 91.7648 182.317 91.7278Z" fill="#FCC25F"/>
<path opacity="0.86" d="M173.985 90.401C173.988 90.3854 173.989 90.3692 173.986 90.3534C173.984 90.3376 173.978 90.3225 173.969 90.3089C173.961 90.2954 173.95 90.2836 173.937 90.2744C173.924 90.2651 173.909 90.2585 173.893 90.2549C173.863 90.247 173.831 90.2513 173.803 90.267C173.776 90.2827 173.756 90.3084 173.748 90.3386V90.3436C173.742 90.376 173.747 90.4096 173.765 90.4378C173.782 90.4659 173.809 90.4864 173.841 90.4951C173.873 90.5006 173.905 90.4939 173.932 90.4764C173.958 90.4589 173.977 90.4319 173.985 90.401Z" fill="#FCC25F"/>
<path opacity="0.86" d="M180.046 90.3616C180.087 90.3616 180.121 90.3285 180.121 90.2876C180.121 90.2467 180.087 90.2135 180.046 90.2135C180.006 90.2135 179.972 90.2467 179.972 90.2876C179.972 90.3285 180.006 90.3616 180.046 90.3616Z" fill="#FCC25F"/>
<path opacity="0.86" d="M176.692 88.2426C176.698 88.2257 176.701 88.2077 176.7 88.1898C176.699 88.1719 176.694 88.1543 176.686 88.1381C176.679 88.122 176.668 88.1075 176.654 88.0955C176.641 88.0836 176.625 88.0744 176.608 88.0685C176.574 88.0568 176.536 88.059 176.503 88.0746C176.47 88.0902 176.445 88.1181 176.432 88.1522C176.423 88.1875 176.427 88.2251 176.443 88.2577C176.46 88.2902 176.488 88.3154 176.522 88.3284C176.556 88.3395 176.593 88.3367 176.625 88.3206C176.657 88.3045 176.681 88.2765 176.692 88.2426Z" fill="#FCC25F"/>
<path opacity="0.86" d="M176.111 88.546C176.082 88.5247 176.045 88.5158 176.008 88.5211C175.972 88.5264 175.939 88.5455 175.916 88.5744C175.895 88.6058 175.886 88.6442 175.891 88.6819C175.897 88.7195 175.917 88.7536 175.947 88.777C175.978 88.798 176.016 88.8064 176.053 88.8004C176.09 88.7944 176.123 88.7745 176.146 88.7447C176.157 88.7295 176.164 88.7122 176.169 88.6939C176.173 88.6756 176.173 88.6567 176.17 88.6382C176.167 88.6197 176.16 88.602 176.15 88.5862C176.14 88.5704 176.127 88.5567 176.111 88.546Z" fill="#FCC25F"/>
<path opacity="0.86" d="M179.848 89.29C179.859 89.2556 179.857 89.218 179.841 89.1853C179.826 89.1525 179.798 89.1271 179.764 89.1147C179.747 89.1087 179.729 89.1062 179.711 89.1071C179.693 89.1081 179.676 89.1126 179.659 89.1204C179.643 89.1282 179.629 89.1391 179.617 89.1525C179.605 89.1658 179.596 89.1814 179.59 89.1983V89.205C179.584 89.2212 179.582 89.2384 179.582 89.2556C179.583 89.2729 179.588 89.2897 179.595 89.3053C179.602 89.3208 179.613 89.3348 179.626 89.3463C179.638 89.3578 179.653 89.3667 179.67 89.3724H179.676C179.71 89.3835 179.746 89.3811 179.778 89.3658C179.81 89.3504 179.835 89.3232 179.848 89.29Z" fill="#FCC25F"/>
<path opacity="0.86" d="M182.742 90.2537C182.731 90.288 182.733 90.3255 182.748 90.3582C182.764 90.3909 182.792 90.4162 182.826 90.4286C182.861 90.4392 182.899 90.4358 182.932 90.4191C182.965 90.4024 182.99 90.3738 183.002 90.339C183.013 90.3044 183.009 90.2672 182.992 90.2352C182.975 90.2033 182.946 90.1793 182.912 90.1683C182.879 90.1568 182.843 90.1586 182.812 90.1735C182.78 90.1884 182.756 90.2151 182.744 90.2478L182.742 90.2537Z" fill="#FCC25F"/>
<path opacity="0.86" d="M181.73 90.2758V90.2821C181.729 90.301 181.736 90.3193 181.749 90.3331C181.762 90.3469 181.779 90.3552 181.798 90.3562C181.818 90.3553 181.836 90.3472 181.85 90.3336C181.864 90.3199 181.873 90.3016 181.874 90.2821C181.873 90.2626 181.865 90.2439 181.852 90.2301C181.838 90.2162 181.819 90.2082 181.8 90.2076C181.781 90.2076 181.764 90.2148 181.751 90.2275C181.738 90.2402 181.73 90.2576 181.73 90.2758Z" fill="#FCC25F"/>
<path opacity="0.86" d="M177.735 85.737C177.754 85.7105 177.761 85.6778 177.757 85.6458C177.752 85.6137 177.735 85.5848 177.709 85.565C177.683 85.5461 177.65 85.5383 177.618 85.5434C177.586 85.5485 177.557 85.566 177.538 85.5922V85.5956C177.529 85.6075 177.522 85.6212 177.518 85.6358C177.514 85.6504 177.512 85.6657 177.514 85.6808C177.516 85.6959 177.521 85.7105 177.528 85.7237C177.536 85.7369 177.546 85.7486 177.558 85.7579L177.564 85.7625C177.589 85.7817 177.621 85.7902 177.652 85.7862C177.684 85.7822 177.712 85.766 177.732 85.7412C177.732 85.7412 177.734 85.7387 177.735 85.737Z" fill="#FCC25F"/>
<path opacity="0.86" d="M181.416 93.3004C181.42 93.309 181.425 93.3169 181.432 93.3235C181.438 93.3302 181.446 93.3354 181.455 93.3389C181.463 93.3425 181.473 93.3443 181.482 93.3442C181.492 93.3441 181.501 93.3421 181.509 93.3384C181.526 93.3324 181.54 93.3199 181.548 93.3037C181.556 93.2875 181.557 93.2689 181.551 93.2518L181.548 93.2447C181.541 93.227 181.527 93.2127 181.51 93.2048C181.493 93.197 181.473 93.1963 181.455 93.2029C181.437 93.2113 181.424 93.226 181.416 93.244C181.409 93.2621 181.409 93.2822 181.416 93.3004Z" fill="#FCC25F"/>
<path opacity="0.86" d="M182.32 95.6541C182.319 95.6735 182.326 95.6925 182.339 95.7073C182.351 95.722 182.369 95.7313 182.388 95.7332C182.398 95.7334 182.408 95.7317 182.417 95.7282C182.426 95.7247 182.434 95.7195 182.441 95.7128C182.448 95.7061 182.453 95.6981 182.457 95.6892C182.461 95.6804 182.463 95.6709 182.463 95.6612V95.6587C182.465 95.6405 182.459 95.6226 182.447 95.6088C182.435 95.595 182.418 95.5864 182.4 95.585H182.394C182.375 95.5845 182.357 95.5914 182.343 95.6043C182.329 95.6173 182.321 95.6351 182.32 95.6541Z" fill="#FCC25F"/>
<path opacity="0.86" d="M184.155 93.3301L184.161 93.3343L184.141 93.2229C184.129 93.239 184.124 93.2593 184.126 93.2793C184.129 93.2994 184.139 93.3176 184.155 93.3301Z" fill="#FCC25F"/>
<path opacity="0.86" d="M180.153 87.4513C180.165 87.4245 180.168 87.3939 180.161 87.3652C180.153 87.3364 180.135 87.3113 180.111 87.2944C180.086 87.2774 180.057 87.2696 180.027 87.2725C179.997 87.2753 179.97 87.2886 179.949 87.3099C179.93 87.337 179.923 87.3702 179.929 87.4025C179.935 87.4348 179.953 87.4636 179.98 87.4827C180.005 87.5013 180.037 87.5091 180.068 87.5045C180.1 87.4999 180.128 87.4832 180.147 87.458L180.153 87.4513Z" fill="#FCC25F"/>
<path opacity="0.86" d="M181.901 95.883C181.895 95.9045 181.899 95.9273 181.91 95.9464C181.921 95.9656 181.939 95.9795 181.961 95.9851C181.983 95.9891 182.006 95.9846 182.025 95.9726C182.044 95.9606 182.058 95.942 182.064 95.9202C182.067 95.8987 182.062 95.8769 182.05 95.8588C182.038 95.8408 182.019 95.8278 181.998 95.8223C181.977 95.8182 181.956 95.8222 181.938 95.8335C181.92 95.8447 181.906 95.8624 181.901 95.883Z" fill="#FCC25F"/>
<path opacity="0.86" d="M183.864 93.0455C183.855 93.0634 183.854 93.0838 183.861 93.1024C183.868 93.121 183.881 93.1362 183.899 93.1447C183.908 93.1486 183.917 93.1509 183.926 93.1513C183.935 93.1517 183.944 93.1502 183.953 93.147C183.962 93.1439 183.97 93.139 183.977 93.1327C183.984 93.1264 183.989 93.1188 183.993 93.1104V93.1079C183.997 93.1001 184 93.0916 184 93.0828C184.001 93.0741 184 93.0652 183.998 93.0568C183.995 93.0484 183.991 93.0406 183.985 93.0338C183.98 93.0271 183.973 93.0215 183.965 93.0175C183.962 93.016 183.959 93.0149 183.956 93.0141C183.948 93.01 183.939 93.0076 183.93 93.007C183.921 93.0064 183.912 93.0075 183.903 93.0105C183.895 93.0134 183.887 93.018 183.88 93.024C183.873 93.03 183.868 93.0373 183.864 93.0455Z" fill="#FCC25F"/>
<path opacity="0.86" d="M173.542 87.1881C173.548 87.1719 173.55 87.1546 173.55 87.1374C173.549 87.1201 173.544 87.1032 173.537 87.0877C173.529 87.0721 173.519 87.0582 173.506 87.0467C173.493 87.0352 173.478 87.0264 173.462 87.0208L173.452 87.0174C173.418 87.006 173.381 87.0083 173.349 87.024C173.317 87.0397 173.293 87.0674 173.281 87.1011C173.27 87.1354 173.272 87.1729 173.287 87.2056C173.303 87.2382 173.331 87.2635 173.365 87.276C173.4 87.2859 173.438 87.2824 173.47 87.2662C173.503 87.2499 173.529 87.2221 173.542 87.1881Z" fill="#FCC25F"/>
<path opacity="0.86" d="M179.911 86.614V86.6111C179.917 86.5936 179.916 86.5744 179.908 86.5576C179.9 86.5408 179.886 86.5277 179.869 86.5211C179.853 86.513 179.835 86.5113 179.818 86.5166C179.801 86.5218 179.786 86.5335 179.778 86.5492C179.776 86.5518 179.775 86.5546 179.775 86.5575C179.767 86.5755 179.767 86.5956 179.774 86.6136C179.782 86.6316 179.796 86.6459 179.814 86.6534C179.832 86.6609 179.852 86.6609 179.87 86.6535C179.888 86.6462 179.902 86.632 179.91 86.614H179.911Z" fill="#FCC25F"/>
<path opacity="0.86" d="M178.8 90.8139C178.878 90.8139 178.941 90.7506 178.941 90.6725C178.941 90.5944 178.878 90.5311 178.8 90.5311C178.722 90.5311 178.658 90.5944 178.658 90.6725C178.658 90.7506 178.722 90.8139 178.8 90.8139Z" fill="#FCC25F"/>
<path opacity="0.86" d="M171.16 93.4062C171.157 93.37 171.141 93.3362 171.113 93.3121C171.086 93.288 171.051 93.2755 171.014 93.2774C170.997 93.2782 170.98 93.2824 170.964 93.2898C170.948 93.2973 170.934 93.3077 170.922 93.3207C170.911 93.3336 170.902 93.3487 170.896 93.3651C170.89 93.3815 170.888 93.3989 170.889 93.4163V93.4234C170.891 93.4597 170.908 93.4936 170.935 93.5178C170.962 93.542 170.998 93.5545 171.034 93.5527C171.052 93.5514 171.07 93.5466 171.086 93.5385C171.102 93.5305 171.116 93.5193 171.128 93.5057C171.139 93.4921 171.148 93.4763 171.154 93.4592C171.159 93.4421 171.161 93.4241 171.16 93.4062Z" fill="#FCC25F"/>
<path opacity="0.86" d="M183.213 95.4106C183.228 95.4419 183.254 95.4661 183.287 95.4779C183.319 95.4898 183.355 95.4883 183.386 95.4738L183.394 95.47C183.411 95.463 183.427 95.4526 183.44 95.4394C183.452 95.4263 183.462 95.4107 183.469 95.3935C183.476 95.3764 183.479 95.3581 183.478 95.3397C183.478 95.3213 183.474 95.3033 183.466 95.2866C183.458 95.2699 183.447 95.2549 183.433 95.2426C183.42 95.2303 183.404 95.2209 183.386 95.2149C183.369 95.2089 183.35 95.2065 183.332 95.2079C183.314 95.2092 183.296 95.2143 183.279 95.2227L183.274 95.2256C183.242 95.2414 183.217 95.2693 183.205 95.3031C183.194 95.337 183.196 95.3741 183.212 95.4064L183.213 95.4106Z" fill="#FCC25F"/>
<path opacity="0.86" d="M180.114 95.4934C180.117 95.4719 180.112 95.45 180.099 95.4319C180.087 95.4139 180.069 95.4009 180.048 95.3955C180.027 95.3913 180.005 95.3952 179.987 95.4065C179.969 95.4178 179.956 95.4356 179.95 95.4562C179.947 95.4658 179.946 95.476 179.947 95.486C179.948 95.496 179.951 95.5058 179.956 95.5147C179.961 95.5235 179.967 95.5314 179.975 95.5377C179.983 95.544 179.992 95.5488 180.002 95.5516H180.011C180.033 95.5574 180.055 95.5545 180.075 95.5436C180.094 95.5327 180.108 95.5147 180.114 95.4934Z" fill="#FCC25F"/>
<path opacity="0.86" d="M180.643 95.6692C180.682 95.6692 180.714 95.6371 180.714 95.5976C180.714 95.5581 180.682 95.5261 180.643 95.5261C180.603 95.5261 180.571 95.5581 180.571 95.5976C180.571 95.6371 180.603 95.6692 180.643 95.6692Z" fill="#FCC25F"/>
<path opacity="0.86" d="M181.045 95.8587C181.06 95.8566 181.075 95.8514 181.088 95.8436C181.101 95.8357 181.113 95.8254 181.122 95.813C181.132 95.8007 181.138 95.7867 181.142 95.7718C181.146 95.7568 181.147 95.7413 181.145 95.7261C181.145 95.7239 181.145 95.7216 181.145 95.7194C181.142 95.7041 181.137 95.6894 181.129 95.6762C181.122 95.6629 181.111 95.6513 181.099 95.6421C181.087 95.6328 181.073 95.6261 181.058 95.6223C181.043 95.6184 181.027 95.6176 181.012 95.6198H181.004C180.989 95.6225 180.974 95.6283 180.96 95.6368C180.947 95.6453 180.935 95.6564 180.926 95.6694C180.908 95.6956 180.901 95.728 180.906 95.7595C180.912 95.7911 180.93 95.8191 180.956 95.8374C180.982 95.8558 181.015 95.863 181.046 95.8575L181.045 95.8587Z" fill="#FCC25F"/>
<path opacity="0.86" d="M183.973 95.3708C184.004 95.3654 184.032 95.3477 184.051 95.3217C184.069 95.2956 184.077 95.2634 184.071 95.2319C184.066 95.2 184.048 95.1714 184.022 95.1521C183.996 95.1328 183.964 95.1244 183.931 95.1285C183.92 95.1269 183.909 95.128 183.899 95.1316C183.888 95.1353 183.879 95.1414 183.871 95.1495C183.869 95.1511 183.867 95.1532 183.866 95.1555C183.865 95.1578 183.865 95.1603 183.864 95.1628V95.1679C183.851 95.1818 183.842 95.1985 183.837 95.2168C183.832 95.2351 183.831 95.2543 183.835 95.2729C183.84 95.3041 183.858 95.3318 183.884 95.3502C183.91 95.3685 183.942 95.3759 183.973 95.3708Z" fill="#FCC25F"/>
<path opacity="0.86" d="M183.346 94.4147C183.356 94.4057 183.364 94.3949 183.37 94.3827C183.376 94.3706 183.379 94.3574 183.38 94.3439C183.381 94.3305 183.379 94.317 183.374 94.3043C183.37 94.2916 183.363 94.2799 183.354 94.2699L183.351 94.267C183.342 94.2568 183.331 94.2486 183.318 94.2427C183.306 94.2369 183.292 94.2335 183.279 94.2329C183.265 94.2322 183.251 94.2343 183.239 94.2389C183.226 94.2435 183.214 94.2506 183.204 94.2599L183.198 94.2653C183.188 94.275 183.18 94.2866 183.175 94.2993C183.17 94.3121 183.167 94.3257 183.167 94.3396C183.167 94.3534 183.17 94.3671 183.175 94.3798C183.18 94.3926 183.188 94.4042 183.198 94.4138C183.218 94.4336 183.245 94.4446 183.273 94.4446C183.301 94.4446 183.327 94.4336 183.347 94.4138L183.346 94.4147Z" fill="#FCC25F"/>
<path opacity="0.86" d="M178.223 96.2069C178.215 96.1751 178.196 96.1472 178.169 96.1288C178.142 96.1104 178.11 96.1029 178.077 96.1077C178.046 96.1132 178.018 96.131 177.999 96.1572C177.98 96.1834 177.973 96.2158 177.978 96.2475C177.981 96.2628 177.986 96.2775 177.994 96.2908C178.002 96.3041 178.012 96.3157 178.025 96.325C178.037 96.3342 178.051 96.3409 178.066 96.3447C178.081 96.3485 178.097 96.3493 178.112 96.3471H178.119C178.151 96.3416 178.18 96.3239 178.199 96.2978C178.218 96.2717 178.227 96.2391 178.223 96.2069Z" fill="#FCC25F"/>
<path opacity="0.86" d="M177.92 96.7676V96.7596C177.925 96.7423 177.926 96.7242 177.924 96.7063C177.922 96.6885 177.916 96.6713 177.907 96.6557C177.898 96.6401 177.886 96.6265 177.872 96.6156C177.857 96.6047 177.841 96.5968 177.824 96.5923L177.815 96.5902C177.779 96.5813 177.742 96.5869 177.71 96.6057C177.679 96.6246 177.656 96.6551 177.647 96.6906C177.643 96.7088 177.642 96.7277 177.645 96.7463C177.648 96.7648 177.654 96.7826 177.664 96.7987C177.673 96.8148 177.686 96.8287 177.701 96.8398C177.717 96.8509 177.734 96.8589 177.752 96.8634C177.769 96.8682 177.787 96.8695 177.805 96.8672C177.823 96.865 177.84 96.8593 177.856 96.8504C177.872 96.8415 177.885 96.8296 177.896 96.8154C177.907 96.8012 177.916 96.7849 177.92 96.7676Z" fill="#FCC25F"/>
<path opacity="0.86" d="M174.593 95.9587C174.597 95.941 174.598 95.9226 174.595 95.9046C174.592 95.8865 174.586 95.8693 174.576 95.8537C174.567 95.8382 174.554 95.8247 174.54 95.814C174.525 95.8033 174.508 95.7956 174.49 95.7914H174.487C174.451 95.7822 174.413 95.7875 174.381 95.8061C174.349 95.8247 174.325 95.8552 174.315 95.891C174.307 95.9276 174.314 95.9657 174.333 95.9977C174.353 96.0297 174.383 96.0533 174.419 96.0638C174.438 96.0684 174.457 96.0694 174.476 96.0667C174.494 96.0639 174.512 96.0574 174.528 96.0477C174.545 96.0379 174.559 96.025 174.57 96.0097C174.581 95.9945 174.589 95.9771 174.593 95.9587Z" fill="#FCC25F"/>
<path opacity="0.86" d="M171.789 97.0111C171.867 97.0111 171.931 96.9474 171.931 96.8688C171.931 96.7903 171.867 96.7266 171.789 96.7266C171.71 96.7266 171.646 96.7903 171.646 96.8688C171.646 96.9474 171.71 97.0111 171.789 97.0111Z" fill="#FCC25F"/>
<path opacity="0.86" d="M180.58 94.241C180.59 94.2261 180.597 94.2093 180.601 94.1915C180.605 94.1738 180.605 94.1556 180.601 94.1378C180.598 94.1201 180.591 94.1032 180.581 94.0882C180.571 94.0731 180.558 94.0602 180.543 94.0502L180.537 94.0469C180.507 94.0263 180.469 94.0188 180.433 94.0258C180.397 94.0329 180.365 94.054 180.344 94.0845C180.332 94.0998 180.324 94.1173 180.319 94.136C180.314 94.1547 180.313 94.1741 180.317 94.1932C180.32 94.2122 180.327 94.2304 180.337 94.2466C180.347 94.2629 180.361 94.2769 180.377 94.2877C180.393 94.2986 180.411 94.3061 180.429 94.3098C180.448 94.3135 180.468 94.3133 180.487 94.3093C180.505 94.3052 180.523 94.2974 180.539 94.2862C180.555 94.2751 180.568 94.2608 180.578 94.2444L180.58 94.241Z" fill="#FCC25F"/>
<path opacity="0.86" d="M175.295 96.6939C175.288 96.6621 175.269 96.6342 175.242 96.6158C175.215 96.5974 175.183 96.5899 175.15 96.5948C175.135 96.5974 175.12 96.6032 175.106 96.6117C175.093 96.6202 175.081 96.6312 175.072 96.6442C175.063 96.6572 175.056 96.6718 175.053 96.6873C175.049 96.7028 175.049 96.7189 175.051 96.7345C175.057 96.7665 175.075 96.795 175.101 96.8143C175.127 96.8336 175.159 96.842 175.191 96.8379C175.224 96.8325 175.254 96.8144 175.273 96.7874C175.293 96.7604 175.301 96.7268 175.295 96.6939Z" fill="#FCC25F"/>
<path opacity="0.86" d="M177.662 93.0874H177.667C177.704 93.085 177.738 93.0684 177.762 93.0411C177.786 93.0139 177.799 92.9782 177.797 92.9417C177.793 92.9051 177.775 92.8715 177.747 92.8475C177.719 92.8235 177.683 92.8108 177.646 92.812C177.629 92.8129 177.612 92.8172 177.596 92.8246C177.58 92.8321 177.566 92.8425 177.554 92.8554C177.543 92.8683 177.534 92.8834 177.528 92.8998C177.522 92.9162 177.519 92.9336 177.52 92.9509V92.9581C177.522 92.994 177.538 93.0278 177.565 93.052C177.591 93.0762 177.626 93.0889 177.662 93.0874Z" fill="#FCC25F"/>
<path opacity="0.86" d="M179.864 94.0184C179.904 94.0184 179.936 93.9864 179.936 93.9469C179.936 93.9073 179.904 93.8753 179.864 93.8753C179.825 93.8753 179.792 93.9073 179.792 93.9469C179.792 93.9864 179.825 94.0184 179.864 94.0184Z" fill="#FCC25F"/>
<path opacity="0.86" d="M177.739 92.3543C177.75 92.3393 177.757 92.3225 177.76 92.3048C177.764 92.2871 177.764 92.2689 177.76 92.2512C177.757 92.2335 177.75 92.2167 177.74 92.2017C177.73 92.1867 177.717 92.1739 177.702 92.1639L177.697 92.1605C177.666 92.1399 177.628 92.1323 177.592 92.1393C177.556 92.1463 177.524 92.1673 177.503 92.1978C177.492 92.2131 177.483 92.2305 177.479 92.249C177.475 92.2676 177.474 92.2868 177.477 92.3055C177.48 92.3243 177.487 92.3422 177.498 92.3582C177.508 92.3743 177.521 92.3881 177.537 92.3988C177.553 92.4096 177.57 92.4171 177.589 92.4208C177.608 92.4246 177.627 92.4246 177.646 92.4208C177.664 92.417 177.682 92.4095 177.698 92.3987C177.713 92.3879 177.727 92.3741 177.737 92.358L177.739 92.3543Z" fill="#FCC25F"/>
<path opacity="0.86" d="M179.766 91.7333C179.774 91.7017 179.768 91.6685 179.751 91.6411C179.734 91.6136 179.706 91.5941 179.675 91.5868C179.66 91.5825 179.645 91.5811 179.63 91.5827C179.615 91.5843 179.6 91.5888 179.587 91.5961C179.574 91.6033 179.562 91.6131 179.552 91.6248C179.543 91.6366 179.536 91.6501 179.531 91.6646L179.528 91.676C179.525 91.6915 179.524 91.7076 179.527 91.7234C179.53 91.7391 179.535 91.7542 179.544 91.7677C179.552 91.7812 179.563 91.7929 179.576 91.8022C179.589 91.8114 179.604 91.818 179.62 91.8216H179.622C179.653 91.8275 179.684 91.8217 179.711 91.8054C179.738 91.7891 179.758 91.7633 179.766 91.7333Z" fill="#FCC25F"/>
<path opacity="0.86" d="M182.52 92.1961H182.522C182.532 92.2022 182.542 92.2065 182.553 92.2086C182.564 92.2107 182.575 92.2107 182.586 92.2085C182.596 92.2064 182.607 92.2021 182.616 92.1959C182.625 92.1898 182.633 92.1819 182.639 92.1727C182.645 92.1642 182.649 92.1547 182.651 92.1447C182.653 92.1346 182.654 92.1242 182.652 92.114C182.65 92.1039 182.646 92.0942 182.641 92.0855C182.635 92.0768 182.628 92.0693 182.62 92.0634L182.615 92.0605C182.598 92.0483 182.576 92.0435 182.555 92.0471C182.534 92.0507 182.516 92.0625 182.504 92.0798C182.49 92.0974 182.485 92.1195 182.488 92.1413C182.491 92.163 182.502 92.1827 182.52 92.1961Z" fill="#FCC25F"/>
<path opacity="0.86" d="M182.658 92.3944C182.664 92.3627 182.657 92.3299 182.64 92.3027C182.622 92.2756 182.595 92.256 182.564 92.248C182.548 92.2445 182.532 92.2441 182.516 92.247C182.5 92.2498 182.485 92.2558 182.471 92.2645C182.457 92.2733 182.445 92.2846 182.436 92.2979C182.427 92.3113 182.42 92.3263 182.417 92.3421C182.411 92.3732 182.416 92.4054 182.433 92.4324C182.45 92.4594 182.476 92.4792 182.506 92.4877C182.539 92.4945 182.572 92.4887 182.601 92.4713C182.629 92.454 182.65 92.4265 182.658 92.3944Z" fill="#FCC25F"/>
<path opacity="0.86" d="M182.402 92.384C182.41 92.3687 182.411 92.3511 182.406 92.3348C182.401 92.3184 182.39 92.3046 182.375 92.2961C182.373 92.2945 182.37 92.2932 182.367 92.2923C182.349 92.2847 182.33 92.2842 182.312 92.2911C182.294 92.298 182.28 92.3116 182.272 92.3289C182.265 92.3463 182.264 92.366 182.271 92.3837C182.278 92.4014 182.291 92.4156 182.309 92.4233C182.326 92.4299 182.346 92.4295 182.363 92.4222C182.381 92.4149 182.394 92.4012 182.402 92.384Z" fill="#FCC25F"/>
<path opacity="0.86" d="M183.033 92.6246C183.04 92.6424 183.054 92.6568 183.071 92.6647C183.089 92.6725 183.109 92.6731 183.127 92.6664C183.145 92.6581 183.159 92.6435 183.167 92.6254C183.174 92.6074 183.175 92.5871 183.169 92.5685C183.16 92.551 183.145 92.5374 183.127 92.5304C183.108 92.5233 183.088 92.5233 183.07 92.5304C183.053 92.5381 183.039 92.5523 183.032 92.5699C183.025 92.5876 183.026 92.6072 183.033 92.6246Z" fill="#FCC25F"/>
<path opacity="0.86" d="M174.349 93.3221C174.386 93.3178 174.42 93.3 174.444 93.2721C174.468 93.2442 174.48 93.2083 174.479 93.1715C174.478 93.1536 174.473 93.1362 174.465 93.1202C174.457 93.1042 174.446 93.0899 174.432 93.0783C174.419 93.0666 174.403 93.0577 174.386 93.0522C174.369 93.0466 174.351 93.0445 174.333 93.0459C174.296 93.0481 174.262 93.0647 174.238 93.092C174.214 93.1193 174.201 93.1551 174.204 93.1916C174.206 93.228 174.222 93.2621 174.25 93.2864C174.277 93.3106 174.313 93.323 174.349 93.3209V93.3221Z" fill="#FCC25F"/>
<path opacity="0.86" d="M176.876 91.0671C176.88 91.0516 176.88 91.0354 176.877 91.0197C176.875 91.0039 176.869 90.9888 176.861 90.9753C176.852 90.9618 176.841 90.95 176.828 90.9408C176.815 90.9316 176.8 90.925 176.785 90.9215C176.77 90.9174 176.754 90.9163 176.738 90.9183C176.723 90.9203 176.708 90.9253 176.695 90.9331C176.681 90.9409 176.669 90.9513 176.66 90.9637C176.651 90.976 176.644 90.9901 176.64 91.0052V91.0098C176.632 91.041 176.637 91.0738 176.654 91.1012C176.671 91.1286 176.698 91.1482 176.729 91.1558C176.76 91.1624 176.793 91.157 176.82 91.1405C176.847 91.124 176.867 91.0978 176.876 91.0671Z" fill="#FCC25F"/>
<path opacity="0.86" d="M180.983 92.8556C181.001 92.8544 181.018 92.8497 181.034 92.8417C181.051 92.8337 181.065 92.8226 181.077 92.8091C181.089 92.7955 181.098 92.7797 181.104 92.7627C181.11 92.7456 181.112 92.7275 181.111 92.7095V92.7057C181.109 92.6879 181.105 92.6705 181.097 92.6545C181.089 92.6385 181.077 92.6242 181.064 92.6125C181.05 92.6009 181.034 92.592 181.017 92.5865C181 92.5809 180.982 92.5788 180.965 92.5802C180.928 92.5827 180.894 92.5994 180.87 92.6269C180.846 92.6543 180.834 92.6901 180.837 92.7265C180.839 92.7628 180.856 92.7967 180.883 92.8207C180.911 92.8446 180.947 92.8567 180.983 92.8543L180.983 92.8556Z" fill="#FCC25F"/>
<path opacity="0.86" d="M181.486 92.7982C181.515 92.8202 181.552 92.8296 181.589 92.8244C181.625 92.8191 181.658 92.7996 181.681 92.7702L181.683 92.7664C181.694 92.7521 181.703 92.7357 181.708 92.7181C181.712 92.7006 181.714 92.6822 181.711 92.6642C181.709 92.6461 181.703 92.6287 181.694 92.6129C181.685 92.5971 181.673 92.5833 181.659 92.5723L181.656 92.5702C181.624 92.5485 181.586 92.5397 181.548 92.5455C181.51 92.5513 181.476 92.5714 181.453 92.6015C181.431 92.6321 181.423 92.6698 181.429 92.7066C181.435 92.7433 181.455 92.7762 181.486 92.7982Z" fill="#FCC25F"/>
<path d="M166.419 99.5159C166.35 99.5159 166.284 99.4901 166.233 99.4436C166.183 99.3971 166.151 99.3333 166.145 99.2649C165.25 88.761 165.114 78.2063 165.737 67.6828C165.744 67.612 165.777 67.5465 165.831 67.5001C165.885 67.4537 165.955 67.43 166.026 67.434C166.097 67.438 166.164 67.4694 166.213 67.5216C166.261 67.5738 166.287 67.6426 166.286 67.7138C165.664 78.2111 165.801 88.7394 166.693 99.2172C166.697 99.2532 166.693 99.2895 166.682 99.324C166.671 99.3585 166.653 99.3904 166.63 99.4181C166.606 99.4457 166.578 99.4684 166.546 99.4849C166.513 99.5014 166.478 99.5114 166.442 99.5143L166.419 99.5159Z" fill="#FCC25F"/>
<path d="M164.769 100.237C164.698 100.237 164.63 100.21 164.579 100.162C164.528 100.113 164.498 100.047 164.494 99.9771C164.373 97.6844 164.23 95.3817 164.092 93.1564C163.694 86.7467 163.313 80.6002 163.384 74.3336C162.443 80.5353 161.416 84.7407 161.132 91.8245C161.011 94.8202 161.054 97.6622 161.441 99.3532C161.454 99.4247 161.439 99.4987 161.397 99.5588C161.356 99.6189 161.293 99.6603 161.221 99.6737C161.15 99.6871 161.076 99.6716 161.015 99.6304C160.955 99.5893 160.914 99.526 160.9 99.4544C160.554 97.6879 160.377 95.8925 160.371 94.0925C160.218 88.7883 162.586 76.0789 163.641 67.7418C163.65 67.6712 163.687 67.6069 163.743 67.5625C163.798 67.518 163.869 67.4968 163.94 67.5033C164.012 67.51 164.078 67.5444 164.124 67.5992C164.17 67.654 164.193 67.7247 164.188 67.7962C163.601 76.3743 164.107 84.5093 164.641 93.1225C164.76 95.0411 164.882 97.0141 164.991 98.9925C164.995 99.0076 164.997 99.023 164.998 99.0385L165.043 99.9503C165.047 100.023 165.021 100.094 164.972 100.148C164.923 100.202 164.855 100.234 164.782 100.238L164.769 100.237Z" fill="#FCC25F"/>
<path d="M111.189 14.9287L82.801 23.2478L82.4517 22.5105L82.1138 21.3133C81.644 19.7215 81.4933 18.0527 81.6702 16.4025C81.8471 14.7524 82.3482 13.1533 83.1447 11.697C83.9412 10.2407 85.0175 8.95569 86.3119 7.91569C87.6063 6.87569 89.0934 6.10111 90.688 5.63634L94.3429 4.54839C96.0015 4.05945 97.7403 3.90199 99.4598 4.08502C101.179 4.26806 102.846 4.78799 104.364 5.61508C105.882 6.44218 107.223 7.56021 108.308 8.90523C109.394 10.2503 110.203 11.7959 110.69 13.4537L110.84 14.1914L111.189 14.9287Z" fill="url(#paint8_linear_113_3800)"/>
<path d="M126.647 11.2958L82.9095 24.1734L82.4597 22.577L124.939 10.1137C125.109 10.0607 125.288 10.0424 125.466 10.0599C125.643 10.0774 125.815 10.1302 125.972 10.2154C126.128 10.3005 126.266 10.4162 126.377 10.5556C126.488 10.695 126.57 10.8552 126.618 11.0267L126.647 11.2979V11.2958Z" fill="url(#paint9_linear_113_3800)"/>
<path d="M77.3454 46.2041C78.6366 44.6497 80.0677 43.2169 81.6209 41.9238C83.1708 40.6034 84.9107 39.5236 86.7823 38.7206C87.7434 38.3252 88.7506 38.0528 89.7801 37.9097C90.8271 37.7755 91.8888 37.8099 92.9249 38.0118C93.972 38.1987 94.981 38.5569 95.9114 39.0721C96.8607 39.6068 97.6912 40.3287 98.3526 41.194C99.6827 42.9331 100.287 45.0492 100.545 47.0941C100.771 49.1323 100.779 51.1886 100.569 53.2285C100.372 55.2385 100.064 57.2361 99.6475 59.2122C99.4508 60.221 99.2024 61.2191 98.9033 62.2024C98.6026 63.1891 98.2588 64.1562 97.8806 65.1081C96.3538 68.9114 94.3141 72.4884 91.818 75.7399C90.5684 77.383 89.1891 78.9233 87.6932 80.3462C86.1912 81.7851 84.5621 83.0855 82.8258 84.2314C81.0865 85.3992 79.2291 86.381 77.2842 87.1605C76.3015 87.5529 75.2966 87.8874 74.2747 88.1623C73.2454 88.4279 72.1996 88.6247 71.1441 88.7515C66.9413 89.2496 62.6843 88.5117 58.8949 86.6283L59.6295 84.7402C63.1982 85.8199 66.9702 86.0504 70.6441 85.4135C71.5422 85.2451 72.4291 85.0215 73.2997 84.744C74.1772 84.476 75.0382 84.1567 75.8783 83.7879C77.5753 83.0317 79.2053 82.1337 80.7511 81.1035C82.3163 80.0768 83.7967 78.9263 85.1778 77.6631C85.8714 77.0325 86.5348 76.3634 87.1793 75.6755C87.8238 74.9876 88.4562 74.2833 89.0556 73.5498C91.475 70.6051 93.5234 67.3747 95.1546 63.931C95.5587 63.0707 95.9311 62.197 96.2607 61.3132C96.5957 60.422 96.8608 59.5583 97.118 58.6055C97.6382 56.746 98.0555 54.8593 98.3681 52.954C98.6912 51.0793 98.8036 49.1745 98.7031 47.2749C98.5704 45.4153 98.1394 43.5654 97.115 42.1004C96.0425 40.6245 94.4501 39.6096 92.6585 39.26C90.8288 38.8591 88.9198 39.0324 87.1923 39.7563C85.4157 40.4879 83.7705 41.5045 82.3216 42.7657C80.8429 44.0089 79.5093 45.4147 78.3459 46.9564L77.3454 46.2041Z" fill="#E94A47"/>
<path d="M143.801 96.2387C143.473 94.8402 145.712 90.8533 144.387 89.89C143.155 88.9946 141.585 92.4321 138.81 94.0234C136.642 95.2666 134.718 96.206 132.675 96.2956C126.668 96.5588 114.049 92.266 114.049 92.266L111.294 106.002C115.286 106.491 127.153 102.377 133.213 102.52C137.841 102.63 138.111 106.354 143.697 106.354C149.303 106.354 157.191 103.722 157.191 99.469C157.19 95.6219 144.6 99.6297 143.801 96.2387Z" fill="#FFBEB6"/>
<path d="M96.2523 41.2702C96.2523 41.2702 96.6037 57.1656 99.8096 66.9476C103.016 76.7296 105.429 78.8473 111.909 82.6614C117.582 86.0006 125.495 88.0593 125.495 88.0593L124.901 115.944C124.901 115.944 115.925 116.973 109.676 111.009C102.647 104.302 98.348 105.012 93.4999 104.733C88.6518 104.453 78.0259 101.05 76.4944 85.4102C74.9628 69.77 78.2454 58.5586 88.8709 39.5136C90.2089 39.0825 91.637 39.0115 93.0112 39.3077C95.341 39.9358 96.2523 41.2702 96.2523 41.2702Z" fill="#5BA6F6"/>
</g>
<defs>
<linearGradient id="paint0_linear_113_3800" x1="246.937" y1="45.4304" x2="235.307" y2="25.9558" gradientUnits="userSpaceOnUse">
<stop stop-color="#FFBEB6"/>
<stop offset="1" stop-color="#F8AFA9"/>
</linearGradient>
<linearGradient id="paint1_linear_113_3800" x1="110.179" y1="279.135" x2="141.185" y2="276.438" gradientUnits="userSpaceOnUse">
<stop stop-color="#E94A47"/>
<stop offset="0.992" stop-color="#D62929"/>
</linearGradient>
<linearGradient id="paint2_linear_113_3800" x1="247.502" y1="50.982" x2="256.89" y2="115.67" gradientUnits="userSpaceOnUse">
<stop stop-color="#23286B"/>
<stop offset="0.659" stop-color="#151A4F"/>
</linearGradient>
<linearGradient id="paint3_linear_113_3800" x1="53.9837" y1="24.2794" x2="84.5879" y2="28.4212" gradientUnits="userSpaceOnUse">
<stop stop-color="#23286B"/>
<stop offset="1" stop-color="#151A4F"/>
</linearGradient>
<linearGradient id="paint4_linear_113_3800" x1="116.387" y1="93.3515" x2="160.991" y2="92.548" gradientUnits="userSpaceOnUse">
<stop stop-color="#FFBEB6"/>
<stop offset="0.647" stop-color="#F7ABA5"/>
<stop offset="1" stop-color="#F2A19C"/>
</linearGradient>
<linearGradient id="paint5_linear_113_3800" x1="93.5619" y1="49.5525" x2="93.5619" y2="29.4508" gradientUnits="userSpaceOnUse">
<stop stop-color="#FFBEB6"/>
<stop offset="1" stop-color="#F2A19C"/>
</linearGradient>
<linearGradient id="paint6_linear_113_3800" x1="307.647" y1="-345.779" x2="339.02" y2="-341.533" gradientUnits="userSpaceOnUse">
<stop stop-color="#23286B"/>
<stop offset="1" stop-color="#151A4F"/>
</linearGradient>
<linearGradient id="paint7_linear_113_3800" x1="145.664" y1="83.5459" x2="184.826" y2="83.5459" gradientUnits="userSpaceOnUse">
<stop stop-color="#428DFC"/>
<stop offset="1" stop-color="#1D72D8"/>
</linearGradient>
<linearGradient id="paint8_linear_113_3800" x1="95.7501" y1="16.2261" x2="117.032" y2="37.6227" gradientUnits="userSpaceOnUse">
<stop stop-color="#E94A47"/>
<stop offset="0.992" stop-color="#D62929"/>
</linearGradient>
<linearGradient id="paint9_linear_113_3800" x1="-161.846" y1="316.649" x2="-121.33" y2="299.027" gradientUnits="userSpaceOnUse">
<stop stop-color="#E94A47"/>
<stop offset="0.992" stop-color="#D62929"/>
</linearGradient>
<clipPath id="clip0_113_3800">
<rect width="135.056" height="198.533" fill="white" transform="translate(177.25 9.15007) scale(1.0011)"/>
</clipPath>
<clipPath id="clip1_113_3800">
<rect width="141.488" height="227.659" fill="white" transform="translate(45.0496 4.00441) scale(1.0011)"/>
</clipPath>
</defs>
</svg>
