<svg width="159" height="273" viewBox="0 0 159 273" fill="none" xmlns="http://www.w3.org/2000/svg">
<path d="M31.9214 172.004C16.1335 154.851 5.97174 120.788 14.4487 95.2821C22.9256 69.7759 46.7589 49.7373 73.5363 46.8581C100.314 43.9788 128.409 59.1022 139.708 83.4916C153.105 112.418 142.448 146.963 125.873 174.203" fill="#25CEC7"/>
<path d="M96.4192 48.4926C96.4834 48.5391 130.671 73.9697 119.448 123.348C111.105 160.045 59.6199 166.56 21.3922 155.566C24.5171 161.895 28.2541 167.525 32.3702 172.004L126.322 174.203C142.896 146.963 153.554 112.418 140.156 83.4917C132.023 65.9369 115.192 53.1867 96.4134 48.4868L96.4192 48.4926Z" fill="#36D8BD"/>
<path d="M59.194 49.3302C59.194 49.3302 38.5206 44.7175 42.281 32.9795C45.4584 23.0678 57.1594 27.82 62.1849 36.2077C62.1849 36.2077 50.2799 20.5724 54.46 9.20079C58.6344 -2.16504 70.5802 3.29102 71.5538 15.5119C72.0843 22.1895 73.4952 32.549 73.4952 32.549C73.4952 32.549 73.81 18.8856 76.7017 9.90461C79.8033 0.254703 92.2155 0.737489 93.5623 10.05C94.909 19.3684 87.738 32.328 87.738 32.328C87.738 32.328 94.2969 21.6892 102.121 25.3654C109.811 28.9834 104.61 41.751 87.2075 47.9982" fill="#EF59A1"/>
<path d="M59.9696 46.5265C55.0956 45.4213 48.8458 43.2459 45.8608 39.0172C43.9719 36.3357 44.5782 31.1181 48.3386 30.3852C52.8977 29.501 57.5384 34.2591 59.6781 37.6735L64.7094 34.7361C62.2316 31.4613 60.127 27.7269 58.5995 23.9228C56.7164 19.2229 54.3144 10.0791 59.6664 6.51345C64.7152 3.14558 68.2541 12.0277 68.6447 15.5119C69.3093 21.4507 69.8865 27.3954 70.6911 33.3226C71.1458 36.6614 76.3404 35.7016 76.4162 32.549C76.5328 27.9014 76.9409 23.2132 77.693 18.6238C78.445 14.0344 79.3895 5.53043 85.7909 5.78054C96.5066 6.19353 87.8373 26.0983 85.2196 30.8621C83.4123 34.1544 88.2629 36.9755 90.2509 33.7996C92.3731 30.4026 99.6257 23.8647 102.826 29.7104C103.987 31.8219 102.669 34.4336 101.357 36.1612C98.3489 40.1281 93.44 42.5479 88.8867 44.2347C85.4003 45.526 86.9103 51.1508 90.4375 49.842C96.6057 47.5561 102.821 44.3104 106.633 38.7554C109.094 35.1665 110.102 30.2979 107.665 26.4356C104.838 21.951 98.8678 20.6771 94.1629 22.7071C90.4725 24.3009 87.3417 27.4768 85.2254 30.8563L90.2568 33.7938C92.3148 30.0478 93.9647 25.9703 95.1482 21.8695C96.7689 16.268 98.0049 8.93901 94.0696 4.00064C90.8573 -0.0303362 85.2079 -1.05989 80.6022 1.11555C74.7313 3.89012 73.233 10.4106 72.2127 16.2506C71.2741 21.6194 70.7202 27.1046 70.5861 32.549C72.4926 32.2931 74.4048 32.0313 76.3112 31.7754C76.4395 32.7177 76.1946 30.8912 76.1363 30.4433C75.9498 29.0124 75.7691 27.5815 75.5941 26.1506C75.1452 22.4745 74.8188 18.7925 74.4281 15.1105C73.816 9.3171 70.9942 3.08741 65.2283 0.807268C59.8471 -1.31583 54.74 1.70304 52.3905 6.65887C49.5571 12.6501 50.624 19.508 52.9735 25.4701C54.6701 29.7628 56.8738 33.9799 59.6664 37.6735C61.8585 40.576 66.7383 37.9992 64.6978 34.7361C61.3688 29.4138 55.3463 24.1904 48.6418 24.5161C41.9372 24.8419 38.0019 31.5834 39.0921 37.691C40.5905 46.0786 50.9913 50.4412 58.4071 52.1222C62.0626 52.9481 63.6192 47.3409 59.9579 46.5149L59.9696 46.5265Z" fill="#09051C"/>
<path d="M34.4396 169.951C21.0305 155.177 14.2851 133.381 14.7806 113.663C15.2995 93.095 26.4 73.9581 43.0506 62.028C59.8354 49.9991 80.8411 46.1892 100.564 52.7271C120.666 59.3872 136.425 75.5111 141.515 96.1313C147.968 122.26 137.783 149.628 124.357 171.836C122.415 175.046 127.452 177.978 129.388 174.773C142.418 153.222 152.044 127.594 148.54 102.064C145.38 79.0419 130.682 59.5676 109.461 50.0107C89.0731 40.8262 65.8928 41.8208 46.4495 52.9307C27.6126 63.6974 12.8392 83.067 9.71431 104.746C6.26875 128.629 13.9819 156.078 30.3119 174.063C32.8363 176.844 36.9465 172.72 34.4338 169.951H34.4396Z" fill="#09051C"/>
<path d="M112.603 81.2348C112.452 79.8678 112.65 78.7103 112.953 77.6226C113.262 76.5349 113.723 75.5402 114.288 74.6096C114.859 73.6847 115.536 72.8238 116.369 72.056C117.209 71.294 118.153 70.596 119.448 70.1132C119.599 71.486 119.407 72.6377 119.104 73.7312C118.795 74.819 118.334 75.8136 117.763 76.7385C117.186 77.6633 116.509 78.5242 115.676 79.2862C114.836 80.0482 113.892 80.7462 112.603 81.2289V81.2348Z" fill="white" fill-opacity="0.3"/>
<path d="M29.7465 113.291C28.3939 113.558 27.222 113.459 26.1085 113.25C24.995 113.035 23.963 112.662 22.9894 112.18C22.0158 111.691 21.1005 111.092 20.261 110.324C19.4273 109.556 18.6519 108.678 18.0572 107.427C19.4156 107.16 20.5816 107.253 21.701 107.462C22.8145 107.677 23.8464 108.05 24.8201 108.538C25.7937 109.033 26.709 109.632 27.5427 110.394C28.3764 111.162 29.1518 112.04 29.7465 113.285V113.291Z" fill="white" fill-opacity="0.3"/>
<path d="M65.1878 160.348C63.911 159.946 62.9374 159.458 62.0337 158.853C61.1359 158.254 60.3663 157.556 59.6784 156.782C58.9904 156.008 58.3957 155.153 57.9118 154.194C57.428 153.222 57.0548 152.193 56.8508 150.866C58.215 150.948 59.2994 151.448 60.2555 152.006C61.2175 152.582 62.0279 153.292 62.7391 154.095C63.4446 154.903 64.0509 155.799 64.4998 156.823C64.9312 157.846 65.2985 158.987 65.1878 160.348Z" fill="white" fill-opacity="0.3"/>
<path d="M42.497 160.348C42.328 160.388 42.1647 160.394 41.984 160.412C41.8149 160.417 41.6575 160.412 41.4884 160.4C41.1503 160.388 40.853 160.336 40.544 160.278C39.9376 160.156 39.3779 159.97 38.8474 159.754C37.7863 159.318 36.8535 158.736 36.0082 158.073C35.1628 157.404 34.4107 156.648 33.7461 155.782C33.0757 154.903 32.5218 153.967 31.9796 152.716C33.3497 152.483 34.574 152.803 35.6525 153.205C36.7369 153.624 37.6872 154.205 38.5443 154.886C39.4013 155.566 40.1592 156.34 40.8121 157.236C41.1386 157.684 41.4418 158.155 41.7158 158.667C41.9898 159.184 42.2289 159.708 42.5029 160.353L42.497 160.348Z" fill="white" fill-opacity="0.3"/>
<path d="M96.4192 160.348C96.0344 159.027 96.0228 157.852 96.1277 156.73C96.2385 155.607 96.5183 154.548 96.9148 153.53C97.317 152.518 97.8301 151.553 98.518 150.657C99.2118 149.761 100.016 148.912 101.212 148.208C101.602 149.529 101.614 150.704 101.503 151.832C101.392 152.955 101.107 154.013 100.71 155.025C100.308 156.037 99.789 157.003 99.101 157.899C98.4073 158.795 97.6027 159.644 96.4134 160.348H96.4192Z" fill="white" fill-opacity="0.3"/>
<path d="M118.206 158.952C118.923 157.777 119.781 156.974 120.684 156.293C121.594 155.619 122.561 155.107 123.576 154.711C124.596 154.322 125.657 154.048 126.782 153.949C127.913 153.85 129.085 153.874 130.409 154.275C129.697 155.456 128.835 156.259 127.931 156.939C127.021 157.614 126.054 158.126 125.033 158.515C124.013 158.899 122.952 159.173 121.821 159.272C120.69 159.37 119.518 159.347 118.195 158.952H118.206Z" fill="white" fill-opacity="0.3"/>
<path d="M127.896 116.827C128.351 115.53 129.033 114.57 129.773 113.715C130.519 112.866 131.371 112.168 132.28 111.575C133.195 110.987 134.181 110.504 135.265 110.173C136.349 109.847 137.504 109.626 138.88 109.748C138.425 111.051 137.749 112.011 137.002 112.86C136.256 113.709 135.405 114.407 134.49 114.995C133.569 115.582 132.589 116.065 131.505 116.397C130.42 116.722 129.266 116.943 127.89 116.827H127.896Z" fill="white" fill-opacity="0.3"/>
<path d="M74.8944 92.6471C73.9616 91.6292 73.4369 90.5822 73.0346 89.5236C72.6382 88.4649 72.4225 87.3888 72.3292 86.3069C72.2417 85.225 72.2767 84.1315 72.4983 83.0205C72.7256 81.9095 73.0696 80.7927 73.8333 79.641C74.772 80.6531 75.2967 81.7059 75.699 82.7645C76.0954 83.8232 76.3111 84.8993 76.3986 85.9812C76.4802 87.0631 76.4452 88.1624 76.2237 89.2676C75.9963 90.3786 75.6523 91.4954 74.8944 92.6471Z" fill="white" fill-opacity="0.3"/>
<path d="M82.497 65.995C81.5642 64.9771 81.0395 63.9301 80.6372 62.8715C80.2407 61.8128 80.025 60.7367 79.9317 59.6548C79.8443 58.5729 79.8793 57.4794 80.1008 56.3684C80.3282 55.2574 80.6722 54.1406 81.4359 52.9889C82.3745 54.001 82.8993 55.0538 83.3015 56.1125C83.698 57.1711 83.9137 58.2472 84.0011 59.3291C84.0828 60.411 84.0478 61.5104 83.8262 62.6155C83.5989 63.7265 83.2549 64.8433 82.497 65.995Z" fill="white" fill-opacity="0.3"/>
<path d="M46.1114 82.433C44.7355 82.3457 43.6278 81.9618 42.6017 81.4791C41.5814 80.9905 40.6778 80.3681 39.8557 79.6584C39.0395 78.943 38.3049 78.1286 37.6869 77.1805C37.0748 76.2266 36.5501 75.1796 36.2877 73.8243C37.6694 73.9057 38.7772 74.2954 39.8032 74.7782C40.8235 75.2668 41.7272 75.8892 42.5492 76.6047C43.3654 77.3259 44.1 78.1403 44.7122 79.0884C45.3243 80.0423 45.8548 81.0893 46.1114 82.4388V82.433Z" fill="white" fill-opacity="0.3"/>
<path d="M151.169 176.256C145.03 170.504 11.306 172.423 6.13476 176.256C0.96933 180.09 3.11479 201.32 8.07035 202.891C8.40266 202.996 9.55701 203.106 11.3935 203.211C11.3935 203.211 16.6464 242.258 26.5866 257.94C36.5269 273.622 117.751 273.267 128.31 261.081C137.661 250.291 146.15 203.211 146.15 203.205C148.575 202.955 150.097 202.664 150.516 202.327C155.04 198.668 157.297 182.003 151.163 176.251L151.169 176.256Z" fill="#FF8FB8"/>
<path d="M8.05893 202.879H148.651C149.63 202.711 150.277 202.525 150.522 202.327C155.046 198.668 157.303 182.003 151.169 176.251C150.009 175.163 144.296 174.354 135.755 173.773L135.731 174.203C135.731 174.203 144.325 184.103 137.883 189.908C127.365 199.372 23.2054 196.516 3.55812 192.619C4.26939 197.726 5.89597 202.176 8.06476 202.879H8.05893Z" fill="#FF5F96"/>
<path d="M11.417 203.356C11.4986 203.95 11.8368 206.352 12.4256 209.877C28.0502 211.494 60.133 214.577 82.5846 215.129C113.297 215.886 116.329 249.553 94.7169 258.632C73.1049 267.712 24.8611 254.898 24.8611 254.898C25.4208 255.986 25.998 257.004 26.5868 257.94C36.5271 273.622 117.752 273.267 128.31 261.081C137.043 251.007 145.019 209.318 146.039 203.816C111.677 204.95 36.4163 203.793 11.4112 203.362L11.417 203.356Z" fill="#FF5F96"/>
<path d="M8.8516 200.082C9.39379 200.291 8.82828 199.988 8.68253 199.698C8.46681 199.261 8.18114 198.86 7.98292 198.412C7.2425 196.737 6.85188 194.841 6.54872 193.043C5.9424 189.46 5.73834 185.499 6.49625 181.922C6.74694 180.741 7.29497 179.845 7.67975 178.775C7.81968 178.379 7.29497 178.792 7.62728 178.746C8.60673 178.6 9.58618 178.31 10.5715 178.164C10.0992 178.222 11.2827 178.06 10.5715 178.164C10.7697 178.141 10.9679 178.112 11.1661 178.089C11.5043 178.048 11.8424 178.007 12.1806 177.972C13.1425 177.868 14.1045 177.774 15.0664 177.687C17.311 177.489 19.5614 177.327 21.8118 177.187C27.4786 176.826 33.1571 176.582 38.8356 176.373C67.3096 175.337 95.9003 175.023 124.38 176.105C129.668 176.303 134.962 176.559 140.232 177.03C143.579 177.332 145.578 177.536 148.89 178.35C149.111 178.403 149.321 178.531 149.543 178.577C149.094 178.478 149.024 178.222 149.391 178.542C149.35 178.507 148.913 177.716 149.496 178.699C149.933 179.438 150.487 180.072 150.831 180.892C152.429 184.691 152.289 189.414 151.49 193.375C151.146 195.079 150.697 196.818 149.892 198.366C149.665 198.796 149.018 199.436 148.896 199.866C148.843 200.047 148.866 199.82 149.397 199.709C149.076 199.779 148.773 199.919 148.447 199.971C148.097 200.029 146.931 200.221 147.211 200.186C139.142 201.291 128.863 201.233 120.072 201.384C105.841 201.629 91.6035 201.635 77.3723 201.565C63.1411 201.495 49.3589 201.338 35.3609 201.053C26.919 200.884 18.4071 200.878 9.98263 200.21C9.59202 200.18 9.2014 200.146 8.81079 200.105C8.61256 200.082 9.62117 200.308 8.8516 200.087C5.24279 199.04 3.69782 204.653 7.3008 205.695C9.39379 206.3 11.9357 206.16 14.0928 206.259C18.8035 206.468 23.5142 206.596 28.2307 206.713C42.5144 207.062 56.8039 207.242 71.0933 207.347C86.3973 207.457 101.707 207.475 117.011 207.254C127.033 207.108 137.247 207.219 147.211 206.009C151.257 205.514 153.542 204.409 155.39 200.343C158.696 193.067 159.518 181.474 153.985 175.017C152.009 172.708 149.012 172.313 146.15 171.905C141.439 171.231 136.676 170.911 131.924 170.649C102.203 169.015 72.2535 169.474 42.5202 170.445C31.8512 170.794 21.0597 171.015 10.4607 172.377C7.3008 172.784 4.38577 173.051 2.53181 176.018C-1.25773 182.085 -0.19666 192.049 1.84969 198.523C2.79999 201.518 4.20504 204.502 7.29497 205.7C10.793 207.062 12.3088 201.437 8.84577 200.093L8.8516 200.082Z" fill="#09051C"/>
<path d="M8.58901 203.985C10.682 219.48 13.7486 235.476 19.532 250.041C22.1148 256.556 24.8316 262.151 31.3379 265.316C37.9201 268.515 45.3184 269.963 52.5127 270.999C70.4693 273.575 89.0905 273.686 107.065 271.202C113.548 270.307 120.386 269.161 126.269 266.142C131.912 263.245 134.396 257.196 136.611 251.588C142.605 236.43 146.068 219.992 148.959 203.985C149.618 200.326 144.004 198.755 143.339 202.437C140.972 215.531 138.005 228.636 134.023 241.339C132.798 245.242 131.493 249.157 129.784 252.88C128.7 255.247 127.511 257.929 125.575 259.703C125.225 260.023 124.38 260.564 123.459 261.046C122.409 261.599 121.541 261.936 120.398 262.338C117.425 263.373 114.341 264.088 111.251 264.67C94.6932 267.799 77.1505 267.77 60.4299 266.142C52.9616 265.415 45.3825 264.286 38.2465 261.884C35.7804 261.052 33.2968 260.034 31.163 258.51C30.7666 258.225 29.6297 257.207 29.3382 256.835C28.5861 255.869 27.5659 253.863 26.8896 252.472C22.0973 242.654 19.6312 231.567 17.4332 220.934C16.1681 214.809 15.0371 208.644 14.1975 202.443C13.6961 198.749 8.0818 200.326 8.57735 203.99L8.58901 203.985Z" fill="#09051C"/>
<path d="M22.6687 245.045C48.9739 247.412 75.5648 248.488 101.969 247.895C112.312 247.662 122.66 247.127 132.933 245.865C136.611 245.411 136.652 239.594 132.933 240.048C114.381 242.322 95.5678 242.445 76.9058 242.072C61.8059 241.77 46.706 241.037 31.6411 239.937C28.6503 239.722 25.6595 239.495 22.6745 239.228C18.9374 238.89 18.9608 244.713 22.6745 245.045H22.6687Z" fill="#09051C"/>
<path d="M26.8721 241.06C31.1689 229.107 37.1214 217.863 44.5022 207.521H39.4709C42.1061 213.256 44.7646 218.98 47.4406 224.692C50.5363 231.3 53.3056 238.396 57.1535 244.614C58.2262 246.348 61.1995 246.662 62.1848 244.614C67.4202 233.772 72.6556 222.912 78.2991 212.273C78.8704 211.191 79.4476 210.11 80.0598 209.051C80.2755 208.673 80.5029 208.301 80.7244 207.922C80.9459 207.544 81.0509 207.056 81.0625 207.376C81.0917 208.266 77.203 208.161 77.3196 207.637C77.3196 207.655 78.0018 208.533 77.5412 207.858C78.1767 208.795 78.8296 209.714 79.4418 210.668C83.3479 216.81 86.8751 223.203 90.4198 229.555C92.3379 232.992 94.2327 236.442 96.1099 239.903C96.7571 241.095 97.3984 242.282 98.028 243.48C98.2496 243.899 99.0716 245.842 98.5586 244.393C99.5613 247.214 103.129 247.075 104.179 244.393C109.012 232.068 113.903 219.742 118.334 207.259L113.005 207.952C118.27 220.172 123.54 232.393 128.805 244.608C130.28 248.04 135.305 245.08 133.836 241.671C128.572 229.45 123.301 217.229 118.037 205.014C116.952 202.501 113.449 203.624 112.708 205.706C108.283 218.189 103.386 230.514 98.5527 242.84H104.173C102.418 237.902 99.0833 233.167 96.5588 228.607C92.6935 221.632 88.8457 214.617 84.5781 207.882C83.552 206.259 82.3801 203.845 80.6195 202.874C78.0717 201.46 76.4393 203.694 75.3083 205.607C71.5945 211.895 68.4871 218.59 65.2456 225.128C62.5171 230.631 59.8178 236.139 57.1476 241.671H62.179C58.3311 235.447 55.5618 228.357 52.4661 221.749C49.7901 216.037 47.1316 210.313 44.4964 204.578C43.4994 202.408 40.5961 202.984 39.465 204.578C31.7927 215.339 25.7119 227.077 21.2461 239.507C19.9751 243.038 25.607 244.556 26.8663 241.054L26.8721 241.06Z" fill="#09051C"/>
<path d="M8.83986 141.635L14.3726 141.949C15.9467 142.037 17.2876 140.548 17.2876 139.041C17.2876 137.395 15.9525 136.22 14.3726 136.133L8.83986 135.819C7.26574 135.731 5.92482 137.22 5.92482 138.727C5.92482 140.373 7.25991 141.548 8.83986 141.635Z" fill="#09051C"/>
<path d="M6.7235 93.9268C8.61244 95.3461 10.6296 96.5269 12.7868 97.4808C14.2268 98.1148 15.9175 97.8996 16.7745 96.4396C17.5033 95.2007 17.1768 93.1008 15.7309 92.461C13.5738 91.5071 11.5508 90.3204 9.66768 88.907C8.40839 87.9647 6.40868 88.7034 5.67992 89.9482C4.80541 91.4373 5.46421 92.9787 6.7235 93.9268Z" fill="#09051C"/>
<path d="M25.712 61.6209C26.5224 63.6044 27.5718 65.3494 29.0701 66.8966C30.1312 67.996 32.1425 68.0425 33.192 66.8966C34.2414 65.7507 34.323 63.9534 33.192 62.7842C32.9413 62.5283 32.7081 62.2665 32.4749 61.9931C32.8421 62.4294 32.2008 61.6034 32.1425 61.5103C31.9501 61.2137 31.7694 60.9054 31.6003 60.5913C31.5479 60.4924 31.1048 59.521 31.3322 60.0736C30.7608 58.6718 29.3674 57.5201 27.7467 58.0436C26.3883 58.4798 25.094 60.1143 25.712 61.6209Z" fill="#09051C"/>
<path d="M115.483 48.3588C114.457 49.6385 113.437 50.9181 112.411 52.1978C111.461 53.3844 111.163 55.1701 112.411 56.3102C113.466 57.2758 115.518 57.5782 116.533 56.3102L119.605 52.4712C120.555 51.2846 120.853 49.4989 119.605 48.3588C118.55 47.3932 116.498 47.0907 115.483 48.3588Z" fill="#09051C"/>
<path d="M137.06 78.0356C138.792 77.3434 140.524 76.6512 142.255 75.9649C143.718 75.3832 144.739 74.0221 144.29 72.3876C143.911 71.0032 142.173 69.7701 140.704 70.3576C138.973 71.0497 137.241 71.7419 135.51 72.4283C134.046 73.01 133.026 74.3711 133.475 76.0056C133.854 77.3899 135.591 78.6231 137.06 78.0356Z" fill="#09051C"/>
<path d="M145.841 100.261C147.497 100.378 149.181 100.18 150.779 99.7435C152.248 99.3363 153.297 97.6611 152.814 96.1662C152.33 94.6714 150.802 93.7 149.228 94.1362C148.937 94.2177 148.651 94.2933 148.354 94.3514C148.155 94.3922 147.963 94.4271 147.765 94.4561C147.992 94.4212 148.004 94.4212 147.794 94.4387C147.141 94.491 146.494 94.491 145.841 94.4387C144.319 94.334 142.856 95.8521 142.926 97.347C143.002 99.0164 144.208 100.139 145.841 100.255V100.261Z" fill="#09051C"/>
<path d="M144.127 139.78L148.593 141.449C150.021 141.984 151.852 140.856 152.178 139.419C152.557 137.767 151.677 136.412 150.143 135.842L145.678 134.173C144.249 133.637 142.419 134.766 142.092 136.203C141.713 137.854 142.593 139.21 144.127 139.78Z" fill="#09051C"/>
<path d="M18.098 156.747C17.8648 157.375 18.4128 156.229 18.063 156.799C17.993 156.916 17.9231 157.032 17.8531 157.148C17.5325 157.701 18.2612 156.753 17.8123 157.212C17.6899 157.335 17.5791 157.463 17.4508 157.579C17.4042 157.625 17.3517 157.672 17.2993 157.713C17.136 157.852 17.2001 157.806 17.4858 157.573C17.4392 157.678 17.1477 157.794 17.0544 157.846C16.9378 157.91 16.7396 158.073 16.5997 158.079L16.9145 157.94C16.7862 157.986 16.658 158.027 16.5239 158.062C15.0605 158.486 13.9994 160.132 14.4892 161.639C14.9731 163.122 16.5064 164.123 18.0747 163.669C20.7915 162.884 22.7562 160.9 23.724 158.289C24.2545 156.858 23.1352 155.037 21.6893 154.711C20.0394 154.339 18.6693 155.212 18.1038 156.741L18.098 156.747Z" fill="#09051C"/>
<path d="M136.425 160.068C137.131 160.743 137.836 161.418 138.547 162.093C139.649 163.146 141.591 163.268 142.669 162.093C143.719 160.953 143.847 159.103 142.669 157.98C141.964 157.306 141.258 156.631 140.547 155.956C139.445 154.903 137.504 154.781 136.425 155.956C135.376 157.096 135.247 158.946 136.425 160.068Z" fill="#09051C"/>
<path d="M9.98868 109.818C8.99173 109.969 7.98896 110.126 6.99202 110.278C6.31574 110.382 5.58115 111.051 5.24883 111.615C4.88154 112.238 4.72996 113.157 4.95733 113.855C5.1847 114.559 5.62196 115.239 6.29825 115.594C7.03283 115.984 7.72661 116.013 8.54282 115.885L11.5395 115.425C12.2158 115.321 12.9503 114.652 13.2827 114.087C13.65 113.465 13.8015 112.546 13.5742 111.848C13.3468 111.15 12.9095 110.464 12.2333 110.109C11.4987 109.719 10.8049 109.69 9.98868 109.818Z" fill="#09051C"/>
<path d="M119.004 110.749C115.512 115.012 109.233 114.5 105.537 110.749C102.902 108.073 98.78 112.191 101.415 114.861C107.152 120.689 117.652 121.55 123.126 114.861C125.482 111.988 121.377 107.846 119.004 110.749Z" fill="#09051C"/>
<path d="M34.6378 114.861C40.1123 121.55 50.6064 120.689 56.349 114.861C58.9784 112.191 54.8623 108.073 52.2271 110.749C48.5309 114.5 42.2519 115.012 38.7597 110.749C36.3869 107.846 32.2825 111.982 34.6378 114.861Z" fill="#09051C"/>
<path d="M65.9457 143.008C72.5453 133.184 87.0272 133.533 93.3003 143.485C95.2942 146.649 100.337 143.729 98.3317 140.548C94.3264 134.19 87.3711 129.926 79.7571 129.833C72.1139 129.74 65.112 133.824 60.9143 140.071C58.8213 143.188 63.8643 146.103 65.9457 143.008Z" fill="#09051C"/>
<path d="M121.833 133.05C121.757 135.563 118.201 137.494 113.898 137.366C109.596 137.232 106.167 135.086 106.243 132.573C106.319 130.06 109.875 128.129 114.178 128.257C118.481 128.391 121.909 130.537 121.833 133.05Z" fill="#ED7179"/>
<path d="M51.5221 133.05C51.4463 135.563 47.89 137.494 43.5874 137.366C39.2848 137.232 35.8567 135.086 35.9325 132.573C36.0083 130.06 39.5646 128.129 43.8672 128.257C48.1698 128.391 51.5979 130.537 51.5221 133.05Z" fill="#ED7179"/>
</svg>
