<svg width="11" height="13" viewBox="0 0 11 13" fill="none" xmlns="http://www.w3.org/2000/svg">
<path d="M8.66278 4.88146C8.66278 4.01836 8.31992 3.19061 7.70961 2.58031C7.09931 1.97 6.27156 1.62714 5.40846 1.62714C4.54536 1.62714 3.71761 1.97 3.10731 2.58031C2.49701 3.19061 2.15414 4.01836 2.15414 4.88146C2.15414 8.67816 0.526984 9.76294 0.526984 9.76294H10.2899C10.2899 9.76294 8.66278 8.67816 8.66278 4.88146Z" stroke="white" stroke-linecap="round" stroke-linejoin="round"/>
<path d="M6.3465 11.9325C6.25114 12.0969 6.11427 12.2334 5.94959 12.3282C5.78491 12.4231 5.59821 12.473 5.40817 12.473C5.21813 12.473 5.03142 12.4231 4.86674 12.3282C4.70207 12.2334 4.5652 12.0969 4.46984 11.9325" stroke="white" stroke-linecap="round" stroke-linejoin="round"/>
<circle cx="8.66292" cy="2.16955" r="1.66955" fill="#FF4545" stroke="white"/>
</svg>
