<svg width="249" height="266" viewBox="0 0 249 266" fill="none" xmlns="http://www.w3.org/2000/svg">
<circle cx="239.59" cy="78.1188" r="9.40989" fill="url(#paint0_linear_186_11221)"/>
<ellipse cx="15.2006" cy="45.5461" rx="15.2006" ry="14.4767" fill="url(#paint1_linear_186_11221)"/>
<ellipse cx="7.23837" cy="228.677" rx="7.23837" ry="7.96221" fill="url(#paint2_linear_186_11221)"/>
<ellipse cx="222.218" cy="262.697" rx="3.61919" ry="2.89535" fill="url(#paint3_linear_186_11221)"/>
<circle cx="204.4" cy="180.904" r="3.61919" fill="#E8EFF6"/>
<circle cx="59.4661" cy="141.093" r="5.7907" fill="#E8EFF6"/>
<circle cx="174.222" cy="29.7887" r="2.17151" fill="#E8EFF6"/>
<circle cx="204.345" cy="131.85" r="2.89535" fill="#E8EFF6"/>
<circle cx="15.7019" cy="142.54" r="1.44768" fill="#E8EFF6"/>
<path d="M78.5704 167.551C63.2266 150.842 53.3506 117.661 61.5891 92.8152C69.8276 67.9693 92.9907 48.4496 119.015 45.6449C145.039 42.8402 172.344 57.572 183.325 81.33C196.346 109.508 185.988 143.158 169.88 169.693" fill="#25CEC7"/>
<path d="M140.813 47.2371C140.875 47.2824 174.101 72.0546 163.194 120.154C155.086 155.902 105.048 162.248 67.8957 151.539C70.9327 157.703 74.5647 163.188 78.5649 167.551L169.874 169.693C185.983 143.158 196.34 109.508 183.32 81.33C175.416 64.2297 159.058 51.8096 140.807 47.2314L140.813 47.2371Z" fill="#4FE7AF" fill-opacity="0.4"/>
<path d="M166.27 133.413C166.197 135.861 162.74 137.742 158.559 137.617C154.377 137.487 151.046 135.396 151.119 132.948C151.193 130.5 154.649 128.619 158.831 128.744C163.012 128.874 166.344 130.965 166.27 133.413Z" fill="#ED7179"/>
<path d="M97.9372 133.413C97.8635 135.861 94.4072 137.742 90.2256 137.617C86.044 137.487 82.7124 135.396 82.786 132.948C82.8597 130.5 86.316 128.619 90.4976 128.744C94.6792 128.874 98.0108 130.965 97.9372 133.413Z" fill="#ED7179"/>
<path d="M104.635 48.053C104.635 48.053 84.5426 43.5598 88.1973 32.1256C91.2853 22.4706 102.657 27.0998 107.541 35.2703C107.541 35.2703 95.9712 20.0398 100.034 8.96257C104.091 -2.10899 115.701 3.20581 116.647 15.1103C117.162 21.615 118.534 31.7063 118.534 31.7063C118.534 31.7063 118.84 18.3966 121.65 9.64817C124.664 0.248105 136.727 0.718391 138.036 9.78982C139.345 18.8669 132.376 31.491 132.376 31.491C132.376 31.491 138.75 21.1277 146.354 24.7087C153.828 28.233 148.774 40.6701 131.86 46.7555" fill="#EF59A1"/>
<path d="M105.388 45.3219C100.651 44.2454 94.5772 42.1262 91.6761 38.007C89.8403 35.3949 90.4296 30.3124 94.0842 29.5985C98.5151 28.7372 103.025 33.3721 105.105 36.6981L109.995 33.8367C107.587 30.6467 105.541 27.0091 104.057 23.3035C102.226 18.7252 99.892 9.81813 105.093 6.34481C110 3.06414 113.44 11.7163 113.819 15.1103C114.465 20.8954 115.026 26.6861 115.808 32.4599C116.25 35.7122 121.299 34.7773 121.372 31.7063C121.485 27.1791 121.882 22.6122 122.613 18.1416C123.344 13.6711 124.262 5.38724 130.483 5.63088C140.898 6.03318 132.472 25.4226 129.928 30.0631C128.171 33.2701 132.886 36.0182 134.818 32.9245C136.88 29.6155 143.929 23.2468 147.04 28.9412C148.167 30.998 146.887 33.5421 145.612 35.2249C142.688 39.0892 137.917 41.4463 133.492 43.0895C130.104 44.3474 131.571 49.8265 134.999 48.5516C140.994 46.3248 147.034 43.1631 150.74 37.752C153.131 34.256 154.111 29.5135 151.742 25.7512C148.994 21.3826 143.192 20.1418 138.62 22.1192C135.033 23.6717 131.99 26.7654 129.934 30.0574L134.823 32.9188C136.824 29.2699 138.427 25.2979 139.577 21.3033C141.153 15.8469 142.354 8.70758 138.529 3.89706C135.407 -0.0295507 129.917 -1.03245 125.44 1.08667C119.735 3.7894 118.278 10.1411 117.287 15.8299C116.375 21.0597 115.836 26.4028 115.706 31.7063L121.27 30.9527C121.395 31.8706 121.157 30.0914 121.1 29.6552C120.919 28.2613 120.743 26.8674 120.573 25.4736C120.137 21.8926 119.82 18.306 119.44 14.7193C118.845 9.07587 116.103 3.00748 110.499 0.786368C105.269 -1.28176 100.306 1.65895 98.0222 6.48646C95.2684 12.3225 96.3053 19.0029 98.5888 24.8106C100.238 28.9922 102.379 33.1001 105.093 36.6981C107.224 39.5255 111.966 37.0154 109.983 33.8367C106.748 28.6523 100.895 23.5641 94.3789 23.8814C88.0442 24.193 84.0382 30.7657 85.0978 36.7151C86.554 44.8856 96.6623 49.1352 103.87 50.7727C107.422 51.5773 108.935 46.1152 105.377 45.3106L105.388 45.3219Z" fill="#09051C"/>
<path d="M80.5762 165.551C67.5441 151.159 60.9885 129.928 61.4701 110.72C61.9744 90.6847 72.7626 72.0432 88.945 60.4221C105.127 48.8009 125.673 44.9933 144.841 51.362C164.378 57.8497 179.693 73.5561 184.64 93.6424C190.912 119.095 181.013 145.754 167.964 167.387C166.078 170.514 170.973 173.37 172.854 170.248C185.518 149.255 194.873 124.29 191.467 99.4218C188.396 76.9954 174.112 58.0253 153.488 48.7159C133.673 39.7691 111.145 40.738 92.2483 51.5603C73.9412 62.0482 59.5833 80.9164 56.5462 102.034C53.1976 125.299 60.6938 152.037 76.5646 169.557C79.018 172.265 83.0126 168.248 80.5705 165.551H80.5762Z" fill="#09051C"/>
<path d="M156.542 79.1315C156.394 77.8 156.587 76.6724 156.882 75.6129C157.182 74.5533 157.63 73.5844 158.179 72.6778C158.734 71.7769 159.392 70.9384 160.202 70.1904C161.018 69.4482 161.936 68.7682 163.194 68.298C163.341 69.6352 163.154 70.757 162.859 71.8223C162.559 72.8818 162.111 73.8507 161.556 74.7516C160.995 75.6525 160.338 76.4911 159.528 77.2334C158.712 77.9756 157.794 78.6556 156.542 79.1259V79.1315Z" fill="white" fill-opacity="0.3"/>
<path d="M76.0151 110.357C74.7005 110.618 73.5616 110.522 72.4794 110.318C71.3972 110.108 70.3943 109.746 69.4481 109.275C68.5018 108.799 67.6122 108.216 66.7963 107.468C65.9861 106.72 65.2325 105.864 64.6545 104.646C65.9747 104.385 67.108 104.476 68.1958 104.68C69.2781 104.89 70.281 105.252 71.2272 105.728C72.1735 106.21 73.063 106.793 73.8733 107.536C74.6835 108.284 75.4371 109.139 76.0151 110.352V110.357Z" fill="white" fill-opacity="0.3"/>
<path d="M110.459 156.196C109.218 155.805 108.272 155.329 107.394 154.74C106.521 154.156 105.773 153.476 105.105 152.723C104.436 151.969 103.858 151.136 103.388 150.201C102.918 149.255 102.555 148.252 102.357 146.96C103.683 147.04 104.737 147.527 105.666 148.071C106.601 148.632 107.388 149.323 108.08 150.105C108.765 150.893 109.354 151.765 109.791 152.762C110.21 153.76 110.567 154.87 110.459 156.196Z" fill="white" fill-opacity="0.3"/>
<path d="M88.4069 156.196C88.2426 156.236 88.0839 156.242 87.9083 156.259C87.744 156.264 87.591 156.259 87.4267 156.247C87.098 156.236 86.8091 156.185 86.5088 156.128C85.9195 156.009 85.3755 155.828 84.8543 155.618C83.823 155.193 82.9165 154.627 82.0949 153.981C81.2733 153.329 80.5367 152.593 79.8964 151.748C79.2448 150.893 78.7065 149.98 78.1796 148.762C79.5111 148.536 80.701 148.847 81.7492 149.238C82.8031 149.646 83.7267 150.213 84.5596 150.876C85.3925 151.539 86.1291 152.292 86.7637 153.165C87.081 153.601 87.3757 154.06 87.642 154.559C87.9083 155.063 88.1406 155.573 88.4069 156.202V156.196Z" fill="white" fill-opacity="0.3"/>
<path d="M140.813 156.196C140.439 154.91 140.427 153.765 140.529 152.672C140.637 151.578 140.909 150.547 141.294 149.555C141.685 148.57 142.184 147.629 142.852 146.756C143.527 145.884 144.309 145.057 145.47 144.371C145.85 145.657 145.861 146.802 145.754 147.901C145.646 148.995 145.368 150.026 144.983 151.012C144.592 151.998 144.088 152.938 143.419 153.811C142.745 154.683 141.963 155.511 140.807 156.196H140.813Z" fill="white" fill-opacity="0.3"/>
<path d="M161.987 154.836C162.684 153.692 163.517 152.91 164.395 152.247C165.279 151.59 166.219 151.091 167.205 150.706C168.197 150.326 169.228 150.06 170.322 149.963C171.421 149.867 172.56 149.89 173.846 150.281C173.155 151.431 172.316 152.213 171.438 152.876C170.554 153.533 169.613 154.032 168.622 154.411C167.63 154.785 166.599 155.052 165.5 155.148C164.401 155.244 163.262 155.222 161.975 154.836H161.987Z" fill="white" fill-opacity="0.3"/>
<path d="M171.404 113.802C171.846 112.539 172.509 111.604 173.229 110.771C173.954 109.944 174.781 109.264 175.665 108.686C176.555 108.114 177.512 107.643 178.566 107.32C179.62 107.003 180.742 106.788 182.079 106.907C181.637 108.176 180.98 109.111 180.254 109.938C179.529 110.765 178.702 111.445 177.812 112.018C176.917 112.59 175.965 113.06 174.911 113.383C173.857 113.7 172.736 113.916 171.398 113.802H171.404Z" fill="white" fill-opacity="0.3"/>
<path d="M119.893 90.2484C118.987 89.2569 118.477 88.237 118.086 87.2057C117.701 86.1745 117.491 85.1263 117.4 84.0724C117.315 83.0185 117.349 81.9533 117.565 80.871C117.786 79.7888 118.12 78.7009 118.862 77.579C119.774 78.5649 120.284 79.5905 120.675 80.6217C121.061 81.653 121.27 82.7012 121.355 83.7551C121.435 84.809 121.401 85.8799 121.185 86.9564C120.964 88.0387 120.63 89.1266 119.893 90.2484Z" fill="white" fill-opacity="0.3"/>
<path d="M127.282 64.2864C126.375 63.2948 125.865 62.2749 125.475 61.2437C125.089 60.2124 124.88 59.1642 124.789 58.1103C124.704 57.0564 124.738 55.9912 124.953 54.909C125.174 53.8267 125.509 52.7388 126.251 51.617C127.163 52.6029 127.673 53.6284 128.064 54.6597C128.449 55.6909 128.659 56.7391 128.744 57.793C128.823 58.8469 128.789 59.9178 128.574 60.9944C128.353 62.0766 128.019 63.1645 127.282 64.2864Z" fill="white" fill-opacity="0.3"/>
<path d="M91.9199 80.2931C90.5827 80.2081 89.5062 79.8341 88.5089 79.3639C87.5174 78.8879 86.6391 78.2816 85.8402 77.5904C85.0469 76.8934 84.333 76.1002 83.7324 75.1766C83.1375 74.2474 82.6275 73.2275 82.3725 71.9073C83.7154 71.9866 84.792 72.3662 85.7892 72.8365C86.7808 73.3125 87.659 73.9187 88.4579 74.6157C89.2512 75.3183 89.9651 76.1115 90.5601 77.0351C91.155 77.9643 91.6706 78.9842 91.9199 80.2988V80.2931Z" fill="white" fill-opacity="0.3"/>
<path d="M194.023 171.693C188.057 166.089 58.0934 167.959 53.0675 171.693C48.0474 175.427 50.1325 196.108 54.9487 197.638C55.2716 197.74 56.3935 197.848 58.1783 197.95C58.1783 197.95 63.2835 235.986 72.9442 251.262C82.6049 266.538 161.545 266.192 171.806 254.322C180.895 243.811 189.145 197.95 189.145 197.944C191.502 197.7 192.981 197.417 193.389 197.088C197.785 193.524 199.978 177.291 194.017 171.687L194.023 171.693Z" fill="#FF8FB8"/>
<path d="M54.9373 197.627H191.575C192.527 197.462 193.156 197.281 193.394 197.088C197.791 193.524 199.984 177.291 194.023 171.687C192.896 170.628 187.343 169.84 179.042 169.273L179.019 169.693C179.019 169.693 187.371 179.336 181.11 184.991C170.888 194.21 69.6578 191.428 50.563 187.632C51.2543 192.607 52.8351 196.941 54.9429 197.627H54.9373Z" fill="#FF5F96"/>
<path d="M58.201 198.091C58.2803 198.669 58.6089 201.009 59.1812 204.443C74.3663 206.018 105.547 209.021 127.367 209.559C157.216 210.296 160.162 243.091 139.158 251.936C118.154 260.781 71.267 248.299 71.267 248.299C71.8109 249.358 72.3719 250.35 72.9442 251.262C82.6049 266.538 161.545 266.192 171.806 254.322C180.294 244.508 188.045 203.899 189.037 198.539C155.641 199.644 82.4972 198.516 58.1953 198.097L58.201 198.091Z" fill="#FF5F96"/>
<path d="M55.7078 194.901C56.2347 195.105 55.6851 194.811 55.5435 194.527C55.3338 194.102 55.0562 193.711 54.8635 193.275C54.1439 191.643 53.7643 189.796 53.4697 188.045C52.8804 184.555 52.6821 180.696 53.4187 177.212C53.6623 176.061 54.1949 175.189 54.5689 174.146C54.7049 173.761 54.1949 174.163 54.5179 174.118C55.4698 173.976 56.4217 173.693 57.3793 173.551C56.9203 173.608 58.0705 173.449 57.3793 173.551C57.5719 173.529 57.7646 173.5 57.9572 173.478C58.2859 173.438 58.6145 173.398 58.9431 173.364C59.878 173.262 60.8129 173.172 61.7478 173.087C63.9293 172.894 66.1164 172.735 68.3035 172.599C73.811 172.248 79.3298 172.01 84.8485 171.806C112.522 170.798 140.308 170.492 167.987 171.546C173.126 171.738 178.271 171.988 183.393 172.446C186.646 172.741 188.589 172.939 191.808 173.733C192.023 173.784 192.227 173.908 192.442 173.954C192.006 173.857 191.938 173.608 192.295 173.92C192.255 173.886 191.83 173.115 192.397 174.073C192.822 174.792 193.36 175.41 193.694 176.209C195.247 179.909 195.111 184.51 194.335 188.368C194 190.028 193.564 191.723 192.782 193.23C192.561 193.649 191.932 194.272 191.813 194.692C191.762 194.867 191.785 194.646 192.3 194.539C191.989 194.607 191.694 194.743 191.377 194.794C191.037 194.85 189.904 195.037 190.176 195.003C182.334 196.08 172.344 196.023 163.8 196.17C149.969 196.408 136.132 196.414 122.301 196.346C108.691 196.278 95.0758 196.125 81.4715 195.847C73.267 195.683 64.9945 195.678 56.807 195.026C56.4274 194.998 56.0477 194.964 55.6681 194.924C55.4755 194.901 56.4557 195.122 55.7078 194.907C52.2005 193.887 50.6989 199.355 54.2006 200.369C56.2347 200.958 58.7051 200.822 60.8016 200.919C65.3798 201.123 69.958 201.247 74.5419 201.361C88.4238 201.701 102.311 201.876 116.199 201.978C131.073 202.086 145.952 202.103 160.825 201.888C170.565 201.746 180.492 201.854 190.176 200.675C194.108 200.193 196.329 199.117 198.125 195.156C201.338 188.068 202.137 176.775 196.76 170.486C194.839 168.237 191.927 167.851 189.144 167.455C184.566 166.797 179.937 166.486 175.319 166.231C146.433 164.639 117.327 165.086 88.4295 166.032C78.0605 166.372 67.5726 166.588 57.2716 167.914C54.2006 168.31 51.3675 168.571 49.5657 171.461C45.8828 177.37 46.914 187.076 48.9028 193.383C49.8264 196.301 51.1919 199.207 54.1949 200.375C57.5946 201.701 59.0678 196.221 55.7021 194.913L55.7078 194.901Z" fill="#09051C"/>
<path d="M55.4527 198.703C57.4868 213.798 60.4672 229.38 66.0879 243.567C68.598 249.914 71.2384 255.364 77.5618 258.447C83.9588 261.563 91.1491 262.974 98.1411 263.982C115.593 266.493 133.69 266.6 151.159 264.181C157.459 263.308 164.106 262.192 169.823 259.251C175.308 256.43 177.721 250.537 179.875 245.075C185.699 230.309 189.065 214.296 191.875 198.703C192.516 195.139 187.059 193.609 186.413 197.196C184.113 209.951 181.229 222.716 177.359 235.091C176.169 238.893 174.9 242.706 173.24 246.333C172.186 248.639 171.03 251.251 169.149 252.979C168.809 253.291 167.987 253.817 167.092 254.288C166.072 254.826 165.228 255.155 164.117 255.546C161.227 256.554 158.23 257.251 155.227 257.818C139.135 260.866 122.086 260.838 105.836 259.251C98.5773 258.543 91.2114 257.444 84.2761 255.104C81.8793 254.293 79.4656 253.302 77.3918 251.817C77.0065 251.54 75.9016 250.548 75.6183 250.185C74.8874 249.245 73.8958 247.29 73.2385 245.936C68.581 236.372 66.1842 225.572 64.0481 215.214C62.8186 209.248 61.7194 203.242 60.9034 197.202C60.4162 193.604 54.9597 195.139 55.4413 198.709L55.4527 198.703Z" fill="#09051C"/>
<path d="M69.1364 238.7C94.7018 241.006 120.545 242.055 146.207 241.477C156.258 241.25 166.316 240.729 176.299 239.499C179.875 239.057 179.914 233.391 176.299 233.833C158.27 236.049 139.985 236.168 121.848 235.805C107.173 235.51 92.4977 234.796 77.8565 233.725C74.9498 233.516 72.0431 233.295 69.142 233.034C65.5101 232.706 65.5327 238.377 69.142 238.7H69.1364Z" fill="#09051C"/>
<path d="M73.2217 234.819C77.3976 223.175 83.1827 212.223 90.356 202.148H85.4661C88.0272 207.735 90.611 213.31 93.2117 218.875C96.2204 225.311 98.9118 232.224 102.651 238.281C103.694 239.969 106.584 240.275 107.541 238.281C112.629 227.719 117.718 217.141 123.202 206.777C123.758 205.724 124.319 204.67 124.914 203.638C125.123 203.27 125.344 202.907 125.559 202.539C125.775 202.171 125.877 201.695 125.888 202.007C125.916 202.873 122.137 202.772 122.25 202.262C122.25 202.279 122.913 203.134 122.466 202.477C123.083 203.389 123.718 204.284 124.313 205.214C128.109 211.197 131.537 217.424 134.982 223.611C136.846 226.96 138.688 230.32 140.512 233.691C141.141 234.853 141.765 236.009 142.376 237.176C142.592 237.584 143.391 239.477 142.892 238.066C143.867 240.814 147.334 240.678 148.354 238.066C153.051 226.059 157.805 214.053 162.111 201.893C160.383 202.12 158.661 202.347 156.933 202.568C162.049 214.472 167.171 226.376 172.288 238.275C173.721 241.618 178.606 238.734 177.178 235.414C172.061 223.509 166.939 211.605 161.823 199.706C160.769 197.258 157.363 198.352 156.644 200.38C152.343 212.54 147.584 224.546 142.886 236.553H148.349C146.643 231.742 143.402 227.13 140.949 222.688C137.192 215.894 133.452 209.061 129.305 202.5C128.308 200.919 127.169 198.567 125.457 197.621C122.981 196.244 121.395 198.42 120.296 200.284C116.686 206.409 113.666 212.931 110.516 219.3C107.864 224.66 105.241 230.025 102.646 235.414H107.536C103.796 229.351 101.105 222.444 98.0959 216.008C95.4951 210.443 92.9114 204.868 90.3503 199.281C89.3814 197.168 86.5597 197.729 85.4605 199.281C78.0039 209.763 72.0941 221.198 67.7539 233.306C66.5187 236.745 71.9922 238.224 73.216 234.813L73.2217 234.819Z" fill="#09051C"/>
<path d="M55.6964 137.968C57.4869 138.07 59.283 138.172 61.0735 138.274C62.6034 138.359 63.9066 136.909 63.9066 135.441C63.9066 133.838 62.609 132.693 61.0735 132.608L55.6964 132.302C54.1665 132.217 52.8633 133.668 52.8633 135.135C52.8633 136.739 54.1609 137.883 55.6964 137.968Z" fill="#09051C"/>
<path d="M53.6396 91.495C55.4754 92.8775 57.4359 94.0277 59.5323 94.957C60.9318 95.5746 62.575 95.3649 63.4079 93.9427C64.1162 92.7359 63.7989 90.6904 62.3937 90.0671C60.2972 89.1379 58.3311 87.982 56.501 86.6051C55.2771 85.6872 53.3336 86.4068 52.6253 87.6194C51.7754 89.0699 52.4157 90.5714 53.6396 91.495Z" fill="#09051C"/>
<path d="M72.094 60.0255C72.8816 61.9576 73.9015 63.6574 75.3577 65.1646C76.389 66.2355 78.3438 66.2808 79.3637 65.1646C80.3836 64.0484 80.4629 62.2976 79.3637 61.1587C79.12 60.9094 78.8934 60.6544 78.6667 60.3881C79.0237 60.8131 78.4004 60.0085 78.3438 59.9178C78.1568 59.6288 77.9811 59.3285 77.8168 59.0226C77.7658 58.9262 77.3352 57.98 77.5562 58.5183C77.0009 57.1527 75.6467 56.0309 74.0715 56.5408C72.7513 56.9658 71.4934 58.5579 72.094 60.0255Z" fill="#09051C"/>
<path d="M159.341 47.1068C158.343 48.3533 157.352 49.5998 156.355 50.8464C155.431 52.0023 155.142 53.7418 156.355 54.8523C157.38 55.7929 159.375 56.0875 160.361 54.8523C161.347 53.6171 162.349 52.3592 163.347 51.1127C164.27 49.9568 164.559 48.2173 163.347 47.1068C162.321 46.1662 160.327 45.8715 159.341 47.1068Z" fill="#09051C"/>
<path d="M180.311 76.0152C181.994 75.3409 183.676 74.6667 185.359 73.9981C186.781 73.4314 187.773 72.1056 187.337 70.5134C186.968 69.1649 185.28 67.9637 183.852 68.5359C182.169 69.2102 180.486 69.8845 178.804 70.5531C177.381 71.1197 176.39 72.4455 176.826 74.0377C177.194 75.3862 178.883 76.5875 180.311 76.0152Z" fill="#09051C"/>
<path d="M188.844 97.6654C190.453 97.7787 192.091 97.5861 193.643 97.1611C195.071 96.7645 196.091 95.1326 195.621 93.6765C195.151 92.2203 193.666 91.274 192.136 91.699C191.853 91.7783 191.575 91.852 191.286 91.9086C191.094 91.9483 190.907 91.9823 190.714 92.0106C190.935 91.9766 190.946 91.9766 190.742 91.9936C190.108 92.0446 189.479 92.0446 188.844 91.9936C187.365 91.8916 185.943 93.3705 186.011 94.8267C186.085 96.4528 187.258 97.5464 188.844 97.6597V97.6654Z" fill="#09051C"/>
<path d="M187.178 136.161C188.623 136.705 190.074 137.243 191.518 137.787C192.907 138.308 194.686 137.209 195.003 135.81C195.371 134.2 194.516 132.88 193.026 132.325C191.535 131.77 190.13 131.243 188.685 130.699C187.241 130.155 185.518 131.277 185.201 132.676C184.832 134.285 185.688 135.606 187.178 136.161Z" fill="#09051C"/>
<path d="M64.6943 152.689C64.4676 153.301 65.0002 152.185 64.6603 152.74C64.5923 152.853 64.5243 152.967 64.4563 153.08C64.1446 153.618 64.8529 152.695 64.4166 153.142C64.2976 153.261 64.19 153.386 64.0653 153.499C64.02 153.544 63.969 153.59 63.918 153.629C63.7594 153.765 63.8217 153.72 64.0993 153.493C64.054 153.595 63.7707 153.709 63.68 153.76C63.5667 153.822 63.3741 153.981 63.2381 153.986L63.544 153.85C63.4194 153.896 63.2947 153.935 63.1644 153.969C61.7422 154.383 60.711 155.987 61.1869 157.454C61.6629 158.922 63.1474 159.873 64.6716 159.432C67.312 158.667 69.2215 156.734 70.162 154.19C70.6777 152.797 69.5898 151.023 68.1846 150.706C66.5811 150.343 65.2495 151.193 64.6999 152.683L64.6943 152.689Z" fill="#09051C"/>
<path d="M179.694 155.924C180.379 156.581 181.065 157.239 181.756 157.896C182.827 158.922 184.714 159.041 185.762 157.896C186.81 156.751 186.906 154.984 185.762 153.89C185.076 153.233 184.391 152.576 183.699 151.918C182.629 150.893 180.742 150.774 179.694 151.918C178.645 153.063 178.549 154.831 179.694 155.924Z" fill="#09051C"/>
<path d="M56.8128 106.975L53.9004 107.422C53.2432 107.524 52.5292 108.176 52.2063 108.726C51.8493 109.332 51.702 110.227 51.923 110.907C52.1439 111.587 52.5689 112.256 53.2262 112.601C53.9401 112.981 54.6144 113.009 55.4076 112.884C56.3765 112.737 57.3511 112.584 58.32 112.437C58.9773 112.335 59.6912 111.683 60.0142 111.134C60.3711 110.527 60.5184 109.632 60.2975 108.952C60.0765 108.272 59.6515 107.604 58.9943 107.258C58.2803 106.878 57.6061 106.85 56.8128 106.975Z" fill="#09051C"/>
<path d="M112.896 98.2093C116.228 98.2207 118.647 101.745 117.763 105.315C115.338 115.117 108.777 131.611 92.0786 131.481C77.3014 131.367 72.7629 116.494 71.3747 106.629C70.7401 102.125 73.8904 98.0677 77.9927 98.079L112.896 98.2093Z" fill="#201E21"/>
<path d="M76.9612 104.992C77.3918 104.538 77.9868 104.34 78.5647 104.193C82.4913 103.19 86.5879 103.722 90.5882 104.261C87.7721 104.578 84.9164 104.901 82.259 105.995C81.3638 106.363 80.4572 106.85 79.7263 107.553C79.1937 108.063 78.6157 109.502 77.8565 109.57C76.1056 109.723 75.9867 106.012 76.9499 104.992H76.9612Z" fill="white"/>
<path d="M134.897 98.2093C131.565 98.2207 129.146 101.745 130.03 105.315C132.455 115.117 139.016 131.611 155.714 131.481C170.492 131.367 175.03 116.494 176.418 106.629C177.053 102.125 173.903 98.0677 169.8 98.079L134.897 98.2093Z" fill="#201E21"/>
<path d="M136.325 104.992C136.756 104.538 137.35 104.34 137.928 104.193C141.855 103.19 145.952 103.722 149.952 104.261C147.136 104.578 144.28 104.901 141.623 105.995C140.727 106.363 139.821 106.85 139.09 107.553C138.557 108.063 137.979 109.502 137.22 109.57C135.469 109.723 135.35 106.012 136.314 104.992H136.325Z" fill="white"/>
<path d="M133.9 98.198H111.853C108.21 98.198 108.198 103.864 111.853 103.864H133.9C137.543 103.864 137.554 98.198 133.9 98.198Z" fill="#201E21"/>
<path d="M127.645 147.714C135.781 147.822 143.431 143.306 147.17 136.059C148.842 132.824 143.952 129.956 142.28 133.197C139.425 138.733 133.9 142.127 127.65 142.048C124.002 141.997 124.002 147.663 127.65 147.714H127.645Z" fill="#09051C"/>
<path d="M213.761 107.031C214.843 104.724 218.124 104.724 219.206 107.031L220.706 110.231C221.132 111.138 221.981 111.774 222.971 111.926L226.577 112.481C228.995 112.853 229.98 115.802 228.273 117.552L225.477 120.419C224.811 121.102 224.508 122.06 224.662 123.002L225.294 126.882C225.698 129.36 223.067 131.212 220.87 129.996L217.94 128.374C217.034 127.873 215.933 127.873 215.027 128.374L212.097 129.996C209.9 131.212 207.269 129.36 207.673 126.882L208.305 123.002C208.459 122.06 208.156 121.102 207.49 120.419L204.694 117.552C202.987 115.802 203.972 112.853 206.389 112.481L209.996 111.926C210.986 111.774 211.835 111.138 212.261 110.231L213.761 107.031Z" fill="#FEAD1D"/>
<circle cx="229.011" cy="103.731" r="1.50335" fill="#FEAD1D"/>
<circle opacity="0.5" cx="212.474" cy="133.966" r="1.00224" fill="#FEAD1D"/>
<circle cx="202.452" cy="123.943" r="2.00447" fill="#FEAD1D"/>
<circle opacity="0.6" cx="228.009" cy="128.453" r="0.501118" fill="#FEAD1D"/>
<circle cx="208.966" cy="108.743" r="0.501118" fill="#FEAD1D"/>
<defs>
<linearGradient id="paint0_linear_186_11221" x1="249.515" y1="87.6823" x2="224.432" y2="85.7414" gradientUnits="userSpaceOnUse">
<stop stop-color="#11C4D4"/>
<stop offset="1" stop-color="#4FE7AF"/>
</linearGradient>
<linearGradient id="paint1_linear_186_11221" x1="30.4012" y1="60.0923" x2="-10.0926" y2="56.8022" gradientUnits="userSpaceOnUse">
<stop stop-color="#11C4D4"/>
<stop offset="1" stop-color="#4FE7AF"/>
</linearGradient>
<linearGradient id="paint2_linear_186_11221" x1="14.4767" y1="237.133" x2="-4.83772" y2="235.774" gradientUnits="userSpaceOnUse">
<stop stop-color="#11C4D4"/>
<stop offset="1" stop-color="#4FE7AF"/>
</linearGradient>
<linearGradient id="paint3_linear_186_11221" x1="226.326" y1="266.174" x2="216.711" y2="265.244" gradientUnits="userSpaceOnUse">
<stop stop-color="#11C4D4"/>
<stop offset="1" stop-color="#4FE7AF"/>
</linearGradient>
</defs>
</svg>
