<svg width="30" height="19" viewBox="0 0 30 19" fill="none" xmlns="http://www.w3.org/2000/svg">
<g clip-path="url(#clip0_180_1172)">
<path d="M25.3944 0.924591H4.79089V18.659H25.3944V0.924591Z" fill="#FFF2BB"/>
<path opacity="0.5" d="M25.1178 8.50937H23.5709V8.98919H25.1178V8.50937Z" fill="#D52D12"/>
<path opacity="0.74" d="M24.6614 9.06668H23.1145V9.5465H24.6614V9.06668Z" fill="#E03D2D"/>
<path opacity="0.74" d="M23.9779 7.173H22.1839C22.0854 7.173 22.0055 7.25145 22.0055 7.34822V7.69797C22.0055 7.79474 22.0854 7.87319 22.1839 7.87319H23.9779C24.0764 7.87319 24.1563 7.79474 24.1563 7.69797V7.34822C24.1563 7.25145 24.0764 7.173 23.9779 7.173Z" fill="#E03D2D"/>
<path d="M25.3745 0V0.915833H4.77039V0.262822L5.53284 0.252713L6.61648 0.239235L13.1348 0.156345L13.4697 0.151628L25.3745 0Z" fill="#FFF2BB"/>
<g style="mix-blend-mode:multiply" opacity="0.15">
<path d="M25.4171 7.80649H4.86096V10.0587H25.4171V7.80649Z" fill="#334142"/>
</g>
<path opacity="0.5" d="M7.25952 8.81937H5.71265V9.29919H7.25952V8.81937Z" fill="#D52D12"/>
<path opacity="0.74" d="M6.8031 9.37735H5.25623V9.85717H6.8031V9.37735Z" fill="#E03D2D"/>
<path d="M11.0162 9.13611H6.42566V18.659H11.0162V9.13611Z" fill="#D52D12"/>
<path opacity="0.5" d="M13.7874 17.0066H12.2405V17.4864H13.7874V17.0066Z" fill="#D52D12"/>
<path opacity="0.5" d="M20.6295 15.0968H19.0826V15.5766H20.6295V15.0968Z" fill="#D52D12"/>
<path opacity="0.74" d="M20.1732 15.6541H18.6263V16.1339H20.1732V15.6541Z" fill="#E03D2D"/>
<path d="M13.449 9.13611V14.6816H23.7054V9.13611H13.449ZM23.4426 14.4525H13.6178V9.30728H23.4426V14.4525Z" fill="#D52D12"/>
<path d="M23.4426 9.30658H13.6178V14.4525H23.4426V9.30658Z" fill="#CCEAF5"/>
<g style="mix-blend-mode:multiply" opacity="0.1">
<path d="M25.4171 7.73911H4.86096V9.99129H25.4171V7.73911Z" fill="#334142"/>
</g>
<path d="M10.3689 11.5547V13.0589H7.05078V11.5547C7.05078 11.5311 7.05147 11.5076 7.05284 11.4846C7.0851 10.8283 7.56961 10.2878 8.20716 10.1577C8.30255 10.1382 8.40207 10.1281 8.50363 10.1281H8.91609C9.70188 10.1281 10.3422 10.7413 10.3676 11.5069C10.3689 11.5224 10.3689 11.5386 10.3689 11.5547Z" fill="#CCEAF5"/>
<path d="M8.81318 10.1281H8.6073V13.0589H8.81318V10.1281Z" fill="#CC2615"/>
<path d="M10.3895 11.399H7.05078V11.5493H10.3895V11.399Z" fill="#CC2615"/>
<path opacity="0.74" d="M13.3309 17.5639H11.7841V18.0437H13.3309V17.5639Z" fill="#E03D2D"/>
<path d="M3.29211 17.1744H5.28438L5.51429 14.8872H3.568L3.29211 17.1744Z" fill="#603814"/>
<path d="M4.90833 18.6455L5.03735 18.659L5.21372 17.0363L5.06411 17.1299L4.90833 18.6455Z" fill="#603814"/>
<path d="M5.78882 17.1744H3.79655L3.56665 14.8872H5.51294L5.78882 17.1744Z" fill="#8E6138"/>
<path d="M5.64464 16.9257H3.88022L3.67639 15.0934H5.40032L5.64464 16.9257Z" fill="#0C2107"/>
<path d="M4.08685 18.7385L3.964 18.7513L3.79175 17.1279L3.91116 17.1158L4.08685 18.7385Z" fill="#8E6138"/>
<path d="M5.94387 18.69L5.81485 18.7035L5.63916 17.0807L5.78877 17.1744L5.94387 18.69Z" fill="#8E6138"/>
<path d="M3.13696 18.69L3.26598 18.7035L3.44167 17.0807L3.29206 17.1744L3.13696 18.69Z" fill="#603814"/>
<path d="M24.7205 16.547V18.7176" stroke="#070707" stroke-width="0.97" stroke-miterlimit="10"/>
<path d="M23.4275 16.547V18.6846" stroke="#070707" stroke-width="0.97" stroke-miterlimit="10"/>
<path d="M23.1976 16.6238H25.0348V16.4702H23.1976V16.6238Z" fill="#603814"/>
<path d="M25.0348 16.6238L25.5475 14.9323L25.3986 14.9101L24.8811 16.5605L25.0348 16.6238Z" fill="#603814"/>
<path d="M19.373 16.547V18.7176" stroke="#070707" stroke-width="0.97" stroke-miterlimit="10"/>
<path d="M20.6659 16.547V18.6846" stroke="#070707" stroke-width="0.97" stroke-miterlimit="10"/>
<path d="M20.8959 16.4702H19.0587V16.6238H20.8959V16.4702Z" fill="#603814"/>
<path d="M19.0587 16.6238L18.546 14.9323L18.6956 14.9101L19.2131 16.5605L19.0587 16.6238Z" fill="#603814"/>
<path d="M18.6243 18.7446H25.3484" stroke="#E8CCC0" stroke-width="0.53" stroke-miterlimit="10"/>
<path d="M23.5805 15.8899H20.4277C20.3804 15.8899 20.3427 15.8562 20.3427 15.8145C20.3427 15.7727 20.3811 15.739 20.4277 15.739H23.5805C23.6279 15.739 23.6656 15.7727 23.6656 15.8145C23.6656 15.8562 23.6272 15.8899 23.5805 15.8899Z" fill="#603814"/>
<path d="M22.0042 15.8145V18.7089" stroke="#070707" stroke-width="0.9" stroke-miterlimit="10"/>
<path d="M21.2802 18.7089H22.7282" stroke="#070707" stroke-width="0.9" stroke-miterlimit="10"/>
<path d="M30 18.5451H0V19H30V18.5451Z" fill="#4C4C4C"/>
<path d="M4.90892 16.326C4.90892 16.326 4.8197 15.859 4.99607 15.677C5.01598 15.6561 5.04892 15.6541 5.07019 15.6743C5.12647 15.7269 5.17382 15.8825 4.90892 16.3266V16.326Z" stroke="#FCF1ED" stroke-width="0.35" stroke-miterlimit="10"/>
<path d="M4.68445 16.2289C4.79563 16.2923 4.88484 16.3233 4.90817 16.2828" stroke="#FCF1ED" stroke-width="0.35" stroke-miterlimit="10"/>
<path d="M4.68998 15.7228C4.62478 15.7323 4.55204 15.7417 4.47449 15.7505" stroke="#FCF1ED" stroke-width="0.35" stroke-miterlimit="10"/>
<path d="M4.89722 15.6891C4.9679 15.6763 5.00839 15.6676 5.00839 15.6676" stroke="#FCF1ED" stroke-width="0.35" stroke-miterlimit="10"/>
<path d="M4.27891 15.768C4.20822 15.7734 4.13479 15.7774 4.06067 15.7788C4.06067 15.7788 4.29881 15.9755 4.52322 16.1278" stroke="#FCF1ED" stroke-width="0.35" stroke-miterlimit="10"/>
<path d="M4.10181 15.8165C4.10181 15.8165 4.88554 16.7094 4.90887 16.2882" stroke="#FCF1ED" stroke-width="0.35" stroke-miterlimit="10"/>
<path d="M4.74354 16.1184C4.74354 16.1663 4.7202 16.208 4.6852 16.2289C4.6351 16.2006 4.57951 16.1656 4.52393 16.1279C4.52393 16.1252 4.52393 16.1218 4.52393 16.1184C4.52393 16.049 4.57334 15.9931 4.63442 15.9931C4.6955 15.9931 4.74491 16.049 4.74491 16.1184H4.74354Z" stroke="#FCF1ED" stroke-width="0.35" stroke-miterlimit="10"/>
<path d="M4.491 15.8165C4.491 15.8859 4.44159 15.9418 4.38051 15.9418C4.31943 15.9418 4.27002 15.8859 4.27002 15.8165C4.27002 15.799 4.27276 15.7828 4.27894 15.768C4.3462 15.7633 4.41208 15.7572 4.47384 15.7505C4.48482 15.77 4.491 15.7922 4.491 15.8165Z" stroke="#FCF1ED" stroke-width="0.35" stroke-miterlimit="10"/>
<path d="M4.90824 15.7444C4.90824 15.8138 4.85883 15.8697 4.79775 15.8697C4.73667 15.8697 4.68726 15.8138 4.68726 15.7444C4.68726 15.737 4.68726 15.7296 4.68931 15.7228C4.77235 15.7107 4.84304 15.6986 4.89657 15.6891C4.90412 15.706 4.90824 15.7248 4.90824 15.7451V15.7444Z" stroke="#FCF1ED" stroke-width="0.35" stroke-miterlimit="10"/>
<path d="M17.9064 12.0918L18.5 10.7905L19.3229 12.1707" stroke="black" stroke-miterlimit="10"/>
<path d="M19.7486 11.9412L17.3569 11.7716L17.2712 12.9378L19.6628 13.1074L19.7486 11.9412Z" fill="#BBC0C3"/>
<path d="M18.4972 10.8903C18.5401 10.8903 18.5748 10.842 18.5748 10.7824C18.5748 10.7229 18.5401 10.6746 18.4972 10.6746C18.4544 10.6746 18.4197 10.7229 18.4197 10.7824C18.4197 10.842 18.4544 10.8903 18.4972 10.8903Z" fill="#BBC0C3"/>
<path d="M17.5866 12.4086C17.5949 12.2549 17.6607 12.1646 17.7479 12.1693C17.8344 12.1741 17.8906 12.2711 17.8817 12.4247C17.8735 12.5784 17.8076 12.6721 17.7204 12.668C17.634 12.6633 17.5784 12.5636 17.5866 12.4092V12.4086ZM17.8364 12.422C17.8426 12.3021 17.8062 12.2266 17.7452 12.2232C17.6834 12.2199 17.6388 12.292 17.6326 12.4113C17.6264 12.5312 17.6621 12.6107 17.7239 12.6134C17.7856 12.6168 17.8302 12.5413 17.8364 12.422Z" fill="black"/>
<path d="M18.1796 12.2003L18.2784 12.2057C18.3559 12.2098 18.406 12.2489 18.4005 12.354C18.3951 12.4551 18.3402 12.4996 18.2654 12.4955L18.2084 12.4928L18.1981 12.6835L18.1542 12.6815L18.1803 12.201L18.1796 12.2003ZM18.2619 12.4456C18.3223 12.449 18.3525 12.42 18.3566 12.3513C18.3601 12.2819 18.3312 12.2576 18.2702 12.2543L18.2207 12.2516L18.2105 12.4423L18.2619 12.445V12.4456Z" fill="black"/>
<path d="M18.6881 12.2273L18.8871 12.2381L18.8843 12.29L18.7292 12.2819L18.721 12.4322L18.8521 12.4389L18.8493 12.4908L18.7183 12.4841L18.7087 12.6586L18.8692 12.6667L18.8665 12.7186L18.662 12.7078L18.6881 12.2273Z" fill="black"/>
<path d="M19.1761 12.2529L19.2214 12.2556L19.3298 12.5642L19.3614 12.666H19.3635C19.3635 12.6175 19.3635 12.5629 19.3662 12.513L19.3799 12.2644L19.4218 12.2664L19.3957 12.7469L19.3504 12.7442L19.242 12.4355L19.2104 12.3344H19.2084C19.2084 12.383 19.2084 12.4342 19.2056 12.4847L19.1919 12.7361L19.15 12.7341L19.1761 12.2536V12.2529Z" fill="black"/>
<g style="mix-blend-mode:difference" opacity="0.1">
<path d="M21.963 14.4525H19.6049L13.6178 11.399V9.30658H13.7221L21.963 14.4525Z" fill="#334142"/>
</g>
<g style="mix-blend-mode:difference" opacity="0.1">
<path d="M23.4426 12.2192V12.9126L17.8158 9.30658H18.3669L23.4426 12.2192Z" fill="#334142"/>
</g>
<g style="mix-blend-mode:difference" opacity="0.1">
<path d="M18.023 14.4525H17.4726L13.6178 12.4153V11.9092L18.023 14.4525Z" fill="#334142"/>
</g>
<g style="mix-blend-mode:difference" opacity="0.1">
<path d="M10.369 11.5547V13.0589H10.1397L7.05286 11.4846C7.08511 10.8282 7.56962 10.2878 8.20718 10.1577L10.3676 11.5069C10.369 11.5224 10.369 11.5385 10.369 11.5547Z" fill="#334142"/>
</g>
<g style="mix-blend-mode:difference" opacity="0.1">
<path d="M8.78432 13.0589H8.0754L7.05078 12.5171V12.0581L8.78432 13.0589Z" fill="#334142"/>
</g>
<path d="M16.7253 6.60828H14.0385L13.9067 0.932681L16.1728 0.932007L16.7253 6.60828Z" fill="white"/>
<path d="M14.0386 6.60828H11.3531L11.6407 0.933352L13.9068 0.932678L14.0386 6.60828Z" fill="#ABBD43"/>
<path d="M11.3531 6.60828H8.66772L9.37459 0.934023L11.6407 0.93335L11.3531 6.60828Z" fill="#D52D12"/>
<path d="M8.66768 6.60831H5.98364L7.10983 0.934725L9.37455 0.934052L8.66768 6.60831Z" fill="white"/>
<path d="M5.98364 6.60831H3.30029L4.84511 0.935397L7.10983 0.934723L5.98364 6.60831Z" fill="#ABBD43"/>
<path d="M19.4121 6.60829H16.7253L16.1729 0.932009L18.4403 0.931335L19.4121 6.60829Z" fill="#D52D12"/>
<path d="M22.1002 6.60829H19.4121L18.4403 0.931338L20.7078 0.930664L22.1002 6.60829Z" fill="#ABBD43"/>
<path d="M24.7891 6.60829H22.1002L20.7078 0.930667L22.9759 0.929993L24.7891 6.60829Z" fill="white"/>
<path d="M27.4779 6.60829H24.7891L22.976 0.929995L25.2448 0.929321L27.4779 6.60829Z" fill="#D52D12"/>
<path d="M5.98366 6.57596L3.30031 6.60831L3.16236 7.59827C3.14109 8.02283 3.57894 8.37595 4.12727 8.37595H4.99336C5.51973 8.37595 5.94934 8.04911 5.95895 7.64073L5.98366 6.57529V6.57596Z" fill="#ABBD43"/>
<path d="M8.7494 6.53687L5.9837 6.56922L5.92811 7.55918C5.90684 7.98374 6.34468 8.33686 6.89302 8.33686H7.7591C8.28548 8.33686 8.71509 8.01002 8.7247 7.60163L8.7494 6.53619V6.53687Z" fill="white"/>
<path d="M11.4417 6.57596H8.67184L8.62037 7.59827C8.5991 8.02283 9.03694 8.37595 9.58528 8.37595H10.4514C10.9777 8.37595 11.4074 8.04911 11.417 7.64073L11.4417 6.57529V6.57596Z" fill="#D52D12"/>
<path d="M14.125 6.57596H11.3552L11.3037 7.59827C11.2824 8.02283 11.7203 8.37595 12.2686 8.37595H13.1347C13.6611 8.37595 14.0907 8.04911 14.1003 7.64073L14.125 6.57529V6.57596Z" fill="#ABBD43"/>
<path d="M16.8111 6.57596H14.0412L13.9898 7.59827C13.9685 8.02283 14.4063 8.37595 14.9547 8.37595H15.8207C16.3471 8.37595 16.7767 8.04911 16.7863 7.64073L16.8111 6.57529V6.57596Z" fill="white"/>
<path d="M19.4807 6.57596H16.7109L16.6594 7.59827C16.6382 8.02283 17.076 8.37595 17.6243 8.37595H18.4904C19.0168 8.37595 19.4464 8.04911 19.456 7.64073L19.4807 6.57529V6.57596Z" fill="#D52D12"/>
<path d="M22.1826 6.57596H19.4128L19.3613 7.59827C19.3401 8.02283 19.7779 8.37595 20.3262 8.37595H21.1923C21.7187 8.37595 22.1483 8.04911 22.1579 7.64073L22.1826 6.57529V6.57596Z" fill="#ABBD43"/>
<path d="M24.8543 6.57596H22.0844L22.033 7.59827C22.0117 8.02283 22.4495 8.37595 22.9979 8.37595H23.864C24.3903 8.37595 24.8199 8.04911 24.8296 7.64073L24.8543 6.57529V6.57596Z" fill="white"/>
<path d="M27.4779 6.60089L24.7781 6.56854L24.8 7.65083C24.7788 8.07539 25.1425 8.36854 25.6901 8.36854H26.5562C27.0826 8.36854 27.5122 8.04169 27.5218 7.63331L27.4779 6.60022V6.60089Z" fill="#D52D12"/>
</g>
<defs>
<clipPath id="clip0_180_1172">
<rect width="30" height="19" fill="white"/>
</clipPath>
</defs>
</svg>
