<svg width="118" height="16" viewBox="0 0 118 16" fill="none" xmlns="http://www.w3.org/2000/svg">
<path d="M3.43899 3.55206C4.19098 1.94842 6.47179 1.94842 7.22378 3.55206C7.5195 4.18268 8.11778 4.62577 8.8062 4.73169C10.5437 4.99901 11.2818 7.123 10.0544 8.38145L9.93053 8.50841C9.44536 9.00583 9.22503 9.70397 9.33677 10.3898L9.37698 10.6365C9.65476 12.3413 7.84448 13.6157 6.33329 12.7791C5.70992 12.4341 4.95285 12.4341 4.32948 12.7791C2.81829 13.6157 1.00801 12.3413 1.28579 10.6365L1.32599 10.3898C1.43774 9.70397 1.21741 9.00583 0.732242 8.50841L0.608412 8.38145C-0.619034 7.123 0.119082 4.99901 1.85657 4.73169C2.54499 4.62577 3.14327 4.18268 3.43899 3.55206Z" fill="#2CD3C5"/>
<path d="M30.2305 3.53706C31.0109 1.91551 33.3201 1.91551 34.1005 3.53706C34.4088 4.17762 35.0181 4.6247 35.7211 4.73009C37.4948 4.99599 38.2252 7.17029 36.9563 8.43786L36.895 8.49909C36.3924 9.00121 36.1635 9.71536 36.2807 10.4161L36.3012 10.5388C36.5943 12.2916 34.7439 13.6152 33.1798 12.7716C32.5467 12.4301 31.7843 12.4301 31.1513 12.7716C29.5871 13.6152 27.7367 12.2916 28.0298 10.5388L28.0503 10.4161C28.1675 9.71536 27.9387 9.00121 27.436 8.49909L27.3747 8.43786C26.1059 7.17029 26.8362 4.99599 28.6099 4.73009C29.3129 4.6247 29.9223 4.17762 30.2305 3.53706Z" fill="#2CD3C5"/>
<path opacity="0.3" d="M83.8991 3.53706C84.6795 1.91551 86.9887 1.91551 87.7691 3.53706C88.0774 4.17762 88.6867 4.6247 89.3897 4.73009C91.1634 4.99599 91.8938 7.17029 90.6249 8.43786L90.5636 8.49909C90.061 9.00121 89.8321 9.71536 89.9493 10.4161L89.9698 10.5388C90.263 12.2916 88.4125 13.6152 86.8484 12.7716C86.2153 12.4301 85.4529 12.4301 84.8199 12.7716C83.2557 13.6152 81.4053 12.2916 81.6984 10.5388L81.7189 10.4161C81.8361 9.71536 81.6073 9.00121 81.1046 8.49909L81.0433 8.43786C79.7745 7.17029 80.5048 4.99599 82.2785 4.73009C82.9815 4.6247 83.5909 4.17762 83.8991 3.53706Z" fill="#2CD3C5"/>
<path opacity="0.3" d="M110.776 3.55206C111.528 1.94842 113.809 1.94842 114.561 3.55206C114.857 4.18268 115.455 4.62577 116.143 4.73169C117.881 4.99901 118.619 7.123 117.392 8.38145L117.268 8.50841C116.783 9.00583 116.562 9.70397 116.674 10.3898L116.714 10.6365C116.992 12.3413 115.182 13.6157 113.671 12.7791C113.047 12.4341 112.29 12.4341 111.667 12.7791C110.156 13.6157 108.345 12.3413 108.623 10.6365L108.663 10.3898C108.775 9.70397 108.555 9.00583 108.069 8.50841L107.946 8.38145C106.718 7.123 107.456 4.99901 109.194 4.73169C109.882 4.62577 110.48 4.18268 110.776 3.55206Z" fill="#2CD3C5"/>
<path d="M57.1076 3.55206C57.8596 1.94842 60.1404 1.94842 60.8924 3.55206C61.1881 4.18268 61.7864 4.62577 62.4748 4.73169C64.2123 4.99901 64.9504 7.123 63.723 8.38145L63.5991 8.50841C63.114 9.00583 62.8936 9.70397 63.0054 10.3898L63.0456 10.6365C63.3234 12.3413 61.5131 13.6157 60.0019 12.7791C59.3785 12.4341 58.6215 12.4341 57.9981 12.7791C56.4869 13.6157 54.6766 12.3413 54.9544 10.6365L54.9946 10.3898C55.1063 9.70397 54.886 9.00583 54.4008 8.50841L54.277 8.38145C53.0496 7.123 53.7877 4.99901 55.5252 4.73169C56.2136 4.62577 56.8119 4.18268 57.1076 3.55206Z" fill="#2CD3C5"/>
<circle cx="65.0436" cy="0.725252" r="0.725252" fill="#2CD3C5"/>
<circle opacity="0.5" cx="57.0659" cy="15.3109" r="0.483501" fill="#2CD3C5"/>
<circle cx="52.2308" cy="10.4759" r="0.967002" fill="#2CD3C5"/>
<circle opacity="0.6" cx="64.5601" cy="12.6516" r="0.241751" fill="#2CD3C5"/>
<circle cx="55.3737" cy="3.1427" r="0.241751" fill="#2CD3C5"/>
</svg>
