<svg width="369" height="239" viewBox="0 0 369 239" fill="none" xmlns="http://www.w3.org/2000/svg">
<path fill-rule="evenodd" clip-rule="evenodd" d="M346.569 237.37C346.569 236.47 345.839 235.739 344.939 235.739H8.77202C7.87203 235.739 7.14161 236.47 7.14161 237.37C7.14161 238.27 7.87203 239 8.77202 239H344.939C345.839 239 346.569 238.27 346.569 237.37Z" fill="#62719E"/>
<path fill-rule="evenodd" clip-rule="evenodd" d="M20.9134 235.739C20.9134 235.739 -22.7122 182.316 16.0537 138.667C39.3426 112.445 55.0761 122.829 67.7368 100.84C79.6508 80.1485 61.6043 51.9443 82.6084 24.6313C107.771 -8.0903 153.828 -4.24357 176.856 13.2325C205.224 34.7617 205.247 55.7138 225.526 65.2659C244.024 73.979 263.268 50.5497 287.565 53.0562C333.277 57.7714 347.891 98.418 333.516 129.309C315.515 167.994 389.665 179.419 337.818 235.638L20.9134 235.74V235.739Z" fill="#E9EFFC"/>
<path fill-rule="evenodd" clip-rule="evenodd" d="M283.425 228.733C288.187 226.938 293.908 227.497 298.341 228.898C302.774 230.299 305.921 232.543 305.534 234.122C304.561 238.088 288.706 234.167 283.425 228.733ZM294.995 221.454C299.757 219.66 305.477 220.219 309.911 221.62C314.345 223.021 317.491 225.265 317.104 226.844C316.132 230.81 300.276 226.889 294.996 221.454H294.995ZM289.006 225.314C292.273 221.413 293.636 215.829 293.779 211.182C293.921 206.534 292.843 202.823 291.225 202.666C287.16 202.274 285.621 218.535 289.006 225.314ZM308.107 211.678C312.869 209.884 318.589 210.442 323.023 211.844C327.457 213.245 330.603 215.489 330.216 217.067C329.243 221.034 313.388 217.113 308.108 211.678H308.107ZM302.717 216.066C305.155 211.6 305.396 205.858 304.623 201.272C303.85 196.687 302.064 193.259 300.448 193.423C296.385 193.835 298.068 210.083 302.717 216.065V216.066ZM313.343 206.663C315.781 202.197 316.022 196.454 315.249 191.869C314.476 187.284 312.69 183.856 311.074 184.02C307.011 184.433 308.694 200.679 313.343 206.662V206.663ZM319.477 201.138C323.897 198.616 329.635 198.269 334.234 198.956C338.832 199.643 342.292 201.364 342.158 202.983C341.823 207.052 325.547 205.675 319.477 201.138ZM325.364 194.37C326.948 189.534 326.14 183.844 324.546 179.475C322.951 175.108 320.571 172.062 319.012 172.518C315.092 173.663 319.704 189.332 325.365 194.369L325.364 194.37ZM329.85 188.721C334.008 185.787 339.686 184.89 344.329 185.134C348.973 185.376 352.582 186.759 352.604 188.383C352.659 192.466 336.327 192.655 329.851 188.721H329.85ZM334.033 182.495C335.055 177.51 333.603 171.949 331.522 167.79C329.44 163.633 326.728 160.879 325.23 161.509C321.466 163.094 327.834 178.135 334.031 182.494L334.033 182.495ZM337.796 176.854C341.657 173.539 347.224 172.109 351.869 171.911C356.515 171.713 360.239 172.747 360.415 174.362C360.856 178.422 344.615 180.156 337.796 176.854ZM340.94 170.922C341.919 165.929 340.42 160.38 338.302 156.241C336.185 152.101 333.449 149.371 331.958 150.013C328.208 151.631 334.704 166.617 340.94 170.921V170.922ZM344.277 164.537C347.263 160.417 352.345 157.733 356.818 156.461C361.291 155.189 365.153 155.331 365.698 156.86C367.071 160.706 351.677 166.165 344.277 164.536V164.537ZM347.226 157.168C347.896 152.123 346.057 146.678 343.689 142.676C341.32 138.675 338.422 136.119 336.973 136.853C333.329 138.697 340.737 153.255 347.226 157.168ZM348.766 152.593C351.112 148.078 355.743 144.673 359.98 142.756C364.216 140.838 368.057 140.409 368.822 141.842C370.747 145.444 356.326 153.112 348.766 152.593ZM350.23 148.547C348.689 143.697 349.549 138.015 351.181 133.661C352.815 129.308 355.222 126.284 356.777 126.754C360.687 127.934 355.934 143.561 350.229 148.547H350.23Z" fill="#337152"/>
<path fill-rule="evenodd" clip-rule="evenodd" d="M277.075 232.475C277.075 232.475 334.094 208.354 351.137 147.237C351.234 146.891 351.03 146.531 350.684 146.434C350.337 146.337 349.977 146.541 349.88 146.887C333.009 207.391 276.566 231.274 276.566 231.274C276.234 231.414 276.079 231.797 276.219 232.128C276.359 232.46 276.742 232.615 277.074 232.475H277.075Z" fill="#2C6046"/>
<path fill-rule="evenodd" clip-rule="evenodd" d="M30.8438 235.636C25.8623 226.428 35.9383 218.139 46.8099 222.795C41.3676 212.232 47.6284 201.452 62.5532 204.265C61.7935 195.653 75.3781 190.462 80.7411 201.593C85.1313 195.237 100.059 195.345 100.059 206.914V235.636H30.8438Z" fill="#26614C"/>
<path fill-rule="evenodd" clip-rule="evenodd" d="M289.763 235.641C289.763 235.641 332.246 215.908 324.145 189.131C320.426 176.839 302.769 180.131 302.769 180.131C302.769 180.131 333.906 163.685 330.219 146.154C326.488 128.406 306.819 134.678 306.819 134.678C306.819 134.678 337.911 89.7886 313.569 78.8746C286.771 66.8594 273.517 121.177 273.517 121.177C273.517 121.177 268.228 98.0756 252.816 103.626C234.321 110.285 238.714 150.055 242.69 171.601C242.69 171.601 230.724 153.911 215.126 158.304C189.367 165.558 212.876 235.64 212.876 235.64H289.762L289.763 235.641Z" fill="#539D55"/>
<path fill-rule="evenodd" clip-rule="evenodd" d="M239.188 138.73C239.289 150.37 241.027 162.582 242.691 171.602C242.691 171.602 236.107 161.868 226.341 158.635L212.297 180.396L214.399 235.642H289.764C289.764 235.642 332.246 215.909 324.145 189.132C320.426 176.84 302.769 180.132 302.769 180.132C302.769 180.132 333.907 163.686 330.22 146.155C329.884 144.558 329.419 143.155 328.851 141.924C321.506 159.253 304.369 171.472 288.357 172.973C251.141 176.463 249.361 139.513 247.903 125.227L239.188 138.73Z" fill="#40874E"/>
<path fill-rule="evenodd" clip-rule="evenodd" d="M322.919 186.331C312.1 196.946 271.604 230.826 212.297 211.002L223.285 235.641H289.765C289.765 235.641 332.247 215.908 324.146 189.131C323.831 188.089 323.415 187.16 322.92 186.331H322.919Z" fill="#337544"/>
<path fill-rule="evenodd" clip-rule="evenodd" d="M245.643 109.099C247.519 106.577 249.88 104.684 252.817 103.627C268.229 98.0766 273.518 121.178 273.518 121.178C273.518 121.178 286.772 66.8605 313.57 78.8756C337.912 89.7897 306.82 134.679 306.82 134.679C306.82 134.679 317.819 131.171 324.926 136.823C311.419 147.204 286.167 163.86 271.41 156.392C259.553 150.391 252.568 127.85 245.643 109.101V109.099Z" fill="#78BF5A"/>
<path fill-rule="evenodd" clip-rule="evenodd" d="M239.324 235.641H241.47L249.053 218.784L300.021 205.897C300.545 205.764 300.862 205.233 300.73 204.709C300.597 204.185 300.065 203.868 299.542 204L250.078 216.507L272.651 166.325L307.974 155.141C308.49 154.978 308.774 154.428 308.611 153.912C308.448 153.398 307.898 153.112 307.383 153.275L273.726 163.932L300.672 104.028C300.894 103.535 300.673 102.956 300.181 102.734C299.689 102.513 299.109 102.733 298.887 103.226L272.089 162.801L261.276 124.958C261.128 124.439 260.586 124.137 260.066 124.286C259.547 124.434 259.245 124.977 259.394 125.496L270.844 165.568L248.284 215.721L229.096 179.934C228.84 179.458 228.247 179.279 227.771 179.534C227.295 179.789 227.115 180.383 227.371 180.859L247.271 217.973L239.323 235.642L239.324 235.641Z" fill="#246A2E"/>
<path fill-rule="evenodd" clip-rule="evenodd" d="M73.2531 235.636C73.2531 235.636 49.7469 224.716 54.2294 209.9C56.287 203.099 66.0576 204.92 66.0576 204.92C66.0576 204.92 48.8284 195.82 50.8686 186.12C52.9338 176.299 63.8174 179.77 63.8174 179.77C63.8174 179.77 46.6132 154.932 60.0826 148.893C74.9107 142.245 82.2443 172.299 82.2443 172.299C82.2443 172.299 85.1704 159.518 93.6985 162.588C103.932 166.273 101.502 188.278 99.3018 200.201C99.3018 200.201 105.922 190.413 114.554 192.844C128.807 196.858 115.798 235.636 115.798 235.636H73.2553H73.2531Z" fill="#539D55"/>
<path fill-rule="evenodd" clip-rule="evenodd" d="M101.237 182.013C101.181 188.455 100.22 195.211 99.2995 200.202C99.2995 200.202 102.943 194.816 108.346 193.027L116.118 205.069L114.955 235.638H73.2541C73.2541 235.638 49.7478 224.719 54.2304 209.902C56.288 203.101 66.0585 204.922 66.0585 204.922C66.0585 204.922 48.8294 195.822 50.8696 186.122C51.0554 185.238 51.313 184.462 51.6272 183.781C55.6913 193.369 65.1738 200.131 74.0334 200.961C94.6256 202.893 95.6115 182.447 96.418 174.543L101.241 182.014L101.237 182.013Z" fill="#40874E"/>
<path fill-rule="evenodd" clip-rule="evenodd" d="M54.9086 208.351C60.8955 214.225 83.3029 232.972 116.119 222.002L110.04 235.636H73.2551C73.2551 235.636 49.7489 224.716 54.2314 209.9C54.4053 209.324 54.6358 208.81 54.9097 208.35L54.9086 208.351Z" fill="#337544"/>
<path fill-rule="evenodd" clip-rule="evenodd" d="M97.666 165.618C96.6279 164.222 95.3225 163.175 93.6965 162.589C85.1683 159.519 82.2422 172.3 82.2422 172.3C82.2422 172.3 74.9086 142.245 60.0805 148.894C46.6122 154.933 63.8153 179.771 63.8153 179.771C63.8153 179.771 57.7295 177.831 53.7969 180.958C61.2707 186.701 75.2434 195.918 83.4085 191.785C89.9693 188.464 93.8345 175.993 97.666 165.618Z" fill="#70BA55"/>
<path fill-rule="evenodd" clip-rule="evenodd" d="M101.162 235.636H99.9754L95.7798 226.308L67.578 219.177C67.2888 219.104 67.1128 218.81 67.1856 218.52C67.2584 218.229 67.553 218.054 67.8432 218.127L95.2124 225.047L82.7224 197.281L63.1769 191.093C62.8922 191.002 62.7346 190.698 62.8248 190.413C62.915 190.128 63.2193 189.971 63.5041 190.06L82.1278 195.957L67.2182 162.81C67.0954 162.537 67.2182 162.217 67.4899 162.095C67.7628 161.972 68.0834 162.095 68.2062 162.367L83.0343 195.332L89.018 174.392C89.1006 174.105 89.3995 173.937 89.6875 174.02C89.9745 174.102 90.1419 174.401 90.0592 174.689L83.7235 196.862L96.207 224.613L106.824 204.811C106.966 204.548 107.294 204.449 107.557 204.59C107.82 204.732 107.919 205.06 107.779 205.323L96.7679 225.859L101.166 235.636H101.162Z" fill="#246A2E"/>
<path fill-rule="evenodd" clip-rule="evenodd" d="M244.458 187.915C248.774 183.795 253.051 183.02 259.723 184.624C266.393 186.228 269.703 177.097 271.338 173.464C274.271 166.951 278.368 164.468 284.483 164.357C292.25 164.216 300.66 159.951 300.563 154.556C300.563 154.556 304.02 161.787 302.55 167.477C301.078 173.168 301.587 177.57 302.55 183.325C303.525 189.151 301.417 199.286 291.563 200.935C286.485 201.784 277.756 208.569 277.092 221.014C276.292 236.016 246.534 229.399 246.534 229.399C246.534 229.399 240.143 192.037 244.46 187.918L244.458 187.915Z" fill="#84C254"/>
<path fill-rule="evenodd" clip-rule="evenodd" d="M266.736 181.869C268.989 179.237 270.423 175.494 271.338 173.466C274.27 166.952 278.368 164.469 284.483 164.358C292.249 164.217 300.66 159.953 300.562 154.557C300.562 154.557 304.02 161.788 302.549 167.479C301.843 170.209 301.593 172.644 301.63 175.072C295.312 178.365 283.267 194.442 274.348 189.908C271.931 188.678 269.081 185.207 266.738 181.87L266.736 181.869Z" fill="#A1DA60"/>
<path fill-rule="evenodd" clip-rule="evenodd" d="M302.261 181.556C302.35 182.133 302.446 182.721 302.547 183.324C303.522 189.15 301.415 199.285 291.56 200.934C286.482 201.783 277.754 208.568 277.09 221.013C276.29 236.015 246.531 229.398 246.531 229.398C246.531 229.398 240.14 192.036 244.458 187.917C248.774 183.796 253.051 183.021 259.723 184.625C260.635 184.845 261.483 184.863 262.275 184.723C261.288 190.535 260.661 202.103 271.195 202.512C286.465 201.445 290.381 190.162 302.262 181.558L302.261 181.556Z" fill="#58A147"/>
<path fill-rule="evenodd" clip-rule="evenodd" d="M300.052 156.918C300.396 156.163 300.575 155.373 300.561 154.556C300.561 154.556 300.782 155.017 301.087 155.798C301.031 159.731 299.427 165.343 294.572 168.785H302.238C302.168 169.116 302.105 169.442 302.047 169.763H293.258C293.222 169.763 293.187 169.759 293.152 169.752C288.603 172.775 284.469 174.905 281.024 180.479L302.365 182.227C302.418 182.555 302.473 182.886 302.528 183.222L280.471 181.414C279.67 182.831 278.908 184.456 278.191 186.346C277.103 189.21 275.533 192.018 273.497 194.637L293.681 199.856C293.887 199.909 294.029 200.086 294.046 200.287C293.667 200.425 293.273 200.548 292.863 200.655L272.826 195.474C269.016 200.073 263.73 204.03 257.06 206.591L277.42 217.987C277.362 218.327 277.311 218.672 277.267 219.022L255.851 207.035C252.217 208.307 248.196 209.172 243.801 209.519C243.767 209.195 243.733 208.87 243.701 208.545C247.991 208.209 251.917 207.368 255.466 206.131L253.893 183.846C254.215 183.844 254.542 183.85 254.876 183.867L256.422 205.785C263.056 203.291 268.307 199.395 272.073 194.848L267.397 181.031C267.634 180.709 267.861 180.377 268.079 180.039C268.099 180.072 268.117 180.108 268.13 180.147L272.798 193.94C274.735 191.43 276.233 188.742 277.275 185.998C278.002 184.087 278.769 182.44 279.575 181.002L274.334 168.619C274.573 168.347 274.818 168.089 275.069 167.846L280.193 179.952C283.729 174.227 287.962 172.038 292.641 168.918L290.981 163.325C291.295 163.231 291.606 163.131 291.912 163.024L293.492 168.343C293.638 168.242 293.786 168.139 293.934 168.036C298.098 165.123 299.734 160.514 300.05 156.917L300.052 156.918Z" fill="#3E7B2B"/>
<path fill-rule="evenodd" clip-rule="evenodd" d="M306.564 198.814C306.564 198.814 291.93 197.463 285.816 200.934C275.72 206.663 277.46 212.078 266.852 214.033C255.597 216.107 247.467 223.817 247.075 235.642H292.372C292.372 235.642 298.303 230.627 296.542 219.498C295.486 212.826 300.704 199.996 306.564 198.815V198.814Z" fill="#A0D765"/>
<path fill-rule="evenodd" clip-rule="evenodd" d="M259.624 216.347C252.261 219.879 247.377 226.542 247.076 235.641H292.373C292.373 235.641 298.304 230.626 296.543 219.497C296.538 219.469 296.534 219.439 296.53 219.411C292.079 222.925 279.103 231.803 266.45 227.344C260.341 225.19 259.395 220.1 259.624 216.347Z" fill="#69A64A"/>
<path fill-rule="evenodd" clip-rule="evenodd" d="M263.937 214.715C267.532 218.112 274.349 222.994 281.511 219.896C286.74 217.634 291.075 210.687 298.07 209.272C299.931 204.177 303.137 199.505 306.565 198.814C306.565 198.814 291.93 197.463 285.816 200.934C275.72 206.663 277.461 212.078 266.852 214.033C265.854 214.216 264.882 214.445 263.936 214.716L263.937 214.715Z" fill="#BCEB71"/>
<path fill-rule="evenodd" clip-rule="evenodd" d="M303.561 198.63C301.389 199.045 298.636 199.713 295.971 200.759C295.089 201.105 294.219 201.493 293.381 201.925L293.508 198.885C293.14 198.926 292.775 198.971 292.414 199.022L292.268 202.54C289.899 203.94 287.906 205.749 286.863 208.059C286.394 209.1 286.031 210.088 285.726 211.021L282.542 203.058C282.23 203.29 281.932 203.522 281.648 203.752L285.137 212.474C285.161 212.533 285.194 212.586 285.235 212.633C284.964 213.568 284.731 214.438 284.472 215.246C284.023 216.651 283.506 217.854 282.539 218.846C281.569 219.84 280.151 220.613 277.938 221.189C277.695 221.252 277.457 221.319 277.222 221.388H277.132L271.929 212.47C271.612 212.623 271.28 212.77 270.927 212.909L276.091 221.76C270.719 223.698 267.856 227.34 266.329 230.686L256.642 218.04C256.339 218.242 256.042 218.45 255.751 218.665L265.846 231.845C265.307 233.269 264.998 234.591 264.822 235.643H265.922C266.092 234.688 266.377 233.512 266.854 232.25L295.49 230.904C295.634 230.555 295.771 230.186 295.9 229.797L267.317 231.14C268.836 227.824 271.759 224.197 277.383 222.477H296.846C296.831 222.122 296.807 221.76 296.774 221.39H280.688C281.81 220.883 282.655 220.286 283.317 219.607C284.4 218.495 285.003 217.156 285.507 215.579C285.78 214.725 286.025 213.799 286.316 212.8L297.089 212.488C297.178 212.124 297.275 211.759 297.38 211.393L286.647 211.703C286.963 210.704 287.345 209.639 287.854 208.51C288.802 206.407 290.617 204.774 292.772 203.5L300.283 204.545C300.487 204.198 300.698 203.861 300.914 203.535L294.402 202.629C295.045 202.32 295.703 202.035 296.367 201.775C299.42 200.577 302.59 199.887 304.821 199.51C305.391 199.174 305.974 198.938 306.563 198.819C306.563 198.819 305.386 198.71 303.56 198.634L303.561 198.63Z" fill="#3E7B2B"/>
<path d="M260.569 119.144H92.5787V235.637H260.569V119.144Z" fill="#F8B24A"/>
<path d="M260.569 119.144H92.5787V235.637H260.569V119.144Z" fill="#F8B24A"/>
<path d="M233.465 138.346H105.709V225.472H233.465V138.346Z" fill="#FCC25F"/>
<path fill-rule="evenodd" clip-rule="evenodd" d="M260.569 119.144H88.9112V129.308H246.9V235.637H260.569V119.144Z" fill="#E8962B"/>
<path d="M266.821 100.839H86.3267V122.789H266.821V100.839Z" fill="#F0A22D"/>
<path d="M256.8 100.839H136.803V116.957H256.8V100.839Z" fill="#FCC05A"/>
<path d="M231.187 155.393H125.606V190.72H231.187V155.393Z" fill="#ECA42A"/>
<path d="M229.489 154.558H125.606V189.885H229.489V154.558Z" fill="#FFF6E6"/>
<path fill-rule="evenodd" clip-rule="evenodd" d="M146.134 151.226L144.65 150.799V149.684L143.142 149.157L142.834 147.731L141.399 147.428L140.953 145.771L115.334 170.096L117.089 170.547V171.923L118.614 172.221L118.959 173.913L120.357 174.08L120.513 175.55L146.133 151.225L146.134 151.226Z" fill="#FCD9A7"/>
<path fill-rule="evenodd" clip-rule="evenodd" d="M239.772 177.676L238.16 177.095L237.847 175.648L236.412 175.55L236.248 173.963H234.83L234.592 172.22L210.476 195.116L211.953 195.589L212.229 196.961L213.852 197.438L214.144 198.983L215.526 199.298L215.656 200.573L239.772 177.676Z" fill="#FCD9A7"/>
<path fill-rule="evenodd" clip-rule="evenodd" d="M260.569 122.028H106.471C106.051 122.028 105.71 122.369 105.71 122.789C105.71 123.208 106.051 123.549 106.471 123.549H260.57V122.028H260.569Z" fill="#A85E04"/>
<path fill-rule="evenodd" clip-rule="evenodd" d="M247.521 77.3289C247.521 75.4735 246.018 73.9702 244.163 73.9702H179.932C178.078 73.9702 176.573 75.4735 176.573 77.3289C176.573 79.1843 178.077 80.6876 179.932 80.6876H244.163C246.017 80.6876 247.521 79.1843 247.521 77.3289Z" fill="#FFBA32"/>
<path fill-rule="evenodd" clip-rule="evenodd" d="M177.252 79.3528C177.865 80.1637 178.837 80.6876 179.932 80.6876H244.163C245.257 80.6876 246.23 80.1637 246.843 79.3528C246.579 79.3104 246.304 79.2887 246.021 79.2887H178.074C177.792 79.2887 177.516 79.3115 177.253 79.3528H177.252Z" fill="#EAA52E"/>
<path fill-rule="evenodd" clip-rule="evenodd" d="M228.704 76.4126C228.704 75.4594 227.892 74.6865 226.89 74.6865H192.191C191.189 74.6865 190.377 75.4594 190.377 76.4126C190.377 77.3659 191.189 78.1387 192.191 78.1387H226.89C227.892 78.1387 228.704 77.3659 228.704 76.4126Z" fill="#FFD061"/>
<path fill-rule="evenodd" clip-rule="evenodd" d="M181.51 73.9713H180.208C180.208 73.9833 180.207 73.9963 180.207 74.0094V80.6887H181.511V74.0094C181.511 73.9963 181.511 73.9844 181.51 73.9713ZM189.309 80.6887H188.005V73.9713H189.309V80.6887ZM197.107 80.6887H195.803V73.9713H197.107V80.6887ZM204.905 80.6887H203.6V73.9713H204.905V80.6887ZM212.701 80.6887H211.397V73.9713H212.701V80.6887ZM220.499 80.6887H219.195V73.9713H220.499V80.6887ZM228.297 80.6887H226.993V73.9713H228.297V80.6887ZM236.095 80.6887H234.79V73.9713H236.095V80.6887ZM243.892 73.9713H242.588V80.6507C242.588 80.6637 242.588 80.6757 242.589 80.6887H243.891C243.891 80.6767 243.892 80.6637 243.892 80.6507V73.9713Z" fill="#C87F09"/>
<path fill-rule="evenodd" clip-rule="evenodd" d="M244.489 84.0463C244.489 82.1919 242.986 80.6876 241.131 80.6876H176.9C175.045 80.6876 173.541 82.1908 173.541 84.0463C173.541 85.9006 175.044 87.4049 176.9 87.4049H241.131C242.985 87.4049 244.489 85.9017 244.489 84.0463Z" fill="#FFBA32"/>
<path fill-rule="evenodd" clip-rule="evenodd" d="M174.22 86.0702C174.833 86.881 175.806 87.4049 176.901 87.4049H241.132C242.226 87.4049 243.199 86.881 243.812 86.0702C243.548 86.0278 243.273 86.006 242.99 86.006H175.043C174.761 86.006 174.484 86.0289 174.221 86.0702H174.22Z" fill="#EAA52E"/>
<path fill-rule="evenodd" clip-rule="evenodd" d="M225.672 83.13C225.672 82.1767 224.86 81.4039 223.858 81.4039H189.158C188.156 81.4039 187.344 82.1767 187.344 83.13C187.344 84.0832 188.156 84.8561 189.158 84.8561H223.858C224.86 84.8561 225.672 84.0832 225.672 83.13Z" fill="#FFD061"/>
<path fill-rule="evenodd" clip-rule="evenodd" d="M178.478 80.6876H177.176C177.176 80.6995 177.175 80.7126 177.175 80.7256V87.4049H178.479V80.7256C178.479 80.7126 178.479 80.7006 178.478 80.6876ZM186.276 87.4049H184.972V80.6876H186.276V87.4049ZM194.074 87.4049H192.769V80.6876H194.074V87.4049ZM201.871 87.4049H200.567V80.6876H201.871V87.4049ZM209.669 87.4049H208.365V80.6876H209.669V87.4049ZM217.466 87.4049H216.161V80.6876H217.466V87.4049ZM225.264 87.4049H223.959V80.6876H225.264V87.4049ZM233.061 87.4049H231.757V80.6876H233.061V87.4049ZM240.859 80.6876H239.555V87.3669C239.555 87.3799 239.555 87.3919 239.556 87.4049H240.858C240.858 87.393 240.859 87.3799 240.859 87.3669V80.6876Z" fill="#C87F09"/>
<path fill-rule="evenodd" clip-rule="evenodd" d="M256.502 90.7625C256.502 88.9082 254.999 87.4039 253.143 87.4039H188.912C187.058 87.4039 185.554 88.9071 185.554 90.7625C185.554 92.6169 187.057 94.1212 188.912 94.1212H253.143C254.998 94.1212 256.502 92.618 256.502 90.7625Z" fill="#FFBA32"/>
<path fill-rule="evenodd" clip-rule="evenodd" d="M186.232 92.7876C186.845 93.5984 187.818 94.1223 188.912 94.1223H253.143C254.238 94.1223 255.211 93.5984 255.824 92.7876C255.56 92.7452 255.285 92.7234 255.002 92.7234H187.055C186.772 92.7234 186.496 92.7462 186.233 92.7876H186.232Z" fill="#EAA52E"/>
<path fill-rule="evenodd" clip-rule="evenodd" d="M237.684 89.8473C237.684 88.8941 236.872 88.1212 235.87 88.1212H201.17C200.168 88.1212 199.356 88.8941 199.356 89.8473C199.356 90.8006 200.168 91.5734 201.17 91.5734H235.87C236.872 91.5734 237.684 90.8006 237.684 89.8473Z" fill="#FFD061"/>
<path fill-rule="evenodd" clip-rule="evenodd" d="M190.491 87.4049H189.189C189.189 87.4169 189.188 87.4299 189.188 87.443V94.1223H190.492V87.443C190.492 87.4299 190.492 87.418 190.491 87.4049ZM198.29 94.1223H196.985V87.4049H198.29V94.1223ZM206.087 94.1223H204.783V87.4049H206.087V94.1223ZM213.885 94.1223H212.581V87.4049H213.885V94.1223ZM221.683 94.1223H220.379V87.4049H221.683V94.1223ZM229.48 94.1223H228.175V87.4049H229.48V94.1223ZM237.277 94.1223H235.973V87.4049H237.277V94.1223ZM245.075 94.1223H243.771V87.4049H245.075V94.1223ZM252.873 87.4049H251.568V94.0843C251.568 94.0973 251.568 94.1093 251.57 94.1223H252.872C252.872 94.1103 252.873 94.0973 252.873 94.0843V87.4049Z" fill="#C87F09"/>
<path fill-rule="evenodd" clip-rule="evenodd" d="M250.745 97.4799C250.745 95.6256 249.241 94.1212 247.386 94.1212H183.155C181.301 94.1212 179.797 95.6245 179.797 97.4799C179.797 99.3342 181.3 100.839 183.155 100.839H247.386C249.24 100.839 250.745 99.3353 250.745 97.4799Z" fill="#FFBA32"/>
<path fill-rule="evenodd" clip-rule="evenodd" d="M180.476 99.5038C181.089 100.315 182.062 100.839 183.156 100.839H247.387C248.481 100.839 249.454 100.315 250.067 99.5038C249.803 99.4614 249.528 99.4397 249.246 99.4397H181.299C181.016 99.4397 180.74 99.4625 180.477 99.5038H180.476Z" fill="#EAA52E"/>
<path fill-rule="evenodd" clip-rule="evenodd" d="M231.928 96.5636C231.928 95.6103 231.116 94.8375 230.113 94.8375H195.414C194.412 94.8375 193.6 95.6103 193.6 96.5636C193.6 97.5169 194.412 98.2897 195.414 98.2897H230.113C231.116 98.2897 231.928 97.5169 231.928 96.5636Z" fill="#FFD061"/>
<path fill-rule="evenodd" clip-rule="evenodd" d="M184.734 94.1212H183.431C183.431 94.1332 183.43 94.1462 183.43 94.1593V100.839H184.735V94.1593C184.735 94.1462 184.735 94.1343 184.734 94.1212ZM192.531 100.839H191.227V94.1212H192.531V100.839ZM200.329 100.839H199.025V94.1212H200.329V100.839ZM208.126 100.839H206.821V94.1212H208.126V100.839ZM215.923 100.839H214.619V94.1212H215.923V100.839ZM223.721 100.839H222.417V94.1212H223.721V100.839ZM231.519 100.839H230.215V94.1212H231.519V100.839ZM239.317 100.839H238.012V94.1212H239.317V100.839ZM247.114 94.1212H245.81V100.801C245.81 100.814 245.81 100.826 245.81 100.839H247.112C247.112 100.827 247.113 100.814 247.113 100.801V94.1212H247.114Z" fill="#C87F09"/>
<path fill-rule="evenodd" clip-rule="evenodd" d="M93.9808 96.4973C102.385 81.0093 119.194 81.0093 127.598 87.9039C136.002 94.7984 136.002 108.589 127.598 122.378C121.715 132.72 106.587 143.062 93.9808 149.957C81.3744 143.062 66.2474 132.72 60.3638 122.378C51.9595 108.589 51.9595 94.7984 60.3638 87.9039C68.768 81.0093 85.5765 81.0093 93.9808 96.4973Z" fill="#E95356"/>
<path fill-rule="evenodd" clip-rule="evenodd" d="M112.279 138.253C83.2547 133.354 69.2723 100.484 73.3342 83.4897C80.8167 83.4626 88.9221 87.1734 93.9818 96.4973C102.386 81.0093 119.195 81.0093 127.599 87.9038C136.003 94.7984 136.003 108.589 127.599 122.378C124.492 127.838 118.809 133.299 112.281 138.253H112.279Z" fill="#FF7073"/>
<path fill-rule="evenodd" clip-rule="evenodd" d="M43.4869 104.308L42.1228 113.995L30.7251 111.761L34.1175 100.146L43.4858 104.307L43.4869 104.308Z" fill="#FCBDD1"/>
<path fill-rule="evenodd" clip-rule="evenodd" d="M33.1372 103.506L34.1187 100.147L43.4871 104.308L42.7339 109.657C40.5437 108.898 35.4361 106.842 33.1372 103.506Z" fill="#E37497"/>
<path fill-rule="evenodd" clip-rule="evenodd" d="M52.3647 86.7321C52.3647 86.7321 52.4723 92.5103 50.0854 94.8886L48.8409 86.7321H52.3647Z" fill="#54240A"/>
<path fill-rule="evenodd" clip-rule="evenodd" d="M49.529 85.9202C49.529 85.9202 52.4181 102.589 49.529 105.478C46.2833 108.723 38.0954 104.598 35.1856 101.554C32.277 98.5092 30.6748 95.8299 30.6748 95.8299V85.9202H49.529Z" fill="#FCBDD1"/>
<path fill-rule="evenodd" clip-rule="evenodd" d="M50.4234 92.5593C50.9397 97.5538 51.1962 103.81 49.5289 105.478C48.2191 106.787 46.105 106.897 43.8572 106.361C43.0224 103.481 44.3268 95.1875 45.6039 94.2136C46.7517 93.3386 49.4213 92.7538 50.4234 92.5593Z" fill="#FDD3E0"/>
<path fill-rule="evenodd" clip-rule="evenodd" d="M32.1359 85.9202H49.5292C49.5292 85.9202 49.7998 87.4799 50.0922 89.7288C49.0107 89.5397 47.5227 90.0169 46.8716 91.2386C46.0553 92.768 42.8162 92.2832 42.8162 92.2832C42.9379 94.6495 42.4434 97.2364 40.2021 99.7777C40.4825 101.99 40.1977 103.795 39.9271 104.88C37.9782 103.896 36.238 102.655 35.1858 101.554C33.9087 100.217 32.8837 98.9516 32.1348 97.9516V85.9202H32.1359Z" fill="#FA97B3"/>
<path fill-rule="evenodd" clip-rule="evenodd" d="M40.3596 97.9106C40.3596 97.9106 41.8281 93.1997 41.8629 91.1563C41.8629 91.1563 45.0911 92.0432 46.3378 90.3106C47.5845 88.5791 48.0465 88.0846 49.4487 88.4193C51.6791 88.953 53.279 87.803 53.9345 84.4965C54.6888 80.69 52.0421 75.8966 46.9204 75.252C43.077 74.7683 42.9542 78.04 39.0368 76.0639C36.414 74.7411 28.4793 75.0357 29.7239 81.8552C29.7239 81.8552 25.7044 82.1324 25.5957 85.9204C25.487 89.7095 26.0217 100.961 29.4847 102.693C32.9488 104.425 35.3379 103.632 36.6901 102.693C37.8694 101.875 38.2238 99.3312 38.2238 99.3312C33.5184 98.3986 33.3336 94.3943 35.8358 93.4519C38.7455 92.3552 39.8085 95.4443 40.3585 97.9117L40.3596 97.9106Z" fill="#803A0F"/>
<path fill-rule="evenodd" clip-rule="evenodd" d="M25.8706 92.4865C26.55 90.3789 28.413 85.531 31.2162 85.3441C31.2162 85.3441 32.0901 81.3332 35.001 80.2843C37.7879 79.28 40.4987 81.0811 42.3313 79.7267C44.1639 78.3724 49.3291 77.6952 50.5236 80.2843C51.2856 81.9354 52.4747 84.0071 53.7421 85.3126C53.8138 85.056 53.8779 84.7843 53.9355 84.4952C54.6899 80.6887 52.0432 75.8952 46.9215 75.2506C43.078 74.767 42.9552 78.0387 39.0379 76.0626C36.4151 74.7398 28.4804 75.0343 29.7249 81.8539C29.7249 81.8539 25.7054 82.1311 25.5967 85.9191C25.5554 87.3495 25.6065 89.843 25.8717 92.4865H25.8706Z" fill="#974A0B"/>
<path d="M43.8601 217.135H27.919V226.742H43.8601V217.135Z" fill="#FCBDD1"/>
<path fill-rule="evenodd" clip-rule="evenodd" d="M27.9188 224.532C33.8024 225.924 38.7436 225.742 43.8599 224.532C43.8599 224.532 55.9989 227.736 54.2674 234.361H27.1655C26.2046 231.468 26.6959 226.917 27.9188 224.532Z" fill="#12275B"/>
<path fill-rule="evenodd" clip-rule="evenodd" d="M27.1655 234.361L27.5286 235.637H54.0239L54.287 234.361H27.1655Z" fill="#A1C1FA"/>
<path fill-rule="evenodd" clip-rule="evenodd" d="M69.6084 118.47C69.6084 118.47 72.4867 115.198 74.4236 115.214C76.1736 115.228 74.1834 117.614 74.1834 117.614C74.1834 117.614 76.854 115.691 78.0475 115.922C79.8355 116.269 82.3224 120.518 82.079 122.28C81.7366 124.762 76.6758 126.748 76.6758 126.748L69.6095 118.469L69.6084 118.47Z" fill="#FCBDD1"/>
<path fill-rule="evenodd" clip-rule="evenodd" d="M81.8358 120.687C81.8858 120.836 81.9282 120.982 81.9651 121.123L78.8162 123.199C78.7162 123.266 78.5815 123.237 78.5152 123.137C78.4488 123.037 78.4771 122.903 78.5771 122.836L81.8369 120.687H81.8358ZM80.7369 118.429C80.814 118.551 80.8901 118.675 80.963 118.8L77.3793 121.162C77.2793 121.229 77.1445 121.2 77.0782 121.1C77.0119 121 77.0402 120.866 77.1402 120.799L80.7369 118.429ZM79.2847 116.643C79.3912 116.74 79.4978 116.843 79.6032 116.954L75.9728 119.347C75.8728 119.414 75.738 119.385 75.6717 119.285C75.6054 119.185 75.6337 119.051 75.7337 118.984L79.2858 116.643H79.2847Z" fill="#DB5D85"/>
<path fill-rule="evenodd" clip-rule="evenodd" d="M70.8478 117.225C72.0924 118.661 76.7119 123.879 78.0477 123.779C80.114 123.624 81.5618 121.76 81.976 121.164C82.0814 121.589 82.1227 121.972 82.0803 122.28C81.7379 124.762 76.6771 126.748 76.6771 126.748L69.6109 118.469C69.6109 118.469 70.1174 117.893 70.85 117.225H70.8478Z" fill="#F89BB4"/>
<path fill-rule="evenodd" clip-rule="evenodd" d="M49.9305 159.144L47.5164 221.533C39.8991 222.046 32.2818 222.102 24.6645 221.533L20.1406 157.875L49.9316 159.144H49.9305Z" fill="#12275B"/>
<path fill-rule="evenodd" clip-rule="evenodd" d="M27.3786 221.709C26.4743 221.659 25.5699 221.6 24.6645 221.533L20.1406 157.875L49.9316 159.144L49.7305 164.351C45.5512 164.672 33.9709 165.382 25.2297 164.219L27.3797 221.709H27.3786Z" fill="#0E1D48"/>
<path fill-rule="evenodd" clip-rule="evenodd" d="M31.1741 221.871L29.96 169.752C35.4121 168.254 45.4728 168.869 49.5413 169.202L47.5163 221.533C42.0696 221.9 36.6219 222.033 31.1741 221.871Z" fill="#183167"/>
<path fill-rule="evenodd" clip-rule="evenodd" d="M31.2025 108.326C31.2025 108.326 36.3481 112.42 42.3078 112.23C50.6175 118.978 54.9207 146.35 51.5729 159.599C49.9577 162.582 17.6363 161.487 16.4766 159.599C13.0049 149.075 16.1831 115.62 31.2014 108.326H31.2025Z" fill="#3E96F4"/>
<path fill-rule="evenodd" clip-rule="evenodd" d="M52.7142 151.522C50.3099 151.018 47.9229 150.161 45.6327 149.065C36.1176 144.509 28.2558 135.819 27.6221 131.121C26.7362 124.547 32.1122 118.041 39.1665 119.332C42.8534 120.007 46.8664 123.31 49.5599 125.933C51.6881 133.288 52.8435 143.935 52.7131 151.521L52.7142 151.522Z" fill="#3380DE"/>
<path fill-rule="evenodd" clip-rule="evenodd" d="M29.1676 130.566C30.0393 135.082 46.1359 148.159 55.5771 146.57C65.3661 144.921 78.641 127.335 78.641 127.335L68.9639 116.522L51.9826 129.636C51.9826 129.636 45.4794 120.882 39.2044 119.606C33.0447 118.354 27.91 124.053 29.1676 130.566Z" fill="#3E96F4"/>
<path fill-rule="evenodd" clip-rule="evenodd" d="M66.586 118.359L76.8196 129.621C77.9717 128.223 78.6424 127.335 78.6424 127.335L68.9653 116.522L66.586 118.359Z" fill="#9FCCFC"/>
<path fill-rule="evenodd" clip-rule="evenodd" d="M29.462 131.419C33.3924 129.471 42.6108 125.959 52.1324 129.918L52.2498 129.429L51.9835 129.634C51.9835 129.634 45.4803 120.88 39.2054 119.604C33.0457 118.352 27.911 124.05 29.1686 130.563C29.2186 130.822 29.3186 131.108 29.4631 131.418L29.462 131.419Z" fill="#5BA6F6"/>
<path fill-rule="evenodd" clip-rule="evenodd" d="M29.0614 125.533C27.8908 128.372 29.019 132.017 31.8266 135.519C35.945 140.656 43.6623 145.512 52.659 147.023C52.8361 147.053 53.0046 146.933 53.0351 146.756C53.0644 146.579 52.9448 146.41 52.7677 146.38C43.946 144.898 36.3733 140.148 32.3353 135.11C29.706 131.83 28.5679 128.44 29.6636 125.781C29.7321 125.615 29.6527 125.423 29.4864 125.355C29.3201 125.286 29.1288 125.366 29.0603 125.532L29.0614 125.533Z" fill="#274DA0"/>
<path fill-rule="evenodd" clip-rule="evenodd" d="M31.2632 108.156C31.2632 108.156 36.3067 112.379 42.4033 112.136C43.7185 112.002 44.7663 113.452 44.0685 113.897C44.0685 113.897 34.2599 115.531 28.9785 109.284C28.6328 108.24 30.3469 107.387 31.2643 108.156H31.2632Z" fill="#183377"/>
</svg>
