<svg width="107" height="74" viewBox="0 0 107 74" fill="none" xmlns="http://www.w3.org/2000/svg">
<path d="M28.3148 70.3016C43.9526 70.3016 56.6295 57.5775 56.6295 41.8815C56.6295 26.1854 43.9526 13.4613 28.3148 13.4613C12.677 13.4613 0 26.1854 0 41.8815C0 57.5775 12.677 70.3016 28.3148 70.3016Z" fill="#FF9800"/>
<path d="M46.0394 59.5764C55.7757 49.8038 55.7757 33.9593 46.0394 24.1867C36.3031 14.4141 20.5173 14.4141 10.781 24.1867C1.04462 33.9593 1.04462 49.8038 10.781 59.5764C20.5173 69.349 36.3031 69.349 46.0394 59.5764Z" fill="#FFE000"/>
<path d="M40.6851 23.2597C41.9292 23.2208 42.9494 24.1889 43.8132 25.0892C44.7076 26.0215 45.6152 26.9732 46.1919 28.1309C46.7686 29.2886 46.9731 30.7056 46.4183 31.874C45.856 33.0581 44.6476 33.7732 43.486 34.374C39.9232 36.2179 36.1546 37.6594 32.2735 38.6645C31.0606 36.6938 32.3016 34.1743 33.5263 32.2112C34.8311 30.1186 36.1365 28.0261 37.4413 25.9336C38.2163 24.6911 39.2252 23.3061 40.6851 23.2603V23.2597Z" fill="#FFC004"/>
<path d="M21.5182 22.6695C21.9491 21.4497 23.0919 20.5927 24.3148 20.1834C25.5382 19.774 26.8505 19.7458 28.1396 19.7213C28.2285 19.7194 28.3198 19.7194 28.4098 19.7188C28.4999 19.7194 28.5912 19.7194 28.6801 19.7213C29.9692 19.7458 31.2815 19.774 32.5049 20.1834C33.7284 20.5927 34.8706 21.4497 35.3015 22.6695C35.7381 23.9057 35.3872 25.2693 34.9894 26.5187C33.7691 30.3509 28.4098 36.5299 28.4098 36.5299C27.9545 37.0008 23.0506 30.3509 21.8303 26.5187C21.4325 25.2693 21.0816 23.9057 21.5182 22.6695Z" fill="#FFC004"/>
<path d="M10.6284 28.1303C11.2051 26.9726 12.1133 26.0208 13.0071 25.0885C13.8703 24.1882 14.8905 23.2201 16.1352 23.259C17.5951 23.3048 18.604 24.6898 19.379 25.9323C20.6838 28.0248 21.9892 30.1173 23.2946 32.2099C24.5193 34.1737 25.7603 36.6925 24.5474 38.6632C20.6663 37.6587 16.897 36.2166 13.3349 34.3727C12.1733 33.7719 10.9649 33.0568 10.4026 31.8727C9.84776 30.7043 10.0523 29.2873 10.629 28.1296L10.6284 28.1303Z" fill="#FFC004"/>
<path d="M8.26023 49.6407C7.20002 48.9853 6.87977 47.6135 6.65334 46.3848C6.41878 45.1122 6.18297 43.8158 6.33685 42.5313C6.35686 42.3636 6.38563 42.1966 6.42129 42.0303C6.38563 41.8639 6.35686 41.6963 6.33685 41.5293C6.18297 40.2441 6.41878 38.9483 6.65334 37.6751C6.87977 36.4464 7.20065 35.0746 8.26023 34.4192C9.50371 33.6507 11.1062 34.2484 12.4348 34.8574C14.6721 35.8827 16.9095 36.9073 19.1469 37.9325C21.0597 38.8089 23.2301 40.0646 23.6555 42.0309C23.2301 43.9972 21.0597 45.2529 19.1469 46.1293C16.9095 47.1545 14.6721 48.1791 12.4348 49.2044C11.1062 49.8127 9.50371 50.411 8.26023 49.6426V49.6407Z" fill="#FFC004"/>
<path d="M16.1352 60.8002C14.8911 60.8391 13.8703 59.871 13.0071 58.9707C12.1127 58.0384 11.2051 57.0866 10.6284 55.9289C10.0517 54.7712 9.84715 53.3542 10.402 52.1858C10.9643 51.0018 12.1727 50.2867 13.3343 49.6859C16.8971 47.842 20.6657 46.4005 24.5468 45.3953C25.7597 47.3661 24.5187 49.8855 23.294 51.8487C21.9886 53.9412 20.6838 56.0338 19.3784 58.1263C18.6034 59.3687 17.5945 60.7537 16.1346 60.7995L16.1352 60.8002Z" fill="#FFC004"/>
<path d="M35.3021 61.3898C34.8712 62.6096 33.7284 63.4666 32.5056 63.8759C31.2821 64.2853 29.9698 64.3135 28.6807 64.338C28.5918 64.3399 28.5005 64.3399 28.4105 64.3405C28.3204 64.3399 28.2291 64.3399 28.1402 64.338C26.8511 64.3135 25.5388 64.2853 24.3154 63.8759C23.0919 63.4666 21.9498 62.6096 21.5188 61.3898C21.0822 60.1536 21.4331 58.7899 21.8309 57.5406C23.0512 53.7084 28.4105 47.5294 28.4105 47.5294C28.8658 47.0591 33.7697 53.7084 34.99 57.5406C35.3878 58.7899 35.7387 60.1536 35.3021 61.3898Z" fill="#FFC004"/>
<path d="M46.1919 55.929C45.6152 57.0867 44.707 58.0384 43.8132 58.9707C42.95 59.871 41.9292 60.8391 40.6851 60.8002C39.2252 60.7544 38.2163 59.3694 37.4413 58.127C36.1365 56.0344 34.8311 53.9419 33.5263 51.8494C32.3016 49.8856 31.0606 47.3667 32.2735 45.396C36.1546 46.4005 39.9239 47.8426 43.486 49.6865C44.6476 50.2874 45.856 51.0025 46.4183 52.1865C46.9731 53.3549 46.7686 54.7719 46.1919 55.9296V55.929Z" fill="#FFC004"/>
<path d="M50.4841 42.5312C50.6379 43.8164 50.4021 45.1122 50.1676 46.3848C49.9411 47.6134 49.6203 48.9852 48.5607 49.6407C47.3172 50.4098 45.7153 49.8114 44.3862 49.2025C42.1488 48.1772 39.9114 47.1526 37.674 46.1274C35.7612 45.2516 33.5908 43.9953 33.1655 42.029C33.5908 40.0626 35.7612 38.807 37.674 37.9306C39.9114 36.9053 42.1488 35.8807 44.3862 34.8555C45.7147 34.2471 47.3172 33.6488 48.5607 34.4173C49.6209 35.0727 49.9411 36.4445 50.1676 37.6732C50.4021 38.9458 50.6379 40.2422 50.4841 41.5274C50.4641 41.695 50.4353 41.862 50.3996 42.0284C50.4353 42.1947 50.4641 42.3624 50.4841 42.5294V42.5312Z" fill="#FFC004"/>
<path d="M18.903 35.246C18.9342 35.1864 18.9686 35.128 19.0012 35.069C19.16 35.224 19.3114 35.3672 19.3295 35.3841C19.9244 35.9448 20.5505 36.3572 21.3937 36.0427C22.0623 35.7935 22.3657 35.1681 22.2112 34.4782C22.0166 33.6086 20.8138 32.5508 20.0645 32.122C19.0681 31.5519 17.9309 31.8005 17.1797 32.6443C16.5029 33.4046 16.042 34.5422 15.5459 35.4281C14.8254 36.7157 14.4545 37.9444 14.3262 39.4072C14.2299 40.5015 16.0176 40.8851 16.431 39.8944C17.1234 38.2357 18.0022 36.7879 18.903 35.246Z" fill="black"/>
<path d="M42.3883 30.5895C41.562 29.2723 40.8915 27.9633 39.0763 28.6765C37.8228 29.1693 37.161 30.204 36.493 31.3115C35.7393 32.5615 35.01 33.5942 34.6609 35.0501C34.3132 36.5017 36.3316 37.2098 37.061 35.9605C37.5657 35.096 38.26 34.3664 38.8636 33.571C38.97 33.4304 39.2095 33.0104 39.4597 32.6355C39.7237 32.9771 40.007 33.3054 40.3179 33.6168C40.7545 34.0538 41.4375 34.1863 42.0173 34.0105C42.6622 33.8146 43.0457 33.4279 43.1864 32.7448C43.3715 31.8451 42.8255 31.287 42.3883 30.5895Z" fill="black"/>
<path d="M21.7502 41.7672C23.1456 43.4805 25.2029 44.6709 26.963 45.9843C29.0728 47.5582 30.9593 49.4015 33.6264 49.873C36.4749 50.3765 37.4838 49.2565 38.0617 46.6221C38.5246 44.5127 38.6491 42.5859 39.4528 40.5467C39.7055 39.9063 40.4849 39.9955 40.7032 40.6001C42.6704 46.0401 42.848 54.6564 35.1182 54.9006C31.2483 55.023 28.3353 53.4309 25.4212 51.0627C22.6402 48.8026 19.9863 46.8237 19.2444 43.0925C18.9761 41.7421 20.795 40.5951 21.7502 41.7678V41.7672Z" fill="black"/>
<path d="M104.229 14.4984C99.1623 13.2673 94.5249 14.0364 90.164 15.8577C92.0236 12.62 94.0602 9.4834 96.2731 6.446C97.3734 4.93609 97.177 3.24977 95.9022 1.92318C92.3563 -1.76903 87.6645 0.417668 84.8373 3.75956C82.3497 6.69964 80.056 9.94485 77.9475 13.3075C76.8554 9.62905 74.6593 6.27712 71.4005 3.67355C69.6028 2.23772 66.6355 3.57309 66.9294 6.01657C67.5149 10.8778 66.8056 16.3618 68.3487 20.9863C68.8053 22.355 75.2591 29.3031 77.1731 26.3102C77.3902 25.9706 78.0319 24.9686 78.9283 23.5924C78.309 26.1188 80.8942 28.566 83.2986 27.5797C83.151 29.6408 85.2864 31.6969 87.5169 30.8575C93.8031 28.4925 99.6539 23.7199 105.564 20.4508C108.298 18.9377 106.721 15.1036 104.23 14.4984H104.229Z" fill="#00D9DA"/>
<path d="M92.0273 26.1338C85.92 21.6895 79.2335 17.9972 72.4125 14.791C70.8757 14.0683 69.1087 13.1348 67.2447 12.2847C67.316 15.2813 67.4455 18.281 68.3481 20.9857C68.8047 22.3543 75.2585 29.3024 77.1725 26.3096C77.3896 25.9699 78.0313 24.9679 78.9277 23.5917C78.3084 26.1181 80.8936 28.5653 83.298 27.579C83.1504 29.6402 85.2858 31.6963 87.5163 30.8569C89.738 30.0206 91.9041 28.8761 94.0395 27.6117C93.364 27.0824 92.6628 26.5946 92.028 26.1325L92.0273 26.1338Z" fill="#006E66"/>
<path d="M93.3221 42.643C94.1108 40.558 95.5701 37.9563 95.3518 35.6422C95.0947 32.9181 92.3682 31.2399 90.3472 29.7695C84.2399 25.3252 77.5534 21.633 70.7324 18.4267C65.5296 15.9814 57.7178 11.0869 52.2654 15.3642C49.385 17.6237 48.1534 34.5636 47.7656 38.4354C47.1195 44.8793 47.0163 51.4815 48.0852 57.8846C48.8809 62.6504 49.8341 69.0071 54.4834 71.5416C58.8881 73.9424 65.0767 73.0232 69.5834 71.3495C82.0826 66.708 88.846 54.4762 93.3227 42.6436L93.3221 42.643Z" fill="#FF6592"/>
<path d="M61.285 28.3099C60.7452 26.4101 57.9405 25.9781 56.7733 27.5037C55.2947 29.4355 54.4146 32.9859 55.2421 35.3226C55.9439 37.3034 58.5697 37.7002 59.912 36.157C61.5402 34.2861 61.9461 30.6372 61.285 28.3099Z" fill="#FF3B66"/>
<path d="M62.7212 37.7755C63.032 39.4751 65.0411 40.8594 66.6211 39.5912C68.6339 37.9746 69.7698 34.4738 69.8705 31.9475C69.9149 30.8325 69.5484 29.7865 68.4701 29.2843C67.503 28.8341 66.2177 29.0827 65.5396 29.9309C64.6352 31.0629 64.0616 32.2306 63.5674 33.5798C63.0727 34.9315 62.4547 36.3152 62.7218 37.7749L62.7212 37.7755Z" fill="#FF3B66"/>
<path d="M70.6693 41.1205C71.3379 41.8877 72.0766 42.1131 73.0493 41.8752C74.9014 41.4219 75.4299 39.3419 75.8996 37.7479C76.3506 36.2198 76.8097 34.428 75.7764 33.0367C75.2416 32.3166 74.3509 32.0385 73.5053 32.3166C71.8521 32.8609 71.2003 34.6106 70.6887 36.1312C70.1608 37.6989 69.4221 39.6897 70.6687 41.1205H70.6693Z" fill="#FF3B66"/>
<path d="M83.9572 38.2056C83.8183 36.464 81.4584 35.0809 80.0053 36.3661C78.3334 37.8446 76.8291 40.1839 76.8391 42.4723C76.8466 44.1724 78.8288 45.1386 80.263 44.6383C82.6656 43.8001 84.1511 40.6365 83.9572 38.2056Z" fill="#FF3B66"/>
<path d="M60.8753 47.7227C61.0454 46.2643 61.2218 44.7217 60.6388 43.3323C60.171 42.218 58.5472 41.3855 57.4814 42.331C55.1326 44.4141 54.2238 49.0895 56.1484 51.7087C56.9341 52.7779 58.5985 52.9531 59.4729 51.8688C60.5119 50.5812 60.6889 49.3186 60.8747 47.7233L60.8753 47.7227Z" fill="#FF3B66"/>
<path d="M67.7251 51.5323C68.375 49.7845 68.7196 48.2331 68.046 46.4451C67.6075 45.2811 66.3615 45.0501 65.3676 45.5957C63.0101 46.889 59.8433 53.0391 63.8045 54.3368C65.8374 55.0029 67.1196 53.1634 67.7251 51.5323Z" fill="#FF3B66"/>
<path d="M74.5335 48.1327C73.1787 48.1515 72.1028 49.4693 71.3078 50.4406C70.3689 51.587 69.4038 52.7315 69.0398 54.1924C68.57 56.0765 70.5941 57.1036 72.1147 56.752C73.9812 56.3207 75.483 54.1949 76.161 52.5092C76.7921 50.9397 76.9335 48.0988 74.5328 48.1327H74.5335Z" fill="#FF3B66"/>
<path d="M61.6421 57.6781C61.594 56.7213 61.1305 55.917 60.4412 55.2735C59.6556 54.5396 58.419 54.7656 57.7366 55.497C56.5294 56.7903 56.3974 59.377 57.9204 60.48C58.6223 60.988 59.73 61.2203 60.4681 60.6025C60.9528 60.1969 61.3425 59.8089 61.532 59.1949C61.6797 58.7159 61.6671 58.1816 61.6415 57.6787L61.6421 57.6781Z" fill="#FF3B66"/>
<path d="M64.0784 55.8517C62.798 57.216 61.7447 59.2683 61.5526 61.1342C61.3175 63.417 63.9589 64.65 65.5458 62.9932C66.8418 61.639 67.7212 59.5119 67.932 57.6454C68.181 55.4506 65.5896 54.2407 64.0784 55.8517Z" fill="#FF3B66"/>
<path d="M67.1396 23.8818C67.2697 23.5045 67.2991 23.1146 67.2277 22.7135C67.1596 22.4617 67.0908 22.2093 67.0226 21.9576C66.8906 21.7284 66.758 21.4993 66.626 21.2701C66.3564 20.9223 66.0312 20.6486 65.6534 20.4439C65.5264 20.3686 65.3951 20.2989 65.2543 20.2417C64.7908 20.0597 64.313 20.0025 63.8201 20.0697C63.5811 20.1243 63.2809 20.1871 63.0545 20.2844C62.9869 20.3133 62.4359 20.6379 62.3764 20.6793C62.3645 20.6875 62.3545 20.6963 62.3445 20.7063C61.9986 20.9543 61.7397 21.2688 61.5677 21.6487C61.4025 21.8697 61.3031 22.1177 61.2699 22.392C61.1405 22.7693 61.1104 23.1592 61.1817 23.561C61.2505 23.8128 61.3187 24.0652 61.3869 24.3169C61.5189 24.5461 61.6515 24.7752 61.7835 25.0044C62.0305 25.3516 62.3433 25.6115 62.7223 25.7841C62.9425 25.9499 63.1896 26.0497 63.4629 26.083C63.8388 26.2129 64.2273 26.2424 64.6276 26.1715C64.8784 26.1024 65.1298 26.034 65.3807 25.9656C65.609 25.8331 65.8373 25.7 66.0656 25.5675C66.4115 25.3195 66.6704 25.0056 66.8424 24.6252C67.0076 24.4042 67.107 24.1562 67.1402 23.8818H67.1396Z" fill="black"/>
<path d="M87.5187 35.6485C87.1484 35.2046 86.7756 34.7752 86.3803 34.3665C86.4822 34.3319 86.5836 34.2955 86.6868 34.2635C87.6494 33.964 88.6164 33.7462 89.3082 32.9664C89.5934 32.645 89.5102 32.171 89.3038 31.8439C88.6458 30.8042 87.2847 31.0729 86.2433 31.1489C85.5515 31.1991 84.8622 31.3812 84.171 31.3925C83.5005 31.4031 82.865 31.2996 82.1957 31.4471C81.3945 31.6241 80.5838 32.2463 80.5376 33.146C80.4669 34.5215 81.21 35.2975 82.1401 36.1878C83.0983 37.1044 84.0403 38.1095 85.2631 38.6469C86.997 39.4085 88.7428 37.1176 87.5187 35.6491V35.6485Z" fill="black"/>
<path d="M80.0416 37.5263C79.8358 36.5513 79.0783 35.9869 78.0876 36.0452C76.9786 36.1105 76.0797 36.8821 75.2847 37.5947C74.9807 37.8672 74.6793 38.1472 74.3696 38.4134C74.1664 38.5942 73.9549 38.765 73.7354 38.9257C74.0269 38.8598 73.9581 38.8761 73.529 38.974C73.0261 39.1385 72.5344 39.4932 72.0503 39.6326C71.9728 39.6552 71.2891 39.5799 71.0558 39.6232C70.9494 39.6357 70.8437 39.6496 70.738 39.6627C70.6548 39.6194 70.5554 39.5698 70.424 39.5077C70.2977 39.4524 69.2825 39.1442 69.5327 39.2904C68.039 38.5377 66.3759 36.6611 66.1188 35.0005C65.8048 32.9708 67.0257 31.1376 66.9388 29.1367C66.9263 28.8567 66.5816 28.5886 66.3083 28.6589C63.6124 29.352 62.2063 32.7071 62.3164 35.3063C62.4459 38.3788 64.5513 41.157 66.9194 42.9312C69.1824 44.6269 72.1423 44.7468 74.6717 43.6871C74.389 43.8051 75.2328 43.5803 75.2485 43.576C75.6744 43.4498 76.0291 43.2702 76.4094 43.0392C76.961 42.7039 77.4883 42.3241 77.9681 41.8896C79.1521 40.8167 80.4031 39.2321 80.0422 37.525L80.0416 37.5263Z" fill="black"/>
</svg>
