<svg width="18" height="18" viewBox="0 0 18 18" fill="none" xmlns="http://www.w3.org/2000/svg">
<mask id="mask0_115_7285" style="mask-type:luminance" maskUnits="userSpaceOnUse" x="3" y="10" width="12" height="7">
<path fill-rule="evenodd" clip-rule="evenodd" d="M3 10.8721H14.8799V16.4026H3V10.8721Z" fill="white"/>
</mask>
<g mask="url(#mask0_115_7285)">
<path fill-rule="evenodd" clip-rule="evenodd" d="M8.94075 11.9971C5.745 11.9971 4.125 12.5461 4.125 13.6298C4.125 14.7233 5.745 15.2776 8.94075 15.2776C12.1357 15.2776 13.755 14.7286 13.755 13.6448C13.755 12.5513 12.1357 11.9971 8.94075 11.9971ZM8.94075 16.4026C7.4715 16.4026 3 16.4026 3 13.6298C3 11.1578 6.39075 10.8721 8.94075 10.8721C10.41 10.8721 14.88 10.8721 14.88 13.6448C14.88 16.1168 11.49 16.4026 8.94075 16.4026Z" fill="#09051C"/>
</g>
<mask id="mask1_115_7285" style="mask-type:luminance" maskUnits="userSpaceOnUse" x="4" y="1" width="9" height="9">
<path fill-rule="evenodd" clip-rule="evenodd" d="M4.95752 1.50006H12.9225V9.46401H4.95752V1.50006Z" fill="white"/>
</mask>
<g mask="url(#mask1_115_7285)">
<path fill-rule="evenodd" clip-rule="evenodd" d="M8.9408 2.57076C7.33505 2.57076 6.02855 3.87651 6.02855 5.48226C6.0233 7.08276 7.32005 8.38776 8.91905 8.39376L8.9408 8.92926V8.39376C10.5458 8.39376 11.8516 7.08726 11.8516 5.48226C11.8516 3.87651 10.5458 2.57076 8.9408 2.57076ZM8.94079 9.46401H8.91679C6.72529 9.45726 4.95004 7.67001 4.95754 5.48001C4.95754 3.28626 6.74404 1.49976 8.94079 1.49976C11.1368 1.49976 12.9225 3.28626 12.9225 5.48226C12.9225 7.67826 11.1368 9.46401 8.94079 9.46401Z" fill="#09051C"/>
</g>
</svg>
