<svg width="18" height="18" viewBox="0 0 18 18" fill="none" xmlns="http://www.w3.org/2000/svg">
<path d="M4.04147 7.32378C4.40055 6.26211 5.09355 5.33838 6.02161 4.68437C6.94967 4.03036 8.06538 3.67947 9.20956 3.68177C10.5066 3.68177 11.6793 4.13177 12.6002 4.86827L15.2802 2.25001C13.647 0.858754 11.5542 0 9.20956 0C5.57946 0 2.45435 2.02351 0.95166 4.98752L4.04147 7.32378Z" fill="#EA4335"/>
<path d="M12.31 13.5095C11.4734 14.0368 10.4113 14.318 9.20943 14.318C8.0698 14.3203 6.9583 13.9722 6.03231 13.323C5.10631 12.6738 4.41274 11.7565 4.04977 10.7007L0.949219 13.001C1.70996 14.5057 2.88727 15.7718 4.34741 16.6554C5.80755 17.5391 7.492 18.0048 9.20943 17.9998C11.4604 17.9998 13.6108 17.2175 15.2217 15.7498L12.3107 13.5095H12.31Z" fill="#34A853"/>
<path d="M15.2218 15.7503C16.9064 14.2143 18 11.9283 18 9.00028C18 8.46777 17.9163 7.89552 17.7912 7.36377H9.20947V10.8415H14.1489C13.9056 12.0108 13.2509 12.916 12.3108 13.51L15.2218 15.7503Z" fill="#4A90E2"/>
<path d="M4.04999 10.7013C3.86224 10.153 3.76685 9.57852 3.76757 9.00031C3.76757 8.41381 3.8635 7.85056 4.04155 7.32405L0.951744 4.98779C0.319644 6.23481 -0.00620106 7.60869 8.93746e-05 9.00031C8.93746e-05 10.4403 0.341611 11.7978 0.949441 13.0016L4.04999 10.7013Z" fill="#FBBC05"/>
</svg>
