<svg width="67" height="50" viewBox="0 0 67 50" fill="none" xmlns="http://www.w3.org/2000/svg">
<path d="M45.899 12.1037C44.8846 12.9155 43.3162 12.6478 42.4031 11.507C41.49 10.3661 41.5725 8.77717 42.5869 7.9653L51.786 0.602927C52.8004 -0.208941 54.3688 0.0587667 55.2818 1.19964C56.1949 2.34051 56.1125 3.92943 55.0981 4.7413L45.899 12.1037Z" fill="#3F2009"/>
<path d="M66.2312 15.9637C66.2312 15.9637 58.6197 4.48475 45.907 4.68184L45.5052 12.426L66.2312 15.9637Z" fill="#96C147"/>
<path d="M66.2312 15.9637C66.2312 15.9637 57.5726 24.6655 45.1034 20.1701L45.5052 12.426L66.2312 15.9637Z" fill="#3C7E0A"/>
<path d="M17.5859 13.0012C17.5859 13.0012 13.5135 7.98402 18.1257 8.58401C22.7378 9.184 30.1094 9.39733 36.9751 5.61044C43.8443 1.82789 48.0792 -3.34062 53.1064 2.94068L27.6845 23.2868L17.5825 12.9969L17.5859 13.0012Z" fill="#FF9914"/>
<path d="M35.5108 35.3979C35.5108 35.3979 39.5138 40.4707 39.9389 35.8392C40.3641 31.2076 41.7712 23.9684 46.9704 18.0993C52.1661 12.2259 58.1369 9.22633 53.1097 2.94502L27.6879 23.2911L35.5143 35.4023L35.5108 35.3979Z" fill="#F08102"/>
<path d="M35.1867 17.2827C31.7323 12.9664 26.8087 9.8189 21.2461 8.86941C15.6796 7.92301 10.5226 9.34612 6.68093 12.4207L20.1828 29.2909L35.1867 17.2827Z" fill="#FFC503"/>
<path d="M33.6845 46.161C37.5223 43.0895 40.0446 38.3665 40.337 32.731C40.6295 27.0956 38.6372 21.6019 35.1828 17.2857L20.1827 29.2909L33.6845 46.161Z" fill="#FFD019"/>
<path d="M19.123 49.7093C24.6856 50.6588 29.8465 49.2326 33.6843 46.1611L20.1825 29.2909L5.18236 41.296C8.63681 45.6123 13.5604 48.7598 19.123 49.7093Z" fill="#F08102"/>
<path d="M6.6809 12.4207C2.84313 15.4922 0.320786 20.2152 0.0283805 25.8507C-0.264025 31.4862 1.72821 36.9798 5.18266 41.296L20.1827 29.2909L6.6809 12.4207Z" fill="#FF9914"/>
<path d="M17.9475 19.2876C19.5025 21.2306 22.1636 21.6848 23.8912 20.3022C25.6188 18.9195 25.7587 16.2236 24.2036 14.2806C22.6486 12.3376 19.9875 11.8834 18.2599 13.2661C16.5324 14.6487 16.3925 17.3447 17.9475 19.2876Z" fill="white"/>
</svg>
