<svg width="62" height="50" viewBox="0 0 62 50" fill="none" xmlns="http://www.w3.org/2000/svg">
<path d="M33.6786 27.9356C32.2848 28.5425 30.6872 27.7523 30.1107 26.1718C29.5295 24.5918 30.1895 22.823 31.584 22.2214L55.4978 11.8352C56.8917 11.2283 58.4892 12.0185 59.0657 13.599C59.6469 15.179 58.9869 16.9478 57.5924 17.5494L33.6786 27.9356Z" fill="#408B21"/>
<path d="M61.5338 20.3167C62.115 21.8967 61.455 23.6655 60.0605 24.2671C58.6667 24.874 57.0691 24.0838 56.4926 22.5032L54.0239 15.7802C53.4427 14.2003 54.1028 12.4315 55.4972 11.8298C56.891 11.223 58.4886 12.0131 59.0651 13.5937L61.5338 20.3167Z" fill="#58A72D"/>
<path d="M23.8738 16.6752C27.8436 18.6354 32.389 16.6611 34.0262 12.2656C35.6633 7.87009 33.7723 2.71782 29.8025 0.757667C25.8326 -1.20248 21.2872 0.771769 19.6501 5.16728C18.0129 9.56279 19.9039 14.7151 23.8738 16.6752Z" fill="#DA70C3"/>
<path d="M29.8213 16.8607C33.7878 15.1409 35.6628 10.0977 34.0159 5.60691L19.6579 11.8441C21.3054 16.3401 25.8601 18.5852 29.822 16.866L29.8213 16.8607Z" fill="#98005F"/>
<path d="M35.7908 33.1365C31.8243 34.8563 27.2742 32.6106 25.6267 28.1146C23.9792 23.6186 25.8548 18.5806 29.8213 16.8608C33.7878 15.141 38.3379 17.3867 39.9854 21.8827C41.6329 26.3787 39.7573 31.4167 35.7908 33.1365Z" fill="#DA70C3"/>
<path d="M35.7909 33.1363C39.7574 31.4165 41.6324 26.3732 39.9855 21.8825L25.6275 28.1197C27.275 32.6157 31.8297 34.8608 35.7916 33.1416L35.7909 33.1363Z" fill="#98005F"/>
<path d="M10.7618 44.0049C6.79528 45.7247 2.24518 43.479 0.597661 38.983C-1.04985 34.487 0.825761 29.449 4.79225 27.7292C8.75873 26.0094 13.3088 28.2551 14.9563 32.7511C16.6039 37.2471 14.7283 42.2851 10.7618 44.0049Z" fill="#DA70C3"/>
<path d="M10.7619 44.0049C14.7284 42.2851 16.6033 37.2419 14.9565 32.7511L0.59841 38.9883C2.24593 43.4843 6.8007 45.7294 10.7625 44.0102L10.7619 44.0049Z" fill="#98005F"/>
<path d="M31.8547 45.0198C33.8095 49.3654 38.4937 51.2112 42.3172 49.1426C46.1406 47.074 47.6555 41.8743 45.7007 37.5288C43.7459 33.1833 39.0617 31.3374 35.2383 33.406C31.4148 35.4746 29.8999 40.6743 31.8547 45.0198Z" fill="#DA70C3"/>
<path d="M41.7659 49.4167C45.7324 47.6969 47.6074 42.6537 45.9605 38.1629L31.6025 44.4001C33.25 48.8961 37.8048 51.1412 41.7666 49.422L41.7659 49.4167Z" fill="#98005F"/>
<path d="M10.869 27.0064C13.2895 31.0571 18.127 32.2338 21.6741 29.6348C25.2211 27.0357 26.1344 21.6451 23.714 17.5944C21.2936 13.5438 16.456 12.3671 12.9089 14.9661C9.36189 17.5652 8.44859 22.9558 10.869 27.0064Z" fill="#DA70C3"/>
<path d="M20.2805 30.4396C24.247 28.7197 26.122 23.6765 24.4751 19.1857L10.1171 25.4229C11.7646 29.9189 16.3194 32.1641 20.2812 30.4448L20.2805 30.4396Z" fill="#98005F"/>
<path d="M20.307 46.5295C24.2769 48.4897 28.8223 46.5154 30.4594 42.1199C32.0966 37.7244 30.2056 32.5721 26.2357 30.612C22.2659 28.6518 17.7205 30.6261 16.0833 35.0216C14.4461 39.4171 16.3372 44.5694 20.307 46.5295Z" fill="#DA70C3"/>
<path d="M26.2501 46.7151C30.2166 44.9953 32.0916 39.9521 30.4447 35.4613L16.0867 41.6985C17.7342 46.1945 22.289 48.4396 26.2508 46.7204L26.2501 46.7151Z" fill="#98005F"/>
</svg>
