<svg width="14" height="17" viewBox="0 0 14 17" fill="none" xmlns="http://www.w3.org/2000/svg">
<path d="M11.1928 6.31559C11.1928 5.19892 10.7492 4.12799 9.95961 3.33838C9.17001 2.54878 8.09908 2.10518 6.98241 2.10518C5.86574 2.10518 4.7948 2.54878 4.0052 3.33838C3.2156 4.12799 2.772 5.19892 2.772 6.31559C2.772 11.2277 0.666798 12.6312 0.666798 12.6312H13.298C13.298 12.6312 11.1928 11.2277 11.1928 6.31559Z" stroke="white" stroke-width="1.3" stroke-linecap="round" stroke-linejoin="round"/>
<path d="M8.19606 15.4381C8.07269 15.6508 7.89561 15.8274 7.68255 15.9501C7.4695 16.0728 7.22794 16.1374 6.98206 16.1374C6.73619 16.1374 6.49463 16.0728 6.28157 15.9501C6.06852 15.8274 5.89144 15.6508 5.76806 15.4381" stroke="white" stroke-width="1.3" stroke-linecap="round" stroke-linejoin="round"/>
<circle cx="11.1931" cy="2.80694" r="2.15694" fill="#FF4545" stroke="white" stroke-width="1.3"/>
</svg>
