<svg width="58" height="83" viewBox="0 0 58 83" fill="none" xmlns="http://www.w3.org/2000/svg">
<path d="M10.5729 18.8503C10.8326 19.8536 11.1714 20.8264 11.5804 21.7616C15.3266 21.6712 22.5824 21.7446 20.8947 23.7754C19.6836 25.2337 16.6079 25.7479 14.0239 25.9119C18.0875 31.2562 24.6471 34.4999 31.0725 33.7331C39.9929 32.668 45.2783 24.2788 42.8774 14.9948C41.3009 8.89799 36.8015 3.93169 31.3721 1.54171C31.3863 2.64712 31.3054 4.12071 30.9818 5.90603C30.4047 9.087 28.8824 3.40228 28.1808 0.465855C26.2833 0.0152689 24.3244 -0.120892 22.3788 0.112015C13.4575 1.17622 8.17211 9.56625 10.5729 18.8503ZM13.5926 16.7846C13.7189 16.1092 15.1416 15.8126 16.7689 16.1226C18.397 16.4325 19.6134 17.2307 19.4871 17.9061C19.3609 18.5816 17.9381 18.8781 16.3109 18.5681C14.6828 18.2582 13.4664 17.46 13.5926 16.7846Z" fill="#55A5A8"/>
<path d="M46.9419 82.9991H46.941C46.7934 82.9991 46.6743 82.8782 46.6752 82.7295C46.7205 68.4541 45.0684 55.405 41.7641 43.9451C39.1223 34.7838 35.4259 26.6132 30.7754 19.6582C22.8705 7.83462 14.8588 3.59033 14.7788 3.54913C14.6481 3.48105 14.5965 3.31891 14.6641 3.18723C14.7317 3.05554 14.8926 3.00359 15.0233 3.07167C15.1069 3.11467 17.0996 4.15917 20.1069 6.69696C22.8749 9.0323 27.0497 13.1243 31.2174 19.3581C35.8981 26.3588 39.6185 34.5804 42.2754 43.7955C45.5939 55.3047 47.2531 68.4048 47.2078 82.7322C47.2078 82.88 47.0877 83 46.941 83L46.9419 82.9991Z" fill="#422033"/>
<path d="M32.6651 22.3904C32.5993 22.3904 32.5326 22.3662 32.481 22.316C32.3743 22.2139 32.3698 22.0437 32.4721 21.9362C35.988 18.2178 37.1502 14.0846 37.5058 11.2718C37.8926 8.2153 37.4383 6.00985 37.4338 5.98835C37.4036 5.84323 37.4952 5.7008 37.6392 5.66945C37.7833 5.63899 37.9246 5.73126 37.9558 5.87638C37.9753 5.96864 38.4324 8.17589 38.0376 11.3183C37.6739 14.2171 36.4797 18.4767 32.858 22.308C32.8055 22.3635 32.7353 22.3913 32.6651 22.3913V22.3904Z" fill="#422033"/>
<path d="M21.5323 14.012C18.894 14.012 16.6008 13.6098 14.9087 13.1816C12.0223 12.4516 10.2573 11.5172 10.1835 11.4778C10.0536 11.408 10.0039 11.2458 10.0732 11.1141C10.1426 10.9833 10.3035 10.9332 10.4342 11.0022C10.452 11.0111 12.2277 11.9499 15.0563 12.663C17.6607 13.3196 21.7172 13.9144 26.2504 13.0177C26.3953 12.9881 26.5349 13.084 26.5633 13.23C26.5918 13.376 26.4975 13.5167 26.3526 13.5453C24.6649 13.8795 23.0421 14.0111 21.5332 14.0111L21.5323 14.012Z" fill="#422033"/>
<path d="M25.0296 30.6953C24.0497 30.6953 23.1658 30.6443 22.3931 30.5672C19.0044 30.2313 16.9957 29.3767 16.9121 29.3409C16.777 29.2827 16.7138 29.1241 16.7725 28.9879C16.8303 28.8518 16.9877 28.7882 17.1229 28.8464C17.1424 28.8554 19.1556 29.7091 22.4696 30.0342C25.5258 30.3334 30.347 30.2313 35.9569 28.0429C36.0939 27.99 36.2486 28.0581 36.3019 28.1961C36.3553 28.3349 36.2868 28.4899 36.1499 28.5436C31.8497 30.2215 28.0013 30.6944 25.0305 30.6944L25.0296 30.6953Z" fill="#422033"/>
<path d="M5.36491 53.9046C6.12606 54.6024 6.9379 55.2304 7.78708 55.7885C10.8753 53.6502 16.9929 49.7186 16.6808 52.3486C16.4567 54.2361 14.1599 56.36 12.0846 57.9196C18.3863 60.16 25.6395 59.266 30.6056 55.0871C37.5004 49.2859 37.3777 39.3497 30.3317 32.8946C25.7053 28.6557 19.2435 26.9716 13.3997 27.9588C14.0115 28.8769 14.7424 30.1552 15.4395 31.8286C16.6808 34.8107 12.3238 30.8871 10.1434 28.8142C8.30993 29.4816 6.59556 30.4455 5.09193 31.7112C-1.8029 37.5124 -1.68019 47.4486 5.3658 53.9037L5.36491 53.9046ZM6.77429 50.5131C6.51375 49.878 7.54433 48.8469 9.07552 48.21C10.6067 47.5731 12.0588 47.5722 12.3193 48.2073C12.5798 48.8425 11.5493 49.8735 10.0181 50.5104C8.48688 51.1473 7.03482 51.1482 6.77429 50.5131Z" fill="#F15B55"/>
<path d="M57.3944 82.9221C57.2788 82.9221 57.1721 82.8459 57.1383 82.7286C54.1728 72.4609 49.3534 63.7619 42.8143 56.8732C37.584 51.3631 31.2467 46.9917 23.9784 43.8779C11.599 38.5747 0.677928 38.7727 0.569446 38.7745C0.567668 38.7745 0.565 38.7745 0.563222 38.7745C0.419172 38.7745 0.30002 38.6581 0.296463 38.512C0.292906 38.3633 0.409391 38.2406 0.556997 38.237C0.584562 38.237 3.36419 38.1779 7.64478 38.7817C11.591 39.338 17.6651 40.5885 24.1883 43.3825C31.5232 46.5249 37.9201 50.9385 43.2011 56.5005C49.7998 63.4519 54.6619 72.2253 57.6523 82.5772C57.6932 82.7196 57.6123 82.8692 57.4709 82.9104C57.446 82.9176 57.4211 82.9212 57.3962 82.9212L57.3944 82.9221Z" fill="#422033"/>
<path d="M25.6431 44.7549C25.6271 44.7549 25.6102 44.7531 25.5942 44.7504C25.4492 44.7236 25.3532 44.5829 25.3808 44.4369C26.3109 39.3783 25.0367 35.2702 23.8042 32.7145C22.4696 29.9465 20.9037 28.3636 20.8877 28.3475C20.7827 28.2427 20.7827 28.0725 20.8868 27.9677C20.9908 27.8629 21.1598 27.862 21.2638 27.9668C21.3305 28.0331 22.9097 29.6312 24.2835 32.4798C25.5506 35.1081 26.8613 39.3327 25.9045 44.5354C25.8805 44.6644 25.7685 44.7549 25.6422 44.7549H25.6431Z" fill="#422033"/>
<path d="M1.01681 47.9457C0.880767 47.9457 0.764283 47.8409 0.751834 47.7012C0.738496 47.5534 0.846978 47.4226 0.993695 47.4091C1.01326 47.4073 3.01039 47.2156 5.76601 46.2571C8.30377 45.3739 12.0233 43.6396 15.3338 40.3933C15.4396 40.2893 15.6085 40.292 15.7108 40.3986C15.8139 40.5052 15.8113 40.6754 15.7054 40.7784C12.3194 44.0992 8.51629 45.8702 5.92251 46.7713C3.10998 47.7486 1.12441 47.9376 1.04082 47.9448C1.03282 47.9448 1.02482 47.9457 1.01681 47.9457Z" fill="#422033"/>
<path d="M16.3163 59.2077C16.1892 59.2077 16.0762 59.1154 16.054 58.9855C16.0282 58.8395 16.126 58.6998 16.271 58.6747C16.2923 58.6711 18.4415 58.2787 21.3936 56.7263C24.1163 55.2948 28.0982 52.5564 31.6096 47.6358C31.6959 47.5148 31.8621 47.488 31.9822 47.5749C32.1022 47.6617 32.1289 47.8293 32.0435 47.9502C28.4636 52.9667 24.3991 55.7571 21.6186 57.2154C18.598 58.7992 16.4524 59.1889 16.3626 59.205C16.3474 59.2077 16.3314 59.2095 16.3163 59.2095V59.2077Z" fill="#422033"/>
</svg>
