<svg width="24" height="26" viewBox="0 0 24 26" fill="none" xmlns="http://www.w3.org/2000/svg">
<path d="M9.98211 5.07441C11.076 2.74165 14.3938 2.74165 15.4877 5.07441L15.9407 6.0404C16.3709 6.95775 17.2297 7.60053 18.2312 7.75461L19.4974 7.94944C21.9417 8.32551 22.9384 11.3071 21.2116 13.0774L20.1069 14.2101C19.4334 14.9006 19.1275 15.8699 19.2826 16.822L19.5155 18.2516C19.9238 20.7572 17.2632 22.6301 15.0422 21.4006L14.2074 20.9386C13.2913 20.4314 12.1786 20.4314 11.2624 20.9386L10.4277 21.4006C8.20665 22.6301 5.54604 20.7572 5.95429 18.2516L6.18723 16.822C6.34236 15.8699 6.03648 14.9006 5.36293 14.2101L4.2582 13.0774C2.53146 11.3071 3.52814 8.32551 5.97241 7.94944L7.23868 7.75461C8.2401 7.60053 9.09896 6.95775 9.52913 6.0404L9.98211 5.07441Z" fill="#2CD3C5"/>
<circle cx="22.6838" cy="1.19388" r="1.19388" fill="#2CD3C5"/>
<circle opacity="0.5" cx="9.55129" cy="25.2041" r="0.795919" fill="#2CD3C5"/>
<circle cx="1.59184" cy="17.2449" r="1.59184" fill="#2CD3C5"/>
<circle opacity="0.6" cx="21.8879" cy="20.8264" r="0.397959" fill="#2CD3C5"/>
<circle cx="6.76537" cy="5.17327" r="0.397959" fill="#2CD3C5"/>
</svg>
