<svg width="69" height="69" viewBox="0 0 69 69" fill="none" xmlns="http://www.w3.org/2000/svg">
<mask id="mask0_4036_802" style="mask-type:luminance" maskUnits="userSpaceOnUse" x="-1" y="0" width="70" height="69">
<path fill-rule="evenodd" clip-rule="evenodd" d="M-0.000976562 0.5H68.2455V68.7465H-0.000976562V0.5Z" fill="white"/>
</mask>
<g mask="url(#mask0_4036_802)">
<path fill-rule="evenodd" clip-rule="evenodd" d="M30.8171 41.8644L43.6166 62.6299C44.1766 63.5399 45.0516 63.5294 45.4051 63.4804C45.7586 63.4314 46.6091 63.2144 46.9171 62.1819L62.9226 8.12443C63.2026 7.16893 62.6881 6.51793 62.4571 6.28693C62.2331 6.05593 61.5926 5.56243 60.6651 5.82493L6.56906 21.6659C5.54356 21.9669 5.31956 22.8279 5.27056 23.1814C5.22156 23.5419 5.20756 24.4344 6.11406 25.0049L27.1176 38.1404L45.6746 19.3874C46.6931 18.3584 48.3556 18.3479 49.3881 19.3664C50.4206 20.3849 50.4276 22.0509 49.4091 23.0799L30.8171 41.8644ZM45.1313 68.7483C42.6953 68.7483 40.4623 67.5093 39.1463 65.3813L25.5768 43.3628L3.33083 29.4503C0.933331 27.9488 -0.319669 25.2748 0.0688308 22.4643C0.453831 19.6538 2.38233 17.4208 5.09133 16.6263L59.1873 0.785346C61.6758 0.0573462 64.3428 0.746846 66.1768 2.57385C68.0108 4.41835 68.6933 7.11335 67.9513 9.61235L51.9458 63.6663C51.1443 66.3858 48.9043 68.3073 46.1008 68.6818C45.7718 68.7238 45.4533 68.7483 45.1313 68.7483V68.7483Z" fill="black"/>
</g>
</svg>
