<svg width="369" height="239" viewBox="0 0 369 239" fill="none" xmlns="http://www.w3.org/2000/svg">
<g clip-path="url(#clip0_108_10498)">
<path fill-rule="evenodd" clip-rule="evenodd" d="M346.57 237.37C346.57 236.47 345.839 235.739 344.939 235.739H8.77251C7.87252 235.739 7.14209 236.47 7.14209 237.37C7.14209 238.27 7.87252 239 8.77251 239H344.939C345.839 239 346.57 238.27 346.57 237.37Z" fill="#62719E"/>
<path fill-rule="evenodd" clip-rule="evenodd" d="M20.9139 235.739C20.9139 235.739 -22.7117 182.316 16.0542 138.667C39.343 112.445 55.0766 122.829 67.7373 100.84C79.6513 80.1486 61.6047 51.9444 82.6088 24.6315C107.772 -8.09014 153.829 -4.24341 176.857 13.2326C205.225 34.7618 205.248 55.7139 225.527 65.2661C244.024 73.9791 263.269 50.5498 287.565 53.0563C333.278 57.7715 347.892 98.4181 333.517 129.309C315.515 167.994 389.665 179.419 337.818 235.638L20.9139 235.74V235.739Z" fill="#E9EFFC"/>
<path fill-rule="evenodd" clip-rule="evenodd" d="M283.426 228.733C288.188 226.938 293.908 227.497 298.341 228.898C302.774 230.299 305.921 232.543 305.534 234.122C304.561 238.088 288.706 234.167 283.426 228.733ZM294.995 221.454C299.757 219.66 305.478 220.219 309.911 221.62C314.345 223.021 317.492 225.265 317.105 226.844C316.132 230.81 300.277 226.889 294.996 221.454H294.995ZM289.006 225.314C292.273 221.413 293.637 215.829 293.779 211.182C293.921 206.534 292.843 202.823 291.226 202.666C287.161 202.274 285.621 218.535 289.006 225.314ZM308.107 211.678C312.869 209.884 318.59 210.443 323.023 211.844C327.457 213.245 330.603 215.489 330.217 217.067C329.244 221.034 313.388 217.113 308.108 211.678H308.107ZM302.717 216.066C305.155 211.6 305.396 205.858 304.623 201.272C303.851 196.687 302.065 193.259 300.448 193.423C296.385 193.835 298.068 210.083 302.717 216.065V216.066ZM313.343 206.663C315.781 202.197 316.022 196.455 315.249 191.869C314.477 187.284 312.691 183.856 311.074 184.02C307.011 184.433 308.694 200.68 313.343 206.662V206.663ZM319.478 201.138C323.897 198.616 329.635 198.269 334.234 198.956C338.833 199.643 342.292 201.364 342.159 202.983C341.823 207.052 325.547 205.675 319.478 201.138ZM325.364 194.37C326.948 189.534 326.14 183.844 324.546 179.475C322.951 175.108 320.571 172.062 319.012 172.518C315.093 173.663 319.705 189.332 325.365 194.369L325.364 194.37ZM329.85 188.721C334.008 185.787 339.686 184.89 344.329 185.134C348.973 185.376 352.583 186.759 352.604 188.383C352.66 192.467 336.327 192.655 329.851 188.721H329.85ZM334.033 182.495C335.056 177.51 333.603 171.949 331.522 167.791C329.44 163.633 326.729 160.879 325.231 161.509C321.467 163.094 327.834 178.135 334.032 182.494L334.033 182.495ZM337.796 176.854C341.658 173.539 347.224 172.109 351.87 171.911C356.515 171.713 360.239 172.747 360.415 174.362C360.856 178.422 344.615 180.156 337.796 176.854ZM340.94 170.922C341.92 165.929 340.421 160.38 338.302 156.241C336.185 152.101 333.449 149.371 331.958 150.013C328.208 151.631 334.705 166.617 340.94 170.921V170.922ZM344.277 164.537C347.263 160.417 352.346 157.733 356.818 156.461C361.291 155.189 365.153 155.331 365.699 156.86C367.072 160.706 351.677 166.166 344.277 164.536V164.537ZM347.226 157.168C347.897 152.123 346.058 146.678 343.689 142.677C341.321 138.675 338.422 136.119 336.973 136.853C333.33 138.697 340.737 153.255 347.226 157.168ZM348.766 152.593C351.112 148.078 355.743 144.673 359.98 142.756C364.216 140.838 368.057 140.409 368.823 141.842C370.748 145.444 356.326 153.112 348.766 152.593ZM350.23 148.547C348.689 143.697 349.549 138.015 351.181 133.661C352.815 129.308 355.223 126.284 356.777 126.754C360.687 127.934 355.935 143.561 350.229 148.547H350.23Z" fill="#337152"/>
<path fill-rule="evenodd" clip-rule="evenodd" d="M277.075 232.475C277.075 232.475 334.094 208.354 351.137 147.237C351.234 146.891 351.031 146.531 350.684 146.434C350.337 146.337 349.977 146.541 349.881 146.887C333.009 207.391 276.566 231.274 276.566 231.274C276.235 231.414 276.079 231.797 276.22 232.128C276.36 232.46 276.742 232.615 277.074 232.475H277.075Z" fill="#2C6046"/>
<path fill-rule="evenodd" clip-rule="evenodd" d="M30.8443 235.636C25.8628 226.428 35.9388 218.139 46.8104 222.795C41.3681 212.232 47.6289 201.452 62.5537 204.265C61.7939 195.653 75.3785 190.462 80.7415 201.593C85.1317 195.237 100.06 195.345 100.06 206.914V235.636H30.8443Z" fill="#26614C"/>
<path fill-rule="evenodd" clip-rule="evenodd" d="M289.764 235.641C289.764 235.641 332.246 215.908 324.145 189.131C320.426 176.839 302.769 180.131 302.769 180.131C302.769 180.131 333.907 163.685 330.22 146.154C326.488 128.406 306.819 134.678 306.819 134.678C306.819 134.678 337.911 89.7887 313.569 78.8747C286.771 66.8595 273.517 121.177 273.517 121.177C273.517 121.177 268.228 98.0757 252.816 103.626C234.321 110.285 238.714 150.055 242.69 171.601C242.69 171.601 230.724 153.911 215.127 158.304C189.367 165.558 212.877 235.64 212.877 235.64H289.763L289.764 235.641Z" fill="#539D55"/>
<path fill-rule="evenodd" clip-rule="evenodd" d="M239.188 138.73C239.289 150.37 241.027 162.582 242.692 171.603C242.692 171.603 236.107 161.868 226.342 158.635L212.297 180.396L214.4 235.642H289.764C289.764 235.642 332.246 215.909 324.145 189.132C320.427 176.841 302.769 180.132 302.769 180.132C302.769 180.132 333.907 163.686 330.22 146.155C329.884 144.558 329.419 143.155 328.851 141.924C321.506 159.253 304.369 171.472 288.357 172.973C251.141 176.463 249.361 139.514 247.903 125.227L239.188 138.73Z" fill="#40874E"/>
<path fill-rule="evenodd" clip-rule="evenodd" d="M322.919 186.331C312.101 196.946 271.604 230.826 212.297 211.002L223.285 235.641H289.765C289.765 235.641 332.247 215.908 324.146 189.131C323.831 188.089 323.416 187.16 322.92 186.331H322.919Z" fill="#337544"/>
<path fill-rule="evenodd" clip-rule="evenodd" d="M245.644 109.1C247.52 106.577 249.88 104.684 252.817 103.627C268.229 98.0767 273.518 121.178 273.518 121.178C273.518 121.178 286.772 66.8606 313.57 78.8757C337.912 89.7898 306.82 134.679 306.82 134.679C306.82 134.679 317.819 131.171 324.926 136.823C311.419 147.204 286.167 163.86 271.411 156.392C259.553 150.391 252.568 127.851 245.644 109.101V109.1Z" fill="#78BF5A"/>
<path fill-rule="evenodd" clip-rule="evenodd" d="M239.324 235.641H241.47L249.054 218.784L300.021 205.897C300.545 205.764 300.863 205.233 300.73 204.709C300.598 204.185 300.065 203.868 299.542 204L250.079 216.507L272.651 166.325L307.975 155.141C308.49 154.978 308.775 154.428 308.612 153.912C308.449 153.398 307.898 153.112 307.383 153.275L273.726 163.932L300.673 104.028C300.894 103.535 300.674 102.956 300.181 102.734C299.689 102.513 299.109 102.733 298.888 103.226L272.089 162.801L261.276 124.958C261.128 124.439 260.586 124.137 260.066 124.286C259.547 124.434 259.246 124.977 259.395 125.496L270.845 165.568L248.284 215.721L229.096 179.934C228.841 179.458 228.247 179.279 227.771 179.534C227.295 179.789 227.116 180.383 227.371 180.859L247.271 217.973L239.323 235.642L239.324 235.641Z" fill="#246A2E"/>
<path fill-rule="evenodd" clip-rule="evenodd" d="M73.2536 235.636C73.2536 235.636 49.7473 224.716 54.2299 209.9C56.2875 203.099 66.058 204.92 66.058 204.92C66.058 204.92 48.8289 195.82 50.869 186.12C52.9342 176.299 63.8178 179.77 63.8178 179.77C63.8178 179.77 46.6137 154.932 60.0831 148.893C74.9112 142.245 82.2448 172.299 82.2448 172.299C82.2448 172.299 85.1708 159.518 93.699 162.588C103.933 166.273 101.502 188.278 99.3022 200.201C99.3022 200.201 105.923 190.413 114.554 192.844C128.807 196.858 115.799 235.636 115.799 235.636H73.2557H73.2536Z" fill="#539D55"/>
<path fill-rule="evenodd" clip-rule="evenodd" d="M101.238 182.013C101.181 188.455 100.221 195.211 99.2999 200.202C99.2999 200.202 102.943 194.816 108.347 193.027L116.118 205.069L114.955 235.638H73.2545C73.2545 235.638 49.7483 224.719 54.2309 209.902C56.2884 203.101 66.059 204.922 66.059 204.922C66.059 204.922 48.8298 195.822 50.87 186.122C51.0559 185.238 51.3135 184.462 51.6276 183.781C55.6917 193.369 65.1742 200.131 74.0339 200.961C94.626 202.893 95.6119 182.447 96.4184 174.543L101.241 182.014L101.238 182.013Z" fill="#40874E"/>
<path fill-rule="evenodd" clip-rule="evenodd" d="M54.9091 208.351C60.8959 214.225 83.3033 232.972 116.119 222.002L110.04 235.636H73.2556C73.2556 235.636 49.7493 224.716 54.2319 209.9C54.4058 209.324 54.6362 208.81 54.9101 208.35L54.9091 208.351Z" fill="#337544"/>
<path fill-rule="evenodd" clip-rule="evenodd" d="M97.6664 165.618C96.6284 164.222 95.323 163.175 93.6969 162.589C85.1687 159.519 82.2427 172.3 82.2427 172.3C82.2427 172.3 74.9091 142.245 60.081 148.894C46.6127 154.933 63.8157 179.771 63.8157 179.771C63.8157 179.771 57.7299 177.831 53.7974 180.958C61.2712 186.701 75.2438 195.918 83.409 191.785C89.9698 188.464 93.8349 175.993 97.6664 165.618Z" fill="#70BA55"/>
<path fill-rule="evenodd" clip-rule="evenodd" d="M101.163 235.636H99.9759L95.7803 226.308L67.5784 219.177C67.2893 219.104 67.1132 218.81 67.186 218.52C67.2589 218.229 67.5534 218.054 67.8436 218.127L95.2129 225.047L82.7228 197.281L63.1774 191.093C62.8926 191.002 62.735 190.698 62.8252 190.413C62.9154 190.128 63.2198 189.971 63.5046 190.06L82.1283 195.957L67.2186 162.81C67.0958 162.537 67.2186 162.217 67.4904 162.095C67.7632 161.972 68.0839 162.095 68.2067 162.367L83.0348 195.332L89.0184 174.392C89.101 174.105 89.3999 173.937 89.6879 174.02C89.9749 174.102 90.1423 174.401 90.0597 174.689L83.7239 196.862L96.2074 224.613L106.825 204.811C106.966 204.548 107.294 204.449 107.557 204.59C107.82 204.732 107.919 205.06 107.779 205.323L96.7683 225.859L101.166 235.636H101.163Z" fill="#246A2E"/>
<path fill-rule="evenodd" clip-rule="evenodd" d="M244.458 187.915C248.774 183.795 253.052 183.02 259.723 184.624C266.394 186.229 269.704 177.097 271.338 173.464C274.271 166.951 278.369 164.468 284.484 164.357C292.25 164.216 300.661 159.951 300.563 154.556C300.563 154.556 304.021 161.787 302.55 167.478C301.078 173.168 301.587 177.57 302.55 183.325C303.525 189.151 301.417 199.286 291.563 200.935C286.485 201.784 277.757 208.569 277.093 221.014C276.293 236.016 246.534 229.399 246.534 229.399C246.534 229.399 240.143 192.037 244.46 187.918L244.458 187.915Z" fill="#84C254"/>
<path fill-rule="evenodd" clip-rule="evenodd" d="M266.737 181.869C268.989 179.237 270.424 175.494 271.338 173.466C274.27 166.953 278.368 164.469 284.483 164.358C292.25 164.217 300.66 159.953 300.562 154.557C300.562 154.557 304.02 161.788 302.549 167.479C301.843 170.209 301.593 172.644 301.63 175.072C295.313 178.366 283.267 194.442 274.349 189.908C271.931 188.679 269.081 185.207 266.738 181.87L266.737 181.869Z" fill="#A1DA60"/>
<path fill-rule="evenodd" clip-rule="evenodd" d="M302.262 181.556C302.351 182.133 302.446 182.721 302.547 183.324C303.522 189.15 301.415 199.285 291.561 200.934C286.482 201.783 277.754 208.568 277.09 221.013C276.29 236.015 246.532 229.398 246.532 229.398C246.532 229.398 240.141 192.036 244.458 187.917C248.774 183.796 253.051 183.021 259.723 184.625C260.635 184.845 261.484 184.863 262.275 184.723C261.288 190.535 260.661 202.103 271.196 202.512C286.465 201.445 290.381 190.162 302.263 181.558L302.262 181.556Z" fill="#58A147"/>
<path fill-rule="evenodd" clip-rule="evenodd" d="M300.053 156.918C300.396 156.163 300.575 155.373 300.561 154.556C300.561 154.556 300.782 155.017 301.087 155.798C301.031 159.731 299.428 165.343 294.572 168.785H302.239C302.168 169.116 302.105 169.442 302.047 169.763H293.258C293.222 169.763 293.188 169.759 293.153 169.753C288.603 172.775 284.469 174.905 281.025 180.479L302.366 182.227C302.418 182.555 302.473 182.886 302.529 183.222L280.471 181.414C279.67 182.831 278.908 184.456 278.191 186.346C277.103 189.21 275.533 192.018 273.498 194.637L293.681 199.856C293.888 199.909 294.029 200.086 294.046 200.287C293.667 200.425 293.273 200.548 292.864 200.655L272.826 195.474C269.016 200.073 263.73 204.03 257.061 206.591L277.42 217.987C277.363 218.327 277.312 218.672 277.267 219.022L255.851 207.035C252.217 208.307 248.197 209.172 243.801 209.519C243.767 209.195 243.734 208.87 243.701 208.545C247.991 208.209 251.917 207.368 255.466 206.131L253.893 183.846C254.215 183.844 254.542 183.85 254.876 183.867L256.423 205.785C263.056 203.291 268.307 199.395 272.074 194.848L267.398 181.031C267.635 180.709 267.862 180.377 268.079 180.039C268.1 180.072 268.117 180.108 268.13 180.147L272.799 193.94C274.736 191.43 276.233 188.742 277.276 185.998C278.002 184.087 278.769 182.44 279.576 181.002L274.334 168.619C274.574 168.347 274.818 168.089 275.069 167.846L280.193 179.952C283.729 174.227 287.963 172.038 292.641 168.918L290.981 163.325C291.295 163.231 291.606 163.131 291.913 163.024L293.492 168.343C293.639 168.242 293.786 168.139 293.934 168.036C298.098 165.123 299.734 160.515 300.051 156.917L300.053 156.918Z" fill="#3E7B2B"/>
<path fill-rule="evenodd" clip-rule="evenodd" d="M306.565 198.814C306.565 198.814 291.93 197.463 285.816 200.934C275.721 206.663 277.461 212.078 266.852 214.033C255.597 216.107 247.468 223.817 247.075 235.642H292.372C292.372 235.642 298.303 230.627 296.542 219.498C295.487 212.826 300.704 199.996 306.565 198.815V198.814Z" fill="#A0D765"/>
<path fill-rule="evenodd" clip-rule="evenodd" d="M259.624 216.347C252.261 219.879 247.377 226.542 247.076 235.641H292.373C292.373 235.641 298.304 230.626 296.543 219.497C296.539 219.469 296.534 219.439 296.53 219.411C292.079 222.925 279.103 231.803 266.45 227.344C260.341 225.19 259.396 220.1 259.624 216.347Z" fill="#69A64A"/>
<path fill-rule="evenodd" clip-rule="evenodd" d="M263.937 214.715C267.533 218.112 274.349 222.994 281.511 219.896C286.74 217.634 291.075 210.687 298.07 209.272C299.931 204.177 303.138 199.505 306.565 198.814C306.565 198.814 291.93 197.463 285.816 200.934C275.721 206.663 277.461 212.078 266.852 214.033C265.854 214.216 264.883 214.445 263.936 214.716L263.937 214.715Z" fill="#BCEB71"/>
<path fill-rule="evenodd" clip-rule="evenodd" d="M303.561 198.63C301.39 199.045 298.636 199.713 295.971 200.759C295.09 201.105 294.219 201.493 293.381 201.925L293.508 198.885C293.141 198.926 292.776 198.971 292.415 199.022L292.268 202.54C289.899 203.94 287.906 205.749 286.864 208.059C286.394 209.1 286.031 210.088 285.727 211.021L282.542 203.058C282.23 203.29 281.932 203.522 281.648 203.752L285.138 212.474C285.162 212.533 285.194 212.586 285.235 212.633C284.965 213.568 284.731 214.438 284.472 215.246C284.023 216.651 283.506 217.854 282.54 218.846C281.569 219.84 280.152 220.613 277.939 221.189C277.695 221.252 277.457 221.319 277.222 221.388H277.132L271.929 212.47C271.613 212.623 271.28 212.77 270.927 212.909L276.091 221.76C270.719 223.698 267.856 227.34 266.329 230.686L256.642 218.04C256.339 218.242 256.042 218.45 255.751 218.665L265.847 231.845C265.307 233.269 264.999 234.591 264.823 235.643H265.923C266.092 234.688 266.377 233.512 266.854 232.25L295.491 230.904C295.634 230.555 295.771 230.186 295.901 229.797L267.317 231.14C268.837 227.824 271.759 224.197 277.383 222.477H296.846C296.831 222.122 296.807 221.76 296.774 221.39H280.689C281.81 220.883 282.655 220.286 283.317 219.607C284.401 218.495 285.003 217.156 285.507 215.579C285.78 214.725 286.026 213.799 286.316 212.8L297.09 212.488C297.179 212.124 297.275 211.759 297.38 211.393L286.647 211.703C286.964 210.704 287.345 209.639 287.854 208.51C288.803 206.407 290.617 204.774 292.772 203.5L300.283 204.545C300.487 204.198 300.698 203.861 300.915 203.535L294.403 202.63C295.045 202.32 295.704 202.035 296.367 201.775C299.42 200.577 302.591 199.887 304.821 199.51C305.392 199.174 305.974 198.938 306.563 198.819C306.563 198.819 305.386 198.71 303.56 198.634L303.561 198.63Z" fill="#3E7B2B"/>
<path d="M260.57 119.144H92.5791V235.637H260.57V119.144Z" fill="#F8B24A"/>
<path d="M260.57 119.144H92.5791V235.637H260.57V119.144Z" fill="#F8B24A"/>
<path d="M233.466 138.346H105.709V225.472H233.466V138.346Z" fill="#FCC25F"/>
<path fill-rule="evenodd" clip-rule="evenodd" d="M260.569 119.144H88.9116V129.308H246.9V235.637H260.569V119.144Z" fill="#E8962B"/>
<path d="M266.822 100.839H86.3271V122.789H266.822V100.839Z" fill="#F0A22D"/>
<path d="M256.8 100.839H136.804V116.957H256.8V100.839Z" fill="#FCC05A"/>
<path d="M231.187 155.393H125.606V190.72H231.187V155.393Z" fill="#ECA42A"/>
<path d="M229.49 154.558H125.606V189.885H229.49V154.558Z" fill="#FFF6E6"/>
<path fill-rule="evenodd" clip-rule="evenodd" d="M146.134 151.226L144.65 150.799V149.684L143.143 149.157L142.834 147.731L141.399 147.428L140.954 145.771L115.334 170.096L117.09 170.547V171.923L118.615 172.221L118.959 173.913L120.357 174.08L120.514 175.55L146.133 151.225L146.134 151.226Z" fill="#FCD9A7"/>
<path fill-rule="evenodd" clip-rule="evenodd" d="M239.772 177.676L238.16 177.095L237.847 175.648L236.412 175.55L236.248 173.963H234.831L234.593 172.22L210.477 195.117L211.954 195.589L212.23 196.961L213.853 197.438L214.144 198.983L215.526 199.298L215.656 200.573L239.772 177.676Z" fill="#FCD9A7"/>
<path fill-rule="evenodd" clip-rule="evenodd" d="M260.569 122.028H106.471C106.052 122.028 105.71 122.369 105.71 122.789C105.71 123.208 106.052 123.549 106.471 123.549H260.571V122.028H260.569Z" fill="#A85E04"/>
<path fill-rule="evenodd" clip-rule="evenodd" d="M247.522 77.329C247.522 75.4736 246.019 73.9703 244.163 73.9703H179.932C178.078 73.9703 176.574 75.4736 176.574 77.329C176.574 79.1844 178.077 80.6877 179.932 80.6877H244.163C246.017 80.6877 247.522 79.1844 247.522 77.329Z" fill="#FFBA32"/>
<path fill-rule="evenodd" clip-rule="evenodd" d="M177.252 79.3529C177.865 80.1638 178.838 80.6877 179.932 80.6877H244.163C245.258 80.6877 246.23 80.1638 246.844 79.3529C246.579 79.3105 246.304 79.2888 246.022 79.2888H178.075C177.792 79.2888 177.516 79.3116 177.253 79.3529H177.252Z" fill="#EAA52E"/>
<path fill-rule="evenodd" clip-rule="evenodd" d="M228.705 76.4127C228.705 75.4595 227.893 74.6866 226.891 74.6866H192.191C191.189 74.6866 190.377 75.4595 190.377 76.4127C190.377 77.366 191.189 78.1388 192.191 78.1388H226.891C227.893 78.1388 228.705 77.366 228.705 76.4127Z" fill="#FFD061"/>
<path fill-rule="evenodd" clip-rule="evenodd" d="M181.511 73.9714H180.209C180.209 73.9834 180.208 73.9964 180.208 74.0095V80.6888H181.512V74.0095C181.512 73.9964 181.512 73.9845 181.511 73.9714ZM189.31 80.6888H188.005V73.9714H189.31V80.6888ZM197.107 80.6888H195.803V73.9714H197.107V80.6888ZM204.905 80.6888H203.601V73.9714H204.905V80.6888ZM212.702 80.6888H211.397V73.9714H212.702V80.6888ZM220.499 80.6888H219.195V73.9714H220.499V80.6888ZM228.297 80.6888H226.993V73.9714H228.297V80.6888ZM236.095 80.6888H234.791V73.9714H236.095V80.6888ZM243.893 73.9714H242.588V80.6508C242.588 80.6638 242.588 80.6758 242.589 80.6888H243.892C243.892 80.6768 243.893 80.6638 243.893 80.6508V73.9714Z" fill="#C87F09"/>
<path fill-rule="evenodd" clip-rule="evenodd" d="M244.49 84.0464C244.49 82.192 242.986 80.6877 241.131 80.6877H176.9C175.046 80.6877 173.542 82.1909 173.542 84.0464C173.542 85.9007 175.045 87.405 176.9 87.405H241.131C242.985 87.405 244.49 85.9018 244.49 84.0464Z" fill="#FFBA32"/>
<path fill-rule="evenodd" clip-rule="evenodd" d="M174.221 86.0703C174.834 86.8811 175.807 87.405 176.901 87.405H241.132C242.226 87.405 243.199 86.8811 243.812 86.0703C243.548 86.0279 243.273 86.0061 242.991 86.0061H175.044C174.761 86.0061 174.485 86.029 174.222 86.0703H174.221Z" fill="#EAA52E"/>
<path fill-rule="evenodd" clip-rule="evenodd" d="M225.673 83.1301C225.673 82.1768 224.861 81.404 223.858 81.404H189.159C188.157 81.404 187.345 82.1768 187.345 83.1301C187.345 84.0833 188.157 84.8562 189.159 84.8562H223.858C224.861 84.8562 225.673 84.0833 225.673 83.1301Z" fill="#FFD061"/>
<path fill-rule="evenodd" clip-rule="evenodd" d="M178.479 80.6877H177.176C177.176 80.6996 177.175 80.7127 177.175 80.7257V87.405H178.48V80.7257C178.48 80.7127 178.48 80.7007 178.479 80.6877ZM186.276 87.405H184.972V80.6877H186.276V87.405ZM194.074 87.405H192.77V80.6877H194.074V87.405ZM201.872 87.405H200.567V80.6877H201.872V87.405ZM209.669 87.405H208.365V80.6877H209.669V87.405ZM217.466 87.405H216.162V80.6877H217.466V87.405ZM225.264 87.405H223.96V80.6877H225.264V87.405ZM233.062 87.405H231.757V80.6877H233.062V87.405ZM240.859 80.6877H239.555V87.367C239.555 87.38 239.555 87.392 239.556 87.405H240.858C240.858 87.3931 240.859 87.38 240.859 87.367V80.6877Z" fill="#C87F09"/>
<path fill-rule="evenodd" clip-rule="evenodd" d="M256.502 90.7626C256.502 88.9083 254.999 87.404 253.144 87.404H188.913C187.059 87.404 185.554 88.9072 185.554 90.7626C185.554 92.617 187.057 94.1213 188.913 94.1213H253.144C254.998 94.1213 256.502 92.6181 256.502 90.7626Z" fill="#FFBA32"/>
<path fill-rule="evenodd" clip-rule="evenodd" d="M186.232 92.7876C186.845 93.5985 187.818 94.1224 188.913 94.1224H253.144C254.238 94.1224 255.211 93.5985 255.824 92.7876C255.56 92.7453 255.285 92.7235 255.002 92.7235H187.055C186.773 92.7235 186.497 92.7463 186.234 92.7876H186.232Z" fill="#EAA52E"/>
<path fill-rule="evenodd" clip-rule="evenodd" d="M237.684 89.8474C237.684 88.8942 236.872 88.1213 235.87 88.1213H201.171C200.168 88.1213 199.356 88.8942 199.356 89.8474C199.356 90.8007 200.168 91.5735 201.171 91.5735H235.87C236.872 91.5735 237.684 90.8007 237.684 89.8474Z" fill="#FFD061"/>
<path fill-rule="evenodd" clip-rule="evenodd" d="M190.491 87.405H189.189C189.189 87.417 189.188 87.43 189.188 87.4431V94.1224H190.492V87.4431C190.492 87.43 190.492 87.4181 190.491 87.405ZM198.29 94.1224H196.986V87.405H198.29V94.1224ZM206.088 94.1224H204.783V87.405H206.088V94.1224ZM213.886 94.1224H212.581V87.405H213.886V94.1224ZM221.683 94.1224H220.379V87.405H221.683V94.1224ZM229.48 94.1224H228.176V87.405H229.48V94.1224ZM237.278 94.1224H235.973V87.405H237.278V94.1224ZM245.075 94.1224H243.771V87.405H245.075V94.1224ZM252.873 87.405H251.569V94.0843C251.569 94.0974 251.569 94.1093 251.57 94.1224H252.872C252.872 94.1104 252.873 94.0974 252.873 94.0843V87.405Z" fill="#C87F09"/>
<path fill-rule="evenodd" clip-rule="evenodd" d="M250.745 97.48C250.745 95.6257 249.242 94.1213 247.386 94.1213H183.156C181.301 94.1213 179.797 95.6246 179.797 97.48C179.797 99.3343 181.3 100.839 183.156 100.839H247.386C249.241 100.839 250.745 99.3354 250.745 97.48Z" fill="#FFBA32"/>
<path fill-rule="evenodd" clip-rule="evenodd" d="M180.476 99.5039C181.089 100.315 182.062 100.839 183.156 100.839H247.387C248.482 100.839 249.455 100.315 250.068 99.5039C249.804 99.4615 249.529 99.4398 249.246 99.4398H181.299C181.016 99.4398 180.74 99.4626 180.477 99.5039H180.476Z" fill="#EAA52E"/>
<path fill-rule="evenodd" clip-rule="evenodd" d="M231.928 96.5637C231.928 95.6104 231.116 94.8376 230.114 94.8376H195.414C194.412 94.8376 193.6 95.6104 193.6 96.5637C193.6 97.517 194.412 98.2898 195.414 98.2898H230.114C231.116 98.2898 231.928 97.517 231.928 96.5637Z" fill="#FFD061"/>
<path fill-rule="evenodd" clip-rule="evenodd" d="M184.734 94.1213H183.432C183.432 94.1333 183.431 94.1463 183.431 94.1594V100.839H184.735V94.1594C184.735 94.1463 184.735 94.1344 184.734 94.1213ZM192.532 100.839H191.227V94.1213H192.532V100.839ZM200.329 100.839H199.025V94.1213H200.329V100.839ZM208.126 100.839H206.822V94.1213H208.126V100.839ZM215.924 100.839H214.619V94.1213H215.924V100.839ZM223.721 100.839H222.417V94.1213H223.721V100.839ZM231.519 100.839H230.215V94.1213H231.519V100.839ZM239.317 100.839H238.013V94.1213H239.317V100.839ZM247.115 94.1213H245.81V100.801C245.81 100.814 245.81 100.826 245.81 100.839H247.113C247.113 100.827 247.114 100.814 247.114 100.801V94.1213H247.115Z" fill="#C87F09"/>
<path fill-rule="evenodd" clip-rule="evenodd" d="M93.9812 96.4974C102.385 81.0094 119.194 81.0094 127.598 87.904C136.002 94.7985 136.002 108.589 127.598 122.378C121.716 132.72 106.588 143.062 93.9812 149.957C81.3748 143.062 66.2478 132.72 60.3642 122.378C51.96 108.589 51.96 94.7985 60.3642 87.904C68.7685 81.0094 85.577 81.0094 93.9812 96.4974Z" fill="#E95356"/>
<path fill-rule="evenodd" clip-rule="evenodd" d="M112.28 138.253C83.2552 133.354 69.2727 100.484 73.3346 83.4898C80.8172 83.4627 88.9225 87.1735 93.9822 96.4974C102.386 81.0094 119.195 81.0094 127.599 87.9039C136.003 94.7985 136.003 108.589 127.599 122.378C124.493 127.839 118.809 133.299 112.281 138.253H112.28Z" fill="#FF7073"/>
<path fill-rule="evenodd" clip-rule="evenodd" d="M43.4874 104.308L42.1233 113.995L30.7256 111.761L34.1179 100.146L43.4863 104.307L43.4874 104.308Z" fill="#FCBDD1"/>
<path fill-rule="evenodd" clip-rule="evenodd" d="M33.1377 103.506L34.1192 100.147L43.4876 104.308L42.7343 109.657C40.5441 108.898 35.4366 106.842 33.1377 103.506Z" fill="#E37497"/>
<path fill-rule="evenodd" clip-rule="evenodd" d="M52.3652 86.7322C52.3652 86.7322 52.4728 92.5104 50.0859 94.8887L48.8413 86.7322H52.3652Z" fill="#54240A"/>
<path fill-rule="evenodd" clip-rule="evenodd" d="M49.5294 85.9203C49.5294 85.9203 52.4185 102.589 49.5294 105.478C46.2838 108.723 38.0959 104.598 35.1861 101.554C32.2774 98.5093 30.6753 95.83 30.6753 95.83V85.9203H49.5294Z" fill="#FCBDD1"/>
<path fill-rule="evenodd" clip-rule="evenodd" d="M50.4239 92.5594C50.9402 97.5539 51.1967 103.81 49.5293 105.478C48.2196 106.788 46.1055 106.897 43.8577 106.361C43.0229 103.481 44.3272 95.1876 45.6044 94.2137C46.7522 93.3387 49.4217 92.7539 50.4239 92.5594Z" fill="#FDD3E0"/>
<path fill-rule="evenodd" clip-rule="evenodd" d="M32.1363 85.9203H49.5296C49.5296 85.9203 49.8003 87.48 50.0927 89.7289C49.0111 89.5398 47.5231 90.017 46.872 91.2387C46.0557 92.7681 42.8167 92.2833 42.8167 92.2833C42.9384 94.6496 42.4438 97.2365 40.2026 99.7778C40.483 101.99 40.1982 103.795 39.9276 104.88C37.9787 103.896 36.2385 102.655 35.1863 101.554C33.9091 100.217 32.8842 98.9517 32.1353 97.9517V85.9203H32.1363Z" fill="#FA97B3"/>
<path fill-rule="evenodd" clip-rule="evenodd" d="M40.3601 97.9107C40.3601 97.9107 41.8285 93.1998 41.8633 91.1564C41.8633 91.1564 45.0916 92.0433 46.3383 90.3107C47.585 88.5792 48.047 88.0846 49.4491 88.4194C51.6795 88.9531 53.2795 87.8031 53.9349 84.4966C54.6893 80.6901 52.0426 75.8967 46.9209 75.2521C43.0774 74.7684 42.9546 78.0401 39.0373 76.064C36.4145 74.7412 28.4798 75.0358 29.7243 81.8553C29.7243 81.8553 25.7048 82.1325 25.5961 85.9205C25.4874 89.7096 26.0222 100.961 29.4852 102.693C32.9493 104.425 35.3384 103.632 36.6906 102.693C37.8699 101.875 38.2242 99.3313 38.2242 99.3313C33.5189 98.3987 33.3341 94.3944 35.8362 93.452C38.746 92.3553 39.809 95.4444 40.359 97.9118L40.3601 97.9107Z" fill="#803A0F"/>
<path fill-rule="evenodd" clip-rule="evenodd" d="M25.8711 92.4865C26.5504 90.3789 28.4135 85.5311 31.2167 85.3442C31.2167 85.3442 32.0906 81.3333 35.0014 80.2844C37.7884 79.2801 40.4992 81.0812 42.3318 79.7268C44.1644 78.3725 49.3295 77.6953 50.5241 80.2844C51.286 81.9355 52.4751 84.0072 53.7425 85.3127C53.8143 85.0561 53.8784 84.7844 53.936 84.4953C54.6903 80.6888 52.0436 75.8953 46.9219 75.2508C43.0785 74.7671 42.9557 78.0388 39.0383 76.0627C36.4155 74.7399 28.4809 75.0345 29.7254 81.854C29.7254 81.854 25.7059 82.1312 25.5972 85.9192C25.5559 87.3496 25.607 89.8431 25.8722 92.4865H25.8711Z" fill="#974A0B"/>
<path d="M43.8605 217.135H27.9194V226.742H43.8605V217.135Z" fill="#FCBDD1"/>
<path fill-rule="evenodd" clip-rule="evenodd" d="M27.9192 224.532C33.8029 225.924 38.7441 225.742 43.8603 224.532C43.8603 224.532 55.9993 227.736 54.2678 234.361H27.166C26.2051 231.469 26.6964 226.917 27.9192 224.532Z" fill="#12275B"/>
<path fill-rule="evenodd" clip-rule="evenodd" d="M27.166 234.361L27.5291 235.637H54.0244L54.2874 234.361H27.166Z" fill="#A1C1FA"/>
<path fill-rule="evenodd" clip-rule="evenodd" d="M69.6089 118.47C69.6089 118.47 72.4871 115.198 74.4241 115.214C76.174 115.228 74.1838 117.614 74.1838 117.614C74.1838 117.614 76.8545 115.691 78.0479 115.922C79.8359 116.269 82.3229 120.518 82.0794 122.28C81.737 124.762 76.6762 126.748 76.6762 126.748L69.61 118.469L69.6089 118.47Z" fill="#FCBDD1"/>
<path fill-rule="evenodd" clip-rule="evenodd" d="M81.8362 120.688C81.8862 120.836 81.9286 120.982 81.9656 121.123L78.8167 123.199C78.7167 123.266 78.5819 123.238 78.5156 123.138C78.4493 123.038 78.4775 122.903 78.5775 122.836L81.8373 120.688H81.8362ZM80.7373 118.429C80.8145 118.551 80.8906 118.676 80.9634 118.801L77.3797 121.163C77.2797 121.229 77.145 121.201 77.0787 121.101C77.0124 121.001 77.0406 120.866 77.1406 120.799L80.7373 118.429ZM79.2851 116.643C79.3917 116.74 79.4982 116.843 79.6036 116.954L75.9732 119.347C75.8732 119.414 75.7385 119.385 75.6721 119.285C75.6058 119.185 75.6341 119.051 75.7341 118.984L79.2862 116.643H79.2851Z" fill="#DB5D85"/>
<path fill-rule="evenodd" clip-rule="evenodd" d="M70.8483 117.226C72.0928 118.661 76.7123 123.879 78.0482 123.779C80.1145 123.624 81.5623 121.76 81.9764 121.164C82.0818 121.589 82.1231 121.972 82.0807 122.28C81.7384 124.762 76.6775 126.748 76.6775 126.748L69.6113 118.469C69.6113 118.469 70.1178 117.893 70.8504 117.226H70.8483Z" fill="#F89BB4"/>
<path fill-rule="evenodd" clip-rule="evenodd" d="M49.931 159.144L47.5169 221.533C39.8996 222.046 32.2823 222.102 24.665 221.533L20.1411 157.875L49.9321 159.144H49.931Z" fill="#12275B"/>
<path fill-rule="evenodd" clip-rule="evenodd" d="M27.3791 221.709C26.4747 221.659 25.5704 221.6 24.665 221.533L20.1411 157.875L49.9321 159.144L49.731 164.351C45.5517 164.672 33.9714 165.382 25.2302 164.219L27.3802 221.709H27.3791Z" fill="#0E1D48"/>
<path fill-rule="evenodd" clip-rule="evenodd" d="M31.1746 221.871L29.9604 169.752C35.4126 168.254 45.4733 168.869 49.5417 169.202L47.5168 221.533C42.0701 221.9 36.6223 222.033 31.1746 221.871Z" fill="#183167"/>
<path fill-rule="evenodd" clip-rule="evenodd" d="M31.203 108.326C31.203 108.326 36.3485 112.42 42.3083 112.23C50.6179 118.978 54.9212 146.35 51.5734 159.599C49.9582 162.582 17.6368 161.487 16.477 159.599C13.0053 149.075 16.1836 115.62 31.2019 108.326H31.203Z" fill="#3E96F4"/>
<path fill-rule="evenodd" clip-rule="evenodd" d="M52.7146 151.522C50.3103 151.018 47.9234 150.161 45.6332 149.065C36.1181 144.509 28.2562 135.819 27.6225 131.121C26.7367 124.547 32.1127 118.041 39.167 119.332C42.8539 120.007 46.8669 123.31 49.5603 125.933C51.6886 133.289 52.844 143.935 52.7135 151.521L52.7146 151.522Z" fill="#3380DE"/>
<path fill-rule="evenodd" clip-rule="evenodd" d="M29.1681 130.566C30.0398 135.082 46.1363 148.159 55.5775 146.57C65.3665 144.921 78.6414 127.335 78.6414 127.335L68.9643 116.522L51.983 129.636C51.983 129.636 45.4798 120.882 39.2049 119.606C33.0452 118.354 27.9105 124.053 29.1681 130.566Z" fill="#3E96F4"/>
<path fill-rule="evenodd" clip-rule="evenodd" d="M66.5864 118.359L76.82 129.621C77.9722 128.223 78.6428 127.335 78.6428 127.335L68.9657 116.522L66.5864 118.359Z" fill="#9FCCFC"/>
<path fill-rule="evenodd" clip-rule="evenodd" d="M29.4625 131.419C33.3929 129.471 42.6113 125.959 52.1329 129.918L52.2503 129.429L51.984 129.634C51.984 129.634 45.4808 120.88 39.2059 119.604C33.0462 118.352 27.9114 124.051 29.169 130.564C29.219 130.822 29.319 131.108 29.4636 131.418L29.4625 131.419Z" fill="#5BA6F6"/>
<path fill-rule="evenodd" clip-rule="evenodd" d="M29.0619 125.533C27.8912 128.372 29.0195 132.017 31.8271 135.519C35.9455 140.656 43.6628 145.512 52.6594 147.023C52.8366 147.053 53.0051 146.933 53.0355 146.756C53.0649 146.579 52.9453 146.41 52.7681 146.38C43.9465 144.898 36.3737 140.148 32.3358 135.11C29.7064 131.83 28.5684 128.44 29.664 125.781C29.7325 125.615 29.6532 125.423 29.4869 125.355C29.3206 125.286 29.1293 125.366 29.0608 125.532L29.0619 125.533Z" fill="#274DA0"/>
<path fill-rule="evenodd" clip-rule="evenodd" d="M31.2637 108.156C31.2637 108.156 36.3071 112.379 42.4038 112.136C43.719 112.002 44.7668 113.452 44.069 113.897C44.069 113.897 34.2604 115.531 28.979 109.284C28.6333 108.24 30.3474 107.388 31.2648 108.156H31.2637Z" fill="#183377"/>
</g>
<defs>
<clipPath id="clip0_108_10498">
<rect width="369" height="239" fill="white"/>
</clipPath>
</defs>
</svg>
