<svg width="158" height="273" viewBox="0 0 158 273" fill="none" xmlns="http://www.w3.org/2000/svg">
<path d="M31.9212 172.004C16.1335 154.85 5.97172 120.788 14.4486 95.2817C22.9255 69.7756 46.7587 49.7371 73.5361 46.8578C100.313 43.9786 128.408 59.102 139.707 83.4913C153.105 112.418 142.447 146.963 125.872 174.202" fill="#25CEC7"/>
<path d="M96.4189 48.4924C96.483 48.5389 130.67 73.9694 119.448 123.347C111.105 160.045 59.6197 166.559 21.3921 155.566C24.517 161.894 28.2541 167.525 32.3701 172.004L126.321 174.202C142.896 146.963 153.553 112.418 140.156 83.4913C132.023 65.9366 115.192 53.1864 96.4131 48.4865L96.4189 48.4924Z" fill="#36D8BD"/>
<path d="M59.1938 49.33C59.1938 49.33 38.5205 44.7173 42.2809 32.9793C45.4583 23.0677 57.1592 27.8199 62.1847 36.2075C62.1847 36.2075 50.2797 20.5723 54.4599 9.20069C58.6342 -2.1651 70.5799 3.29095 71.5535 15.5118C72.0841 22.1893 73.4949 32.5488 73.4949 32.5488C73.4949 32.5488 73.8098 18.8855 76.7015 9.90451C79.8031 0.254642 92.2152 0.737426 93.562 10.0499C94.9087 19.3682 87.7377 32.3278 87.7377 32.3278C87.7377 32.3278 94.2965 21.6891 102.12 25.3652C109.81 28.9832 104.61 41.7508 87.2072 47.9979" fill="#EF59A1"/>
<path d="M59.9694 46.5263C55.0955 45.4211 48.8457 43.2457 45.8607 39.017C43.9717 36.3355 44.5781 31.1179 48.3384 30.385C52.8975 29.5009 57.5382 34.2589 59.6779 37.6733L64.7092 34.7359C62.2314 31.4611 60.1268 27.7268 58.5993 23.9227C56.7162 19.2228 54.3142 10.079 59.6662 6.51337C64.715 3.14551 68.2539 12.0276 68.6445 15.5118C69.3091 21.4506 69.8863 27.3952 70.6908 33.3224C71.1456 36.6612 76.3401 35.7015 76.4159 32.5488C76.5325 27.9013 76.9406 23.213 77.6927 18.6237C78.4448 14.0343 79.3892 5.53035 85.7906 5.78046C96.5063 6.19345 87.837 26.0981 85.2193 30.862C83.412 34.1542 88.2626 36.9753 90.2506 33.7994C92.3728 30.4025 99.6253 23.8645 102.826 29.7103C103.986 31.8217 102.669 34.4334 101.357 36.161C98.3486 40.1279 93.4397 42.5477 88.8864 44.2345C85.4 45.5258 86.91 51.1506 90.4372 49.8418C96.6054 47.5559 102.82 44.3101 106.633 38.7552C109.093 35.1663 110.102 30.2978 107.665 26.4355C104.837 21.9508 98.8674 20.677 94.1626 22.707C90.4722 24.3008 87.3414 27.4767 85.2251 30.8562L90.2565 33.7936C92.3145 30.0476 93.9644 25.9702 95.1479 21.8694C96.7686 16.2679 98.0046 8.93892 94.0693 4.00056C90.8569 -0.0303971 85.2076 -1.05995 80.6019 1.11549C74.731 3.89004 73.2327 10.4105 72.2125 16.2505C71.2738 21.6193 70.72 27.1044 70.5859 32.5488C72.4923 32.2929 74.4046 32.0311 76.311 31.7752C76.4392 32.7175 76.1944 30.8911 76.1361 30.4432C75.9495 29.0123 75.7688 27.5814 75.5939 26.1505C75.145 22.4743 74.8185 18.7924 74.4279 15.1104C73.8157 9.31701 70.994 3.08734 65.2281 0.807204C59.8469 -1.31588 54.7398 1.70297 52.3903 6.65878C49.5569 12.65 50.6238 19.5078 52.9733 25.4699C54.6699 29.7626 56.8736 33.9797 59.6662 37.6733C61.8583 40.5758 66.7381 37.999 64.6975 34.7359C61.3686 29.4136 55.3462 24.1903 48.6416 24.516C41.9371 24.8417 38.0018 31.5833 39.092 37.6908C40.5903 46.0784 50.9911 50.4409 58.4069 52.1219C62.0624 52.9479 63.619 47.3406 59.9577 46.5147L59.9694 46.5263Z" fill="#09051C"/>
<path d="M34.4395 169.95C21.0304 155.176 14.285 133.381 14.7806 113.662C15.2995 93.0946 26.3999 73.9578 43.0505 62.0278C59.8352 49.9989 80.8408 46.1889 100.564 52.7269C120.666 59.387 136.424 75.5108 141.514 96.1309C147.968 122.259 137.783 149.627 124.356 171.835C122.415 175.046 127.452 177.977 129.388 174.772C142.418 153.222 152.043 127.593 148.539 102.064C145.379 79.0415 130.682 59.5673 109.46 50.0105C89.0728 40.826 65.8926 41.8206 46.4494 52.9305C27.6125 63.6971 12.8392 83.0667 9.71428 104.745C6.26873 128.629 13.9819 156.078 30.3118 174.063C32.8362 176.843 36.9464 172.719 34.4337 169.95H34.4395Z" fill="#09051C"/>
<path d="M112.603 81.2344C112.451 79.8675 112.65 78.71 112.953 77.6223C113.262 76.5346 113.722 75.5399 114.288 74.6092C114.859 73.6844 115.535 72.8235 116.369 72.0557C117.209 71.2937 118.153 70.5957 119.447 70.1129C119.599 71.4857 119.407 72.6374 119.103 73.7309C118.794 74.8186 118.334 75.8133 117.762 76.7381C117.185 77.663 116.509 78.5239 115.675 79.2858C114.836 80.0478 113.891 80.7458 112.603 81.2286V81.2344Z" fill="white" fill-opacity="0.3"/>
<path d="M29.7464 113.29C28.3938 113.558 27.222 113.459 26.1084 113.249C24.9949 113.034 23.963 112.662 22.9893 112.179C22.0157 111.691 21.1004 111.091 20.2609 110.324C19.4272 109.556 18.6518 108.678 18.0571 107.427C19.4155 107.159 20.5815 107.252 21.7009 107.462C22.8144 107.677 23.8464 108.049 24.82 108.538C25.7936 109.032 26.7089 109.631 27.5426 110.393C28.3763 111.161 29.1517 112.04 29.7464 113.284V113.29Z" fill="white" fill-opacity="0.3"/>
<path d="M65.1875 160.347C63.9108 159.946 62.9372 159.457 62.0335 158.852C61.1357 158.253 60.3661 157.555 59.6782 156.781C58.9902 156.008 58.3955 155.153 57.9117 154.193C57.4278 153.222 57.0546 152.192 56.8506 150.866C58.2148 150.947 59.2992 151.448 60.2553 152.006C61.2173 152.582 62.0277 153.291 62.7389 154.094C63.4444 154.903 64.0507 155.798 64.4996 156.822C64.931 157.846 65.2983 158.986 65.1875 160.347Z" fill="white" fill-opacity="0.3"/>
<path d="M42.4969 160.347C42.3278 160.388 42.1646 160.394 41.9838 160.411C41.8148 160.417 41.6574 160.411 41.4883 160.399C41.1502 160.388 40.8528 160.335 40.5438 160.277C39.9375 160.155 39.3778 159.969 38.8473 159.754C37.7862 159.317 36.8534 158.736 36.0081 158.073C35.1627 157.404 34.4106 156.648 33.746 155.781C33.0755 154.903 32.5217 153.966 31.9795 152.716C33.3496 152.483 34.5739 152.803 35.6524 153.204C36.7368 153.623 37.6871 154.205 38.5441 154.885C39.4011 155.566 40.159 156.339 40.812 157.235C41.1385 157.683 41.4417 158.154 41.7157 158.666C41.9897 159.184 42.2287 159.707 42.5027 160.353L42.4969 160.347Z" fill="white" fill-opacity="0.3"/>
<path d="M96.4189 160.347C96.0341 159.027 96.0224 157.852 96.1274 156.729C96.2382 155.606 96.518 154.548 96.9144 153.53C97.3167 152.518 97.8297 151.552 98.5177 150.656C99.2115 149.761 100.016 148.911 101.211 148.208C101.602 149.528 101.613 150.703 101.503 151.831C101.392 152.954 101.106 154.013 100.71 155.025C100.308 156.037 99.7886 157.002 99.1007 157.898C98.4069 158.794 97.6024 159.643 96.413 160.347H96.4189Z" fill="white" fill-opacity="0.3"/>
<path d="M118.206 158.951C118.923 157.776 119.78 156.973 120.684 156.293C121.593 155.618 122.561 155.106 123.575 154.711C124.596 154.321 125.657 154.048 126.782 153.949C127.913 153.85 129.085 153.873 130.408 154.274C129.697 155.455 128.834 156.258 127.931 156.938C127.021 157.613 126.053 158.125 125.033 158.515C124.013 158.899 122.952 159.172 121.821 159.271C120.69 159.37 119.518 159.347 118.194 158.951H118.206Z" fill="white" fill-opacity="0.3"/>
<path d="M127.895 116.827C128.35 115.53 129.032 114.57 129.773 113.715C130.519 112.866 131.37 112.168 132.28 111.574C133.195 110.987 134.18 110.504 135.265 110.172C136.349 109.847 137.503 109.626 138.879 109.748C138.425 111.051 137.748 112.01 137.002 112.86C136.256 113.709 135.405 114.407 134.489 114.994C133.568 115.582 132.589 116.065 131.504 116.396C130.42 116.722 129.266 116.943 127.89 116.827H127.895Z" fill="white" fill-opacity="0.3"/>
<path d="M74.8942 92.6468C73.9614 91.6288 73.4366 90.5818 73.0344 89.5232C72.6379 88.4646 72.4222 87.3885 72.3289 86.3066C72.2415 85.2247 72.2765 84.1311 72.498 83.0201C72.7254 81.9092 73.0694 80.7924 73.8331 79.6407C74.7717 80.6528 75.2964 81.7056 75.6987 82.7642C76.0951 83.8228 76.3109 84.8989 76.3983 85.9808C76.4799 87.0627 76.445 88.1621 76.2234 89.2673C75.996 90.3782 75.6521 91.495 74.8942 92.6468Z" fill="white" fill-opacity="0.3"/>
<path d="M82.4967 65.9947C81.5639 64.9768 81.0392 63.9298 80.6369 62.8712C80.2405 61.8125 80.0248 60.7365 79.9315 59.6546C79.844 58.5727 79.879 57.4791 80.1005 56.3681C80.3279 55.2572 80.6719 54.1403 81.4356 52.9886C82.3743 54.0007 82.899 55.0536 83.3012 56.1122C83.6977 57.1708 83.9134 58.2469 84.0008 59.3288C84.0825 60.4107 84.0475 61.5101 83.8259 62.6153C83.5986 63.7262 83.2546 64.843 82.4967 65.9947Z" fill="white" fill-opacity="0.3"/>
<path d="M46.1112 82.4327C44.7353 82.3454 43.6276 81.9615 42.6015 81.4787C41.5813 80.9901 40.6776 80.3677 39.8556 79.6581C39.0394 78.9427 38.3048 78.1283 37.6868 77.1802C37.0747 76.2263 36.5499 75.1793 36.2876 73.824C37.6693 73.9054 38.777 74.2951 39.8031 74.7779C40.8234 75.2665 41.727 75.8889 42.5491 76.6043C43.3653 77.3256 44.0999 78.14 44.712 79.0881C45.3242 80.042 45.8547 81.089 46.1112 82.4385V82.4327Z" fill="white" fill-opacity="0.3"/>
<path d="M151.169 176.256C145.03 170.503 11.306 172.422 6.13474 176.256C0.969327 180.089 3.11478 201.32 8.07032 202.89C8.40263 202.995 9.55698 203.105 11.3934 203.21C11.3934 203.21 16.6463 242.258 26.5865 257.939C36.5268 273.621 117.751 273.266 128.309 261.08C137.661 250.29 146.149 203.21 146.149 203.204C148.574 202.954 150.096 202.663 150.516 202.326C155.04 198.667 157.296 182.003 151.163 176.25L151.169 176.256Z" fill="#FF8FB8"/>
<path d="M8.0589 202.879H148.65C149.63 202.71 150.277 202.524 150.522 202.326C155.046 198.667 157.302 182.003 151.169 176.25C150.009 175.162 144.295 174.354 135.754 173.772L135.731 174.202C135.731 174.202 144.324 184.102 137.882 189.907C127.365 199.371 23.2054 196.515 3.55811 192.618C4.26937 197.725 5.89595 202.175 8.06473 202.879H8.0589Z" fill="#FF5F96"/>
<path d="M11.417 203.356C11.4986 203.949 11.8367 206.351 12.4256 209.876C28.0501 211.493 60.1328 214.576 82.5843 215.129C113.297 215.885 116.329 249.552 94.7166 258.632C73.1046 267.711 24.861 254.897 24.861 254.897C25.4207 255.985 25.9979 257.003 26.5867 257.939C36.527 273.621 117.751 273.266 128.309 261.08C137.043 251.006 145.018 209.318 146.038 203.815C111.676 204.949 36.4162 203.792 11.4111 203.361L11.417 203.356Z" fill="#FF5F96"/>
<path d="M8.85157 200.081C9.39376 200.29 8.82825 199.988 8.6825 199.697C8.46678 199.261 8.18111 198.859 7.98289 198.411C7.24248 196.736 6.85186 194.84 6.5487 193.043C5.94238 189.46 5.73832 185.498 6.49623 181.921C6.74692 180.74 7.29495 179.845 7.67973 178.774C7.81965 178.379 7.29495 178.792 7.62726 178.745C8.6067 178.6 9.58615 178.309 10.5714 178.164C10.0992 178.222 11.2827 178.059 10.5714 178.164C10.7697 178.14 10.9679 178.111 11.1661 178.088C11.5042 178.047 11.8424 178.007 12.1805 177.972C13.1425 177.867 14.1044 177.774 15.0664 177.687C17.311 177.489 19.5614 177.326 21.8118 177.186C27.4786 176.826 33.157 176.581 38.8355 176.372C67.3094 175.337 95.8999 175.023 124.38 176.104C129.668 176.302 134.961 176.558 140.232 177.029C143.578 177.332 145.578 177.535 148.889 178.35C149.111 178.402 149.321 178.53 149.542 178.577C149.093 178.478 149.023 178.222 149.391 178.542C149.35 178.507 148.913 177.716 149.496 178.699C149.933 179.437 150.487 180.071 150.831 180.892C152.428 184.69 152.288 189.413 151.489 193.374C151.145 195.078 150.697 196.818 149.892 198.365C149.665 198.795 149.017 199.435 148.895 199.866C148.843 200.046 148.866 199.819 149.396 199.709C149.076 199.778 148.773 199.918 148.446 199.97C148.096 200.028 146.93 200.22 147.21 200.186C139.141 201.291 128.863 201.233 120.071 201.384C105.84 201.628 91.6032 201.634 77.3721 201.564C63.1409 201.494 49.3587 201.337 35.3608 201.052C26.9189 200.883 18.407 200.878 9.9826 200.209C9.59198 200.18 9.20137 200.145 8.81076 200.104C8.61254 200.081 9.62113 200.308 8.85157 200.087C5.24277 199.04 3.69781 204.653 7.30078 205.694C9.39376 206.299 11.9357 206.159 14.0928 206.258C18.8035 206.468 23.5141 206.595 28.2306 206.712C42.5142 207.061 56.8037 207.241 71.0931 207.346C86.397 207.456 101.707 207.474 117.011 207.253C127.032 207.107 137.247 207.218 147.21 206.008C151.256 205.514 153.542 204.408 155.39 200.343C158.695 193.066 159.517 181.473 153.985 175.017C152.008 172.708 149.012 172.312 146.149 171.905C141.438 171.23 136.675 170.91 131.924 170.648C102.202 169.014 72.2533 169.473 42.5201 170.445C31.8511 170.794 21.0597 171.015 10.4607 172.376C7.30078 172.783 4.38575 173.051 2.5318 176.017C-1.25773 182.084 -0.19666 192.048 1.84969 198.522C2.79998 201.518 4.20502 204.501 7.29495 205.7C10.793 207.061 12.3088 201.436 8.84574 200.092L8.85157 200.081Z" fill="#09051C"/>
<path d="M8.58898 203.984C10.682 219.479 13.7486 235.475 19.532 250.04C22.1147 256.555 24.8315 262.151 31.3378 265.315C37.9199 268.514 45.3182 269.962 52.5125 270.998C70.4691 273.575 89.0902 273.685 107.064 271.201C113.547 270.306 120.386 269.16 126.268 266.141C131.912 263.244 134.395 257.195 136.611 251.587C142.604 236.429 146.067 219.991 148.959 203.984C149.618 200.325 144.003 198.755 143.339 202.437C140.972 215.53 138.004 228.635 134.022 241.338C132.798 245.241 131.492 249.156 129.784 252.879C128.7 255.246 127.51 257.928 125.575 259.702C125.225 260.022 124.379 260.563 123.458 261.045C122.409 261.598 121.54 261.935 120.398 262.337C117.424 263.372 114.34 264.088 111.25 264.669C94.6929 267.799 77.1503 267.769 60.4297 266.141C52.9614 265.414 45.3824 264.285 38.2464 261.883C35.7803 261.051 33.2967 260.033 31.1629 258.509C30.7665 258.224 29.6296 257.206 29.3381 256.834C28.586 255.869 27.5658 253.862 26.8895 252.472C22.0972 242.653 19.6311 231.566 17.4332 220.934C16.168 214.809 15.037 208.643 14.1975 202.442C13.6961 198.749 8.08177 200.325 8.57733 203.99L8.58898 203.984Z" fill="#09051C"/>
<path d="M22.6686 245.044C48.9738 247.411 75.5646 248.487 101.969 247.894C112.311 247.661 122.66 247.126 132.932 245.864C136.611 245.41 136.652 239.593 132.932 240.047C114.381 242.321 95.5675 242.444 76.9055 242.071C61.8057 241.769 46.7059 241.036 31.641 239.937C28.6502 239.721 25.6594 239.495 22.6744 239.227C18.9374 238.89 18.9607 244.712 22.6744 245.044H22.6686Z" fill="#09051C"/>
<path d="M26.872 241.059C31.1688 229.106 37.1212 217.862 44.5021 207.52H39.4707C42.1059 213.256 44.7644 218.979 47.4404 224.691C50.5362 231.299 53.3054 238.395 57.1533 244.613C58.226 246.347 61.1993 246.661 62.1846 244.613C67.42 233.771 72.6553 222.911 78.2988 212.273C78.8702 211.191 79.4473 210.109 80.0595 209.05C80.2752 208.672 80.5026 208.3 80.7241 207.922C80.9457 207.544 81.0506 207.055 81.0623 207.375C81.0914 208.265 77.2028 208.16 77.3194 207.637C77.3194 207.654 78.0015 208.532 77.5409 207.858C78.1764 208.794 78.8294 209.713 79.4415 210.667C83.3476 216.81 86.8748 223.202 90.4195 229.554C92.3376 232.992 94.2323 236.441 96.1096 239.902C96.7567 241.094 97.398 242.281 98.0277 243.479C98.2492 243.898 99.0713 245.841 98.5582 244.392C99.561 247.213 103.129 247.074 104.178 244.392C109.011 232.067 113.903 219.741 118.334 207.259L113.005 207.951C118.27 220.172 123.54 232.392 128.804 244.607C130.279 248.039 135.305 245.079 133.836 241.67C128.571 229.449 123.301 217.228 118.036 205.013C116.952 202.501 113.448 203.623 112.708 205.706C108.283 218.188 103.385 230.514 98.5524 242.839H104.173C102.418 237.901 99.0829 233.166 96.5585 228.606C92.6932 221.632 88.8454 214.617 84.5778 207.881C83.5517 206.258 82.3799 203.844 80.6192 202.873C78.0715 201.459 76.439 203.693 75.308 205.607C71.5943 211.894 68.4869 218.589 65.2454 225.127C62.5169 230.63 59.8176 236.138 57.1474 241.67H62.1788C58.3309 235.446 55.5617 228.356 52.4659 221.748C49.7899 216.036 47.1314 210.312 44.4962 204.577C43.4993 202.407 40.5959 202.983 39.4649 204.577C31.7926 215.338 25.7118 227.076 21.246 239.506C19.9751 243.037 25.6069 244.555 26.8662 241.053L26.872 241.059Z" fill="#09051C"/>
<path d="M8.83983 141.635L14.3725 141.949C15.9466 142.036 17.2876 140.547 17.2876 139.041C17.2876 137.394 15.9525 136.219 14.3725 136.132L8.83983 135.818C7.26571 135.731 5.9248 137.22 5.9248 138.726C5.9248 140.373 7.25988 141.548 8.83983 141.635Z" fill="#09051C"/>
<path d="M6.72348 93.9264C8.61241 95.3457 10.6296 96.5265 12.7867 97.4804C14.2267 98.1144 15.9175 97.8992 16.7745 96.4392C17.5032 95.2003 17.1767 93.1005 15.7309 92.4606C13.5738 91.5067 11.5508 90.3201 9.66765 88.9066C8.40836 87.9643 6.40866 88.703 5.6799 89.9478C4.80539 91.4369 5.46419 92.9783 6.72348 93.9264Z" fill="#09051C"/>
<path d="M25.7119 61.6206C26.5223 63.6041 27.5717 65.3491 29.07 66.8963C30.1311 67.9957 32.1424 68.0422 33.1918 66.8963C34.2412 65.7504 34.3229 63.9531 33.1918 62.7839C32.9411 62.528 32.7079 62.2663 32.4747 61.9929C32.842 62.4291 32.2007 61.6031 32.1424 61.5101C31.95 61.2134 31.7693 60.9051 31.6002 60.591C31.5478 60.4922 31.1047 59.5208 31.3321 60.0734C30.7607 58.6715 29.3673 57.5198 27.7466 58.0433C26.3882 58.4796 25.0939 60.1141 25.7119 61.6206Z" fill="#09051C"/>
<path d="M115.483 48.3586C114.457 49.6382 113.437 50.9179 112.41 52.1976C111.46 53.3842 111.163 55.1699 112.41 56.31C113.466 57.2755 115.518 57.578 116.532 56.31L119.605 52.4709C120.555 51.2843 120.852 49.4986 119.605 48.3586C118.55 47.393 116.497 47.0905 115.483 48.3586Z" fill="#09051C"/>
<path d="M137.06 78.0353C138.792 77.3431 140.523 76.6509 142.255 75.9645C143.718 75.3829 144.738 74.0218 144.289 72.3873C143.91 71.0029 142.173 69.7698 140.704 70.3573C138.972 71.0494 137.241 71.7416 135.509 72.428C134.046 73.0097 133.026 74.3708 133.475 76.0053C133.853 77.3896 135.591 78.6228 137.06 78.0353Z" fill="#09051C"/>
<path d="M145.84 100.261C147.496 100.377 149.181 100.179 150.778 99.7431C152.248 99.336 153.297 97.6608 152.813 96.1659C152.329 94.671 150.802 93.6996 149.228 94.1358C148.936 94.2173 148.65 94.2929 148.353 94.3511C148.155 94.3918 147.962 94.4267 147.764 94.4558C147.992 94.4209 148.003 94.4209 147.793 94.4383C147.14 94.4907 146.493 94.4907 145.84 94.4383C144.319 94.3336 142.855 95.8518 142.925 97.3467C143.001 99.016 144.208 100.139 145.84 100.255V100.261Z" fill="#09051C"/>
<path d="M144.126 139.779L148.592 141.449C150.02 141.984 151.851 140.855 152.178 139.419C152.557 137.767 151.676 136.411 150.143 135.841L145.677 134.172C144.249 133.637 142.418 134.765 142.092 136.202C141.713 137.854 142.593 139.209 144.126 139.779Z" fill="#09051C"/>
<path d="M18.0979 156.747C17.8647 157.375 18.4127 156.229 18.0629 156.799C17.993 156.915 17.923 157.032 17.8531 157.148C17.5324 157.7 18.2612 156.752 17.8122 157.212C17.6898 157.334 17.579 157.462 17.4508 157.578C17.4041 157.625 17.3517 157.671 17.2992 157.712C17.136 157.852 17.2001 157.805 17.4858 157.572C17.4391 157.677 17.1476 157.794 17.0543 157.846C16.9377 157.91 16.7395 158.073 16.5996 158.079L16.9144 157.939C16.7862 157.985 16.6579 158.026 16.5238 158.061C15.0605 158.486 13.9994 160.132 14.4891 161.638C14.973 163.122 16.5063 164.122 18.0746 163.668C20.7914 162.883 22.7561 160.9 23.7239 158.288C24.2544 156.857 23.1351 155.036 21.6892 154.711C20.0393 154.338 18.6693 155.211 18.1037 156.741L18.0979 156.747Z" fill="#09051C"/>
<path d="M136.425 160.068C137.13 160.743 137.836 161.417 138.547 162.092C139.649 163.145 141.59 163.267 142.669 162.092C143.718 160.952 143.846 159.102 142.669 157.98C141.963 157.305 141.258 156.63 140.547 155.955C139.445 154.903 137.503 154.781 136.425 155.955C135.375 157.096 135.247 158.945 136.425 160.068Z" fill="#09051C"/>
<path d="M9.98864 109.818C8.9917 109.969 7.98894 110.126 6.992 110.277C6.31571 110.382 5.58113 111.051 5.24882 111.615C4.88152 112.237 4.72994 113.156 4.95731 113.854C5.18469 114.558 5.62194 115.239 6.29823 115.594C7.03281 115.983 7.72659 116.012 8.54279 115.884L11.5394 115.425C12.2157 115.32 12.9503 114.651 13.2826 114.087C13.6499 113.465 13.8015 112.546 13.5741 111.848C13.3467 111.15 12.9095 110.463 12.2332 110.108C11.4986 109.719 10.8048 109.69 9.98864 109.818Z" fill="#09051C"/>
<path d="M119.004 110.748C115.512 115.012 109.233 114.5 105.537 110.748C102.901 108.073 98.7796 112.191 101.415 114.861C107.152 120.689 117.651 121.55 123.126 114.861C125.481 111.987 121.377 107.846 119.004 110.748Z" fill="#09051C"/>
<path d="M34.6377 114.861C40.1121 121.55 50.6062 120.689 56.3488 114.861C58.9782 112.191 54.8621 108.073 52.227 110.748C48.5307 114.5 42.2518 115.012 38.7596 110.748C36.3867 107.846 32.2824 111.981 34.6377 114.861Z" fill="#09051C"/>
<path d="M65.9454 143.008C72.545 133.183 87.0269 133.532 93.3 143.485C95.2939 146.649 100.337 143.729 98.3313 140.547C94.3261 134.189 87.3708 129.926 79.7568 129.833C72.1136 129.74 65.1117 133.823 60.9141 140.07C58.8211 143.188 63.8641 146.102 65.9454 143.008Z" fill="#09051C"/>
<path d="M121.832 133.049C121.757 135.562 118.2 137.493 113.898 137.365C109.595 137.232 106.167 135.085 106.243 132.572C106.319 130.06 109.875 128.129 114.178 128.256C118.48 128.39 121.908 130.537 121.832 133.049Z" fill="#ED7179"/>
<path d="M51.5219 133.049C51.4461 135.562 47.8898 137.493 43.5872 137.365C39.2847 137.232 35.8566 135.085 35.9324 132.572C36.0082 130.06 39.5645 128.129 43.8671 128.256C48.1696 128.39 51.5977 130.537 51.5219 133.049Z" fill="#ED7179"/>
</svg>
