<svg width="315" height="256" viewBox="0 0 315 256" fill="none" xmlns="http://www.w3.org/2000/svg">
<g clip-path="url(#clip0_108_10021)">
<path fill-rule="evenodd" clip-rule="evenodd" d="M28.3319 252.515C-5.43713 238.469 -11.7356 177.319 24.325 155.222C54.5995 136.671 20.6108 110.805 31.8928 80.6583C46.6162 41.3138 100.004 55.66 117.285 44.8826C136.315 33.014 135.704 6.66859 165.146 1.32783C206.91 -6.24876 253.002 19.2233 253.502 62.6572C253.904 97.6563 247.79 110.849 275.406 123.702C340.966 154.217 311.406 240.179 284.077 252.516H28.3319V252.515Z" fill="#E9EFFC"/>
<path fill-rule="evenodd" clip-rule="evenodd" d="M304.55 254.094C304.55 253.042 303.697 252.188 302.647 252.188H11.7149C10.6642 252.188 9.81152 253.042 9.81152 254.094C9.81152 255.146 10.6642 256 11.7149 256H302.647C303.697 256 304.55 255.146 304.55 254.094Z" fill="#6484C1"/>
<path fill-rule="evenodd" clip-rule="evenodd" d="M30.1992 145.109C23.7049 139.065 21.2468 123.161 26.7426 122.324C31.9231 121.537 32.9346 138.627 30.1992 145.109Z" fill="#448E52"/>
<path fill-rule="evenodd" clip-rule="evenodd" d="M32.7555 154.723C30.8108 146.062 37.7619 131.55 42.7673 133.972C47.4854 136.253 38.6712 150.924 32.7555 154.723Z" fill="#448E52"/>
<path fill-rule="evenodd" clip-rule="evenodd" d="M38.4688 169.677C36.9124 160.937 44.5041 146.751 49.3963 149.394C54.0079 151.885 44.5476 166.146 38.4688 169.677Z" fill="#448E52"/>
<path fill-rule="evenodd" clip-rule="evenodd" d="M46.6562 184.692C44.1264 176.184 50.0736 161.231 55.2323 163.306C60.0951 165.261 52.3 180.498 46.6562 184.692Z" fill="#448E52"/>
<path fill-rule="evenodd" clip-rule="evenodd" d="M55.0203 196.645C52.6765 188.084 58.9489 173.265 64.0608 175.452C68.879 177.513 60.7533 192.576 55.0203 196.645Z" fill="#448E52"/>
<path fill-rule="evenodd" clip-rule="evenodd" d="M64.5111 207.62C61.5462 199.253 66.7135 184.014 71.9723 185.819C76.9287 187.52 69.9297 203.14 64.5111 207.62Z" fill="#448E52"/>
<path fill-rule="evenodd" clip-rule="evenodd" d="M35.5147 163.048C26.6928 163.931 13.1495 155.263 16.1569 150.581C18.9913 146.168 32.466 156.707 35.5147 163.048Z" fill="#448E52"/>
<path fill-rule="evenodd" clip-rule="evenodd" d="M41.835 176.993C33.4341 179.828 18.2985 174.412 20.1845 169.175C21.9617 164.239 37.4486 171.495 41.835 176.993Z" fill="#448E52"/>
<path fill-rule="evenodd" clip-rule="evenodd" d="M50.1781 190.526C42.4972 194.959 26.5937 192.626 27.4149 187.121C28.1893 181.932 44.7976 186 50.1781 190.526Z" fill="#448E52"/>
<path fill-rule="evenodd" clip-rule="evenodd" d="M60.0201 202.91C52.9646 208.286 36.8947 207.999 37.0089 202.433C37.1177 197.189 54.1077 199.106 60.0201 202.91Z" fill="#448E52"/>
<path fill-rule="evenodd" clip-rule="evenodd" d="M69.6153 213.045C62.5598 218.421 46.4899 218.133 46.6041 212.568C46.7129 207.323 63.7029 209.241 69.6153 213.045Z" fill="#448E52"/>
<path fill-rule="evenodd" clip-rule="evenodd" d="M80.3482 220.998C80.3482 220.998 39.5737 192.508 30.1232 141.542C30.0579 141.187 29.7164 140.953 29.3629 141.019C29.0083 141.085 28.7745 141.426 28.8408 141.78C38.3903 193.282 79.6021 222.069 79.6021 222.069C79.8968 222.276 80.3047 222.203 80.5103 221.907C80.7158 221.611 80.644 221.203 80.3482 220.998Z" fill="#448E52"/>
<path fill-rule="evenodd" clip-rule="evenodd" d="M21.0754 211.866C20.9927 206.608 21.5866 200.854 23.1332 194.623C23.1332 194.623 28.2364 194.664 35.8869 196.911L36.3524 205.092L38.1698 197.624C43.8636 199.513 50.6907 202.589 57.7647 207.6L54.0406 218.886L60.5752 209.686C71.5005 218.172 82.7391 231.441 91.1031 252.187H38.8365C38.8365 252.187 32.7033 247.231 27.6436 237.683H45.0861L25.9578 234.223C23.6444 229.031 21.7878 222.744 21.2353 215.406L36.9288 216.546L21.0754 211.864V211.866Z" fill="#36873F"/>
<path fill-rule="evenodd" clip-rule="evenodd" d="M41.9025 237.684C47.6463 238.362 53.5533 238.612 57.7646 237.684L79.1585 249.315L75.3953 252.188H38.8365C38.8365 252.188 32.7033 247.232 27.6436 237.684H41.9025Z" fill="#2A6F34"/>
<path fill-rule="evenodd" clip-rule="evenodd" d="M21.4637 217.789C21.3723 217.008 21.2962 216.216 21.2353 215.409L36.9288 216.548L21.0754 211.866C20.9927 206.608 21.5866 200.854 23.1332 194.623C23.1332 194.623 28.2364 194.664 35.8869 196.911L36.3524 205.092L38.1698 197.624C39.3608 198.018 51.315 202.354 52.5963 202.859C55.9788 210.797 52.5103 226.179 43.4133 226.737C36.8364 227.14 27.8927 222.131 21.4648 217.788L21.4637 217.789Z" fill="#60AC4F"/>
<path fill-rule="evenodd" clip-rule="evenodd" d="M23.0384 195.01C23.0699 194.882 23.1014 194.752 23.133 194.623C23.133 194.623 23.4049 194.625 23.9183 194.657C26.6689 197.382 29.5533 200.331 32.4856 203.453C32.6487 203.495 32.7717 203.628 32.8032 203.792L32.8347 203.825C34.4488 205.55 36.0444 207.292 37.6203 209.052C38.9897 210.582 40.3427 212.127 41.6794 213.687L41.7327 213.75L45.7657 200.637C46.03 200.759 46.2943 200.884 46.5607 201.011L42.4016 214.535L42.4038 214.537C43.1292 215.392 43.8503 216.25 44.566 217.114C46.8609 219.886 49.0993 222.706 51.2637 225.583C53.7903 228.94 56.2168 232.374 58.5041 235.9L58.5324 235.944L68.1732 216.382C68.3897 216.597 68.605 216.815 68.8215 217.035L59.0817 236.799L59.0991 236.826C60.7273 239.38 62.2804 241.982 63.7291 244.642C64.9071 246.805 66.0164 249.006 67.0334 251.25C67.1759 251.562 67.3151 251.876 67.4532 252.19H66.5026C66.0088 251.08 65.4922 249.98 64.9549 248.89L64.9234 248.825C64.9147 248.825 64.9049 248.825 64.8962 248.825L34.5967 247.902C34.352 247.618 34.1007 247.319 33.843 247.007L64.4807 247.94L64.4611 247.902C62.6524 244.332 60.6402 240.868 58.4943 237.49C56.1711 233.835 53.6902 230.283 51.1027 226.812L51.0799 226.782L22.9796 225.789C22.9024 225.499 22.8274 225.206 22.7534 224.91L50.4077 225.886C44.6193 218.215 38.2425 210.867 32.0734 204.287L21.52 203.366C21.5537 203.078 21.5907 202.79 21.6288 202.501L31.1761 203.334C28.557 200.567 25.8934 197.843 23.1874 195.161L23.0362 195.012L23.0384 195.01Z" fill="#B5E7B2"/>
<path fill-rule="evenodd" clip-rule="evenodd" d="M66.3396 252.189C66.3396 252.189 45.0077 236.288 46.6066 222.317C48.0912 209.341 65.3031 215.693 65.3031 215.693C65.3031 215.693 43.7852 200.672 45.0066 184.774C45.6777 176.034 54.691 176.459 59.9747 178.697C63.0876 180.014 48.2598 164.395 49.3061 150.772C49.9445 142.467 59.9562 139.249 69.0391 146.014C73.9096 149.642 80.1048 169.441 80.1048 169.441C80.1048 169.441 85.2167 157.485 95.8614 161.482C108.389 166.185 106.795 202.033 106.795 202.033C106.795 202.033 111.994 190.877 123.534 194.599C137.058 198.961 127.584 252.191 127.584 252.191H66.3396V252.189Z" fill="#62B45F"/>
<path fill-rule="evenodd" clip-rule="evenodd" d="M107.311 201.093C108.879 198.488 114.078 191.546 123.535 194.596C137.059 198.957 127.585 252.187 127.585 252.187H66.3406C66.3406 252.187 45.0087 236.287 46.6076 222.315C47.0633 218.333 49.0004 216.171 51.466 215.088C61.4408 226.219 78.1132 234.406 96.1789 224.693C103.414 220.803 106.279 210.571 107.312 201.093H107.311Z" fill="#439847"/>
<path fill-rule="evenodd" clip-rule="evenodd" d="M127.768 251.113C127.652 251.809 127.585 252.187 127.585 252.187H66.3398C66.3398 252.187 58.387 246.259 52.5562 238.461C57.5897 239.867 78.864 245.556 91.5709 245.004C109.235 244.236 124.356 210.264 124.356 210.264L127.768 251.113Z" fill="#398942"/>
<path fill-rule="evenodd" clip-rule="evenodd" d="M45.0231 187.621C44.9426 186.677 44.9339 185.726 45.0068 184.772C45.6778 176.032 54.6911 176.457 59.9749 178.695C63.0877 180.013 48.2599 164.394 49.3062 150.771C49.9446 142.465 59.9564 139.247 69.0393 146.013C73.9097 149.64 80.1049 169.439 80.1049 169.439C80.1049 169.439 85.0863 157.791 95.4537 161.335C96.2096 173.913 100.951 213.827 71.0449 207.254C57.0415 204.176 49.1507 194.818 45.0231 187.621Z" fill="#75BC57"/>
<path fill-rule="evenodd" clip-rule="evenodd" d="M45.4038 182.555C47.3311 176.127 55.1849 176.666 59.9749 178.695C63.0877 180.013 48.2599 164.394 49.3063 150.771C49.9447 142.465 59.9564 139.247 69.0393 146.013C73.9098 149.64 80.1049 169.439 80.1049 169.439C80.1049 169.439 85.0863 157.791 95.4537 161.335C95.4657 161.541 95.4798 161.755 95.494 161.974C85.8705 162.871 80.3203 175.168 80.3203 175.168C80.3203 175.168 66.4627 147.071 58.8351 151.532C48.3578 157.66 63.6435 182.846 63.6435 182.846C54.5911 177.712 47.2474 181.437 45.4038 182.556V182.555Z" fill="#9BD378"/>
<path fill-rule="evenodd" clip-rule="evenodd" d="M103.211 252.188H104.785C103.571 247.619 102.045 242.753 100.306 237.738L117.013 208.234C117.22 207.868 117.091 207.402 116.726 207.195C116.36 206.987 115.895 207.116 115.688 207.482L99.6355 235.83C95.2327 223.418 89.6205 210.228 84.2454 198.44L92.2689 175.876C92.4103 175.479 92.2026 175.043 91.8067 174.902C91.4108 174.76 90.9746 174.968 90.8343 175.365L83.3351 196.453C74.1858 176.553 65.9731 161.123 65.9731 161.123C65.7751 160.752 65.314 160.611 64.9431 160.81C64.5722 161.008 64.4319 161.47 64.6298 161.841C64.6298 161.841 72.8633 177.299 82.0125 197.204L58.1747 189.709C57.7734 189.583 57.3459 189.807 57.2198 190.208C57.0936 190.61 57.3176 191.038 57.7179 191.164L82.8663 199.072C88.2795 210.941 93.9319 224.231 98.3336 236.702L62.7406 226.188C62.3382 226.069 61.914 226.3 61.7954 226.703C61.6769 227.107 61.9075 227.531 62.3099 227.651L98.9525 238.475C100.593 243.224 102.04 247.839 103.208 252.192L103.211 252.188Z" fill="#C9EACF"/>
<path fill-rule="evenodd" clip-rule="evenodd" d="M248.57 213.045C252.097 215.733 257.879 217.005 262.763 216.909C267.649 216.813 271.638 215.351 271.58 212.568C271.471 207.323 254.481 209.241 248.569 213.045H248.57ZM253.674 207.62C255.157 203.437 254.606 197.535 253.027 192.905C251.449 188.276 248.842 184.916 246.212 185.819C241.255 187.52 248.254 203.14 253.673 207.62H253.674ZM258.165 202.91C261.693 205.598 267.474 206.87 272.36 206.774C277.245 206.679 281.234 205.216 281.176 202.433C281.067 197.189 264.077 199.106 258.165 202.91ZM263.165 196.645C264.336 192.364 263.354 186.519 261.441 182.018C259.527 177.517 256.681 174.359 254.125 175.452C249.307 177.513 257.433 192.576 263.166 196.645H263.165ZM268.008 190.526C271.849 192.742 277.745 193.268 282.578 192.55C287.412 191.834 291.182 189.873 290.771 187.121C289.997 181.932 273.389 186 268.008 190.526ZM271.53 184.692C272.795 180.438 271.94 174.572 270.125 170.03C268.309 165.487 265.533 162.268 262.954 163.305C258.091 165.259 265.887 180.497 271.53 184.691V184.692ZM276.351 176.993C280.552 178.411 286.436 177.765 291.035 176.111C295.633 174.457 298.945 171.794 298.002 169.176C296.225 164.24 280.738 171.497 276.351 176.994V176.993ZM279.718 169.677C280.495 165.307 278.987 159.576 276.672 155.267C274.358 150.959 271.236 148.073 268.79 149.394C264.179 151.885 273.639 166.146 279.718 169.677ZM282.672 163.048C287.082 163.489 292.674 161.543 296.786 158.902C300.898 156.259 303.533 152.923 302.029 150.582C299.195 146.169 285.72 156.708 282.672 163.049V163.048ZM285.432 154.723C286.404 150.393 285.153 144.599 283.033 140.191C280.913 135.784 277.923 132.761 275.42 133.972C270.702 136.253 279.516 150.924 285.432 154.723ZM287.988 145.109C291.235 142.086 293.473 136.6 294.213 131.763C294.952 126.927 294.193 122.743 291.445 122.324C286.264 121.537 285.253 138.627 287.988 145.109Z" fill="#448E52"/>
<path fill-rule="evenodd" clip-rule="evenodd" d="M238.585 222.069C238.585 222.069 279.797 193.283 289.347 141.78C289.412 141.425 289.178 141.085 288.825 141.019C288.47 140.954 288.13 141.188 288.063 141.542C278.613 192.507 237.838 220.998 237.838 220.998C237.542 221.205 237.471 221.612 237.676 221.907C237.882 222.202 238.29 222.275 238.584 222.069H238.585Z" fill="#448E52"/>
<path fill-rule="evenodd" clip-rule="evenodd" d="M297.111 211.866C297.194 206.608 296.6 200.854 295.053 194.623C295.053 194.623 289.95 194.664 282.3 196.911L281.834 205.092L280.017 197.624C274.323 199.513 267.496 202.589 260.421 207.6L264.145 218.886L257.61 209.686C246.685 218.172 235.446 231.441 227.083 252.187H279.35C279.35 252.187 285.483 247.231 290.543 237.683H273.101L292.228 234.223C294.541 229.031 296.399 222.744 296.951 215.406L281.258 216.546L297.111 211.864V211.866Z" fill="#36873F"/>
<path fill-rule="evenodd" clip-rule="evenodd" d="M276.283 237.684C270.539 238.362 264.632 238.612 260.421 237.684L239.027 249.315L242.79 252.188H279.349C279.349 252.188 285.482 247.232 290.542 237.684H276.283Z" fill="#2A6F34"/>
<path fill-rule="evenodd" clip-rule="evenodd" d="M296.722 217.789C296.813 217.008 296.89 216.216 296.95 215.409L281.257 216.548L297.11 211.866C297.193 206.608 296.599 200.854 295.053 194.623C295.053 194.623 289.949 194.664 282.299 196.911L281.833 205.092L280.016 197.624C278.825 198.018 266.871 202.354 265.589 202.859C262.207 210.797 265.675 226.179 274.772 226.737C281.349 227.14 290.293 222.131 296.722 217.788V217.789Z" fill="#60AC4F"/>
<path fill-rule="evenodd" clip-rule="evenodd" d="M295.148 195.01C295.116 194.882 295.085 194.752 295.053 194.623C295.053 194.623 294.781 194.625 294.268 194.657C291.517 197.382 288.633 200.331 285.701 203.453C285.538 203.495 285.415 203.628 285.383 203.792L285.352 203.825C283.738 205.55 282.142 207.292 280.566 209.052C279.197 210.582 277.844 212.127 276.507 213.687L276.453 213.75L272.42 200.637C272.155 200.759 271.891 200.884 271.624 201.011L275.784 214.535L275.781 214.537C275.056 215.392 274.335 216.25 273.619 217.114C271.324 219.886 269.086 222.706 266.922 225.583C264.395 228.94 261.968 232.374 259.682 235.9L259.654 235.944L250.013 216.382C249.797 216.597 249.581 216.815 249.364 217.035L259.104 236.799L259.086 236.826C257.458 239.38 255.905 241.982 254.456 244.642C253.278 246.805 252.169 249.006 251.152 251.25C251.01 251.562 250.87 251.876 250.732 252.19H251.683C252.176 251.08 252.693 249.98 253.23 248.89L253.262 248.825C253.271 248.825 253.28 248.825 253.289 248.825L283.589 247.902C283.833 247.618 284.084 247.319 284.342 247.007L253.705 247.94L253.724 247.902C255.533 244.332 257.545 240.868 259.691 237.49C262.014 233.835 264.495 230.283 267.083 226.812L267.105 226.782L295.206 225.789C295.283 225.499 295.358 225.206 295.432 224.91L267.778 225.886C273.566 218.215 279.943 210.867 286.112 204.287L296.665 203.366C296.632 203.078 296.595 202.79 296.556 202.501L287.009 203.334C289.628 200.567 292.292 197.843 294.998 195.161L295.149 195.012L295.148 195.01Z" fill="#B5E7B2"/>
<path fill-rule="evenodd" clip-rule="evenodd" d="M251.846 252.189C251.846 252.189 273.178 236.288 271.579 222.317C270.094 209.341 252.882 215.693 252.882 215.693C252.882 215.693 274.4 200.672 273.179 184.774C272.508 176.034 263.495 176.459 258.211 178.697C255.098 180.014 269.926 164.395 268.879 150.772C268.241 142.467 258.228 139.249 249.146 146.014C244.276 149.642 238.081 169.441 238.081 169.441C238.081 169.441 232.969 157.485 222.324 161.482C209.797 166.185 211.39 202.033 211.39 202.033C211.39 202.033 206.191 190.877 194.651 194.599C181.128 198.961 190.601 252.191 190.601 252.191H251.846V252.189Z" fill="#62B45F"/>
<path fill-rule="evenodd" clip-rule="evenodd" d="M210.876 201.093C209.307 198.488 204.108 191.546 194.651 194.596C181.128 198.957 190.601 252.187 190.601 252.187H251.846C251.846 252.187 273.178 236.287 271.579 222.315C271.123 218.333 269.186 216.171 266.721 215.088C256.746 226.219 240.073 234.406 222.007 224.693C214.772 220.803 211.907 210.571 210.873 201.093H210.876Z" fill="#439847"/>
<path fill-rule="evenodd" clip-rule="evenodd" d="M190.418 251.113C190.534 251.809 190.601 252.187 190.601 252.187H251.846C251.846 252.187 259.799 246.259 265.631 238.461C260.597 239.867 239.323 245.556 226.616 245.004C208.952 244.236 193.831 210.264 193.831 210.264L190.42 251.113H190.418Z" fill="#398942"/>
<path fill-rule="evenodd" clip-rule="evenodd" d="M273.163 187.621C273.243 186.677 273.252 185.726 273.179 184.772C272.508 176.032 263.495 176.457 258.211 178.695C255.098 180.013 269.926 164.394 268.88 150.771C268.241 142.465 258.228 139.247 249.147 146.013C244.276 149.64 238.081 169.439 238.081 169.439C238.081 169.439 233.101 157.791 222.732 161.335C221.976 173.913 217.235 213.827 247.141 207.254C261.144 204.176 269.035 194.818 273.163 187.621Z" fill="#75BC57"/>
<path fill-rule="evenodd" clip-rule="evenodd" d="M272.782 182.555C270.855 176.127 263.001 176.666 258.211 178.695C255.098 180.013 269.926 164.394 268.88 150.771C268.241 142.465 258.228 139.247 249.147 146.013C244.276 149.64 238.081 169.439 238.081 169.439C238.081 169.439 233.101 157.791 222.732 161.335C222.72 161.541 222.706 161.755 222.692 161.974C232.315 162.871 237.866 175.168 237.866 175.168C237.866 175.168 251.723 147.071 259.351 151.532C269.828 157.66 254.542 182.846 254.542 182.846C263.595 177.712 270.939 181.437 272.782 182.556V182.555Z" fill="#9BD378"/>
<path fill-rule="evenodd" clip-rule="evenodd" d="M214.975 252.188H213.4C214.615 247.619 216.141 242.753 217.88 237.738L201.173 208.234C200.965 207.868 201.095 207.402 201.46 207.195C201.825 206.987 202.291 207.116 202.498 207.482L218.55 235.83C222.953 223.418 228.565 210.228 233.94 198.44L225.917 175.876C225.775 175.479 225.983 175.043 226.379 174.902C226.775 174.76 227.211 174.968 227.351 175.365L234.851 196.453C244 176.553 252.213 161.123 252.213 161.123C252.411 160.752 252.872 160.611 253.243 160.81C253.613 161.008 253.754 161.47 253.556 161.841C253.556 161.841 245.322 177.299 236.173 197.204L260.011 189.709C260.412 189.583 260.84 189.807 260.965 190.208C261.091 190.61 260.867 191.038 260.467 191.164L235.318 199.072C229.905 210.941 224.253 224.231 219.851 236.702L255.444 226.188C255.847 226.069 256.271 226.3 256.389 226.703C256.508 227.107 256.277 227.531 255.875 227.651L219.232 238.475C217.592 243.224 216.144 247.839 214.976 252.192L214.975 252.188Z" fill="#C9EACF"/>
<path fill-rule="evenodd" clip-rule="evenodd" d="M114.729 214.549V252.196H200.747L203.139 213.401L114.729 214.549Z" fill="#E3EDF7"/>
<path fill-rule="evenodd" clip-rule="evenodd" d="M200.702 252.195L203.139 213.4L114.729 214.548V252.195H117.921C117.921 252.195 116.187 224.888 125.481 223.239C134.483 221.641 176.154 219.308 194.092 224.65C200 226.409 198.31 252.196 198.31 252.196H200.702V252.195Z" fill="#C3D5E9"/>
<path fill-rule="evenodd" clip-rule="evenodd" d="M87.9385 166.344C87.9385 166.344 76.5216 192.188 93.9401 201.538L112.304 181.773L114.73 170.417L87.9396 166.343L87.9385 166.344Z" fill="#FCBDD1"/>
<path fill-rule="evenodd" clip-rule="evenodd" d="M229.93 166.344C229.93 166.344 241.347 192.188 223.928 201.538L205.565 181.773L203.138 170.417L229.929 166.343L229.93 166.344Z" fill="#FCBDD1"/>
<path fill-rule="evenodd" clip-rule="evenodd" d="M114.226 170.341L87.9386 166.343C87.9386 166.343 87.4165 167.525 86.7661 169.472L106.737 176.005L108.981 182.591L114.226 170.34V170.341Z" fill="#FA8BAB"/>
<path fill-rule="evenodd" clip-rule="evenodd" d="M229.93 166.344C229.93 166.344 241.347 192.188 223.928 201.538L205.565 181.773L203.138 170.417L229.929 166.343L229.93 166.344Z" fill="#FCBDD1"/>
<path fill-rule="evenodd" clip-rule="evenodd" d="M205.826 170.01L229.93 166.344C229.93 166.344 230.819 168.356 231.722 171.462L211.029 175.435L208.888 182.633L205.825 170.01H205.826Z" fill="#FA8BAB"/>
<path fill-rule="evenodd" clip-rule="evenodd" d="M149.824 96.0638L149.096 120.082H168.476L167.748 96.0638H149.823H149.824Z" fill="#FCBDD1"/>
<path fill-rule="evenodd" clip-rule="evenodd" d="M149.513 106.345C155.699 108.868 161.884 108.883 168.07 106.647L167.783 97.2215H149.79L149.512 106.345H149.513Z" fill="#E05C86"/>
<path fill-rule="evenodd" clip-rule="evenodd" d="M149.005 112.42C149.005 112.42 152.069 119.827 158.198 120.082C167.47 120.469 168.569 112.42 168.569 112.42C168.569 112.42 207.28 117.085 219.846 127.545C227.897 134.247 233.929 167.518 233.929 167.518C222.711 169.989 214.851 171.686 205.148 172.53C205.148 172.53 209.276 215.13 203.596 216.065C180.619 219.849 118.827 220.817 111.974 216.065C107.492 211.576 113.748 172.53 113.748 172.53C104.1 171.626 94.446 168.831 83.5337 166.344C83.5337 166.344 98.4931 127.167 107.614 122.017C119.966 115.043 149.006 112.42 149.006 112.42H149.005Z" fill="#E25061"/>
<path fill-rule="evenodd" clip-rule="evenodd" d="M137.023 113.936C137.562 115.646 138.364 118.404 138.491 120.049C138.491 120.049 141.671 119.5 143.531 119.762C145.391 120.023 158.822 122.99 161.074 123.741L196.915 117.846C203.753 119.649 210.528 121.92 215.557 124.69L213.529 130.601C213.529 130.601 214.839 133.945 214.023 136.11C213.208 138.275 211.335 143.245 211.335 143.245V171.85C209.324 172.117 207.28 172.344 205.147 172.53C205.147 172.53 205.212 173.008 205.32 173.861L113.731 172.63L113.747 172.53C111.258 172.297 108.768 171.938 106.257 171.49V141.595H110.14C110.14 141.595 107.587 127.877 107.215 122.262C107.349 122.174 107.482 122.092 107.614 122.017C110.005 120.668 113.02 119.481 116.327 118.445L118.501 117.796C124.596 116.064 131.394 114.801 137.023 113.936Z" fill="#CB3443"/>
<path fill-rule="evenodd" clip-rule="evenodd" d="M157.235 252.195H158.105V239.735C158.105 239.494 157.911 239.299 157.67 239.299C157.43 239.299 157.235 239.494 157.235 239.735V252.195Z" fill="#2E4865"/>
<path fill-rule="evenodd" clip-rule="evenodd" d="M149.096 111.866C149.096 111.866 152.03 119.962 158.198 120.082C163.031 120.177 167.256 116.57 168.477 112.42C168.98 110.846 173.158 110.287 173.025 113.237C172.921 115.532 166.205 123.686 158.198 123.686C151.352 123.686 145.295 117.279 144.347 112.838C144.014 111.277 147.807 109.228 149.096 111.865V111.866Z" fill="#FDF0F2"/>
<path fill-rule="evenodd" clip-rule="evenodd" d="M197.741 123.731L193.519 111.744L185.33 121.378L176.505 153.338L190.63 152.148L197.74 123.73L197.741 123.731Z" fill="#3C88E4"/>
<path fill-rule="evenodd" clip-rule="evenodd" d="M185.337 121.377L162.923 114.771L151.417 155.507L173.831 162.113L185.337 121.377Z" fill="#57A0F5"/>
<path fill-rule="evenodd" clip-rule="evenodd" d="M184.716 123.576L162.302 116.969L160.702 122.631L183.116 129.238L184.716 123.576Z" fill="#6FAEF6"/>
<path fill-rule="evenodd" clip-rule="evenodd" d="M178.651 145.049L156.237 138.442L151.417 155.507L173.832 162.113L178.652 145.049H178.651Z" fill="#197EF1"/>
<path fill-rule="evenodd" clip-rule="evenodd" d="M182.184 132.541L159.77 125.935L156.564 137.284L178.979 143.89L182.184 132.541Z" fill="#E6EFFB"/>
<path fill-rule="evenodd" clip-rule="evenodd" d="M193.544 111.704L171.13 105.098L162.92 114.772L185.334 121.378L193.544 111.704Z" fill="#67A9F5"/>
<path fill-rule="evenodd" clip-rule="evenodd" d="M191.166 114.507L168.751 107.901L165.299 111.97L187.713 118.576L191.166 114.507Z" fill="#90C0F7"/>
<path fill-rule="evenodd" clip-rule="evenodd" d="M193.544 111.704L171.13 105.098L171.576 103.479L193.99 110.085L193.544 111.704Z" fill="#C5E0FC"/>
<path fill-rule="evenodd" clip-rule="evenodd" d="M126.474 109.166L125.246 99.5249L115.647 100.75L116.875 110.392C114.462 110.7 112.271 111.963 110.784 113.905C109.297 115.847 108.635 118.306 108.945 120.744C110.66 134.205 113.652 157.702 113.652 157.702L141.448 154.154C141.448 154.154 138.456 130.657 136.742 117.196C136.432 114.759 135.176 112.544 133.25 111.037C131.324 109.532 128.886 108.859 126.473 109.167L126.474 109.166Z" fill="#7FC8FD"/>
<path fill-rule="evenodd" clip-rule="evenodd" d="M134.934 112.749C136.206 119.375 136.478 130.869 134.482 135.342C132.358 140.101 119.993 144.632 115.724 141.599C111.989 138.946 109.543 122.217 108.99 118.072C108.848 118.947 108.831 119.847 108.945 120.743L112.597 149.428L113.067 149.971L140.371 145.698L136.742 117.194C136.534 115.563 135.904 114.033 134.933 112.748L134.934 112.749ZM125.402 100.75L125.247 99.5249L115.648 100.75L115.919 102.879L125.402 100.75Z" fill="#5AA8ED"/>
<path fill-rule="evenodd" clip-rule="evenodd" d="M115.872 117.451C117.456 112.722 126.288 111.719 129.026 115.612C132.451 120.48 134.941 145.836 134.941 145.836L118.88 147.47C118.88 147.47 113.977 123.109 115.871 117.451H115.872Z" fill="#96D4FD"/>
<path fill-rule="evenodd" clip-rule="evenodd" d="M126.121 97.0113C126.058 96.5136 125.602 96.1608 125.107 96.225L114.634 97.5624C114.137 97.6256 113.784 98.0819 113.848 98.5785L114.034 100.041C114.097 100.539 114.553 100.892 115.049 100.827L125.522 99.49C126.019 99.4269 126.371 98.9705 126.307 98.4739L126.121 97.0113Z" fill="#204A85"/>
<path fill-rule="evenodd" clip-rule="evenodd" d="M123.453 96.9035C123.421 96.6498 123.189 96.4701 122.935 96.5016L116.805 97.2847C116.551 97.3174 116.371 97.5493 116.403 97.8042L116.701 100.149C116.734 100.403 116.966 100.583 117.22 100.551L123.35 99.7677C123.603 99.7351 123.784 99.5031 123.751 99.2483L123.453 96.9035Z" fill="#3062A7"/>
<path fill-rule="evenodd" clip-rule="evenodd" d="M137.504 124.458L109.869 127.986L111.695 142.327L139.331 138.799L137.504 124.458Z" fill="#D7EEFE"/>
<path fill-rule="evenodd" clip-rule="evenodd" d="M110.627 127.889L109.869 127.986L111.695 142.327L116 141.777C115.905 141.721 115.814 141.662 115.726 141.6C113.548 140.053 111.809 133.721 110.628 127.889H110.627ZM135.935 124.658C135.925 128.993 135.496 133.071 134.483 135.342C133.703 137.09 131.542 138.806 128.909 140.128L139.331 138.797L137.662 124.457L135.935 124.657V124.658Z" fill="#BADEF7"/>
<path fill-rule="evenodd" clip-rule="evenodd" d="M131.993 125.161C132.938 129.888 133.702 135.335 134.215 139.451L117.784 141.548C117.082 137.512 116.219 132.048 115.76 127.234L131.993 125.161Z" fill="#E7F5FE"/>
<path fill-rule="evenodd" clip-rule="evenodd" d="M205.552 143.8C205.552 143.8 221.721 109.586 218.761 99.2581C216.378 90.942 209.835 92.4068 207.441 93.094C204.141 94.0415 197.265 97.6419 199.284 105.321C196.977 105.321 183.939 109.767 188.082 123.712C183.5 124.742 173.427 133.641 177.183 143.798H205.553L205.552 143.8Z" fill="#F5AD42"/>
<path fill-rule="evenodd" clip-rule="evenodd" d="M180.466 143.8C180.26 140.193 180.288 128.96 188.081 124.191C188.081 124.191 189.674 109.12 199.384 105.434C199.834 100.307 206.263 92.5603 216.138 94.5032C213.196 91.664 209.199 92.5887 207.441 93.0929C204.141 94.0404 197.265 97.6408 199.284 105.32C196.977 105.32 183.939 109.766 188.082 123.711C183.5 124.741 173.427 133.64 177.183 143.797H180.467L180.466 143.8Z" fill="#F9CC64"/>
<path fill-rule="evenodd" clip-rule="evenodd" d="M216.164 94.5294C217.217 95.5553 218.133 97.068 218.761 99.2581C221.72 109.586 205.552 143.8 205.552 143.8H187.978C201.381 123.105 204.538 126.109 209.027 125.123C212.79 116.244 216.067 105.424 216.164 94.5304V94.5294Z" fill="#D38922"/>
<path fill-rule="evenodd" clip-rule="evenodd" d="M198.878 105.478C198.878 105.478 199.37 106.765 200.103 108.033C200.614 108.915 201.244 109.782 201.899 110.242C202.096 110.381 202.367 110.333 202.505 110.137C202.643 109.941 202.595 109.668 202.399 109.53C201.831 109.129 201.3 108.364 200.856 107.597C200.159 106.391 199.689 105.166 199.689 105.166C199.603 104.942 199.351 104.83 199.127 104.916C198.903 105.002 198.791 105.254 198.877 105.479L198.878 105.478Z" fill="#BF7207"/>
<path fill-rule="evenodd" clip-rule="evenodd" d="M187.568 123.675C187.568 123.675 188.739 126.999 190.939 129.521C191.097 129.702 191.372 129.72 191.553 129.562C191.733 129.404 191.752 129.129 191.594 128.948C189.501 126.549 188.388 123.386 188.388 123.386C188.308 123.16 188.059 123.04 187.833 123.12C187.607 123.2 187.487 123.449 187.568 123.676V123.675Z" fill="#BF7207"/>
<path fill-rule="evenodd" clip-rule="evenodd" d="M211.193 124.108C212.2 121.406 213.323 118.258 213.683 116.737C213.683 116.737 212.903 120.985 212.03 124.604C213.428 122.871 215.643 120.474 217.671 119.76C217.671 119.76 213.75 123.279 212.452 127.05C212.452 127.05 217.189 123.626 221.25 123.602C217.671 124.843 211.083 130.01 210.605 131.513L206.958 129.411C206.958 129.411 209.103 122.301 206.958 117.338C206.958 117.338 209.567 120.022 209.389 124.497C209.389 124.497 210.926 120.344 211.212 117.338C211.212 117.338 211.658 120.912 211.193 124.107V124.108Z" fill="#518628"/>
<path fill-rule="evenodd" clip-rule="evenodd" d="M191.705 145.977C191.705 145.977 198.293 129.105 204.919 127.724C209.319 126.807 212.17 130.159 212.427 132.201C213.054 137.209 204.919 145.977 204.919 145.977H191.705Z" fill="#FF8E04"/>
<path fill-rule="evenodd" clip-rule="evenodd" d="M211.644 130.328C212.087 130.974 212.356 131.637 212.427 132.201C213.054 137.209 204.919 145.977 204.919 145.977H191.705C191.705 145.977 192.292 144.472 193.293 142.324C195.223 142.432 201.985 142.646 204.919 140.605C207.712 138.662 210.639 132.559 211.644 130.328Z" fill="#E67700"/>
<path fill-rule="evenodd" clip-rule="evenodd" d="M194.756 139.351C197.294 134.461 201.101 128.52 204.92 127.724C206.482 127.398 207.848 127.611 208.971 128.111C208.152 130.143 206.125 136.791 201.521 139.105C199.421 140.16 196.317 139.698 194.756 139.351Z" fill="#FFB41F"/>
<path fill-rule="evenodd" clip-rule="evenodd" d="M193.86 141.135C194.763 142.131 197.004 144.27 200.866 145.977H199.341C196.351 144.456 194.478 142.748 193.556 141.768C193.654 141.563 193.755 141.351 193.861 141.136L193.86 141.135ZM195.955 137.142C196.476 137.799 199.802 141.697 206.855 143.706C206.699 143.9 206.549 144.083 206.407 144.256C199.876 142.327 196.52 138.827 195.612 137.753C195.724 137.549 195.839 137.346 195.955 137.142ZM198.298 133.421C198.44 133.347 198.617 133.385 198.714 133.518C198.714 133.518 201.912 137.899 209.482 140.117C209.356 140.309 209.229 140.5 209.102 140.686C201.422 138.377 198.186 133.902 198.186 133.902C198.135 133.831 198.116 133.748 198.126 133.667C198.183 133.584 198.241 133.502 198.298 133.421ZM201.087 130.069C201.554 130.662 204.734 134.438 211.503 136.502C211.415 136.7 211.322 136.9 211.225 137.1C204.546 135.041 201.285 131.354 200.626 130.537C200.779 130.376 200.933 130.219 201.088 130.069H201.087ZM204.248 127.917C205.508 129.188 208.149 131.401 212.458 132.968C212.451 133.187 212.429 133.411 212.395 133.64C207.669 131.955 204.856 129.499 203.605 128.193C203.818 128.087 204.033 127.994 204.248 127.917Z" fill="#A44F00"/>
<path fill-rule="evenodd" clip-rule="evenodd" d="M164.929 127.467L138.496 121.361L130.634 155.45L157.067 161.557L164.929 127.468V127.467Z" fill="#BCCFFB"/>
<path fill-rule="evenodd" clip-rule="evenodd" d="M160.798 126.77L142.514 122.547L134.763 156.153L153.046 160.376L160.798 126.77Z" fill="#D4E1FC"/>
<path fill-rule="evenodd" clip-rule="evenodd" d="M155.589 125.566L147.724 123.75L139.972 157.356L147.837 159.173L155.589 125.566Z" fill="#DDE8FD"/>
<path fill-rule="evenodd" clip-rule="evenodd" d="M151.713 122.821C159.007 124.511 164.929 126.6 164.929 127.483C164.929 128.366 159.007 127.71 151.713 126.02C144.42 124.329 138.498 122.241 138.498 121.357C138.498 120.474 144.42 121.131 151.713 122.821Z" fill="#4A71BD"/>
<path fill-rule="evenodd" clip-rule="evenodd" d="M151.713 123.527C158.611 125.125 164.211 126.971 164.211 127.648C164.211 128.324 158.611 127.575 151.713 125.976C144.816 124.377 139.215 122.531 139.215 121.855C139.215 121.179 144.816 121.928 151.713 123.527Z" fill="#8FABE3"/>
<path fill-rule="evenodd" clip-rule="evenodd" d="M164.768 127.483C164.767 127.526 164.717 127.541 164.657 127.568C164.557 127.615 164.415 127.648 164.238 127.674C163.587 127.766 162.486 127.724 161.056 127.565C159.748 127.42 158.171 127.167 156.412 126.831C154.981 126.558 153.43 126.234 151.811 125.84C150.469 125.54 149.176 125.21 147.953 124.888C145.761 124.309 143.803 123.722 142.251 123.166C140.844 122.663 139.771 122.201 139.162 121.818C138.966 121.695 138.821 121.585 138.732 121.483C138.692 121.436 138.66 121.398 138.658 121.359C138.658 121.27 138.587 121.198 138.498 121.198C138.408 121.198 138.337 121.27 138.337 121.359C138.331 121.55 138.531 121.826 138.955 122.128C139.559 122.557 140.631 123.1 142.052 123.685C143.592 124.32 145.538 125.014 147.737 125.665C148.962 126.026 150.266 126.364 151.616 126.688C153.258 127.049 154.83 127.354 156.283 127.58C158.073 127.859 159.68 128.028 161.009 128.109C162.865 128.223 164.185 128.148 164.724 127.918C164.983 127.807 165.096 127.651 165.091 127.487C165.091 127.397 165.02 127.325 164.93 127.325C164.841 127.325 164.769 127.397 164.769 127.487L164.768 127.483Z" fill="#4A71BD"/>
<path fill-rule="evenodd" clip-rule="evenodd" d="M162.408 138.396L135.975 132.289L132.745 146.296L159.178 152.402L162.408 138.396Z" fill="#6C9F4C"/>
<path fill-rule="evenodd" clip-rule="evenodd" d="M158.151 137.411L140.232 133.272L137.002 147.278L154.921 151.418L158.151 137.411Z" fill="#84BB59"/>
<path fill-rule="evenodd" clip-rule="evenodd" d="M153.329 136.297L145.056 134.386L141.826 148.392L150.098 150.303L153.329 136.297Z" fill="#A7CF7E"/>
<path fill-rule="evenodd" clip-rule="evenodd" d="M208.557 143.8H109.016V210.817H208.557V143.8ZM175.618 148.939H141.954C141.954 152.375 144.735 153.916 148.167 153.916H169.404C172.836 153.916 175.617 152.375 175.617 148.939H175.618Z" fill="#F3B058"/>
<path fill-rule="evenodd" clip-rule="evenodd" d="M203.667 143.8H208.557V210.817H109.016V143.8H113.97V181.772L153.886 206.268C157.561 207.813 161.236 207.881 164.911 206.268L203.667 182.376V143.8ZM141.955 148.939H141.36C141.36 148.939 141.353 149.125 141.34 149.431C141.283 150.79 141.783 152.115 142.723 153.096C143.664 154.078 144.964 154.632 146.323 154.632H171.515C174.27 154.632 176.503 152.397 176.503 149.638V148.939H175.619C175.619 152.375 172.838 153.916 169.406 153.916H148.169C144.737 153.916 141.956 152.375 141.956 148.939H141.955Z" fill="#EA902A"/>
<path fill-rule="evenodd" clip-rule="evenodd" d="M191.224 158.769C177.679 155.127 141.264 155.127 127.719 158.769C114.595 162.297 118.151 181.445 118.151 181.445L148.151 197.426C155.566 200.671 162.646 200.563 169.424 197.426L199.423 181.445C199.423 181.445 204.35 162.297 191.224 158.769Z" fill="#FAC36B"/>
<path fill-rule="evenodd" clip-rule="evenodd" d="M109.016 181.773L138.542 199.058C138.542 199.058 148.394 200.161 148.183 203.059C147.974 205.927 142.343 204.241 142.343 204.241C142.343 204.241 148.092 205.763 150.189 207.713C153.506 210.799 143.33 220.906 137.6 221.283C130.719 221.736 124.534 215.936 124.534 215.936L93.876 201.538L109.017 181.773H109.016Z" fill="#FCBDD1"/>
<path fill-rule="evenodd" clip-rule="evenodd" d="M98.9761 203.933C105.406 205.866 122.924 211.282 126.512 213.947C130.112 216.621 141.536 217.204 146.199 216.578C143.488 219.078 140.115 221.117 137.6 221.283C130.719 221.736 124.535 215.936 124.535 215.936L98.9772 203.934L98.9761 203.933Z" fill="#F69DB9"/>
<path fill-rule="evenodd" clip-rule="evenodd" d="M208.776 181.773L179.249 199.058C179.249 199.058 169.144 199.716 169.609 202.994C170.012 205.842 175.448 204.241 175.448 204.241C175.448 204.241 169.7 205.763 167.603 207.713C164.286 210.799 174.462 220.906 180.191 221.283C187.073 221.736 193.257 215.936 193.257 215.936L223.916 201.538L208.775 181.773H208.776Z" fill="#FCBDD1"/>
<path fill-rule="evenodd" clip-rule="evenodd" d="M217.409 204.594L193.258 215.936C193.258 215.936 187.074 221.736 180.192 221.283C178.144 221.148 175.527 219.77 173.162 217.913C177.023 217.31 187.411 215.598 189.307 214.391C191.06 213.274 208.707 207.439 217.41 204.594H217.409Z" fill="#F69DB9"/>
<path fill-rule="evenodd" clip-rule="evenodd" d="M141.558 219.953L133.952 216.653C133.731 216.557 133.63 216.3 133.726 216.08C133.822 215.86 134.077 215.758 134.298 215.854L142.495 219.41C142.181 219.603 141.869 219.784 141.558 219.953ZM146.228 216.551L137.163 212.617C136.942 212.521 136.841 212.266 136.937 212.044C137.032 211.823 137.288 211.722 137.509 211.818L146.91 215.896C146.689 216.116 146.461 216.335 146.228 216.55V216.551ZM149.538 212.729L140.192 208.675C139.971 208.579 139.87 208.322 139.966 208.102C140.062 207.881 140.317 207.78 140.538 207.876L149.991 211.977C149.854 212.224 149.702 212.476 149.537 212.729H149.538Z" fill="#E26E93"/>
<path fill-rule="evenodd" clip-rule="evenodd" d="M175.136 219.31L182.928 215.929C183.148 215.833 183.404 215.935 183.5 216.156C183.595 216.376 183.494 216.633 183.274 216.728L176.06 219.858C175.752 219.687 175.444 219.504 175.136 219.31ZM170.762 215.778L179.717 211.893C179.938 211.797 180.193 211.898 180.289 212.12C180.385 212.341 180.284 212.597 180.063 212.692L171.438 216.434C171.207 216.219 170.982 215.999 170.762 215.778ZM167.725 211.839L176.687 207.951C176.908 207.855 177.163 207.956 177.259 208.177C177.355 208.398 177.253 208.654 177.033 208.75L168.167 212.597C168.005 212.341 167.857 212.088 167.725 211.839Z" fill="#E26E93"/>
<path fill-rule="evenodd" clip-rule="evenodd" d="M138.711 198.779L105.767 178.955C105.613 178.863 105.413 178.913 105.319 179.068C105.227 179.222 105.277 179.423 105.431 179.516L138.375 199.339C138.529 199.432 138.729 199.382 138.823 199.227C138.915 199.073 138.865 198.872 138.711 198.779Z" fill="#B34367"/>
<path fill-rule="evenodd" clip-rule="evenodd" d="M179.201 199.342L213.425 179.519C213.581 179.428 213.634 179.228 213.544 179.072C213.453 178.916 213.253 178.863 213.098 178.953L178.874 198.776C178.718 198.867 178.665 199.067 178.755 199.223C178.846 199.379 179.046 199.432 179.201 199.342Z" fill="#B34367"/>
<path fill-rule="evenodd" clip-rule="evenodd" d="M133.171 83.4046C133.171 83.4046 135.07 89.3182 139.712 89.2866L139.16 83.4046H133.171ZM183.288 83.4046C183.288 83.4046 181.389 89.3182 176.747 89.2866L177.299 83.4046H183.288Z" fill="#803A0F"/>
<path fill-rule="evenodd" clip-rule="evenodd" d="M184.623 76.1689C184.623 76.1689 191.523 50.5727 179.126 49.7799C178.699 37.7403 155.247 32.833 152.259 37.9657C149.556 40.3508 153.306 44.3139 154.319 44.7081C155.333 45.1023 140.646 38.3785 133.738 44.7081C130.325 47.8359 131.478 53.7495 135.188 55.6662C135.188 55.6662 129.467 53.633 128.863 61.1072C128.366 67.2713 131.093 76.1678 131.093 76.1678H184.623V76.1689Z" fill="#803A0F"/>
<path fill-rule="evenodd" clip-rule="evenodd" d="M152.676 43.2433C151.49 41.7742 150.486 39.5296 152.26 37.9657C155.248 32.833 178.699 37.7403 179.127 49.7799C186.033 50.222 186.95 58.3617 186.408 65.483C185.671 56.6497 181.909 51.0802 178.214 50.527C179.274 43.4306 166.697 38.6758 159.886 37.6575C154.309 36.8233 152.982 41.4181 152.676 43.2433ZM128.877 64.6706C128.992 62.1984 129.837 55.9167 135.426 55.7C135.426 55.7 131.327 48.7376 136.982 44.9161C141.671 41.747 150.164 43.4132 152.161 43.8652C147.957 42.42 138.777 40.0905 133.738 44.7081C130.325 47.8359 131.478 53.7495 135.188 55.6662C135.188 55.6662 129.467 53.633 128.864 61.1072C128.773 62.2278 128.79 63.4389 128.877 64.6706Z" fill="#B3611E"/>
<path fill-rule="evenodd" clip-rule="evenodd" d="M185.916 69.7478C183.48 70.3272 178.529 71.7081 177.292 73.6009L138.336 74.2195C138.336 74.2195 133.268 70.1181 129.673 70.3587C130.32 73.6466 131.094 76.1689 131.094 76.1689H184.624C184.624 76.1689 185.358 73.4451 185.917 69.7478H185.916Z" fill="#6A2C0B"/>
<path fill-rule="evenodd" clip-rule="evenodd" d="M138.774 77.3244C138.774 77.3244 135.761 71.9738 131.817 75.3194C126.848 79.5352 133.699 88.215 138.774 83.4438V77.3233V77.3244Z" fill="#E76489"/>
<path fill-rule="evenodd" clip-rule="evenodd" d="M177.292 77.3244C177.292 77.3244 180.305 71.9738 184.249 75.3194C189.218 79.5352 182.367 88.215 177.292 83.4438V77.3233V77.3244Z" fill="#E76489"/>
<path fill-rule="evenodd" clip-rule="evenodd" d="M140.062 81.2842C140.062 81.2842 138.05 78.5278 134.401 78.8099C134.161 78.8284 133.982 79.0386 134 79.2782C134.019 79.5178 134.229 79.6975 134.468 79.6789C137.618 79.435 139.36 81.7993 139.36 81.7993C139.503 81.9932 139.775 82.0346 139.968 81.893C140.162 81.7503 140.203 81.4781 140.062 81.2842Z" fill="#A9244E"/>
<path fill-rule="evenodd" clip-rule="evenodd" d="M176.707 81.8004C176.707 81.8004 178.45 79.435 181.6 79.68C181.839 79.6985 182.049 79.5188 182.067 79.2792C182.086 79.0396 181.906 78.8294 181.667 78.8109C178.018 78.5278 176.006 81.2853 176.006 81.2853C175.863 81.4791 175.906 81.7514 176.099 81.8941C176.293 82.0367 176.565 81.9943 176.707 81.8004Z" fill="#A9244E"/>
<path fill-rule="evenodd" clip-rule="evenodd" d="M137.56 62.3857C137.56 62.3857 136.272 74.0017 138.056 84.1169C139.044 89.7244 140.58 94.8713 142.967 97.3217C148.362 102.863 156.203 104.882 159.329 104.882C162.455 104.882 171.418 101.115 174.654 95.9713C176.837 92.5026 177.974 86.4246 178.555 80.3846C179.424 71.3433 177.292 62.3857 177.292 62.3857H137.56Z" fill="#FCBDD1"/>
<path fill-rule="evenodd" clip-rule="evenodd" d="M179.125 66.6461H137.56V80.9597C137.729 82.1696 137.92 83.3785 138.137 84.5634C139.233 81.4116 141.52 74.4994 141.642 71.3966C141.642 71.3966 146.23 70.6332 148.378 69.041C150.526 67.4488 154.351 68.3527 155.339 69.041C156.327 69.7293 162.643 71.4075 164.577 69.6868C166.511 67.9661 168.531 68.5683 169.476 69.041C170.421 69.5147 172.527 70.4176 173.687 69.6868C173.687 69.6868 175.517 79.521 178.229 83.2924C179.013 77.222 179.143 70.753 179.125 66.6451V66.6461Z" fill="#F586A4"/>
<path fill-rule="evenodd" clip-rule="evenodd" d="M157.837 82.9908C157.837 82.9908 159.3 86.0478 159.994 88.3478C160.164 88.9142 160.288 89.4315 160.326 89.8388C160.344 90.0228 160.348 90.1764 160.316 90.2918C160.158 90.5031 159.834 90.6087 159.514 90.6915C158.886 90.8549 158.225 90.8636 158.225 90.8636C157.985 90.8668 157.792 91.064 157.796 91.3047C157.799 91.5453 157.996 91.7381 158.236 91.7348C158.236 91.7348 159.291 91.7196 160.107 91.419C160.529 91.2644 160.884 91.028 161.077 90.7198C161.091 90.697 161.103 90.673 161.113 90.6479C161.197 90.4356 161.227 90.1317 161.193 89.7604C161.152 89.3051 161.018 88.7268 160.828 88.0963C160.118 85.7428 158.623 82.615 158.623 82.615C158.52 82.3983 158.26 82.3068 158.042 82.4103C157.826 82.5138 157.735 82.774 157.838 82.9918L157.837 82.9908Z" fill="#DF4374"/>
<path fill-rule="evenodd" clip-rule="evenodd" d="M163.177 95.7872C160.083 96.1586 157.357 96.0987 154.846 95.7872C156.498 101.093 163.246 99.0065 163.177 95.7872Z" fill="#E43C3C"/>
<path fill-rule="evenodd" clip-rule="evenodd" d="M137.64 82.1936C137.762 82.5355 140.259 72.5619 139.802 69.2065C139.802 69.2065 144.128 69.7543 147.188 68.0892C150.247 66.424 153.224 66.4654 155.009 67.5686C157.906 69.3601 161.899 70.7682 164.873 68.0892C167.577 65.6518 173.058 70.7356 174.83 67.5686C175.363 73.614 177.004 76.6993 178.468 80.255C179.234 75.229 180.764 68.2111 180.552 60.2446H137.071C137.054 67.7428 136.626 75.0907 137.639 82.1925L137.64 82.1936Z" fill="#803A0F"/>
<path fill-rule="evenodd" clip-rule="evenodd" d="M137.072 73.37C138.096 72.3441 139.208 69.5398 139.208 68.0881C139.208 68.0881 145.175 68.6609 147.105 66.2889C148.456 64.6303 153.099 64.5083 155.693 66.2889C158.435 68.1719 161.512 68.7502 162.692 67.6339C164.475 65.9492 166.848 65.336 168.558 66.2889C170.951 67.6219 174.981 68.3483 175.921 65.9481C175.921 65.9481 177.548 70.7421 179.815 71.7811L178.995 77.0489C178.803 78.1902 178.622 79.2618 178.471 80.255C177.006 76.6982 175.364 73.614 174.832 67.5686C173.061 70.7356 167.58 65.6518 164.875 68.0892C161.902 70.7693 157.909 69.3601 155.011 67.5686C153.226 66.4654 150.25 66.424 147.19 68.0892C144.131 69.7543 139.804 69.2065 139.804 69.2065C140.262 72.5608 137.765 82.5344 137.643 82.1936C137.308 79.8434 137.161 75.7725 137.074 73.3711L137.072 73.37Z" fill="#6A2C0B"/>
<path d="M149.824 84.1168C150.66 84.1168 151.338 82.912 151.338 81.4258C151.338 79.9395 150.66 78.7347 149.824 78.7347C148.988 78.7347 148.31 79.9395 148.31 81.4258C148.31 82.912 148.988 84.1168 149.824 84.1168Z" fill="#742F0A"/>
<path d="M166.243 84.1168C167.08 84.1168 167.757 82.912 167.757 81.4258C167.757 79.9395 167.08 78.7347 166.243 78.7347C165.407 78.7347 164.729 79.9395 164.729 81.4258C164.729 82.912 165.407 84.1168 166.243 84.1168Z" fill="#742F0A"/>
<path fill-rule="evenodd" clip-rule="evenodd" d="M143.677 77.3734C143.677 77.3734 147.074 73.2687 154.541 75.2029C154.832 75.2781 155.129 75.1027 155.204 74.8119C155.279 74.5212 155.104 74.2238 154.813 74.1487C146.558 72.0109 142.832 76.6873 142.832 76.6873C142.643 76.9203 142.679 77.2634 142.911 77.4529C143.144 77.6424 143.487 77.6065 143.676 77.3734H143.677Z" fill="#CA6908"/>
<path fill-rule="evenodd" clip-rule="evenodd" d="M173.234 76.6862C173.234 76.6862 169.507 72.0098 161.252 74.1476C160.962 74.2227 160.787 74.52 160.862 74.8108C160.937 75.1016 161.234 75.2769 161.524 75.2018C168.992 73.2676 172.388 77.3723 172.388 77.3723C172.578 77.6054 172.92 77.6413 173.153 77.4518C173.386 77.2623 173.422 76.9193 173.232 76.6862H173.234Z" fill="#CA6908"/>
</g>
<defs>
<clipPath id="clip0_108_10021">
<rect width="315" height="256" fill="white"/>
</clipPath>
</defs>
</svg>
