<svg width="65" height="80" viewBox="0 0 65 80" fill="none" xmlns="http://www.w3.org/2000/svg">
<path d="M36.3062 36.3431C36.8558 38.1905 35.6159 40.0796 33.5381 40.5623C31.4604 41.051 29.3358 39.9485 28.7929 38.1011L19.3962 6.40908C18.8466 4.56167 20.0865 2.67255 22.1642 2.18984C24.242 1.70117 26.3666 2.80365 26.9095 4.65106L36.3062 36.3431Z" fill="#408B21"/>
<path d="M30.9979 0.115827C33.0757 -0.372842 35.2003 0.729644 35.7432 2.57705C36.2928 4.42446 35.0528 6.31359 32.9751 6.7963L24.1347 8.87016C22.057 9.35883 19.9324 8.25635 19.3895 6.40894C18.8399 4.56153 20.0798 2.6724 22.1575 2.18969L30.9979 0.115827Z" fill="#58A72D"/>
<path d="M20.6282 46.9523C23.7051 42.2573 21.9189 36.2335 16.6386 33.4977C11.3584 30.7619 4.58353 32.35 1.50663 37.045C-1.57026 41.7399 0.215929 47.7638 5.49621 50.4996C10.7765 53.2354 17.5513 51.6472 20.6282 46.9523Z" fill="#DA70C3"/>
<path d="M21.7755 39.4956C20.2206 34.2394 14.1616 31.1048 8.25685 32.4874L13.9002 51.5157C19.8117 50.1331 23.3371 44.7458 21.7822 39.4956H21.7755Z" fill="#98005F"/>
<path d="M43.1762 34.4837C44.7312 39.7399 41.2057 45.1212 35.2942 46.5038C29.3828 47.8864 23.3305 44.7518 21.7756 39.4956C20.2207 34.2394 23.7461 28.8581 29.6576 27.4755C35.569 26.0929 41.6213 29.2276 43.1762 34.4837Z" fill="#DA70C3"/>
<path d="M43.1762 34.4837C41.6212 29.2276 35.5623 26.0929 29.6575 27.4755L35.3009 46.5038C41.2124 45.1212 44.7378 39.734 43.1829 34.4837H43.1762Z" fill="#98005F"/>
<path d="M53.0085 67.6534C54.5634 72.9096 51.038 78.2909 45.1265 79.6735C39.2151 81.056 33.1628 77.9214 31.6079 72.6652C30.053 67.4091 33.5784 62.0277 39.4899 60.6452C45.4013 59.2626 51.4536 62.3972 53.0085 67.6534Z" fill="#DA70C3"/>
<path d="M53.0085 67.6534C51.4535 62.3972 45.3946 59.2626 39.4898 60.6452L45.1332 79.6735C51.0447 78.2909 54.5701 72.9036 53.0152 67.6534H53.0085Z" fill="#98005F"/>
<path d="M57.5268 41.2636C63.2961 39.4712 66.3389 33.8596 64.323 28.7299C62.3072 23.6001 55.996 20.8946 50.2267 22.687C44.4574 24.4794 41.4147 30.091 43.4305 35.2207C45.4464 40.3505 51.7575 43.056 57.5268 41.2636Z" fill="#DA70C3"/>
<path d="M64.5834 29.4656C63.0285 24.2094 56.9696 21.0748 51.0648 22.4573L56.7082 41.4857C62.6196 40.1031 66.1451 34.7158 64.5901 29.4656H64.5834Z" fill="#98005F"/>
<path d="M31.632 64.9065C37.1017 62.4828 39.326 56.5754 36.6001 51.712C33.8742 46.8486 27.2303 44.8708 21.7605 47.2946C16.2908 49.7183 14.0665 55.6257 16.7924 60.4891C19.5183 65.3525 26.1622 67.3303 31.632 64.9065Z" fill="#DA70C3"/>
<path d="M37.3987 53.5894C35.8437 48.3332 29.7848 45.1986 23.8801 46.5811L29.5234 65.6094C35.4349 64.2269 38.9603 58.8396 37.4054 53.5894H37.3987Z" fill="#98005F"/>
<path d="M57.6525 56.0285C60.7294 51.3336 58.9432 45.3097 53.6629 42.5739C48.3826 39.8381 41.6078 41.4263 38.5309 46.1212C35.454 50.8162 37.2402 56.84 42.5204 59.5758C47.8007 62.3117 54.5756 60.7235 57.6525 56.0285Z" fill="#DA70C3"/>
<path d="M58.7994 48.5775C57.2444 43.3213 51.1855 40.1867 45.2807 41.5693L50.9241 60.5976C56.8356 59.215 60.361 53.8277 58.8061 48.5775H58.7994Z" fill="#98005F"/>
</svg>
