<svg width="357" height="236" viewBox="0 0 357 236" fill="none" xmlns="http://www.w3.org/2000/svg">
<path fill-rule="evenodd" clip-rule="evenodd" d="M20.9134 235.739C20.9134 235.739 -22.7121 182.315 16.0537 138.667C39.3426 112.445 55.0761 122.829 67.7368 100.84C79.6508 80.1484 61.6043 51.9442 82.6084 24.6313C107.771 -8.09029 153.828 -4.24357 176.856 13.2324C205.224 34.7617 205.247 55.7138 225.526 65.2659C244.024 73.9789 263.268 50.5497 287.565 53.0562C333.277 57.7714 347.891 98.4179 333.516 129.309C315.514 167.994 389.665 179.419 337.817 235.638L20.9134 235.74V235.739Z" fill="#E9EFFC"/>
<g clip-path="url(#clip0_113_3800)">
<path d="M193.312 70.9486C193.312 111.972 252.713 207.673 252.713 207.673C252.713 207.673 312.114 111.324 312.114 70.9486C312.114 38.1843 285.52 9.95052 252.713 9.95052C219.906 9.95052 193.312 38.1843 193.312 70.9486Z" fill="#337544"/>
<path d="M253.607 107.695C273.44 107.695 289.517 91.6373 289.517 71.8297C289.517 52.0222 273.44 35.965 253.607 35.965C233.775 35.965 217.698 52.0222 217.698 71.8297C217.698 91.6373 233.775 107.695 253.607 107.695Z" fill="#EEEEEE"/>
<path d="M243.938 40.2169C245.321 42.63 246.293 45.4067 248.277 49.733C248.105 52.6672 243.284 55.4655 239.44 54.3133C238.223 47.382 237.195 47.6582 235.939 43.3369C235.884 43.1485 241.278 41.7811 243.938 40.2169Z" fill="#F2A19C"/>
<path d="M249.726 31.9194C251.504 36.2202 253.172 38.6982 249.57 42.1554C246.292 45.3043 239.35 50.4123 235.343 47.6285C232.911 45.9398 232.841 45.2204 231.168 42.7403C230.683 42.0213 228.456 42.6927 229.201 40.2152C230.341 36.4183 230.08 33.7331 230.606 31.7544C231.61 27.9826 233.596 25.1992 237.547 24.6222C243.747 23.7185 247.1 25.5664 249.726 31.9194Z" fill="url(#paint0_linear_113_3800)"/>
<path d="M234.6 34.4885C236.952 34.2708 237.228 34.9443 239.186 36.8737C241.144 38.803 242.878 38.1041 245.766 37.7017C248.655 37.2994 248.481 40.1421 247.303 41.0165C246.124 41.891 244.724 42.3117 245.27 43.5153C245.817 44.719 250.452 46.0547 253.949 38.4692C259.964 25.424 252.527 25.0095 247.18 24.4635C241.227 23.8547 238.505 23.4641 238.505 23.4641L225.265 21.8865C224.978 23.5943 225.052 25.3432 225.483 27.0207C225.913 28.6981 226.691 30.267 227.765 31.6261C228.587 32.6202 229.639 33.4001 230.829 33.8987C232.02 34.3973 233.314 34.5997 234.6 34.4885Z" fill="url(#paint1_linear_113_3800)"/>
<path d="M239.315 53.6268L248.251 49.6758C252.245 51.853 255.822 54.7198 258.815 58.1432C260.476 60.0309 261.993 62.0399 263.353 64.1536C269.592 73.8515 268.175 77.5957 271.577 83.3246C271.583 83.3373 271.591 83.3496 271.599 83.3613C274.995 89.0768 278.799 91.9077 277.269 98.8093C273.614 102.243 265.877 107.695 253.052 107.695C235.51 107.695 226.578 95.1728 225.037 93.4649C242.557 81.2665 239.315 53.6268 239.315 53.6268Z" fill="url(#paint2_linear_113_3800)"/>
<path d="M234.511 43.9904C234.467 44.3455 234.327 44.6818 234.106 44.9633C233.885 45.2449 233.591 45.4609 233.256 45.5883C232.921 45.7157 232.558 45.7496 232.206 45.6864C231.853 45.6232 231.524 45.4653 231.255 45.2296C231.027 45.0336 231.291 44.6426 231.522 44.8414C231.722 45.0308 231.971 45.1613 232.241 45.2187C232.511 45.2761 232.791 45.2581 233.051 45.1667C233.312 45.0753 233.542 44.9141 233.716 44.7007C233.891 44.4873 234.003 44.2299 234.041 43.9569C234.087 43.6586 234.557 43.6917 234.511 43.9904Z" fill="#1C2868"/>
<path d="M219.914 94.3334C219.914 94.3334 205.572 97.2288 201.814 97.2288C200.089 97.2288 197.569 95.421 195.289 94.8093C191.069 93.6767 186.931 92.4141 186.462 93.9394C185.904 95.7472 191.396 96.3046 191.07 97.6432C190.279 100.888 177.779 97.0253 177.135 99.9139C176.076 104.668 185.727 107.912 190.035 107.463C195.366 106.908 199.44 103.571 202.228 103.861C208.73 104.853 215.326 105.096 221.884 104.584L219.914 94.3334Z" fill="#FFBEB6"/>
<path d="M239.316 53.6268C239.316 53.6268 240.634 82.9924 225.036 86.2391C216.205 88.0774 206.346 89.4561 206.346 89.4561L210.952 112.36C210.952 112.36 220.802 113.993 227.956 108.589C235.938 102.559 239.577 102.902 243.499 101.904C252.777 100.331 258.045 93.487 259.107 86.6352C260.383 78.3996 256.262 62.4619 248.251 49.6749L239.316 53.6268Z" fill="#23286B"/>
</g>
<g clip-path="url(#clip1_113_3800)">
<path d="M70.1156 60.8959L56.1157 45.8376L68.6439 37.5636L84.8475 49.9827L70.1156 60.8959Z" fill="#D62929"/>
<path d="M82.9526 16.5775C82.9526 16.5775 67.934 10.266 52.3779 25.9734" stroke="#1D225E" stroke-width="5.48877" stroke-miterlimit="10" stroke-linecap="round"/>
<path d="M68.437 40.4431L83.928 49.9829L60.7092 87.6213L45.2183 78.0815L68.437 40.4431Z" fill="#E94A47"/>
<path d="M84.9672 16.104C84.9672 16.104 67.3968 10.149 53.2986 27.907L61.0948 37.7116C61.0948 37.7116 75.0591 17.8992 85.5755 19.4779" fill="url(#paint3_linear_113_3800)"/>
<path d="M147.407 90.6555C147.094 89.2552 151.491 86.4184 150.257 85.4766C149.243 84.7025 140.2 90.6667 136.787 91.1483C129.354 92.197 118.912 88.3983 118.912 88.3983L116.386 100.323C120.27 100.841 131.749 96.4529 137.879 95.4781C140.517 95.586 142.096 98.8032 147.358 99.4523C151.834 100.005 160.795 98.1829 160.837 94.3404C160.879 90.4979 148.166 94.0511 147.407 90.6555Z" fill="url(#paint4_linear_113_3800)"/>
<path d="M97.1931 39.8918C97.1931 39.8918 97.1512 50.7698 102.911 63.9183C106.696 72.558 113.96 76.4532 118.949 79.3047C122.828 81.52 125.515 81.6546 125.515 81.6546L124.887 110.045C124.887 110.045 122.023 110.205 121.15 109.894C114.034 107.367 111.81 103.401 107.724 101.719C102.556 99.5923 91.8378 101.412 87.0164 86.4739C82.195 71.536 82.9242 58.7098 89.2408 37.8625" fill="#89B3F4"/>
<path d="M96.7357 214.504L90.5811 231.658H134.032C134.032 231.658 131.804 227.364 124.377 224.184C116.95 221.005 110.018 214.503 110.018 214.503H96.7357" fill="#12275B"/>
<path d="M62.5387 214.496L56.384 231.65H99.8344C99.8344 231.65 97.6068 227.356 90.1812 224.176C82.7556 220.996 75.8207 214.496 75.8207 214.496H62.5387Z" fill="#12275B"/>
<path d="M110.858 148.337C110.112 138.746 107.599 130.011 106.06 121.255C105.848 120.046 105.565 118.855 105.406 117.639C104.646 111.812 102.179 92.9957 101.671 90.4557L90.3422 91.7706L84.907 92.6267C84.907 92.6267 81.0528 93.3648 78.1746 94.8813C77.0627 100.354 76.8046 107.148 78.6214 115.112C83.8587 138.074 84.2657 134.849 83.46 150.963C82.6543 167.077 85.2731 161.638 86.0784 178.555C86.8837 195.472 77.9182 192.57 86.3963 214.423L110.016 214.506C110.016 214.506 111.989 162.875 110.858 148.337Z" fill="#0E1D48"/>
<path d="M101.989 124.669C101.989 124.669 102.28 93.1659 103.387 89.2122L70.7839 91.1219L68.9072 94.7488C68.5428 94.6748 69.2419 94.8232 68.9072 94.7488C66.1716 104.933 66.5194 115.699 69.9066 125.686C78.2618 150.739 73.1659 150.621 69.8129 157.134C66.1277 164.292 66.116 171.753 64.574 177.779C62.8939 184.346 58.2955 186.578 54.8785 197.268C53.1192 202.888 51.9989 208.688 51.5388 214.559L75.8216 214.494C75.8216 214.494 99.0363 162.01 100.15 151.068C101.153 141.21 101.153 137.367 101.989 124.669Z" fill="#183167"/>
<path opacity="0.86" d="M80.708 102.237C80.7313 102.246 80.7576 102.247 80.7811 102.237C80.8045 102.228 80.8234 102.21 80.8335 102.186C80.8437 102.162 80.844 102.135 80.8344 102.111C80.8247 102.087 80.8059 102.068 80.782 102.058C80.7587 102.048 80.7325 102.048 80.709 102.057C80.6855 102.066 80.6667 102.085 80.6565 102.108C80.6465 102.132 80.6462 102.159 80.6558 102.183C80.6655 102.207 80.6842 102.226 80.708 102.237ZM80.2144 99.5928C80.2391 99.6027 80.2668 99.6028 80.2916 99.5931C80.3165 99.5834 80.3367 99.5646 80.3482 99.5405C80.3571 99.5159 80.3561 99.4888 80.3453 99.4649C80.3345 99.441 80.3149 99.4223 80.2905 99.4126C80.2797 99.4073 80.2679 99.4041 80.2559 99.4033C80.2438 99.4025 80.2317 99.4041 80.2203 99.408C80.2089 99.4119 80.1983 99.418 80.1893 99.4259C80.1802 99.4339 80.1728 99.4436 80.1675 99.4544L80.1629 99.4657C80.1528 99.4896 80.1525 99.5165 80.1622 99.5406C80.1718 99.5647 80.1906 99.5841 80.2144 99.5944V99.5928ZM71.071 110.455C71.0944 110.465 71.1206 110.465 71.1441 110.456C71.1676 110.447 71.1864 110.428 71.1965 110.405C71.2036 110.393 71.208 110.38 71.2095 110.366C71.2111 110.352 71.2097 110.338 71.2054 110.325C71.2012 110.311 71.1943 110.299 71.185 110.288C71.1758 110.278 71.1644 110.27 71.1517 110.264C71.139 110.258 71.1253 110.255 71.1113 110.254C71.0973 110.254 71.0834 110.257 71.0706 110.262C71.0577 110.268 71.0461 110.276 71.0365 110.286C71.0269 110.296 71.0196 110.308 71.015 110.322L71.0112 110.331C71.003 110.355 71.0044 110.382 71.0152 110.405C71.0261 110.428 71.0454 110.447 71.0694 110.456L71.071 110.455ZM88.767 104.679C88.7716 104.691 88.7787 104.703 88.7877 104.712C88.7967 104.721 88.8074 104.729 88.8194 104.734C88.8313 104.74 88.8442 104.742 88.8572 104.743C88.8703 104.743 88.8832 104.741 88.8954 104.736C88.9067 104.732 88.9171 104.726 88.926 104.717C88.9349 104.709 88.9421 104.699 88.9471 104.688C88.9522 104.677 88.955 104.666 88.9555 104.654C88.9559 104.642 88.954 104.629 88.9498 104.618L88.9448 104.607C88.9362 104.583 88.9185 104.564 88.8956 104.553C88.8728 104.542 88.8465 104.54 88.8226 104.549C88.7978 104.559 88.778 104.578 88.7675 104.603C88.757 104.627 88.7566 104.655 88.7666 104.68L88.767 104.679ZM77.283 98.3489C77.2985 98.3666 77.3204 98.3775 77.3439 98.3792C77.3674 98.3809 77.3906 98.3733 77.4085 98.358L77.4165 98.3505C77.4255 98.3425 77.4328 98.3327 77.4381 98.3218C77.4433 98.3109 77.4464 98.2991 77.447 98.287C77.4477 98.2749 77.4459 98.2628 77.4419 98.2514C77.4379 98.24 77.4317 98.2295 77.4236 98.2205L77.4177 98.2147C77.4022 98.1971 77.3804 98.1862 77.3569 98.1844C77.3335 98.1827 77.3103 98.1901 77.2922 98.2051L77.2847 98.2126C77.2664 98.2289 77.2555 98.2519 77.2541 98.2763C77.2528 98.3008 77.2612 98.3248 77.2776 98.343L77.2834 98.3489H77.283ZM85.1019 104.555C85.1037 104.582 85.115 104.607 85.1337 104.625C85.1524 104.644 85.1772 104.655 85.2035 104.657C85.2294 104.655 85.2537 104.644 85.2714 104.625C85.2892 104.606 85.2991 104.581 85.2991 104.555C85.2991 104.529 85.2892 104.504 85.2714 104.486C85.2537 104.467 85.2294 104.455 85.2035 104.453C85.1772 104.455 85.1525 104.467 85.1341 104.486C85.1156 104.504 85.1046 104.529 85.1031 104.555H85.1019ZM78.6765 107.21C78.6774 107.236 78.6885 107.261 78.7074 107.278C78.7263 107.296 78.7514 107.306 78.7773 107.305C78.8023 107.307 78.8269 107.299 78.8458 107.282C78.8648 107.266 78.8766 107.243 78.8786 107.218V107.209C78.8777 107.183 78.8668 107.157 78.8479 107.138C78.829 107.119 78.8036 107.109 78.7769 107.108C78.7505 107.109 78.7256 107.121 78.7071 107.14C78.6885 107.159 78.6775 107.184 78.6761 107.21H78.6765ZM67.7532 102.811C67.7685 102.83 67.7873 102.845 67.8086 102.856C67.8299 102.867 67.8531 102.874 67.8771 102.877C67.901 102.879 67.9251 102.876 67.9481 102.869C67.9711 102.862 67.9924 102.85 68.0109 102.835L68.018 102.829C68.0547 102.797 68.0771 102.751 68.0803 102.702C68.0835 102.653 68.0673 102.605 68.0351 102.568C68.0041 102.531 67.9595 102.508 67.9112 102.503C67.8629 102.499 67.8148 102.514 67.7774 102.545L67.7707 102.55C67.734 102.583 67.7115 102.628 67.7082 102.677C67.7049 102.726 67.7211 102.774 67.7532 102.811ZM71.1497 99.8348C71.1812 99.8721 71.2263 99.8954 71.275 99.8996C71.3237 99.9037 71.3721 99.8884 71.4095 99.8569L71.4149 99.8528C71.4336 99.8367 71.4489 99.8171 71.46 99.7952C71.4711 99.7732 71.4777 99.7493 71.4795 99.7247C71.4814 99.7002 71.4783 99.6756 71.4706 99.6522C71.4629 99.6288 71.4507 99.6072 71.4346 99.5886L71.4317 99.5857C71.4006 99.549 71.3563 99.5262 71.3085 99.5222C71.2606 99.5182 71.2131 99.5334 71.1765 99.5643L71.1735 99.5673C71.136 99.6003 71.1127 99.6465 71.1082 99.6963C71.1038 99.746 71.1186 99.7956 71.1497 99.8348ZM81.2991 114.227C81.2963 114.276 81.3132 114.325 81.3459 114.362C81.3787 114.4 81.4248 114.423 81.4744 114.427C81.5218 114.432 81.5692 114.418 81.6063 114.388C81.6434 114.358 81.6671 114.315 81.6723 114.267V114.256C81.675 114.207 81.6582 114.158 81.6253 114.121C81.5925 114.083 81.5462 114.06 81.4966 114.057C81.4482 114.053 81.4002 114.068 81.3631 114.099C81.326 114.131 81.3029 114.176 81.2987 114.224L81.2991 114.227ZM81.6066 109.693C81.6038 109.718 81.606 109.744 81.6133 109.768C81.6205 109.792 81.6326 109.815 81.6488 109.834C81.665 109.853 81.6849 109.869 81.7074 109.881C81.7299 109.892 81.7544 109.899 81.7797 109.901C81.8049 109.903 81.8302 109.9 81.854 109.891C81.8779 109.883 81.8999 109.87 81.9186 109.853C81.9374 109.836 81.9525 109.816 81.9631 109.793C81.9736 109.77 81.9795 109.745 81.9802 109.72V109.716C81.9844 109.668 81.9691 109.619 81.9378 109.582C81.9065 109.544 81.8616 109.52 81.8128 109.516C81.7626 109.514 81.7136 109.531 81.6756 109.564C81.6377 109.597 81.6136 109.643 81.6083 109.693H81.6066ZM80.2378 104.669C80.2339 104.718 80.2496 104.766 80.2815 104.804C80.3134 104.841 80.359 104.865 80.408 104.869H80.4135C80.4608 104.874 80.5082 104.86 80.5452 104.83C80.5823 104.8 80.6061 104.757 80.6114 104.71V104.698C80.6131 104.648 80.5959 104.599 80.5633 104.561C80.5306 104.523 80.4848 104.498 80.4348 104.492C80.3852 104.489 80.3366 104.506 80.2995 104.539C80.2625 104.572 80.24 104.619 80.2369 104.668L80.2378 104.669ZM82.2877 101.512C82.2864 101.56 82.3038 101.607 82.3362 101.643C82.3686 101.678 82.4135 101.7 82.4616 101.703C82.5097 101.707 82.5572 101.691 82.5942 101.661C82.6313 101.63 82.655 101.586 82.6604 101.538V101.535C82.6631 101.51 82.6607 101.485 82.6535 101.461C82.6462 101.437 82.6342 101.415 82.6182 101.395C82.6022 101.376 82.5825 101.36 82.5602 101.349C82.538 101.337 82.5137 101.33 82.4887 101.329C82.4637 101.327 82.4386 101.33 82.4149 101.338C82.3912 101.346 82.3693 101.358 82.3506 101.375C82.3318 101.392 82.3166 101.412 82.3058 101.434C82.295 101.457 82.2888 101.481 82.2877 101.506V101.512ZM72.7273 109.767C72.77 109.79 72.82 109.795 72.8664 109.781C72.9127 109.767 72.9516 109.735 72.9745 109.693L72.9783 109.685C72.9999 109.64 73.0029 109.589 72.9866 109.542C72.9703 109.495 72.936 109.456 72.8913 109.434H72.8892C72.846 109.412 72.7957 109.407 72.7491 109.421C72.7026 109.436 72.6636 109.468 72.6407 109.511L72.6382 109.516C72.6182 109.561 72.6163 109.613 72.6329 109.659C72.6494 109.706 72.6832 109.744 72.7273 109.767V109.767ZM74.317 105.281C74.3597 105.303 74.4098 105.308 74.4562 105.294C74.5025 105.28 74.5414 105.248 74.5642 105.205L74.5676 105.198C74.5892 105.154 74.5922 105.102 74.5759 105.055C74.5596 105.008 74.5253 104.969 74.4805 104.948C74.4374 104.925 74.387 104.92 74.3404 104.935C74.2939 104.949 74.2549 104.981 74.232 105.024L74.2291 105.03C74.2092 105.075 74.2074 105.126 74.224 105.173C74.2406 105.22 74.2745 105.258 74.3186 105.281H74.317ZM76.7434 101.637C76.7885 101.658 76.8401 101.66 76.887 101.644C76.934 101.627 76.9725 101.593 76.9944 101.548C77.0158 101.503 77.0191 101.452 77.0035 101.404C76.9879 101.357 76.9547 101.318 76.9107 101.294C76.8652 101.273 76.8133 101.27 76.7654 101.285C76.7176 101.301 76.6775 101.334 76.6534 101.378C76.6329 101.425 76.6308 101.477 76.6474 101.525C76.664 101.573 76.6981 101.613 76.7429 101.638L76.7434 101.637ZM79.0488 98.4751C79.07 98.4864 79.0932 98.4935 79.1171 98.4959C79.1411 98.4983 79.1652 98.4959 79.1882 98.489C79.2112 98.482 79.2326 98.4706 79.2512 98.4554C79.2698 98.4402 79.2852 98.4214 79.2965 98.4003L79.2999 98.3932C79.321 98.3482 79.3241 98.2968 79.3086 98.2497C79.293 98.2025 79.2599 98.163 79.2162 98.1394C79.171 98.1183 79.1194 98.1158 79.0724 98.1325C79.0254 98.1491 78.9869 98.1836 78.9652 98.2285C78.9427 98.2703 78.9378 98.3194 78.9514 98.3649C78.9651 98.4104 78.9962 98.4487 79.038 98.4713L79.0468 98.4751H79.0488ZM71.3015 112.43C71.318 112.477 71.3522 112.515 71.3968 112.537C71.4415 112.559 71.4929 112.562 71.54 112.546C71.5861 112.531 71.6242 112.498 71.646 112.454C71.6677 112.411 71.6713 112.361 71.6559 112.315C71.65 112.292 71.6398 112.27 71.6256 112.252C71.6115 112.233 71.5938 112.217 71.5736 112.205C71.5533 112.193 71.5309 112.185 71.5076 112.182C71.4844 112.179 71.4607 112.18 71.4379 112.186L71.4229 112.19C71.3765 112.209 71.3385 112.243 71.3162 112.288C71.2939 112.332 71.2888 112.383 71.302 112.431L71.3015 112.43ZM88.3967 106.731C88.4139 106.778 88.448 106.816 88.4922 106.839C88.5365 106.862 88.5876 106.867 88.6356 106.854C88.6824 106.837 88.7206 106.802 88.742 106.757C88.7635 106.712 88.7664 106.661 88.7502 106.614C88.7425 106.59 88.7303 106.569 88.7143 106.551C88.6983 106.532 88.6788 106.517 88.6569 106.506C88.635 106.495 88.6112 106.488 88.5868 106.487C88.5624 106.485 88.5379 106.488 88.5147 106.496C88.4915 106.503 88.47 106.516 88.4515 106.532C88.4331 106.548 88.4179 106.567 88.4069 106.589C88.396 106.611 88.3894 106.635 88.3877 106.659C88.3859 106.683 88.389 106.708 88.3967 106.731ZM87.5739 104.516C87.5805 104.538 87.5916 104.559 87.6064 104.578C87.6212 104.596 87.6394 104.611 87.6601 104.622C87.6808 104.633 87.7035 104.64 87.7269 104.643C87.7503 104.645 87.7739 104.643 87.7964 104.636L87.806 104.633C87.8296 104.626 87.8516 104.615 87.8707 104.599C87.8898 104.583 87.9056 104.564 87.9173 104.543C87.9289 104.521 87.9362 104.497 87.9387 104.473C87.9411 104.448 87.9387 104.424 87.9315 104.4L87.9286 104.392C87.9207 104.369 87.9083 104.347 87.8921 104.329C87.876 104.31 87.8563 104.295 87.8343 104.284C87.7898 104.263 87.7384 104.259 87.6914 104.275C87.6444 104.291 87.6057 104.325 87.5837 104.369C87.5617 104.414 87.5583 104.465 87.5743 104.512L87.5739 104.516ZM79.7906 107.245C79.807 107.292 79.8412 107.33 79.8857 107.352C79.9302 107.374 79.9816 107.377 80.0286 107.361C80.0742 107.347 80.1123 107.315 80.1345 107.273C80.1566 107.231 80.1612 107.181 80.147 107.136L80.1441 107.128C80.1296 107.081 80.097 107.041 80.0535 107.017C80.01 106.994 79.959 106.989 79.9115 107.002C79.8641 107.019 79.825 107.054 79.8025 107.099C79.7799 107.144 79.7757 107.196 79.7906 107.244V107.245ZM69.6683 96.4161C69.6847 96.4629 69.7188 96.5014 69.7634 96.5232C69.808 96.545 69.8593 96.5485 69.9064 96.5327C69.929 96.5257 69.95 96.5142 69.9681 96.4991C69.9863 96.4839 70.0013 96.4653 70.0123 96.4443C70.0232 96.4234 70.0299 96.4004 70.032 96.3769C70.0341 96.3533 70.0315 96.3296 70.0243 96.307L70.0218 96.2991C70.0073 96.2518 69.9748 96.2122 69.9313 96.1887C69.8877 96.1653 69.8367 96.1599 69.7892 96.1737C69.7418 96.1905 69.7028 96.225 69.6802 96.27C69.6577 96.3149 69.6534 96.3668 69.6683 96.4148V96.4161ZM68.8224 107.664C68.8593 107.683 68.902 107.688 68.9423 107.678C68.9825 107.667 69.0174 107.642 69.0402 107.607C69.0629 107.572 69.0718 107.53 69.0652 107.489C69.0586 107.448 69.0369 107.411 69.0044 107.385L68.9986 107.382C68.9633 107.358 68.9201 107.349 68.8783 107.357C68.8364 107.365 68.7994 107.389 68.7752 107.424L68.7702 107.432C68.7474 107.469 68.7402 107.514 68.7499 107.557C68.7597 107.6 68.7857 107.638 68.8224 107.662V107.664ZM70.9501 104.224C70.9875 104.247 71.0323 104.255 71.075 104.245C71.1177 104.235 71.1549 104.209 71.1786 104.172C71.2028 104.134 71.2109 104.087 71.2009 104.043C71.191 103.998 71.1638 103.96 71.1254 103.935C71.0874 103.913 71.0423 103.907 70.9998 103.918C70.9573 103.929 70.9208 103.956 70.8983 103.994C70.8864 104.012 70.8781 104.032 70.8741 104.054C70.8701 104.075 70.8703 104.097 70.8748 104.118C70.8793 104.139 70.8879 104.159 70.9002 104.177C70.9125 104.195 70.9282 104.21 70.9464 104.222L70.9501 104.224ZM73.0101 100.686C73.0133 100.706 73.021 100.726 73.0326 100.743C73.0443 100.76 73.0596 100.774 73.0774 100.785C73.1147 100.808 73.1595 100.815 73.2022 100.806C73.2449 100.796 73.2821 100.77 73.3058 100.733C73.3301 100.695 73.3382 100.648 73.3282 100.604C73.3182 100.559 73.2911 100.521 73.2527 100.496C73.2296 100.481 73.2033 100.473 73.176 100.471C73.1487 100.468 73.1213 100.473 73.0962 100.484H73.0895C73.0604 100.496 73.0371 100.518 73.0247 100.547C73.011 100.567 73.0025 100.59 72.9999 100.614C72.9974 100.638 73.0009 100.663 73.0101 100.685V100.686ZM75.2059 97.3449C75.2435 97.3664 75.2878 97.3731 75.3301 97.3635C75.3723 97.3539 75.4094 97.3287 75.4339 97.293C75.4567 97.2542 75.4639 97.2081 75.4541 97.1642C75.4444 97.1202 75.4183 97.0816 75.3812 97.056C75.3439 97.0331 75.2991 97.0257 75.2564 97.0354C75.2137 97.045 75.1765 97.0711 75.1528 97.1079C75.1285 97.1464 75.1205 97.1929 75.1304 97.2373C75.1404 97.2817 75.1675 97.3204 75.2059 97.3449ZM85.4537 110.399C85.4652 110.443 85.493 110.48 85.5313 110.504C85.5697 110.528 85.6157 110.536 85.6599 110.527C85.6807 110.522 85.7003 110.513 85.7177 110.501C85.7351 110.489 85.7498 110.473 85.7612 110.455C85.7725 110.437 85.7801 110.417 85.7836 110.396C85.7872 110.375 85.7865 110.354 85.7817 110.333V110.327C85.7725 110.284 85.7468 110.246 85.7102 110.222C85.6736 110.198 85.6289 110.189 85.5859 110.197H85.5821C85.5398 110.209 85.5033 110.236 85.4801 110.273C85.4568 110.31 85.4484 110.355 85.4566 110.398L85.4537 110.399ZM84.5484 106.448C84.5591 106.49 84.5859 106.526 84.623 106.549C84.6601 106.572 84.7046 106.579 84.7471 106.57C84.7678 106.565 84.7874 106.556 84.8048 106.544C84.8221 106.532 84.8369 106.516 84.8482 106.498C84.8595 106.48 84.8671 106.46 84.8707 106.439C84.8742 106.418 84.8736 106.397 84.8688 106.376V106.37C84.8597 106.327 84.834 106.289 84.7974 106.265C84.7608 106.241 84.7161 106.232 84.6731 106.24H84.6693C84.6265 106.253 84.5901 106.281 84.5679 106.32C84.5456 106.358 84.5392 106.404 84.5501 106.447L84.5484 106.448ZM83.9669 102.066C83.9761 102.109 84.0017 102.147 84.0383 102.171C84.075 102.195 84.1196 102.204 84.1627 102.196H84.1664C84.1869 102.192 84.2064 102.184 84.2238 102.172C84.2411 102.161 84.2561 102.146 84.2678 102.129C84.2794 102.112 84.2876 102.093 84.2917 102.072C84.2959 102.052 84.2959 102.031 84.2919 102.01C84.2911 102.005 84.2898 102.001 84.2882 101.996C84.279 101.953 84.2533 101.915 84.2166 101.891C84.1799 101.867 84.1351 101.858 84.092 101.867H84.0891C84.0469 101.878 84.0107 101.905 83.9882 101.942C83.9657 101.979 83.9586 102.024 83.9686 102.066H83.9669ZM78.7819 112.242C78.7924 112.285 78.8197 112.322 78.8576 112.345C78.8956 112.368 78.9412 112.376 78.9844 112.365C79.0276 112.355 79.0649 112.327 79.0881 112.289C79.1112 112.252 79.1183 112.206 79.1078 112.163C79.097 112.12 79.0704 112.083 79.0334 112.059C78.9964 112.035 78.9517 112.026 78.9083 112.034C78.8646 112.046 78.8272 112.075 78.8039 112.114C78.7805 112.152 78.773 112.199 78.7828 112.243L78.7819 112.242ZM76.8228 108.535C76.8168 108.579 76.8282 108.624 76.8545 108.659C76.8808 108.695 76.92 108.719 76.9638 108.726C76.9851 108.73 77.0069 108.729 77.0279 108.724C77.049 108.72 77.0688 108.711 77.0865 108.698C77.1041 108.686 77.119 108.67 77.1305 108.652C77.142 108.634 77.1497 108.613 77.1533 108.592C77.1598 108.548 77.1495 108.503 77.1245 108.466C77.0995 108.429 77.0615 108.403 77.0182 108.393C76.9734 108.386 76.9278 108.398 76.8913 108.425C76.8547 108.451 76.8302 108.491 76.8228 108.536V108.535ZM79.6203 103.719C79.616 103.739 79.6159 103.761 79.6199 103.782C79.6239 103.802 79.6319 103.822 79.6436 103.84C79.6552 103.857 79.6703 103.873 79.6878 103.884C79.7054 103.896 79.7251 103.905 79.7458 103.909H79.7546C79.7975 103.916 79.8416 103.906 79.8771 103.881C79.9126 103.856 79.9367 103.818 79.9441 103.775C79.9505 103.731 79.9402 103.686 79.9152 103.649C79.8902 103.612 79.8523 103.586 79.809 103.576C79.7651 103.57 79.7208 103.582 79.6855 103.609C79.6502 103.635 79.6266 103.675 79.6199 103.718L79.6203 103.719ZM78.1427 100.526C78.1354 100.569 78.1454 100.613 78.1705 100.649C78.1956 100.685 78.2339 100.71 78.277 100.718C78.2982 100.722 78.32 100.721 78.3411 100.716C78.3621 100.712 78.382 100.703 78.3996 100.69C78.4172 100.678 78.4322 100.662 78.4437 100.644C78.4552 100.626 78.4629 100.605 78.4665 100.584C78.4708 100.564 78.4709 100.542 78.4669 100.521C78.463 100.501 78.4549 100.481 78.4432 100.463C78.4316 100.445 78.4166 100.43 78.399 100.418C78.3815 100.407 78.3618 100.398 78.341 100.394H78.3322C78.3117 100.39 78.2905 100.39 78.2699 100.394C78.2493 100.398 78.2297 100.406 78.2122 100.418C78.1948 100.429 78.1798 100.444 78.1682 100.462C78.1565 100.479 78.1484 100.499 78.1444 100.519V100.529L78.1427 100.526ZM91.8807 105.312C91.904 105.346 91.9399 105.37 91.9806 105.377C92.0213 105.385 92.0635 105.377 92.0978 105.353C92.1013 105.351 92.1047 105.349 92.1079 105.346C92.126 105.334 92.1415 105.318 92.1535 105.299C92.1654 105.281 92.1736 105.26 92.1775 105.238C92.1814 105.216 92.1809 105.194 92.1761 105.173C92.1714 105.151 92.1624 105.131 92.1497 105.113L92.1472 105.11C92.1209 105.074 92.0816 105.05 92.0378 105.044C91.9941 105.037 91.9494 105.048 91.9137 105.074C91.8784 105.1 91.8545 105.139 91.8474 105.182C91.8403 105.225 91.8504 105.27 91.8757 105.305L91.879 105.31L91.8807 105.312ZM69.5922 98.3555C69.6119 98.3728 69.6375 98.3818 69.6636 98.3807C69.6898 98.3796 69.7146 98.3685 69.7328 98.3497C69.7498 98.3297 69.7587 98.3039 69.7575 98.2776C69.7564 98.2513 69.7453 98.2264 69.7265 98.208C69.7068 98.1907 69.6812 98.1816 69.655 98.1827C69.6288 98.1838 69.6041 98.1949 69.5859 98.2138C69.569 98.234 69.5603 98.2597 69.5615 98.2859C69.5626 98.3121 69.5736 98.337 69.5922 98.3555ZM78.4017 101.082C78.4025 101.101 78.409 101.119 78.4204 101.135C78.4318 101.15 78.4475 101.162 78.4656 101.169C78.4837 101.175 78.5033 101.177 78.522 101.172C78.5407 101.168 78.5577 101.158 78.5707 101.143C78.5838 101.129 78.5923 101.112 78.5953 101.093C78.5983 101.074 78.5956 101.054 78.5876 101.037C78.5795 101.019 78.5665 101.004 78.5501 100.994C78.5336 100.984 78.5146 100.979 78.4954 100.98C78.4825 100.98 78.4699 100.983 78.4582 100.989C78.4465 100.994 78.436 101.002 78.4273 101.011C78.4185 101.021 78.4118 101.032 78.4074 101.044C78.403 101.056 78.4011 101.069 78.4017 101.082ZM78.3126 98.6891C78.315 98.7155 78.3275 98.74 78.3476 98.7574C78.3676 98.7748 78.3936 98.7839 78.4201 98.7827C78.4329 98.7823 78.4454 98.7794 78.4571 98.7741C78.4687 98.7688 78.4792 98.7613 78.4879 98.7519C78.4966 98.7425 78.5033 98.7315 78.5077 98.7195C78.5121 98.7075 78.514 98.6947 78.5134 98.682C78.5136 98.657 78.5039 98.633 78.4864 98.6151C78.4689 98.5972 78.4451 98.587 78.4201 98.5867H78.413C78.3999 98.5866 78.3869 98.5891 78.3747 98.594C78.3626 98.5989 78.3515 98.6062 78.3422 98.6154C78.3328 98.6246 78.3254 98.6355 78.3203 98.6476C78.3153 98.6597 78.3126 98.6726 78.3126 98.6857V98.6895V98.6891ZM73.7919 99.0899C73.8164 99.0968 73.8425 99.0946 73.8655 99.0839C73.8886 99.0732 73.907 99.0546 73.9174 99.0314C73.9269 99.0076 73.9266 98.9811 73.9164 98.9576C73.9063 98.934 73.8873 98.9155 73.8635 98.906H73.8593C73.8365 98.8963 73.8109 98.896 73.7878 98.9051C73.7648 98.9141 73.7463 98.9319 73.7363 98.9545C73.7363 98.9579 73.7338 98.9608 73.7325 98.9645C73.7238 98.9892 73.725 99.0163 73.7358 99.04C73.7467 99.0638 73.7663 99.0825 73.7907 99.092L73.7919 99.0899ZM91.072 109.39C91.0768 109.402 91.0838 109.412 91.0927 109.421C91.1016 109.43 91.1122 109.437 91.1239 109.442C91.1356 109.447 91.1481 109.449 91.1608 109.449C91.1734 109.449 91.1859 109.447 91.1975 109.442H91.2013C91.2245 109.432 91.2428 109.413 91.2522 109.389C91.2616 109.366 91.2613 109.34 91.2515 109.316C91.2476 109.305 91.2415 109.295 91.2336 109.286C91.2257 109.277 91.2161 109.27 91.2053 109.265C91.1946 109.259 91.183 109.256 91.1711 109.256C91.1592 109.255 91.1473 109.257 91.136 109.261C91.1316 109.262 91.1274 109.264 91.1235 109.266C91.1002 109.276 91.0819 109.295 91.0725 109.319C91.0631 109.342 91.0634 109.368 91.0733 109.392L91.072 109.39ZM69.109 98.822C69.1216 98.83 69.1357 98.8353 69.1504 98.8378C69.165 98.8404 69.1801 98.84 69.1946 98.8367C69.2091 98.8334 69.2229 98.8272 69.235 98.8186C69.2472 98.81 69.2575 98.7991 69.2655 98.7865C69.2813 98.7607 69.2864 98.7298 69.2798 98.7003C69.2731 98.6708 69.2552 98.645 69.2299 98.6285C69.2064 98.6131 69.1777 98.6076 69.1501 98.6132C69.1225 98.6189 69.0983 98.6352 69.0827 98.6586L69.0801 98.6628C69.0714 98.6744 69.0651 98.6876 69.0615 98.7017C69.0579 98.7158 69.0572 98.7305 69.0593 98.7449C69.0615 98.7593 69.0664 98.7731 69.074 98.7855C69.0815 98.798 69.0914 98.8088 69.1032 98.8174L69.109 98.822ZM78.5602 101.943C78.5624 101.956 78.5672 101.969 78.5743 101.981C78.5815 101.993 78.5909 102.003 78.602 102.011C78.6132 102.019 78.6258 102.025 78.6391 102.028C78.6525 102.031 78.6663 102.031 78.6799 102.029L78.6928 102.026C78.7216 102.019 78.7464 102.002 78.7621 101.977C78.7777 101.951 78.7829 101.921 78.7765 101.893C78.769 101.864 78.7514 101.839 78.7268 101.822C78.7022 101.806 78.6725 101.799 78.6431 101.802C78.6284 101.806 78.6147 101.813 78.6027 101.822C78.5907 101.831 78.5806 101.842 78.5731 101.856C78.5655 101.869 78.5605 101.883 78.5586 101.898C78.5566 101.913 78.5576 101.928 78.5615 101.943H78.5602ZM77.9687 99.273C77.9722 99.2875 77.9786 99.3012 77.9874 99.3133C77.9962 99.3254 78.0074 99.3356 78.0202 99.3433C78.0329 99.3511 78.0471 99.3563 78.0619 99.3585C78.0767 99.3608 78.0918 99.3602 78.1063 99.3566C78.1351 99.3498 78.16 99.332 78.1757 99.3069C78.1914 99.2819 78.1965 99.2517 78.19 99.2229C78.1824 99.1942 78.1647 99.1693 78.1402 99.1527C78.1157 99.1361 78.0859 99.129 78.0565 99.1326C78.0271 99.1413 78.002 99.1605 77.9858 99.1866C77.9696 99.2126 77.9635 99.2436 77.9687 99.2738V99.273ZM73.0092 100.686C73.0219 100.695 73.0361 100.702 73.0511 100.707C73.0793 100.712 73.1084 100.705 73.1319 100.689C73.1554 100.672 73.1715 100.647 73.1766 100.619V100.614C73.1812 100.586 73.1752 100.557 73.1598 100.533C73.1443 100.509 73.1205 100.491 73.0929 100.484H73.0858C73.0575 100.479 73.0285 100.486 73.005 100.502C72.9816 100.519 72.9655 100.544 72.9603 100.572V100.576C72.9564 100.597 72.959 100.619 72.9677 100.638C72.9765 100.658 72.991 100.674 73.0092 100.685V100.686ZM73.4351 97.882C73.429 97.9103 73.4344 97.94 73.45 97.9644C73.4657 97.9888 73.4904 98.0061 73.5188 98.0124C73.5482 98.0177 73.5786 98.0117 73.6039 97.9957C73.6291 97.9797 73.6474 97.9547 73.6551 97.9259C73.6588 97.8958 73.6513 97.8654 73.6343 97.8403C73.6172 97.8153 73.5916 97.7973 73.5623 97.7896C73.5477 97.7872 73.5329 97.7877 73.5185 97.791C73.5042 97.7944 73.4907 97.8005 73.4787 97.8091C73.4667 97.8177 73.4566 97.8285 73.4488 97.841C73.441 97.8535 73.4358 97.8674 73.4334 97.882H73.4351ZM83.1988 111.306C83.2068 111.319 83.2174 111.33 83.2299 111.339C83.2423 111.348 83.2564 111.354 83.2713 111.357C83.2862 111.36 83.3015 111.36 83.3164 111.357C83.3312 111.354 83.3453 111.348 83.3578 111.339C83.3703 111.33 83.3809 111.319 83.3889 111.307C83.397 111.294 83.4024 111.279 83.4047 111.264C83.4071 111.249 83.4063 111.234 83.4026 111.219C83.3988 111.205 83.3921 111.191 83.3829 111.179C83.3687 111.155 83.3454 111.137 83.3182 111.13C83.291 111.123 83.262 111.127 83.2377 111.141L83.2302 111.146C83.2051 111.163 83.1878 111.19 83.182 111.22C83.1761 111.25 83.1821 111.281 83.1988 111.306ZM77.7792 103.979C77.7872 103.992 77.7978 104.003 77.8102 104.011C77.8227 104.02 77.8368 104.026 77.8516 104.029C77.8665 104.032 77.8819 104.032 77.8967 104.029C77.9116 104.026 77.9257 104.02 77.9382 104.011C77.9506 104.003 77.9612 103.992 77.9693 103.979C77.9774 103.966 77.9827 103.952 77.9851 103.937C77.9874 103.922 77.9867 103.906 77.9829 103.892C77.9792 103.877 77.9725 103.863 77.9632 103.851C77.9563 103.839 77.947 103.829 77.9359 103.82C77.9249 103.812 77.9123 103.806 77.8988 103.802C77.8853 103.799 77.8713 103.798 77.8575 103.8C77.8438 103.801 77.8305 103.806 77.8185 103.813L77.8106 103.818C77.7855 103.835 77.7683 103.862 77.7624 103.892C77.7566 103.922 77.7626 103.953 77.7792 103.979ZM69.0412 105.926C69.0493 105.939 69.0598 105.95 69.0723 105.959C69.0848 105.968 69.0988 105.974 69.1137 105.977C69.1286 105.98 69.1439 105.98 69.1588 105.977C69.1737 105.974 69.1878 105.968 69.2002 105.959C69.2127 105.951 69.2233 105.94 69.2314 105.927C69.2394 105.914 69.2448 105.899 69.2471 105.884C69.2495 105.869 69.2488 105.854 69.245 105.839C69.2412 105.825 69.2346 105.811 69.2253 105.799C69.2111 105.775 69.1878 105.757 69.1606 105.75C69.1334 105.743 69.1045 105.747 69.0801 105.761L69.0726 105.766C69.0474 105.783 69.0301 105.81 69.0242 105.84C69.0184 105.87 69.0245 105.901 69.0412 105.926ZM70.9146 101.401C70.9321 101.423 70.9578 101.439 70.9862 101.443C71.0147 101.447 71.0437 101.441 71.0674 101.424C71.0911 101.408 71.1075 101.383 71.1133 101.355C71.1192 101.327 71.1139 101.297 71.0987 101.273C71.0917 101.261 71.0824 101.25 71.0713 101.242C71.0602 101.233 71.0476 101.227 71.0341 101.224C71.0206 101.22 71.0065 101.219 70.9927 101.221C70.9789 101.223 70.9655 101.228 70.9535 101.235L70.946 101.24C70.9208 101.257 70.9035 101.284 70.8977 101.314C70.8918 101.344 70.8979 101.375 70.9146 101.401ZM83.0884 106.927C83.1059 106.95 83.1316 106.965 83.16 106.97C83.1885 106.974 83.2175 106.967 83.2412 106.951C83.2649 106.935 83.2813 106.91 83.2871 106.882C83.2929 106.853 83.2877 106.824 83.2724 106.8C83.2654 106.788 83.2561 106.777 83.245 106.769C83.2339 106.76 83.2213 106.754 83.2078 106.75C83.1943 106.747 83.1802 106.746 83.1664 106.748C83.1526 106.75 83.1393 106.755 83.1273 106.762L83.1198 106.766C83.0946 106.784 83.0773 106.81 83.0715 106.84C83.0656 106.87 83.0717 106.901 83.0884 106.927ZM83.7803 107.869C83.7972 107.893 83.8232 107.91 83.8524 107.915C83.8817 107.921 83.9119 107.914 83.9364 107.897C83.9608 107.88 83.9776 107.854 83.9829 107.825C83.9882 107.796 83.9817 107.766 83.9648 107.741C83.9506 107.717 83.9273 107.699 83.9001 107.692C83.8729 107.685 83.8439 107.689 83.8196 107.703L83.8121 107.708C83.787 107.726 83.7697 107.752 83.7638 107.782C83.7579 107.812 83.7638 107.843 83.7803 107.869ZM68.7455 111.975C68.7394 112.026 68.7531 112.077 68.7838 112.118C68.8146 112.16 68.86 112.187 68.9107 112.196C68.961 112.204 69.0124 112.192 69.0537 112.162C69.0949 112.132 69.1226 112.087 69.1308 112.037C69.1374 111.985 69.1236 111.933 69.0923 111.892C69.061 111.85 69.0148 111.823 68.9634 111.815C68.9385 111.811 68.913 111.812 68.8884 111.818C68.8638 111.824 68.8407 111.834 68.8202 111.849C68.7998 111.864 68.7825 111.883 68.7693 111.904C68.7561 111.926 68.7473 111.95 68.7434 111.975H68.7455ZM69.4633 107.344C69.459 107.369 69.4595 107.394 69.465 107.419C69.4705 107.443 69.4807 107.467 69.4952 107.487C69.5097 107.508 69.5282 107.525 69.5495 107.539C69.5708 107.552 69.5945 107.562 69.6194 107.566H69.6219C69.6714 107.574 69.7223 107.563 69.7634 107.534C69.8045 107.505 69.8324 107.461 69.8411 107.412V107.407C69.845 107.359 69.8309 107.312 69.8017 107.274C69.7725 107.236 69.7302 107.21 69.6831 107.202C69.6361 107.194 69.5876 107.203 69.5472 107.229C69.5067 107.254 69.4773 107.294 69.4646 107.34V107.343L69.4633 107.344ZM70.1745 102.714C70.1677 102.765 70.1814 102.818 70.2127 102.859C70.244 102.901 70.2904 102.928 70.3419 102.936C70.3794 102.94 70.4175 102.934 70.4513 102.917C70.4851 102.9 70.5132 102.873 70.5321 102.841C70.5509 102.808 70.5598 102.77 70.5574 102.733C70.5551 102.695 70.5417 102.659 70.519 102.629C70.4962 102.598 70.4651 102.576 70.4295 102.563C70.3938 102.55 70.3552 102.548 70.3185 102.557C70.2818 102.567 70.2486 102.586 70.223 102.614C70.1974 102.642 70.1805 102.677 70.1745 102.714ZM70.8953 98.0843C70.8894 98.1217 70.8948 98.1601 70.9107 98.1945C70.9266 98.2289 70.9524 98.2579 70.9848 98.2777C71.0172 98.2975 71.0547 98.3072 71.0926 98.3057C71.1305 98.3042 71.1672 98.2916 71.1979 98.2693C71.2286 98.247 71.252 98.2161 71.2651 98.1805C71.2783 98.145 71.2806 98.1063 71.2718 98.0694C71.263 98.0325 71.2434 97.9991 71.2156 97.9733C71.1877 97.9475 71.1529 97.9306 71.1154 97.9246C71.0659 97.916 71.015 97.9273 70.9739 97.9562C70.9328 97.985 70.9049 98.029 70.8962 98.0784V98.0843H70.8953ZM87.7868 107.515C87.8186 107.556 87.8648 107.583 87.9161 107.591C87.9673 107.599 88.0196 107.587 88.0621 107.557C88.1026 107.527 88.1294 107.481 88.1367 107.431C88.1439 107.381 88.1309 107.33 88.1005 107.289C88.0725 107.248 88.0292 107.219 87.9801 107.21C87.9311 107.201 87.8804 107.211 87.8391 107.239L87.832 107.244C87.7916 107.276 87.7648 107.321 87.7571 107.372C87.7493 107.422 87.7611 107.474 87.7901 107.516L87.7868 107.515ZM84.553 103.09C84.5678 103.11 84.5865 103.128 84.608 103.141C84.6295 103.154 84.6535 103.163 84.6785 103.167C84.7035 103.171 84.729 103.171 84.7537 103.165C84.7783 103.159 84.8016 103.148 84.8222 103.134C84.8428 103.119 84.8602 103.1 84.8736 103.079C84.8869 103.057 84.8959 103.033 84.9 103.008C84.9041 102.983 84.9033 102.958 84.8975 102.933C84.8917 102.909 84.8811 102.885 84.8663 102.865C84.8524 102.844 84.8346 102.827 84.814 102.813C84.7933 102.8 84.7701 102.79 84.7458 102.786C84.7216 102.781 84.6966 102.782 84.6724 102.787C84.6482 102.792 84.6253 102.801 84.6049 102.815L84.5978 102.82C84.557 102.851 84.5299 102.897 84.522 102.948C84.5142 102.998 84.5264 103.05 84.5559 103.092L84.553 103.09ZM81.1448 99.8068C81.1747 99.848 81.2197 99.8757 81.2699 99.884C81.3202 99.8923 81.3717 99.8805 81.4133 99.8511C81.4542 99.8188 81.4812 99.7722 81.489 99.7208C81.4967 99.6693 81.4846 99.6168 81.4552 99.574C81.4408 99.554 81.4226 99.5372 81.4016 99.5243C81.3807 99.5114 81.3574 99.5027 81.3331 99.4989C81.3088 99.495 81.284 99.4959 81.2601 99.5016C81.2362 99.5073 81.2136 99.5177 81.1937 99.5322L81.1878 99.5368C81.1673 99.5513 81.1498 99.5698 81.1363 99.5911C81.1229 99.6125 81.1138 99.6362 81.1096 99.6611C81.1053 99.6859 81.106 99.7114 81.1117 99.7359C81.1173 99.7605 81.1276 99.7837 81.1422 99.8043V99.8072L81.1448 99.8068ZM77.8783 109.592C77.8925 109.641 77.9246 109.683 77.9681 109.709C78.0117 109.736 78.0637 109.746 78.1139 109.736C78.1627 109.722 78.2042 109.689 78.2296 109.645C78.255 109.601 78.2622 109.549 78.2498 109.5C78.2394 109.451 78.2098 109.408 78.1677 109.38C78.1256 109.353 78.0743 109.344 78.0252 109.354H78.021C77.9706 109.366 77.9273 109.398 77.9005 109.443C77.8738 109.487 77.8658 109.541 77.8783 109.591V109.592ZM76.4083 105.345C76.4202 105.395 76.4516 105.438 76.4955 105.465C76.5394 105.492 76.5923 105.501 76.6425 105.489C76.6925 105.477 76.7356 105.446 76.7624 105.402C76.7892 105.358 76.7974 105.306 76.7854 105.256C76.7734 105.206 76.742 105.163 76.6982 105.136C76.6543 105.109 76.6017 105.101 76.5518 105.113C76.5273 105.118 76.5041 105.129 76.4836 105.143C76.463 105.157 76.4455 105.176 76.432 105.197C76.4185 105.218 76.4093 105.241 76.405 105.266C76.4006 105.291 76.4012 105.316 76.4066 105.34V105.343L76.4083 105.345ZM75.6862 100.471C75.6966 100.52 75.7262 100.563 75.7683 100.59C75.8104 100.617 75.8617 100.627 75.9109 100.616H75.9146C75.953 100.609 75.9881 100.59 76.0156 100.562C76.0431 100.534 76.0616 100.499 76.0687 100.46C76.0758 100.422 76.0713 100.382 76.0557 100.346C76.04 100.311 76.014 100.28 75.981 100.259C75.948 100.238 75.9094 100.228 75.8703 100.229C75.8312 100.23 75.7934 100.243 75.7617 100.266C75.73 100.289 75.7058 100.321 75.6924 100.357C75.6789 100.394 75.6768 100.434 75.6862 100.472V100.471ZM75.0645 111.093C75.0733 111.129 75.0925 111.162 75.1197 111.188C75.1469 111.213 75.181 111.23 75.2177 111.236C75.2544 111.242 75.2921 111.238 75.3262 111.223C75.3603 111.208 75.3892 111.183 75.4094 111.152C75.4296 111.12 75.4402 111.084 75.4399 111.047C75.4396 111.01 75.4283 110.973 75.4076 110.942C75.3868 110.912 75.3574 110.887 75.3231 110.873C75.2887 110.859 75.2509 110.855 75.2143 110.862C75.1638 110.873 75.1197 110.903 75.0917 110.947C75.0636 110.99 75.0539 111.043 75.0645 111.093ZM73.7426 106.092C73.753 106.143 73.7829 106.187 73.8259 106.216C73.8688 106.244 73.9213 106.254 73.9718 106.244C74.0208 106.233 74.0635 106.203 74.0915 106.162C74.1195 106.12 74.1305 106.069 74.1224 106.02C74.1112 105.969 74.0812 105.924 74.0384 105.895C73.9957 105.866 73.9433 105.854 73.8919 105.861C73.842 105.873 73.7985 105.904 73.7707 105.947C73.7428 105.99 73.7328 106.042 73.7426 106.092ZM73.2565 101.927C73.2635 101.965 73.2815 101.999 73.3081 102.026C73.3347 102.054 73.3688 102.072 73.406 102.08C73.4433 102.088 73.482 102.085 73.5174 102.071C73.5529 102.057 73.5834 102.033 73.6051 102.002C73.6268 101.97 73.6388 101.933 73.6396 101.895C73.6404 101.857 73.6299 101.82 73.6095 101.788C73.589 101.756 73.5595 101.73 73.5247 101.715C73.4899 101.699 73.4513 101.695 73.4138 101.701C73.3635 101.711 73.3192 101.741 73.2899 101.783C73.2606 101.825 73.2487 101.877 73.2565 101.927ZM72.3595 97.3449C72.3669 97.3931 72.393 97.4364 72.4322 97.4654C72.4713 97.4945 72.5204 97.5069 72.5687 97.4999L72.5808 97.4978C72.6303 97.4874 72.6737 97.4582 72.7018 97.4162C72.73 97.3743 72.7406 97.323 72.7314 97.2734C72.7217 97.2244 72.6931 97.1812 72.6517 97.1531C72.6104 97.125 72.5596 97.1143 72.5104 97.1233C72.4613 97.1323 72.4176 97.1603 72.3889 97.2012C72.3602 97.2421 72.3487 97.2927 72.357 97.3419V97.3449H72.3595ZM82.0233 104.91C82.0524 104.953 82.0971 104.982 82.1477 104.991C82.1982 105.001 82.2505 104.99 82.2931 104.961C82.3348 104.933 82.3634 104.889 82.3729 104.839C82.3824 104.79 82.3719 104.738 82.3437 104.696C82.3184 104.654 82.2773 104.623 82.2295 104.611C82.1816 104.599 82.1309 104.607 82.0885 104.632L82.0797 104.637C82.0582 104.651 82.0395 104.669 82.0249 104.69C82.0103 104.711 81.9999 104.735 81.9944 104.76C81.989 104.785 81.9885 104.811 81.993 104.836C81.9975 104.861 82.0069 104.885 82.0208 104.907L82.0233 104.91ZM80.2888 101.438C80.3181 101.478 80.3619 101.506 80.411 101.514C80.4601 101.523 80.5107 101.513 80.5522 101.485C80.5937 101.457 80.6228 101.415 80.6335 101.366C80.6441 101.317 80.6354 101.266 80.6093 101.224C80.584 101.181 80.5429 101.151 80.495 101.139C80.4472 101.127 80.3965 101.134 80.3541 101.159L80.3449 101.165C80.3015 101.193 80.2709 101.237 80.26 101.287C80.2491 101.338 80.2587 101.391 80.2867 101.434L80.2888 101.438ZM76.0694 98.6941C76.0908 98.7252 76.1209 98.7493 76.1559 98.7634C76.1909 98.7775 76.2293 98.7811 76.2663 98.7736C76.3034 98.7662 76.3374 98.748 76.3641 98.7214C76.3909 98.6948 76.4093 98.661 76.417 98.624C76.4247 98.5871 76.4214 98.5487 76.4075 98.5137C76.3935 98.4786 76.3696 98.4484 76.3386 98.4268C76.3077 98.4052 76.2711 98.3931 76.2333 98.3921C76.1956 98.3911 76.1584 98.4012 76.1263 98.4212C76.1047 98.435 76.0861 98.4529 76.0715 98.4739C76.0568 98.4949 76.0465 98.5185 76.041 98.5435C76.0355 98.5685 76.035 98.5944 76.0395 98.6196C76.044 98.6448 76.0535 98.6688 76.0673 98.6903L76.0694 98.6941ZM75.1532 103.031C75.1677 103.066 75.1955 103.094 75.2304 103.108C75.2654 103.123 75.3048 103.123 75.3398 103.108L75.3457 103.106C75.3798 103.09 75.4066 103.062 75.4206 103.027C75.4345 102.992 75.4345 102.954 75.4206 102.919C75.4144 102.902 75.405 102.886 75.3927 102.872C75.3805 102.859 75.3657 102.848 75.3492 102.84C75.3328 102.832 75.3149 102.828 75.2967 102.827C75.2785 102.826 75.2603 102.829 75.2432 102.835L75.2285 102.841C75.1943 102.857 75.1674 102.885 75.1534 102.92C75.1393 102.955 75.1393 102.994 75.1532 103.029V103.031ZM73.7765 99.7976C73.7836 99.8161 73.7943 99.8329 73.8081 99.8471C73.822 99.8613 73.8385 99.8726 73.8568 99.8802C73.8751 99.8878 73.8948 99.8915 73.9146 99.8913C73.9344 99.8911 73.954 99.8868 73.9721 99.8788C73.9902 99.8707 74.0065 99.8591 74.02 99.8445C74.0334 99.83 74.0438 99.8129 74.0504 99.7942C74.057 99.7756 74.0598 99.7558 74.0585 99.736C74.0572 99.7162 74.0519 99.6969 74.043 99.6793C74.0285 99.6443 74.0007 99.6164 73.9658 99.6019C73.9308 99.5873 73.8914 99.5872 73.8564 99.6015L73.8509 99.6045C73.8159 99.6208 73.7886 99.65 73.7748 99.686C73.7609 99.722 73.7615 99.762 73.7765 99.7976ZM72.3993 96.557C72.4112 96.5831 72.4305 96.6051 72.4549 96.6202C72.4793 96.6353 72.5076 96.6429 72.5363 96.642C72.565 96.6412 72.5928 96.6318 72.6162 96.6152C72.6396 96.5985 72.6575 96.5754 72.6677 96.5486C72.678 96.5218 72.6801 96.4926 72.6738 96.4646C72.6674 96.4366 72.653 96.4112 72.6322 96.3914C72.6114 96.3716 72.5853 96.3584 72.557 96.3534C72.5287 96.3484 72.4996 96.3519 72.4733 96.3634C72.4381 96.3796 72.4106 96.4089 72.3967 96.4451C72.3829 96.4813 72.3838 96.5214 72.3993 96.557ZM67.7557 102.668C67.757 102.707 67.7731 102.743 67.8007 102.769C67.8282 102.796 67.865 102.811 67.9033 102.811C67.9411 102.808 67.9765 102.791 68.0027 102.764C68.0288 102.736 68.0438 102.7 68.0447 102.662C68.0445 102.643 68.0404 102.625 68.0329 102.607C68.0253 102.59 68.0144 102.574 68.0008 102.56C67.9871 102.547 67.9709 102.537 67.9532 102.53C67.9355 102.523 67.9166 102.519 67.8975 102.519C67.8792 102.519 67.861 102.523 67.844 102.529C67.8269 102.536 67.8114 102.546 67.7983 102.559C67.7852 102.572 67.7748 102.587 67.7676 102.604C67.7604 102.621 67.7567 102.639 67.7565 102.657C67.7563 102.661 67.7563 102.665 67.7565 102.668H67.7557ZM80.5407 98.4956C80.5663 98.5223 80.6015 98.5377 80.6385 98.5385C80.6756 98.5393 80.7114 98.5253 80.7381 98.4997L80.7431 98.4947C80.7707 98.4682 80.7866 98.4318 80.7874 98.3936C80.7881 98.3554 80.7738 98.3184 80.7473 98.2908L80.7406 98.2841C80.7147 98.2581 80.6795 98.2436 80.6427 98.2436C80.606 98.2436 80.5708 98.2581 80.5448 98.2841L80.5398 98.2895C80.5131 98.3162 80.4981 98.3525 80.4981 98.3902C80.4981 98.428 80.5131 98.4642 80.5398 98.491V98.4939L80.5407 98.4956ZM69.3805 99.1576C69.3993 99.1862 69.4287 99.2061 69.4621 99.2131C69.4956 99.2201 69.5305 99.2135 69.5591 99.1949C69.58 99.1807 69.5963 99.1608 69.606 99.1376C69.6157 99.1143 69.6184 99.0888 69.6137 99.064C69.6091 99.0393 69.5973 99.0164 69.5798 98.9983C69.5623 98.9802 69.5399 98.9675 69.5153 98.9619C69.4908 98.9564 69.4651 98.9581 69.4415 98.9669C69.4179 98.9757 69.3973 98.9912 69.3824 99.0115C69.3675 99.0318 69.3589 99.056 69.3576 99.0812C69.3563 99.1063 69.3624 99.1313 69.3751 99.153L69.3805 99.1576Z" fill="white"/>
<path d="M90.5803 32.0809C90.5803 32.0809 90.3744 35.9991 89.2378 37.8642C89.2378 37.8642 94.7332 38.9472 97.193 39.8918L97.68 34.8635L90.5803 32.0809Z" fill="url(#paint5_linear_113_3800)"/>
<path d="M100.794 35.0173C103.853 33.77 105.385 30.7396 106.043 30.8303C106.701 30.921 108.157 30.7676 108.325 30.078C108.485 29.3891 107.631 26.8478 107.444 24.4202C107.425 24.1959 107.421 23.9707 107.431 23.7459C107.431 23.7347 107.434 23.7301 107.427 23.7209L107.432 23.5955C107.436 23.4412 107.438 23.1775 107.421 22.8289C107.151 20.4217 106.859 19.903 106.2 19.3291C104.611 17.9393 103.572 15.7399 98.1296 15.7156C95.2924 15.7027 91.8072 15.6383 89.1189 19.3291C86.2867 23.2164 88.6617 27.8016 89.7627 28.8044C90.8638 29.8071 92.231 30.3818 91.5537 31.5405C91.3077 31.8358 90.9608 32.0294 90.5802 32.0839L90.873 32.3271C90.9651 32.4041 91.061 32.4764 91.1608 32.5441L92.5439 33.4858C95.0339 35.1602 97.9259 36.1901 100.794 35.0173Z" fill="#FFBEB6"/>
<path d="M103.266 23.5198C101.071 22.3775 100.806 23.8237 98.6286 25.5713C96.4516 27.3189 94.5289 26.3186 91.6549 25.6131C88.7808 24.9075 88.6599 27.7987 89.7598 28.804C90.8596 29.8092 92.2309 30.3781 91.554 31.5384C90.8772 32.6987 86.2687 33.4996 83.5219 25.4735C78.7946 11.6708 89.3699 9.88897 94.8113 9.49481C104.793 8.7717 110.059 15.1083 110.059 15.1083L113.925 13.9451C114.426 18.2566 109.651 25.4751 103.266 23.5198Z" fill="url(#paint6_linear_113_3800)"/>
<path d="M89.08 38.3875C89.08 38.3875 82.3999 40.2032 74.9868 51.3771C68.277 61.4923 69.2614 64.4918 65.1754 70.1709C61.0894 75.8501 58.5325 82.5704 59.8834 91.0028C59.8834 91.0028 80.0893 103.976 105.313 94.5038L98.0626 41.2507C95.5149 40.2906 91.7615 38.8565 89.08 38.3875Z" fill="#3E96F4"/>
<path d="M108.868 24.9523C108.743 25.3033 108.524 25.6136 108.236 25.8498C107.947 26.086 107.6 26.2392 107.231 26.2929C106.861 26.3465 106.485 26.2987 106.141 26.1545C105.797 26.0103 105.499 25.7751 105.278 25.4743C105.092 25.2235 105.449 24.8858 105.638 25.1399C105.798 25.3779 106.022 25.567 106.283 25.6865C106.544 25.8061 106.833 25.8513 107.118 25.8174C107.404 25.7834 107.674 25.6716 107.9 25.4941C108.126 25.3166 108.298 25.0804 108.399 24.8114C108.513 24.5192 108.984 24.658 108.868 24.9523Z" fill="#1C2868"/>
<path d="M145.858 67.8967H185.08V99.3069H145.858V67.8967Z" fill="url(#paint7_linear_113_3800)"/>
<path d="M144.285 67.8967H186.487V73.9227H144.285V67.8967Z" fill="#428DFC"/>
<path opacity="0.86" d="M183.923 84.9746C183.927 84.9569 183.928 84.9385 183.925 84.9205C183.922 84.9024 183.916 84.8851 183.906 84.8696C183.897 84.854 183.884 84.8405 183.869 84.8298C183.854 84.8192 183.838 84.8116 183.82 84.8074H183.817C183.781 84.7984 183.743 84.8038 183.71 84.8225C183.678 84.8411 183.655 84.8716 183.644 84.9073C183.637 84.944 183.644 84.9821 183.663 85.014C183.683 85.046 183.714 85.0695 183.749 85.08C183.768 85.0846 183.787 85.0855 183.805 85.0827C183.824 85.0799 183.842 85.0734 183.858 85.0636C183.874 85.0538 183.888 85.0408 183.899 85.0256C183.91 85.0103 183.918 84.993 183.923 84.9746Z" fill="#FCC25F"/>
<path opacity="0.86" d="M180.493 82.4249C180.491 82.3886 180.474 82.3547 180.447 82.3306C180.419 82.3064 180.384 82.2939 180.347 82.2958C180.312 82.2975 180.279 82.3131 180.256 82.339C180.232 82.365 180.22 82.3992 180.222 82.4341V82.4417C180.224 82.478 180.241 82.5118 180.268 82.5359C180.296 82.56 180.331 82.5724 180.368 82.5704C180.386 82.5692 180.403 82.5644 180.419 82.5565C180.435 82.5485 180.449 82.5374 180.461 82.5239C180.473 82.5103 180.482 82.4946 180.487 82.4776C180.493 82.4607 180.495 82.4428 180.493 82.4249Z" fill="#FCC25F"/>
<path opacity="0.86" d="M183.678 82.3409C183.714 82.3365 183.748 82.3187 183.772 82.2908C183.796 82.2629 183.808 82.2271 183.807 82.1904C183.806 82.1726 183.801 82.1551 183.793 82.1391C183.785 82.1231 183.774 82.1089 183.761 82.0972C183.747 82.0855 183.731 82.0767 183.714 82.0712C183.697 82.0656 183.679 82.0636 183.661 82.0651C183.643 82.0651 183.624 82.0689 183.607 82.0764C183.59 82.0838 183.574 82.0946 183.561 82.1082C183.549 82.1218 183.539 82.1379 183.532 82.1554C183.526 82.173 183.523 82.1917 183.524 82.2103C183.525 82.229 183.53 82.2472 183.538 82.2639C183.547 82.2807 183.558 82.2955 183.573 82.3076C183.587 82.3196 183.604 82.3287 183.621 82.3341C183.639 82.3396 183.658 82.3413 183.677 82.3392L183.678 82.3409Z" fill="#FCC25F"/>
<path opacity="0.86" d="M183.868 88.7419C183.85 88.7131 183.822 88.6919 183.789 88.6823C183.757 88.6728 183.722 88.6755 183.691 88.69C183.66 88.7045 183.635 88.7297 183.622 88.761C183.608 88.7923 183.607 88.8274 183.617 88.8598C183.634 88.8911 183.663 88.9147 183.697 88.9257C183.731 88.9367 183.768 88.9343 183.8 88.9189C183.832 88.9035 183.857 88.8763 183.87 88.843C183.883 88.8097 183.882 88.7728 183.868 88.7398V88.7419Z" fill="#FCC25F"/>
<path opacity="0.86" d="M183.315 79.423C183.318 79.4074 183.319 79.3913 183.316 79.3755C183.314 79.3598 183.308 79.3447 183.3 79.3311C183.291 79.3175 183.28 79.3058 183.267 79.2965C183.254 79.2873 183.239 79.2807 183.224 79.2771C183.193 79.2691 183.161 79.2733 183.134 79.289C183.107 79.3047 183.087 79.3304 183.078 79.3607V79.3657C183.072 79.398 183.077 79.4316 183.095 79.4597C183.112 79.4877 183.139 79.5081 183.171 79.5166C183.203 79.5221 183.235 79.5155 183.262 79.4981C183.288 79.4807 183.307 79.4539 183.315 79.423Z" fill="#FCC25F"/>
<path opacity="0.86" d="M182.678 87.1498C182.757 87.1498 182.821 87.0862 182.821 87.0077C182.821 86.9292 182.757 86.8656 182.678 86.8656C182.6 86.8656 182.536 86.9292 182.536 87.0077C182.536 87.0862 182.6 87.1498 182.678 87.1498Z" fill="#FCC25F"/>
<path opacity="0.86" d="M182.873 76.2133C182.884 76.1805 182.883 76.1444 182.867 76.1131C182.852 76.0817 182.825 76.0577 182.793 76.0461L182.782 76.0428C182.749 76.0316 182.712 76.034 182.68 76.0497C182.648 76.0653 182.624 76.0929 182.612 76.1264C182.6 76.1607 182.602 76.1982 182.618 76.231C182.634 76.2637 182.662 76.289 182.696 76.3015C182.731 76.3114 182.769 76.3078 182.801 76.2915C182.834 76.2752 182.86 76.2473 182.873 76.2133Z" fill="#FCC25F"/>
<path opacity="0.86" d="M182.116 91.6268C182.111 91.5895 182.091 91.5558 182.06 91.5331C182.03 91.5105 181.992 91.5006 181.955 91.5056C181.918 91.5117 181.885 91.5321 181.863 91.5624C181.841 91.5928 181.832 91.6305 181.838 91.6674C181.844 91.7044 181.865 91.7377 181.895 91.7603C181.925 91.7828 181.962 91.793 182 91.7886C182.037 91.7824 182.07 91.762 182.091 91.7317C182.113 91.7014 182.122 91.6637 182.116 91.6268Z" fill="#FCC25F"/>
<path opacity="0.86" d="M173.793 90.3014C173.797 90.2858 173.797 90.2697 173.795 90.2539C173.792 90.2381 173.786 90.2231 173.778 90.2095C173.769 90.196 173.758 90.1842 173.745 90.175C173.732 90.1657 173.717 90.1591 173.702 90.1556C173.671 90.1476 173.639 90.152 173.612 90.1676C173.585 90.1833 173.565 90.209 173.557 90.2392V90.2442C173.55 90.2765 173.556 90.3101 173.573 90.3382C173.591 90.3663 173.618 90.3868 173.65 90.3955C173.681 90.4009 173.713 90.3943 173.74 90.3768C173.767 90.3593 173.786 90.3324 173.793 90.3014Z" fill="#FCC25F"/>
<path opacity="0.86" d="M179.848 90.2621C179.889 90.2621 179.922 90.229 179.922 90.1882C179.922 90.1473 179.889 90.1142 179.848 90.1142C179.807 90.1142 179.774 90.1473 179.774 90.1882C179.774 90.229 179.807 90.2621 179.848 90.2621Z" fill="#FCC25F"/>
<path opacity="0.86" d="M176.497 88.1455C176.503 88.1286 176.506 88.1106 176.505 88.0927C176.504 88.0748 176.5 88.0573 176.492 88.0411C176.484 88.0249 176.473 88.0105 176.46 87.9985C176.446 87.9866 176.431 87.9774 176.414 87.9716C176.379 87.9598 176.342 87.962 176.309 87.9776C176.276 87.9932 176.251 88.0211 176.238 88.0552C176.228 88.0904 176.232 88.128 176.249 88.1605C176.266 88.193 176.294 88.2182 176.328 88.2311C176.362 88.2422 176.399 88.2394 176.43 88.2234C176.462 88.2073 176.486 88.1793 176.497 88.1455Z" fill="#FCC25F"/>
<path opacity="0.86" d="M175.918 88.4485C175.888 88.4273 175.851 88.4184 175.814 88.4237C175.778 88.429 175.745 88.448 175.723 88.4769C175.701 88.5082 175.692 88.5466 175.698 88.5842C175.704 88.6219 175.723 88.6558 175.754 88.6792C175.784 88.7002 175.822 88.7086 175.859 88.7026C175.896 88.6966 175.929 88.6767 175.952 88.647C175.963 88.6318 175.971 88.6145 175.975 88.5962C175.979 88.578 175.979 88.5591 175.976 88.5406C175.973 88.5221 175.966 88.5045 175.956 88.4887C175.946 88.4729 175.933 88.4592 175.918 88.4485Z" fill="#FCC25F"/>
<path opacity="0.86" d="M179.65 89.1917C179.661 89.1573 179.659 89.1198 179.643 89.0871C179.628 89.0543 179.6 89.029 179.566 89.0165C179.549 89.0106 179.531 89.008 179.513 89.009C179.495 89.01 179.478 89.0145 179.462 89.0223C179.446 89.0301 179.431 89.0409 179.419 89.0543C179.407 89.0676 179.398 89.0832 179.392 89.1001V89.1068C179.386 89.123 179.384 89.1402 179.385 89.1574C179.386 89.1746 179.39 89.1914 179.397 89.2069C179.405 89.2225 179.415 89.2364 179.428 89.2479C179.441 89.2594 179.455 89.2683 179.472 89.274H179.478C179.512 89.2851 179.548 89.2827 179.58 89.2674C179.612 89.252 179.637 89.2249 179.65 89.1917Z" fill="#FCC25F"/>
<path opacity="0.86" d="M182.541 90.1543C182.529 90.1886 182.532 90.2261 182.547 90.2587C182.563 90.2914 182.591 90.3166 182.625 90.329C182.66 90.3396 182.698 90.3362 182.731 90.3195C182.764 90.3029 182.789 90.2742 182.801 90.2396C182.811 90.205 182.807 90.1678 182.791 90.1359C182.774 90.104 182.745 90.08 182.711 90.069C182.678 90.0575 182.642 90.0594 182.61 90.0742C182.579 90.0891 182.555 90.1158 182.543 90.1484L182.541 90.1543Z" fill="#FCC25F"/>
<path opacity="0.86" d="M181.53 90.1764V90.1827C181.529 90.2015 181.536 90.2198 181.549 90.2336C181.562 90.2474 181.579 90.2557 181.598 90.2567C181.618 90.2558 181.636 90.2478 181.65 90.2341C181.664 90.2204 181.672 90.2021 181.673 90.1827C181.673 90.1632 181.665 90.1446 181.651 90.1307C181.638 90.1169 181.619 90.1088 181.599 90.1083C181.581 90.1083 181.564 90.1154 181.551 90.1282C181.538 90.1409 181.53 90.1582 181.53 90.1764Z" fill="#FCC25F"/>
<path opacity="0.86" d="M177.539 85.6426C177.558 85.6161 177.566 85.5835 177.561 85.5515C177.556 85.5195 177.539 85.4905 177.513 85.4708C177.487 85.4519 177.454 85.4441 177.422 85.4492C177.39 85.4543 177.362 85.4718 177.343 85.498V85.5013C177.333 85.5132 177.326 85.5269 177.322 85.5415C177.318 85.5561 177.317 85.5714 177.319 85.5865C177.321 85.6015 177.325 85.6161 177.333 85.6293C177.34 85.6425 177.35 85.6541 177.362 85.6635L177.368 85.6681C177.394 85.6872 177.425 85.6957 177.457 85.6917C177.488 85.6877 177.516 85.6716 177.536 85.6468C177.536 85.6468 177.538 85.6443 177.539 85.6426Z" fill="#FCC25F"/>
<path opacity="0.86" d="M181.216 93.1976C181.22 93.2063 181.225 93.2142 181.232 93.2208C181.238 93.2274 181.246 93.2326 181.255 93.2362C181.264 93.2397 181.273 93.2415 181.282 93.2414C181.292 93.2413 181.301 93.2394 181.31 93.2357C181.327 93.2296 181.34 93.2171 181.348 93.201C181.356 93.1848 181.357 93.1662 181.351 93.1491L181.348 93.142C181.341 93.1243 181.328 93.11 181.31 93.1022C181.293 93.0944 181.273 93.0937 181.255 93.1002C181.238 93.1086 181.224 93.1233 181.217 93.1413C181.209 93.1594 181.209 93.1795 181.216 93.1976Z" fill="#FCC25F"/>
<path opacity="0.86" d="M182.119 95.5488C182.119 95.5682 182.125 95.5872 182.138 95.6019C182.15 95.6166 182.168 95.6259 182.188 95.6278C182.197 95.628 182.207 95.6263 182.216 95.6228C182.225 95.6193 182.233 95.6141 182.24 95.6074C182.247 95.6007 182.253 95.5927 182.256 95.5839C182.26 95.575 182.262 95.5655 182.263 95.5559V95.5534C182.264 95.5352 182.258 95.5173 182.246 95.5035C182.234 95.4897 182.217 95.4812 182.199 95.4798H182.194C182.175 95.4792 182.156 95.4862 182.142 95.4991C182.128 95.512 182.12 95.5298 182.119 95.5488Z" fill="#FCC25F"/>
<path opacity="0.86" d="M183.952 93.2273L183.958 93.2315L183.939 93.1203C183.926 93.1364 183.921 93.1566 183.923 93.1766C183.926 93.1966 183.936 93.2148 183.952 93.2273Z" fill="#FCC25F"/>
<path opacity="0.86" d="M179.954 87.355C179.967 87.3282 179.97 87.2977 179.962 87.269C179.954 87.2403 179.937 87.2152 179.912 87.1982C179.888 87.1813 179.858 87.1735 179.829 87.1764C179.799 87.1792 179.772 87.1925 179.751 87.2138C179.732 87.2408 179.725 87.274 179.731 87.3063C179.737 87.3386 179.755 87.3673 179.781 87.3864C179.807 87.405 179.839 87.4128 179.87 87.4082C179.901 87.4036 179.93 87.3869 179.949 87.3617L179.954 87.355Z" fill="#FCC25F"/>
<path opacity="0.86" d="M181.701 95.7774C181.695 95.7989 181.698 95.8217 181.709 95.8408C181.721 95.8599 181.739 95.8738 181.761 95.8794C181.783 95.8834 181.806 95.8789 181.825 95.8669C181.844 95.855 181.858 95.8363 181.864 95.8146C181.867 95.7931 181.861 95.7713 181.849 95.7533C181.837 95.7353 181.819 95.7223 181.798 95.7168C181.777 95.7127 181.755 95.7167 181.737 95.7279C181.719 95.7392 181.706 95.7569 181.701 95.7774Z" fill="#FCC25F"/>
<path opacity="0.86" d="M183.661 92.9431C183.653 92.9609 183.652 92.9813 183.658 92.9999C183.665 93.0184 183.679 93.0336 183.697 93.0421C183.705 93.0461 183.714 93.0483 183.723 93.0487C183.733 93.0491 183.742 93.0477 183.751 93.0445C183.759 93.0413 183.767 93.0364 183.774 93.0301C183.781 93.0238 183.786 93.0163 183.79 93.0078V93.0053C183.794 92.9976 183.797 92.9891 183.798 92.9803C183.799 92.9716 183.798 92.9627 183.795 92.9543C183.793 92.9459 183.788 92.9381 183.783 92.9314C183.777 92.9247 183.77 92.9191 183.762 92.915C183.76 92.9136 183.757 92.9125 183.754 92.9117C183.746 92.9076 183.737 92.9052 183.728 92.9046C183.719 92.904 183.71 92.9051 183.701 92.908C183.692 92.911 183.684 92.9156 183.677 92.9216C183.671 92.9276 183.665 92.9349 183.661 92.9431Z" fill="#FCC25F"/>
<path opacity="0.86" d="M173.351 87.0921C173.357 87.0759 173.359 87.0587 173.358 87.0414C173.358 87.0242 173.353 87.0073 173.346 86.9918C173.338 86.9762 173.328 86.9623 173.315 86.9508C173.302 86.9394 173.287 86.9306 173.271 86.9249L173.261 86.9216C173.227 86.9102 173.19 86.9125 173.158 86.9282C173.126 86.9439 173.102 86.9716 173.09 87.0052C173.079 87.0395 173.081 87.0769 173.097 87.1095C173.112 87.1422 173.14 87.1674 173.174 87.1799C173.209 87.1898 173.247 87.1863 173.279 87.1701C173.312 87.1539 173.338 87.1261 173.351 87.0921Z" fill="#FCC25F"/>
<path opacity="0.86" d="M179.713 86.5187V86.5157C179.719 86.4983 179.718 86.4791 179.71 86.4623C179.702 86.4455 179.688 86.4325 179.671 86.4259C179.655 86.4177 179.637 86.4161 179.62 86.4213C179.603 86.4266 179.588 86.4382 179.58 86.4539C179.578 86.4565 179.577 86.4593 179.577 86.4622C179.569 86.4801 179.569 86.5003 179.577 86.5182C179.584 86.5362 179.598 86.5505 179.616 86.558C179.634 86.5654 179.654 86.5655 179.672 86.5581C179.69 86.5508 179.704 86.5366 179.712 86.5187H179.713Z" fill="#FCC25F"/>
<path opacity="0.86" d="M178.603 90.714C178.681 90.714 178.744 90.6507 178.744 90.5727C178.744 90.4946 178.681 90.4314 178.603 90.4314C178.525 90.4314 178.461 90.4946 178.461 90.5727C178.461 90.6507 178.525 90.714 178.603 90.714Z" fill="#FCC25F"/>
<path opacity="0.86" d="M170.971 93.3034C170.969 93.2672 170.952 93.2334 170.925 93.2093C170.898 93.1853 170.862 93.1728 170.826 93.1746C170.809 93.1754 170.791 93.1797 170.776 93.1871C170.76 93.1945 170.746 93.205 170.734 93.2179C170.723 93.2308 170.714 93.2459 170.708 93.2623C170.702 93.2787 170.699 93.2961 170.7 93.3134V93.3205C170.703 93.3568 170.72 93.3907 170.747 93.4149C170.774 93.439 170.81 93.4515 170.846 93.4497C170.864 93.4484 170.881 93.4436 170.897 93.4355C170.913 93.4275 170.928 93.4163 170.939 93.4027C170.951 93.3891 170.96 93.3733 170.965 93.3563C170.971 93.3392 170.973 93.3212 170.971 93.3034Z" fill="#FCC25F"/>
<path opacity="0.86" d="M183.012 95.3055C183.026 95.3368 183.052 95.361 183.085 95.3728C183.117 95.3847 183.153 95.3831 183.184 95.3686L183.192 95.3649C183.209 95.3579 183.225 95.3475 183.238 95.3343C183.25 95.3212 183.26 95.3056 183.267 95.2885C183.274 95.2714 183.277 95.2531 183.276 95.2347C183.276 95.2164 183.272 95.1983 183.264 95.1816C183.256 95.165 183.245 95.15 183.231 95.1377C183.218 95.1254 183.202 95.116 183.184 95.1101C183.167 95.1041 183.149 95.1017 183.13 95.1031C183.112 95.1044 183.094 95.1094 183.078 95.1178L183.072 95.1208C183.04 95.1365 183.015 95.1644 183.004 95.1982C182.992 95.232 182.994 95.2691 183.01 95.3013L183.012 95.3055Z" fill="#FCC25F"/>
<path opacity="0.86" d="M179.916 95.3883C179.919 95.3667 179.913 95.3449 179.901 95.3269C179.889 95.3089 179.871 95.2959 179.85 95.2905C179.829 95.2863 179.807 95.2902 179.789 95.3014C179.771 95.3127 179.758 95.3305 179.752 95.3511C179.749 95.3607 179.748 95.3708 179.749 95.3809C179.75 95.3909 179.753 95.4006 179.758 95.4095C179.763 95.4183 179.769 95.4262 179.777 95.4325C179.785 95.4388 179.794 95.4436 179.804 95.4464H179.813C179.835 95.4522 179.857 95.4493 179.876 95.4384C179.896 95.4275 179.91 95.4095 179.916 95.3883Z" fill="#FCC25F"/>
<path opacity="0.86" d="M180.444 95.5638C180.483 95.5638 180.515 95.5318 180.515 95.4923C180.515 95.4529 180.483 95.4209 180.444 95.4209C180.404 95.4209 180.372 95.4529 180.372 95.4923C180.372 95.5318 180.404 95.5638 180.444 95.5638Z" fill="#FCC25F"/>
<path opacity="0.86" d="M180.846 95.7532C180.861 95.751 180.876 95.7459 180.889 95.738C180.902 95.7302 180.914 95.7199 180.923 95.7075C180.932 95.6952 180.939 95.6812 180.943 95.6663C180.947 95.6514 180.947 95.6359 180.945 95.6207C180.946 95.6185 180.946 95.6162 180.945 95.614C180.943 95.5987 180.938 95.5841 180.93 95.5708C180.922 95.5576 180.912 95.546 180.9 95.5367C180.887 95.5275 180.873 95.5208 180.858 95.517C180.843 95.5132 180.828 95.5123 180.813 95.5145H180.805C180.789 95.5172 180.775 95.523 180.761 95.5315C180.748 95.54 180.736 95.5511 180.727 95.564C180.709 95.5902 180.702 95.6226 180.707 95.6541C180.713 95.6856 180.731 95.7136 180.757 95.7319C180.783 95.7503 180.815 95.7575 180.847 95.7519L180.846 95.7532Z" fill="#FCC25F"/>
<path opacity="0.86" d="M183.77 95.2658C183.802 95.2604 183.83 95.2427 183.848 95.2167C183.867 95.1907 183.874 95.1585 183.869 95.127C183.863 95.0951 183.846 95.0666 183.819 95.0473C183.793 95.0281 183.761 95.0197 183.729 95.0238C183.718 95.0222 183.707 95.0232 183.696 95.0269C183.686 95.0305 183.676 95.0366 183.669 95.0447C183.667 95.0463 183.665 95.0484 183.664 95.0507C183.663 95.053 183.662 95.0555 183.662 95.0581V95.0631C183.649 95.077 183.64 95.0937 183.634 95.112C183.629 95.1302 183.629 95.1494 183.633 95.168C183.638 95.1991 183.656 95.2269 183.681 95.2452C183.707 95.2635 183.739 95.2709 183.77 95.2658Z" fill="#FCC25F"/>
<path opacity="0.86" d="M183.144 94.3107C183.154 94.3018 183.162 94.2909 183.168 94.2788C183.174 94.2667 183.178 94.2535 183.178 94.2401C183.179 94.2266 183.177 94.2132 183.173 94.2005C183.168 94.1878 183.161 94.1761 183.152 94.1661L183.149 94.1632C183.14 94.153 183.129 94.1448 183.116 94.139C183.104 94.1331 183.091 94.1298 183.077 94.1291C183.063 94.1285 183.05 94.1305 183.037 94.1351C183.024 94.1397 183.012 94.1469 183.002 94.1561L182.996 94.1615C182.987 94.1712 182.979 94.1827 182.973 94.1955C182.968 94.2082 182.965 94.2219 182.965 94.2357C182.965 94.2495 182.968 94.2632 182.973 94.2759C182.979 94.2887 182.987 94.3002 182.996 94.3099C183.016 94.3296 183.043 94.3407 183.071 94.3407C183.099 94.3407 183.126 94.3296 183.145 94.3099L183.144 94.3107Z" fill="#FCC25F"/>
<path opacity="0.86" d="M178.026 96.1009C178.019 96.0692 178 96.0413 177.973 96.023C177.946 96.0046 177.913 95.9971 177.881 96.0019C177.85 96.0074 177.822 96.0252 177.803 96.0513C177.785 96.0775 177.777 96.1099 177.782 96.1415C177.785 96.1568 177.79 96.1715 177.798 96.1848C177.806 96.1981 177.816 96.2097 177.829 96.2189C177.841 96.2281 177.855 96.2349 177.87 96.2386C177.885 96.2424 177.901 96.2432 177.916 96.241H177.923C177.955 96.2355 177.984 96.2179 178.003 96.1918C178.022 96.1657 178.031 96.1331 178.026 96.1009Z" fill="#FCC25F"/>
<path opacity="0.86" d="M177.724 96.661V96.6531C177.729 96.6358 177.731 96.6177 177.728 96.5998C177.726 96.582 177.72 96.5648 177.711 96.5493C177.702 96.5337 177.69 96.5201 177.676 96.5092C177.662 96.4983 177.645 96.4904 177.628 96.4859L177.619 96.4838C177.584 96.475 177.546 96.4806 177.515 96.4994C177.483 96.5182 177.461 96.5487 177.452 96.5841C177.447 96.6023 177.446 96.6212 177.449 96.6398C177.452 96.6583 177.458 96.6761 177.468 96.6921C177.478 96.7082 177.491 96.7221 177.506 96.7332C177.521 96.7443 177.538 96.7523 177.556 96.7568C177.574 96.7615 177.592 96.7628 177.61 96.7606C177.627 96.7583 177.645 96.7526 177.66 96.7437C177.676 96.7348 177.69 96.723 177.701 96.7088C177.712 96.6946 177.72 96.6784 177.724 96.661Z" fill="#FCC25F"/>
<path opacity="0.86" d="M174.401 95.8531C174.405 95.8354 174.406 95.817 174.403 95.799C174.4 95.781 174.394 95.7637 174.384 95.7482C174.375 95.7327 174.362 95.7192 174.347 95.7085C174.333 95.6978 174.316 95.6901 174.298 95.6859H174.295C174.259 95.6768 174.221 95.6821 174.189 95.7006C174.157 95.7192 174.133 95.7496 174.123 95.7854C174.115 95.822 174.122 95.8601 174.141 95.892C174.161 95.924 174.191 95.9475 174.227 95.958C174.246 95.9627 174.265 95.9637 174.283 95.9609C174.302 95.9581 174.32 95.9517 174.336 95.9419C174.352 95.9321 174.366 95.9193 174.378 95.904C174.389 95.8888 174.397 95.8714 174.401 95.8531Z" fill="#FCC25F"/>
<path opacity="0.86" d="M171.6 96.9043C171.678 96.9043 171.742 96.8407 171.742 96.7622C171.742 96.6837 171.678 96.6201 171.6 96.6201C171.521 96.6201 171.457 96.6837 171.457 96.7622C171.457 96.8407 171.521 96.9043 171.6 96.9043Z" fill="#FCC25F"/>
<path opacity="0.86" d="M180.381 94.1372C180.391 94.1223 180.399 94.1055 180.402 94.0878C180.406 94.0701 180.406 94.0519 180.402 94.0342C180.399 94.0165 180.392 93.9996 180.382 93.9846C180.372 93.9696 180.359 93.9567 180.344 93.9466L180.339 93.9433C180.308 93.9228 180.27 93.9153 180.234 93.9223C180.198 93.9294 180.166 93.9504 180.145 93.9809C180.134 93.9962 180.125 94.0137 180.12 94.0324C180.116 94.051 180.115 94.0704 180.118 94.0894C180.121 94.1084 180.128 94.1266 180.138 94.1428C180.149 94.1591 180.162 94.1731 180.178 94.1839C180.194 94.1948 180.212 94.2023 180.231 94.206C180.25 94.2097 180.269 94.2095 180.288 94.2054C180.307 94.2014 180.325 94.1935 180.34 94.1824C180.356 94.1713 180.369 94.157 180.379 94.1406L180.381 94.1372Z" fill="#FCC25F"/>
<path opacity="0.86" d="M175.102 96.5875C175.095 96.5557 175.076 96.5278 175.049 96.5094C175.022 96.491 174.99 96.4835 174.957 96.4884C174.942 96.4911 174.927 96.4968 174.913 96.5053C174.9 96.5138 174.888 96.5248 174.879 96.5378C174.87 96.5507 174.863 96.5654 174.86 96.5809C174.856 96.5963 174.856 96.6124 174.859 96.628C174.864 96.6599 174.882 96.6885 174.908 96.7077C174.934 96.727 174.966 96.7354 174.998 96.7313C175.031 96.7259 175.061 96.7078 175.08 96.6808C175.1 96.6539 175.107 96.6203 175.102 96.5875Z" fill="#FCC25F"/>
<path opacity="0.86" d="M177.467 92.9849H177.472C177.508 92.9825 177.542 92.9659 177.566 92.9387C177.591 92.9115 177.603 92.8758 177.601 92.8394C177.597 92.8028 177.579 92.7692 177.551 92.7453C177.523 92.7213 177.487 92.7086 177.45 92.7098C177.433 92.7107 177.416 92.715 177.4 92.7224C177.385 92.7298 177.37 92.7403 177.359 92.7532C177.347 92.7661 177.338 92.7811 177.332 92.7975C177.327 92.8139 177.324 92.8312 177.325 92.8486V92.8557C177.327 92.8916 177.343 92.9253 177.369 92.9495C177.396 92.9737 177.431 92.9865 177.467 92.9849Z" fill="#FCC25F"/>
<path opacity="0.86" d="M179.666 93.9149C179.706 93.9149 179.738 93.8829 179.738 93.8434C179.738 93.8039 179.706 93.7719 179.666 93.7719C179.627 93.7719 179.594 93.8039 179.594 93.8434C179.594 93.8829 179.627 93.9149 179.666 93.9149Z" fill="#FCC25F"/>
<path opacity="0.86" d="M177.544 92.2526C177.554 92.2376 177.561 92.2208 177.564 92.2032C177.568 92.1855 177.568 92.1673 177.564 92.1496C177.561 92.132 177.554 92.1152 177.544 92.1002C177.534 92.0852 177.521 92.0724 177.506 92.0624L177.501 92.059C177.47 92.0385 177.433 92.0309 177.397 92.0378C177.36 92.0448 177.328 92.0658 177.307 92.0962C177.296 92.1115 177.288 92.129 177.284 92.1475C177.279 92.166 177.279 92.1851 177.282 92.2039C177.285 92.2226 177.292 92.2405 177.302 92.2565C177.312 92.2726 177.326 92.2863 177.341 92.2971C177.357 92.3078 177.375 92.3153 177.393 92.3191C177.412 92.3228 177.431 92.3228 177.45 92.319C177.469 92.3152 177.486 92.3077 177.502 92.2969C177.518 92.2862 177.531 92.2724 177.541 92.2563L177.544 92.2526Z" fill="#FCC25F"/>
<path opacity="0.86" d="M179.568 91.6323C179.576 91.6007 179.57 91.5676 179.553 91.5402C179.536 91.5127 179.508 91.4932 179.477 91.486C179.462 91.4817 179.447 91.4803 179.432 91.4819C179.417 91.4834 179.402 91.488 179.389 91.4952C179.376 91.5024 179.364 91.5122 179.355 91.5239C179.345 91.5357 179.338 91.5492 179.334 91.5637L179.331 91.575C179.327 91.5905 179.327 91.6066 179.329 91.6224C179.332 91.6381 179.338 91.6531 179.346 91.6666C179.355 91.6802 179.366 91.6919 179.379 91.7011C179.392 91.7103 179.406 91.7169 179.422 91.7205H179.424C179.455 91.7264 179.487 91.7206 179.513 91.7043C179.54 91.688 179.56 91.6623 179.568 91.6323Z" fill="#FCC25F"/>
<path opacity="0.86" d="M182.319 92.0946H182.321C182.331 92.1007 182.341 92.1049 182.352 92.1071C182.363 92.1092 182.374 92.1092 182.384 92.107C182.395 92.1048 182.406 92.1006 182.415 92.0944C182.424 92.0883 182.432 92.0804 182.438 92.0712C182.444 92.0627 182.448 92.0532 182.45 92.0432C182.452 92.0332 182.453 92.0228 182.451 92.0126C182.449 92.0025 182.445 91.9928 182.44 91.9841C182.434 91.9754 182.427 91.968 182.419 91.9621L182.414 91.9591C182.397 91.947 182.375 91.9421 182.354 91.9457C182.333 91.9494 182.315 91.9611 182.303 91.9784C182.29 91.996 182.284 92.0181 182.287 92.0398C182.29 92.0616 182.301 92.0812 182.319 92.0946Z" fill="#FCC25F"/>
<path opacity="0.86" d="M182.457 92.2927C182.463 92.261 182.456 92.2282 182.439 92.2011C182.421 92.174 182.394 92.1544 182.363 92.1464C182.347 92.1429 182.331 92.1426 182.315 92.1454C182.299 92.1482 182.284 92.1542 182.27 92.1629C182.256 92.1717 182.245 92.183 182.235 92.1963C182.226 92.2096 182.22 92.2246 182.216 92.2405C182.21 92.2715 182.216 92.3037 182.232 92.3307C182.249 92.3576 182.275 92.3774 182.305 92.3859C182.338 92.3927 182.371 92.3868 182.4 92.3695C182.428 92.3522 182.448 92.3247 182.457 92.2927Z" fill="#FCC25F"/>
<path opacity="0.86" d="M182.201 92.2822C182.209 92.267 182.21 92.2494 182.205 92.2331C182.2 92.2168 182.189 92.2029 182.175 92.1945C182.172 92.1929 182.169 92.1916 182.166 92.1907C182.148 92.1831 182.129 92.1826 182.111 92.1895C182.093 92.1963 182.079 92.2099 182.072 92.2273C182.064 92.2446 182.063 92.2643 182.07 92.282C182.077 92.2997 182.091 92.3139 182.108 92.3215C182.126 92.3281 182.145 92.3277 182.162 92.3204C182.18 92.3131 182.194 92.2994 182.201 92.2822Z" fill="#FCC25F"/>
<path opacity="0.86" d="M182.832 92.5226C182.839 92.5404 182.852 92.5548 182.87 92.5626C182.887 92.5704 182.907 92.5711 182.925 92.5644C182.943 92.5561 182.957 92.5415 182.965 92.5234C182.973 92.5054 182.973 92.4852 182.967 92.4666C182.958 92.4491 182.943 92.4355 182.925 92.4285C182.907 92.4214 182.887 92.4215 182.868 92.4285C182.851 92.4362 182.838 92.4504 182.831 92.468C182.824 92.4856 182.824 92.5052 182.832 92.5226Z" fill="#FCC25F"/>
<path opacity="0.86" d="M174.157 93.2193C174.194 93.2151 174.227 93.1972 174.252 93.1694C174.276 93.1415 174.288 93.1056 174.287 93.0689C174.286 93.051 174.281 93.0336 174.273 93.0176C174.265 93.0017 174.254 92.9874 174.24 92.9758C174.227 92.9641 174.211 92.9553 174.194 92.9497C174.177 92.9442 174.159 92.9421 174.141 92.9435C174.105 92.9456 174.07 92.9622 174.046 92.9895C174.022 93.0167 174.01 93.0525 174.012 93.0889C174.014 93.1254 174.03 93.1594 174.058 93.1836C174.085 93.2079 174.121 93.2203 174.157 93.2181V93.2193Z" fill="#FCC25F"/>
<path opacity="0.86" d="M176.681 90.9669C176.685 90.9513 176.685 90.9352 176.683 90.9195C176.68 90.9037 176.674 90.8886 176.666 90.8751C176.657 90.8616 176.646 90.8499 176.633 90.8407C176.62 90.8314 176.606 90.8249 176.59 90.8214C176.575 90.8173 176.559 90.8162 176.544 90.8182C176.528 90.8202 176.514 90.8252 176.5 90.833C176.487 90.8408 176.475 90.8511 176.465 90.8635C176.456 90.8759 176.449 90.89 176.445 90.905V90.9096C176.438 90.9407 176.443 90.9736 176.46 91.0009C176.476 91.0282 176.503 91.0478 176.534 91.0555C176.565 91.0621 176.598 91.0566 176.625 91.0401C176.653 91.0237 176.673 90.9975 176.681 90.9669Z" fill="#FCC25F"/>
<path opacity="0.86" d="M180.783 92.7533C180.801 92.7521 180.819 92.7474 180.835 92.7395C180.851 92.7315 180.866 92.7204 180.878 92.7069C180.889 92.6933 180.899 92.6776 180.904 92.6605C180.91 92.6434 180.913 92.6254 180.911 92.6074V92.6037C180.91 92.5858 180.905 92.5684 180.897 92.5524C180.889 92.5365 180.878 92.5222 180.864 92.5106C180.851 92.4989 180.835 92.4901 180.818 92.4845C180.801 92.479 180.783 92.4768 180.765 92.4783C180.729 92.4807 180.695 92.4975 180.671 92.5249C180.647 92.5523 180.635 92.5881 180.638 92.6244C180.64 92.6607 180.657 92.6945 180.684 92.7185C180.712 92.7424 180.747 92.7545 180.784 92.7521L180.783 92.7533Z" fill="#FCC25F"/>
<path opacity="0.86" d="M181.286 92.696C181.315 92.718 181.352 92.7274 181.389 92.7222C181.426 92.7169 181.458 92.6975 181.481 92.668L181.483 92.6643C181.494 92.6499 181.503 92.6336 181.507 92.616C181.512 92.5985 181.514 92.5802 181.511 92.5621C181.509 92.5441 181.503 92.5267 181.494 92.5109C181.485 92.4952 181.473 92.4814 181.458 92.4703L181.456 92.4682C181.424 92.4466 181.386 92.4378 181.348 92.4436C181.31 92.4494 181.276 92.4695 181.253 92.4996C181.232 92.5301 181.223 92.5677 181.229 92.6045C181.235 92.6412 181.256 92.6741 181.286 92.696Z" fill="#FCC25F"/>
<path d="M166.236 99.4063C166.167 99.4063 166.101 99.3805 166.05 99.3341C166 99.2877 165.968 99.224 165.962 99.1556C165.068 88.6632 164.932 78.1202 165.554 67.6083C165.561 67.5375 165.595 67.4721 165.649 67.4258C165.703 67.3794 165.773 67.3558 165.844 67.3598C165.915 67.3638 165.981 67.3951 166.03 67.4472C166.078 67.4994 166.104 67.5682 166.103 67.6392C165.482 78.1249 165.618 88.6417 166.51 99.1079C166.513 99.1439 166.509 99.1802 166.498 99.2146C166.487 99.2491 166.47 99.281 166.446 99.3086C166.423 99.3362 166.394 99.3589 166.362 99.3754C166.33 99.3919 166.295 99.4018 166.259 99.4047L166.236 99.4063Z" fill="#FCC25F"/>
<path d="M164.587 100.127C164.517 100.127 164.449 100.1 164.398 100.051C164.347 100.003 164.316 99.9371 164.313 99.867C164.192 97.5768 164.05 95.2767 163.911 93.0538C163.514 86.6512 163.133 80.5114 163.204 74.2517C162.265 80.4466 161.238 84.6474 160.954 91.7234C160.834 94.7157 160.877 97.5547 161.263 99.2438C161.276 99.3153 161.261 99.3892 161.22 99.4492C161.179 99.5093 161.115 99.5505 161.044 99.5639C160.972 99.5773 160.898 99.5618 160.838 99.5207C160.778 99.4797 160.737 99.4164 160.723 99.3449C160.378 97.5803 160.2 95.7869 160.195 93.9889C160.042 88.6905 162.407 75.9951 163.461 67.6672C163.47 67.5966 163.506 67.5325 163.562 67.4881C163.618 67.4437 163.689 67.4225 163.76 67.429C163.831 67.4357 163.897 67.4701 163.943 67.5248C163.989 67.5795 164.012 67.6501 164.007 67.7216C163.421 76.2902 163.926 84.4162 164.46 93.02C164.579 94.9364 164.701 96.9072 164.81 98.8835C164.813 98.8985 164.815 98.9139 164.816 98.9294L164.862 99.8402C164.865 99.9128 164.84 99.9839 164.791 100.038C164.742 100.092 164.674 100.124 164.601 100.127L164.587 100.127Z" fill="#FCC25F"/>
<path d="M111.066 14.9123L82.7099 23.2222L82.361 22.4857L82.0234 21.2899C81.5541 19.6998 81.4036 18.0328 81.5803 16.3845C81.757 14.7361 82.2575 13.1389 83.0531 11.6841C83.8487 10.2294 84.9239 8.94583 86.2169 7.90697C87.5099 6.86812 88.9953 6.09439 90.5881 5.63014L94.239 4.54338C95.8958 4.05498 97.6326 3.89769 99.3503 4.08053C101.068 4.26336 102.733 4.78272 104.249 5.6089C105.766 6.43509 107.105 7.55189 108.189 8.89543C109.273 10.239 110.082 11.7829 110.568 13.4389L110.718 14.1758L111.066 14.9123Z" fill="url(#paint8_linear_113_3800)"/>
<path d="M126.508 11.2834L82.8182 24.1468L82.3689 22.5522L124.801 10.1025C124.971 10.0496 125.15 10.0314 125.328 10.0488C125.505 10.0663 125.677 10.1191 125.833 10.2041C125.989 10.2892 126.127 10.4048 126.238 10.544C126.349 10.6832 126.43 10.8432 126.478 11.0146L126.508 11.2854V11.2834Z" fill="url(#paint9_linear_113_3800)"/>
<path d="M77.2602 46.1532C78.55 44.6005 79.9796 43.1693 81.5311 41.8776C83.0792 40.5587 84.8172 39.48 86.6867 38.678C87.6468 38.283 88.6529 38.0109 89.6812 37.8679C90.7271 37.7339 91.7877 37.7683 92.8226 37.9699C93.8685 38.1566 94.8765 38.5145 95.8058 39.0291C96.754 39.5631 97.5837 40.2843 98.2443 41.1487C99.573 42.8858 100.177 44.9996 100.434 47.0422C100.66 49.0782 100.668 51.1323 100.458 53.1699C100.261 55.1776 99.9542 57.173 99.5378 59.147C99.3413 60.1547 99.0932 61.1517 98.7944 62.1339C98.4941 63.1196 98.1506 64.0855 97.7728 65.0364C96.2478 68.8355 94.2103 72.4086 91.7169 75.6565C90.4687 77.2978 89.0909 78.8364 87.5966 80.2577C86.0963 81.695 84.469 82.994 82.7346 84.1387C80.9972 85.3052 79.1419 86.2859 77.1991 87.0646C76.2175 87.4565 75.2137 87.7906 74.1929 88.0652C73.1648 88.3305 72.1201 88.5271 71.0658 88.6537C66.8676 89.1513 62.6152 88.4142 58.8301 86.5329L59.5639 84.6469C63.1286 85.7254 66.8965 85.9557 70.5663 85.3195C71.4634 85.1513 72.3494 84.9279 73.219 84.6507C74.0955 84.383 74.9556 84.0641 75.7947 83.6956C77.4899 82.9403 79.1181 82.0433 80.6622 81.0142C82.2257 79.9886 83.7044 78.8394 85.0841 77.5776C85.7768 76.9477 86.4395 76.2793 87.0833 75.5922C87.7271 74.905 88.3588 74.2015 88.9575 73.4688C91.3743 70.5274 93.4204 67.3005 95.0498 63.8606C95.4535 63.0013 95.8254 62.1285 96.1547 61.2457C96.4893 60.3554 96.7542 59.4927 97.011 58.541C97.5307 56.6835 97.9476 54.7989 98.2598 52.8957C98.5825 51.0231 98.6948 49.1203 98.5944 47.2228C98.4618 45.3653 98.0314 43.5174 97.0081 42.054C95.9368 40.5798 94.3461 39.566 92.5565 39.2168C90.7288 38.8163 88.8218 38.9894 87.0963 39.7125C85.3216 40.4434 83.6782 41.4588 82.231 42.7186C80.7539 43.9604 79.4217 45.3647 78.2596 46.9047L77.2602 46.1532Z" fill="#E94A47"/>
<path d="M143.643 96.1327C143.315 94.7358 145.552 90.7533 144.228 89.7911C142.997 88.8966 141.43 92.3303 138.658 93.9199C136.492 95.1617 134.57 96.1001 132.529 96.1895C126.529 96.4525 113.923 92.1644 113.923 92.1644L111.171 105.885C115.159 106.373 127.013 102.264 133.066 102.407C137.689 102.517 137.959 106.237 143.539 106.237C149.138 106.237 157.018 103.608 157.018 99.3595C157.017 95.5166 144.44 99.52 143.643 96.1327Z" fill="#FFBEB6"/>
<path d="M96.1463 41.2247C96.1463 41.2247 96.4973 57.1027 99.6997 66.8739C102.902 76.6451 105.313 78.7605 111.786 82.5704C117.452 85.9059 125.357 87.9624 125.357 87.9624L124.764 115.817C124.764 115.817 115.798 116.844 109.555 110.887C102.534 104.188 98.2397 104.897 93.397 104.617C88.5542 104.338 77.94 100.939 76.4101 85.3161C74.8803 69.6932 78.1592 58.4941 88.773 39.4701C90.1095 39.0395 91.5361 38.9685 92.9088 39.2644C95.236 39.8918 96.1463 41.2247 96.1463 41.2247Z" fill="#5BA6F6"/>
</g>
<defs>
<linearGradient id="paint0_linear_113_3800" x1="246.665" y1="45.3804" x2="235.048" y2="25.9272" gradientUnits="userSpaceOnUse">
<stop stop-color="#FFBEB6"/>
<stop offset="1" stop-color="#F8AFA9"/>
</linearGradient>
<linearGradient id="paint1_linear_113_3800" x1="110.057" y1="278.828" x2="141.029" y2="276.133" gradientUnits="userSpaceOnUse">
<stop stop-color="#E94A47"/>
<stop offset="0.992" stop-color="#D62929"/>
</linearGradient>
<linearGradient id="paint2_linear_113_3800" x1="247.23" y1="50.9259" x2="256.607" y2="115.543" gradientUnits="userSpaceOnUse">
<stop stop-color="#23286B"/>
<stop offset="0.659" stop-color="#151A4F"/>
</linearGradient>
<linearGradient id="paint3_linear_113_3800" x1="53.9243" y1="24.2527" x2="84.4947" y2="28.3899" gradientUnits="userSpaceOnUse">
<stop stop-color="#23286B"/>
<stop offset="1" stop-color="#151A4F"/>
</linearGradient>
<linearGradient id="paint4_linear_113_3800" x1="116.259" y1="93.2488" x2="160.814" y2="92.4461" gradientUnits="userSpaceOnUse">
<stop stop-color="#FFBEB6"/>
<stop offset="0.647" stop-color="#F7ABA5"/>
<stop offset="1" stop-color="#F2A19C"/>
</linearGradient>
<linearGradient id="paint5_linear_113_3800" x1="93.4589" y1="49.4979" x2="93.4589" y2="29.4184" gradientUnits="userSpaceOnUse">
<stop stop-color="#FFBEB6"/>
<stop offset="1" stop-color="#F2A19C"/>
</linearGradient>
<linearGradient id="paint6_linear_113_3800" x1="307.308" y1="-345.398" x2="338.647" y2="-341.157" gradientUnits="userSpaceOnUse">
<stop stop-color="#23286B"/>
<stop offset="1" stop-color="#151A4F"/>
</linearGradient>
<linearGradient id="paint7_linear_113_3800" x1="145.504" y1="83.4539" x2="184.623" y2="83.4539" gradientUnits="userSpaceOnUse">
<stop stop-color="#428DFC"/>
<stop offset="1" stop-color="#1D72D8"/>
</linearGradient>
<linearGradient id="paint8_linear_113_3800" x1="95.6447" y1="16.2082" x2="116.903" y2="37.5812" gradientUnits="userSpaceOnUse">
<stop stop-color="#E94A47"/>
<stop offset="0.992" stop-color="#D62929"/>
</linearGradient>
<linearGradient id="paint9_linear_113_3800" x1="-161.668" y1="316.301" x2="-121.197" y2="298.697" gradientUnits="userSpaceOnUse">
<stop stop-color="#E94A47"/>
<stop offset="0.992" stop-color="#D62929"/>
</linearGradient>
<clipPath id="clip0_113_3800">
<rect width="135.056" height="198.533" fill="white" transform="translate(177.055 9.14)"/>
</clipPath>
<clipPath id="clip1_113_3800">
<rect width="141.488" height="227.659" fill="white" transform="translate(45 4)"/>
</clipPath>
</defs>
</svg>
