<svg width="107" height="73" viewBox="0 0 107 73" fill="none" xmlns="http://www.w3.org/2000/svg">
<g clip-path="url(#clip0_114_6194)">
<path d="M28.3154 70.3016C43.9533 70.3016 56.6303 57.5774 56.6303 41.8814C56.6303 26.1853 43.9533 13.4611 28.3154 13.4611C12.6776 13.4611 0.000610352 26.1853 0.000610352 41.8814C0.000610352 57.5774 12.6776 70.3016 28.3154 70.3016Z" fill="#FF9800"/>
<path d="M46.0401 59.5764C55.7765 49.8037 55.7765 33.9592 46.0401 24.1866C36.3037 14.414 20.518 14.414 10.7816 24.1866C1.04523 33.9592 1.04523 49.8037 10.7816 59.5764C20.518 69.349 36.3037 69.349 46.0401 59.5764Z" fill="#FFE000"/>
<path d="M40.6858 23.2596C41.9299 23.2206 42.9501 24.1887 43.8139 25.089C44.7083 26.0213 45.6159 26.9731 46.1926 28.1308C46.7693 29.2885 46.9739 30.7055 46.419 31.8739C45.8567 33.058 44.6483 33.7731 43.4867 34.3739C39.9239 36.2178 36.1553 37.6593 32.2741 38.6644C31.0613 36.6937 32.3023 34.1742 33.527 32.211C34.8318 30.1185 36.1372 28.026 37.442 25.9335C38.217 24.691 39.2259 23.306 40.6858 23.2602V23.2596Z" fill="#FFC004"/>
<path d="M21.5188 22.6694C21.9498 21.4495 23.0926 20.5926 24.3154 20.1832C25.5389 19.7739 26.8512 19.7456 28.1403 19.7211C28.2291 19.7193 28.3204 19.7193 28.4105 19.7186C28.5006 19.7193 28.5919 19.7193 28.6807 19.7211C29.9699 19.7456 31.2822 19.7739 32.5056 20.1832C33.7291 20.5926 34.8712 21.4495 35.3022 22.6694C35.7388 23.9056 35.3879 25.2692 34.9901 26.5186C33.7697 30.3508 28.4105 36.5298 28.4105 36.5298C27.9552 37.0007 23.0513 30.3508 21.831 26.5186C21.4331 25.2692 21.0822 23.9056 21.5188 22.6694Z" fill="#FFC004"/>
<path d="M10.629 28.1302C11.2057 26.9725 12.1139 26.0207 13.0078 25.0884C13.8709 24.1881 14.8911 23.22 16.1358 23.2589C17.5957 23.3047 18.6047 24.6897 19.3797 25.9322C20.6844 28.0247 21.9898 30.1172 23.2952 32.2097C24.52 34.1736 25.7609 36.6924 24.5481 38.6631C20.6669 37.6586 16.8977 36.2165 13.3355 34.3726C12.174 33.7718 10.9655 33.0567 10.4032 31.8726C9.84839 30.7042 10.0529 29.2872 10.6296 28.1295L10.629 28.1302Z" fill="#FFC004"/>
<path d="M8.26086 49.6406C7.20065 48.9852 6.8804 47.6134 6.65397 46.3848C6.41941 45.1122 6.1836 43.8157 6.33747 42.5312C6.35749 42.3636 6.38626 42.1966 6.42191 42.0302C6.38626 41.8638 6.35749 41.6962 6.33747 41.5292C6.1836 40.244 6.41941 38.9482 6.65397 37.675C6.8804 36.4463 7.20128 35.0745 8.26086 34.4191C9.50434 33.6506 11.1069 34.2483 12.4354 34.8573C14.6728 35.8826 16.9102 36.9072 19.1476 37.9324C21.0603 38.8088 23.2308 40.0645 23.6561 42.0308C23.2308 43.9971 21.0603 45.2528 19.1476 46.1292C16.9102 47.1545 14.6728 48.1791 12.4354 49.2043C11.1069 49.8127 9.50434 50.411 8.26086 49.6425V49.6406Z" fill="#FFC004"/>
<path d="M16.1359 60.8001C14.8918 60.8391 13.871 59.871 13.0078 58.9707C12.1133 58.0383 11.2057 57.0866 10.629 55.9289C10.0523 54.7712 9.84778 53.3542 10.4026 52.1858C10.9649 51.0017 12.1734 50.2866 13.3349 49.6858C16.8977 47.8419 20.6663 46.4004 24.5475 45.3953C25.7603 47.366 24.5193 49.8854 23.2946 51.8486C21.9892 53.9412 20.6844 56.0337 19.379 58.1262C18.6041 59.3687 17.5951 60.7537 16.1352 60.7995L16.1359 60.8001Z" fill="#FFC004"/>
<path d="M35.3028 61.3897C34.8719 62.6096 33.7291 63.4665 32.5062 63.8759C31.2828 64.2852 29.9705 64.3135 28.6813 64.338C28.5925 64.3398 28.5012 64.3398 28.4111 64.3405C28.3211 64.3398 28.2297 64.3398 28.1409 64.338C26.8518 64.3135 25.5395 64.2852 24.316 63.8759C23.0926 63.4665 21.9504 62.6096 21.5194 61.3897C21.0829 60.1535 21.4338 58.7899 21.8316 57.5405C23.0519 53.7083 28.4111 47.5293 28.4111 47.5293C28.8665 47.059 33.7704 53.7083 34.9907 57.5405C35.3885 58.7899 35.7394 60.1535 35.3028 61.3897Z" fill="#FFC004"/>
<path d="M46.1926 55.9289C45.6159 57.0866 44.7077 58.0384 43.8139 58.9707C42.9507 59.871 41.9299 60.8391 40.6858 60.8002C39.2259 60.7543 38.217 59.3694 37.442 58.1269C36.1372 56.0344 34.8318 53.9418 33.527 51.8493C32.3023 49.8855 31.0613 47.3667 32.2741 45.3959C36.1553 46.4005 39.9246 47.8426 43.4867 49.6865C44.6483 50.2873 45.8567 51.0024 46.419 52.1865C46.9739 53.3548 46.7693 54.7718 46.1926 55.9295V55.9289Z" fill="#FFC004"/>
<path d="M50.4848 42.5312C50.6387 43.8163 50.4029 45.1121 50.1683 46.3847C49.9419 47.6134 49.621 48.9852 48.5614 49.6406C47.3179 50.4097 45.716 49.8114 44.3869 49.2024C42.1495 48.1772 39.9121 47.1525 37.6747 46.1273C35.7619 45.2515 33.5915 43.9952 33.1661 42.0289C33.5915 40.0626 35.7619 38.8069 37.6747 37.9305C39.9121 36.9052 42.1495 35.8806 44.3869 34.8554C45.7154 34.247 47.3179 33.6487 48.5614 34.4172C49.6216 35.0726 49.9419 36.4444 50.1683 37.6731C50.4029 38.9457 50.6387 40.2421 50.4848 41.5273C50.4648 41.6949 50.436 41.8619 50.4004 42.0283C50.436 42.1946 50.4648 42.3623 50.4848 42.5293V42.5312Z" fill="#FFC004"/>
<path d="M18.9036 35.2459C18.9349 35.1862 18.9693 35.1279 19.0018 35.0688C19.1607 35.2239 19.3121 35.3671 19.3302 35.384C19.925 35.9447 20.5512 36.3571 21.3943 36.0426C22.063 35.7934 22.3663 35.168 22.2118 34.4781C22.0173 33.6085 20.8145 32.5507 20.0651 32.1219C19.0687 31.5518 17.9316 31.8004 17.1804 32.6442C16.5036 33.4045 16.0426 34.5421 15.5466 35.428C14.826 36.7156 14.4551 37.9443 14.3269 39.4071C14.2305 40.5014 16.0182 40.885 16.4317 39.8943C17.1241 38.2356 18.0029 36.7878 18.9036 35.2459Z" fill="black"/>
<path d="M42.389 30.5894C41.5627 29.2722 40.8922 27.9632 39.077 28.6764C37.8235 29.1692 37.1617 30.2039 36.4937 31.3114C35.74 32.5614 35.0107 33.5941 34.6616 35.05C34.3139 36.5016 36.3323 37.2097 37.0616 35.9604C37.5664 35.0959 38.2607 34.3663 38.8643 33.5709C38.9707 33.4303 39.2102 33.0102 39.4604 32.6354C39.7244 32.977 40.0077 33.3053 40.3186 33.6167C40.7552 34.0537 41.4382 34.1862 42.0181 34.0104C42.6629 33.8145 43.0464 33.4277 43.1871 32.7447C43.3722 31.845 42.8262 31.2869 42.389 30.5894Z" fill="black"/>
<path d="M21.7508 41.7671C23.1463 43.4804 25.2035 44.6708 26.9637 45.9842C29.0735 47.5581 30.96 49.4014 33.6271 49.8729C36.4756 50.3764 37.4845 49.2564 38.0624 46.6221C38.5253 44.5126 38.6498 42.5858 39.4535 40.5466C39.7062 39.9062 40.4856 39.9954 40.7039 40.6C42.6711 46.0401 42.8487 54.6563 35.1189 54.9005C31.2489 55.0229 28.336 53.4308 25.4218 51.0626C22.6409 48.8025 19.9869 46.8236 19.2451 43.0924C18.9768 41.742 20.7957 40.595 21.7508 41.7677V41.7671Z" fill="black"/>
<path d="M104.23 14.4983C99.1631 13.2671 94.5257 14.0362 90.1648 15.8575C92.0244 12.6198 94.061 9.48324 96.274 6.44583C97.3742 4.93592 97.1778 3.24959 95.9031 1.923C92.3571 -1.76922 87.6653 0.417486 84.8381 3.75938C82.3505 6.69947 80.0568 9.94468 77.9483 13.3073C76.8562 9.62889 74.6601 6.27695 71.4012 3.67337C69.6036 2.23754 66.6362 3.57292 66.9302 6.0164C67.5157 10.8776 66.8064 16.3617 68.3495 20.9862C68.8061 22.3548 75.2599 29.3029 77.1739 26.3101C77.391 25.9705 78.0327 24.9685 78.929 23.5923C78.3098 26.1186 80.895 28.5659 83.2994 27.5796C83.1518 29.6407 85.2872 31.6968 87.5177 30.8574C93.8039 28.4924 99.6548 23.7197 105.564 20.4507C108.298 18.9376 106.722 15.1035 104.231 14.4983H104.23Z" fill="#00D9DA"/>
<path d="M92.0282 26.1337C85.9208 21.6893 79.2343 17.9971 72.4133 14.7908C70.8765 14.0682 69.1095 13.1346 67.2455 12.2845C67.3168 15.2811 67.4463 18.2809 68.3489 20.9855C68.8055 22.3542 75.2593 29.3023 77.1733 26.3095C77.3904 25.9698 78.0321 24.9678 78.9284 23.5916C78.3092 26.118 80.8944 28.5652 83.2988 27.5789C83.1512 29.6401 85.2866 31.6962 87.5171 30.8568C89.7389 30.0205 91.9049 28.876 94.0404 27.6116C93.3648 27.0823 92.6637 26.5945 92.0288 26.1324L92.0282 26.1337Z" fill="#006E66"/>
<path d="M93.3229 42.6429C94.1116 40.5579 95.5709 37.9562 95.3526 35.6421C95.0955 32.918 92.369 31.2398 90.348 29.7694C84.2407 25.3251 77.5542 21.6329 70.7332 18.4266C65.5303 15.9812 57.7185 11.0867 52.2661 15.3641C49.3857 17.6236 48.1541 34.5635 47.7663 38.4353C47.1202 44.8792 47.017 51.4814 48.086 57.8846C48.8816 62.6504 49.8348 69.007 54.4841 71.5416C58.8888 73.9424 65.0775 73.0232 69.5842 71.3495C82.0834 66.708 88.8468 54.4761 93.3235 42.6435L93.3229 42.6429Z" fill="#FF6592"/>
<path d="M61.2857 28.3097C60.7459 26.41 57.9412 25.978 56.7741 27.5036C55.2954 29.4354 54.4153 32.9858 55.2428 35.3225C55.9447 37.3033 58.5705 37.7001 59.9128 36.1569C61.5409 34.286 61.9469 30.6371 61.2857 28.3097Z" fill="#FF3B66"/>
<path d="M62.7219 37.7755C63.0328 39.475 65.0419 40.8593 66.6219 39.5911C68.6347 37.9745 69.7706 34.4737 69.8713 31.9474C69.9157 30.8324 69.5492 29.7864 68.4708 29.2842C67.5038 28.834 66.2184 29.0826 65.5404 29.9308C64.6359 31.0628 64.0623 32.2305 63.5682 33.5797C63.0734 34.9314 62.4555 36.3151 62.7225 37.7748L62.7219 37.7755Z" fill="#FF3B66"/>
<path d="M70.6701 41.1204C71.3387 41.8876 72.0774 42.113 73.0501 41.8751C74.9021 41.4218 75.4307 39.3418 75.9004 37.7478C76.3514 36.2197 76.8105 34.4278 75.7772 33.0366C75.2424 32.3165 74.3517 32.0384 73.506 32.3165C71.8529 32.8608 71.2011 34.6105 70.6895 36.1311C70.1615 37.6988 69.4228 39.6896 70.6694 41.1204H70.6701Z" fill="#FF3B66"/>
<path d="M83.958 38.2055C83.8191 36.4639 81.4592 35.0808 80.0061 36.366C78.3342 37.8445 76.8299 40.1838 76.8399 42.4722C76.8474 44.1723 78.8296 45.1385 80.2638 44.6382C82.6664 43.8 84.1519 40.6364 83.958 38.2055Z" fill="#FF3B66"/>
<path d="M60.876 47.7226C61.0462 46.2642 61.2226 44.7216 60.6396 43.3323C60.1717 42.2179 58.5479 41.3854 57.4821 42.3309C55.1334 44.414 54.2245 49.0894 56.1492 51.7087C56.9348 52.7778 58.5992 52.953 59.4737 51.8688C60.5126 50.5811 60.6896 49.3185 60.8754 47.7232L60.876 47.7226Z" fill="#FF3B66"/>
<path d="M67.7259 51.5323C68.3757 49.7844 68.7204 48.2331 68.0467 46.445C67.6083 45.2811 66.3623 45.05 65.3684 45.5956C63.0109 46.8889 59.844 53.039 63.8053 54.3368C65.8381 55.0029 67.1204 53.1634 67.7259 51.5323Z" fill="#FF3B66"/>
<path d="M74.5342 48.1326C73.1794 48.1515 72.1036 49.4693 71.3086 50.4405C70.3697 51.5869 69.4046 52.7314 69.0405 54.1924C68.5708 56.0765 70.5949 57.1036 72.1155 56.752C73.9819 56.3207 75.4837 54.1949 76.1618 52.5092C76.7929 50.9396 76.9343 48.0987 74.5336 48.1326H74.5342Z" fill="#FF3B66"/>
<path d="M61.6429 57.678C61.5947 56.7212 61.1312 55.917 60.4419 55.2735C59.6563 54.5396 58.4197 54.7656 57.7373 55.497C56.5301 56.7903 56.3981 59.3769 57.9212 60.48C58.623 60.9879 59.7307 61.2202 60.4688 60.6024C60.9536 60.1969 61.3433 59.8089 61.5328 59.1949C61.6804 58.7158 61.6679 58.1815 61.6423 57.6787L61.6429 57.678Z" fill="#FF3B66"/>
<path d="M64.0791 55.8517C62.7988 57.2159 61.7454 59.2683 61.5534 61.1342C61.3182 63.4169 63.9597 64.65 65.5465 62.9932C66.8426 61.6389 67.722 59.5119 67.9328 57.6454C68.1817 55.4505 65.5903 54.2407 64.0791 55.8517Z" fill="#FF3B66"/>
<path d="M67.1403 23.8817C67.2704 23.5044 67.2998 23.1145 67.2285 22.7133C67.1603 22.4616 67.0915 22.2092 67.0233 21.9574C66.8914 21.7283 66.7588 21.4991 66.6268 21.27C66.3572 20.9222 66.0319 20.6484 65.6541 20.4438C65.5272 20.3684 65.3958 20.2987 65.2551 20.2416C64.7916 20.0595 64.3137 20.0024 63.8208 20.0696C63.5819 20.1242 63.2816 20.187 63.0552 20.2843C62.9877 20.3132 62.4366 20.6378 62.3772 20.6792C62.3653 20.6873 62.3553 20.6961 62.3453 20.7062C61.9994 20.9542 61.7404 21.2687 61.5684 21.6485C61.4033 21.8695 61.3038 22.1175 61.2707 22.3919C61.1412 22.7692 61.1112 23.1591 61.1825 23.5609C61.2513 23.8126 61.3195 24.065 61.3877 24.3168C61.5196 24.5459 61.6522 24.7751 61.7842 25.0043C62.0313 25.3514 62.344 25.6114 62.7231 25.784C62.9433 25.9498 63.1903 26.0496 63.4637 26.0829C63.8396 26.2128 64.228 26.2423 64.6283 26.1714C64.8792 26.1023 65.1306 26.0339 65.3814 25.9654C65.6097 25.833 65.838 25.6999 66.0663 25.5674C66.4122 25.3194 66.6712 25.0055 66.8432 24.625C67.0083 24.4041 67.1078 24.1561 67.1409 23.8817H67.1403Z" fill="black"/>
<path d="M87.5195 35.6484C87.1492 35.2045 86.7764 34.7751 86.3811 34.3664C86.483 34.3318 86.5844 34.2954 86.6876 34.2634C87.6502 33.9639 88.6172 33.7461 89.309 32.9663C89.5942 32.6449 89.5111 32.1709 89.3046 31.8438C88.6466 30.8041 87.2855 31.0728 86.2441 31.1488C85.5523 31.199 84.863 31.3811 84.1718 31.3924C83.5013 31.403 82.8658 31.2994 82.1965 31.447C81.3953 31.624 80.5846 32.2462 80.5383 33.1459C80.4677 34.5214 81.2108 35.2974 82.1409 36.1877C83.0991 37.1043 84.0411 38.1094 85.264 38.6468C86.9978 39.4084 88.7436 37.1175 87.5195 35.649V35.6484Z" fill="black"/>
<path d="M80.0424 37.5262C79.8366 36.5512 79.0791 35.9868 78.0884 36.0451C76.9794 36.1104 76.0805 36.882 75.2855 37.5946C74.9815 37.8671 74.68 38.1471 74.3704 38.4133C74.1671 38.5941 73.9557 38.7649 73.7362 38.9256C74.0276 38.8597 73.9588 38.876 73.5298 38.9739C73.0269 39.1384 72.5352 39.4931 72.0511 39.6325C71.9735 39.6551 71.2899 39.5798 71.0566 39.6231C70.9502 39.6357 70.8445 39.6495 70.7388 39.6627C70.6556 39.6193 70.5562 39.5697 70.4248 39.5076C70.2985 39.4523 69.2833 39.1441 69.5335 39.2904C68.0398 38.5376 66.3766 36.661 66.1195 35.0004C65.8055 32.9707 67.0265 31.1375 66.9396 29.1366C66.927 28.8566 66.5824 28.5885 66.3091 28.6588C63.6132 29.3519 62.2071 32.707 62.3172 35.3062C62.4466 38.3788 64.5521 41.1569 66.9202 42.9311C69.1832 44.6268 72.143 44.7468 74.6725 43.687C74.3898 43.805 75.2336 43.5803 75.2492 43.5759C75.6752 43.4497 76.0299 43.2701 76.4102 43.0391C76.9618 42.7038 77.4891 42.324 77.9689 41.8895C79.1529 40.8166 80.4039 39.232 80.043 37.5249L80.0424 37.5262Z" fill="black"/>
</g>
<defs>
<clipPath id="clip0_114_6194">
<rect width="107" height="73" fill="white"/>
</clipPath>
</defs>
</svg>
