<svg width="15" height="15" viewBox="0 0 15 15" fill="none" xmlns="http://www.w3.org/2000/svg">
<path fill-rule="evenodd" clip-rule="evenodd" d="M12.3506 7.50062C12.3506 8.00906 12.7681 8.42274 13.2812 8.42274C13.54 8.42274 13.75 8.63082 13.75 8.88721V10.5599C13.75 11.9744 12.5887 13.125 11.1613 13.125H3.83938C2.41188 13.125 1.25 11.9744 1.25 10.5599V8.88721C1.25 8.63082 1.46 8.42274 1.71875 8.42274C2.2325 8.42274 2.65 8.00906 2.65 7.50062C2.65 7.00519 2.24937 6.63238 1.71875 6.63238C1.59438 6.63238 1.47563 6.58345 1.3875 6.49613C1.29937 6.40881 1.25 6.29053 1.25 6.16791L1.25125 4.44071C1.25125 3.02626 2.4125 1.875 3.84 1.875H11.16C12.5875 1.875 13.7494 3.02626 13.7494 4.44071L13.75 6.11403C13.75 6.23665 13.7006 6.35555 13.6131 6.44225C13.525 6.52957 13.4062 6.5785 13.2812 6.5785C12.7681 6.5785 12.3506 6.99218 12.3506 7.50062ZM8.9075 7.90501L9.64437 7.19407C9.7725 7.07145 9.81687 6.89062 9.76125 6.72341C9.70625 6.5562 9.5625 6.4373 9.38875 6.41315L8.37063 6.26576L7.915 5.35169C7.83687 5.19439 7.67812 5.09654 7.50125 5.09592H7.5C7.32375 5.09592 7.165 5.19377 7.08562 5.35107L6.63 6.26576L5.61375 6.41253C5.43813 6.4373 5.29437 6.5562 5.23875 6.72341C5.18375 6.89062 5.22813 7.07145 5.35563 7.19407L6.0925 7.90501L5.91875 8.91012C5.88875 9.08352 5.95937 9.25568 6.10313 9.35911C6.18437 9.4167 6.27875 9.44642 6.37437 9.44642C6.4475 9.44642 6.52125 9.42847 6.58875 9.39317L7.5 8.91879L8.40937 9.39193C8.56687 9.47553 8.75375 9.46253 8.89687 9.35849C9.04125 9.25568 9.11188 9.08352 9.08187 8.91012L8.9075 7.90501Z" fill="white"/>
</svg>
