<svg width="25" height="27" viewBox="0 0 25 27" fill="none" xmlns="http://www.w3.org/2000/svg">
<path d="M9.84934 5.79232C10.9287 3.49058 14.2024 3.49059 15.2817 5.79232L15.7287 6.74546C16.1531 7.6506 17.0006 8.28484 17.9887 8.43687L19.2381 8.6291C21.6498 9.00017 22.6333 11.9421 20.9295 13.6889L19.8395 14.8065C19.1749 15.4879 18.8731 16.4442 19.0261 17.3836L19.256 18.7942C19.6588 21.2665 17.0336 23.1145 14.8421 21.9014L14.0185 21.4455C13.1145 20.945 12.0166 20.945 11.1126 21.4455L10.289 21.9014C8.0975 23.1145 5.47227 21.2665 5.87509 18.7942L6.10494 17.3836C6.258 16.4442 5.95619 15.4879 5.2916 14.8065L4.20157 13.6889C2.49778 11.9421 3.48122 9.00017 5.89297 8.6291L7.1424 8.43687C8.1305 8.28484 8.97794 7.6506 9.40239 6.74546L9.84934 5.79232Z" fill="#2CD3C5"/>
<circle cx="22.3821" cy="1.9634" r="1.178" fill="#2CD3C5"/>
<circle opacity="0.5" cx="9.42425" cy="25.6542" r="0.785332" fill="#2CD3C5"/>
<circle cx="1.57066" cy="17.8009" r="1.57066" fill="#2CD3C5"/>
<circle opacity="0.6" cx="21.5968" cy="21.3348" r="0.392666" fill="#2CD3C5"/>
<circle cx="6.67538" cy="5.88986" r="0.392666" fill="#2CD3C5"/>
</svg>
