<svg width="12" height="16" viewBox="0 0 12 16" fill="none" xmlns="http://www.w3.org/2000/svg">
<mask id="mask0_115_7286" style="mask-type:luminance" maskUnits="userSpaceOnUse" x="0" y="9" width="12" height="7">
<path fill-rule="evenodd" clip-rule="evenodd" d="M0 9.87207H11.8799V15.4026H0V9.87207Z" fill="white"/>
</mask>
<g mask="url(#mask0_115_7286)">
<path fill-rule="evenodd" clip-rule="evenodd" d="M5.94075 10.9971C2.745 10.9971 1.125 11.5461 1.125 12.6298C1.125 13.7233 2.745 14.2776 5.94075 14.2776C9.13575 14.2776 10.755 13.7286 10.755 12.6448C10.755 11.5513 9.13575 10.9971 5.94075 10.9971ZM5.94075 15.4026C4.4715 15.4026 0 15.4026 0 12.6298C0 10.1578 3.39075 9.87207 5.94075 9.87207C7.41 9.87207 11.88 9.87207 11.88 12.6448C11.88 15.1168 8.49 15.4026 5.94075 15.4026Z" fill="#09051C"/>
</g>
<mask id="mask1_115_7286" style="mask-type:luminance" maskUnits="userSpaceOnUse" x="1" y="0" width="9" height="9">
<path fill-rule="evenodd" clip-rule="evenodd" d="M1.95752 0.500061H9.92254V8.46401H1.95752V0.500061Z" fill="white"/>
</mask>
<g mask="url(#mask1_115_7286)">
<path fill-rule="evenodd" clip-rule="evenodd" d="M5.9408 1.57076C4.33505 1.57076 3.02855 2.87651 3.02855 4.48226C3.0233 6.08276 4.32005 7.38776 5.91905 7.39376L5.9408 7.92926V7.39376C7.5458 7.39376 8.85155 6.08726 8.85155 4.48226C8.85155 2.87651 7.5458 1.57076 5.9408 1.57076ZM5.94079 8.46401H5.91679C3.72529 8.45726 1.95004 6.67001 1.95754 4.48001C1.95754 2.28626 3.74404 0.499756 5.94079 0.499756C8.13679 0.499756 9.92254 2.28626 9.92254 4.48226C9.92254 6.67826 8.13679 8.46401 5.94079 8.46401Z" fill="#09051C"/>
</g>
</svg>
