<svg width="43" height="44" viewBox="0 0 43 44" fill="none" xmlns="http://www.w3.org/2000/svg">
<circle cx="41.4912" cy="3.77196" r="1.50877" fill="#E21B1B"/>
<circle cx="3.01757" cy="0.754386" r="0.754386" fill="#E21B1B"/>
<circle cx="40.7368" cy="43" r="0.754386" fill="#E21B1B"/>
<circle cx="3.39474" cy="39.6052" r="3.39474" fill="#E21B1B"/>
<g clip-path="url(#clip0_186_12175)">
<path d="M21.1229 37.7193C29.4556 37.7193 36.2106 30.9643 36.2106 22.6316C36.2106 14.2989 29.4556 7.54388 21.1229 7.54388C12.7902 7.54388 6.03516 14.2989 6.03516 22.6316C6.03516 30.9643 12.7902 37.7193 21.1229 37.7193Z" fill="#E21B1B"/>
<path d="M36.1091 24.3587L27.7185 15.968L14.8901 29.2683L23.1959 37.5741C29.984 36.6406 35.3297 31.1944 36.1091 24.3587Z" fill="#C40606"/>
<path d="M26.9212 29.441C26.6195 29.441 26.3182 29.326 26.0876 29.0959L14.6643 17.6721C14.2037 17.2115 14.2037 16.4656 14.6643 16.0054C15.125 15.5452 15.8709 15.5448 16.3311 16.0054L27.7548 27.4292C28.2155 27.8898 28.2155 28.6357 27.7548 29.0959C27.5243 29.326 27.223 29.441 26.9212 29.441Z" fill="white"/>
<path d="M15.497 29.4409C15.1952 29.4409 14.8939 29.3258 14.6634 29.0958C14.2027 28.6351 14.2027 27.8892 14.6634 27.429L26.0871 16.0053C26.5478 15.5446 27.2937 15.5446 27.7538 16.0053C28.214 16.4659 28.2145 17.2118 27.7538 17.672L16.3305 29.0958C16.1005 29.3258 15.7987 29.4409 15.497 29.4409Z" fill="white"/>
</g>
<defs>
<clipPath id="clip0_186_12175">
<rect width="30.1754" height="30.1754" fill="white" transform="translate(6.03516 7.54388)"/>
</clipPath>
</defs>
</svg>
