<svg width="342" height="227" viewBox="0 0 342 227" fill="none" xmlns="http://www.w3.org/2000/svg">
<g clip-path="url(#clip0_108_10369)">
<path fill-rule="evenodd" clip-rule="evenodd" d="M29.7776 223.899H321.727C321.727 223.899 348.389 211.791 340.562 163.802C336.446 138.566 307.737 133.68 301.309 117.57C292.125 94.5513 309.875 77.8512 301.309 42.6062C292.04 4.47139 236.157 -9.23652 206.489 6.25861C174.649 22.8879 181.166 48.5557 154.009 57.2328C130.091 64.8748 110.92 38.062 61.2316 52.3924C-5.94339 71.7668 -19.9914 177.998 29.7776 223.899Z" fill="#E9EFFC"/>
<path fill-rule="evenodd" clip-rule="evenodd" d="M59.6784 172.587C59.6784 172.587 26.9543 138.318 33.5233 90.1778C33.5614 89.8948 33.3634 89.6347 33.0818 89.5955C32.7991 89.5574 32.5392 89.7544 32.5001 90.0374C25.8626 138.677 58.9325 173.3 58.9325 173.3C59.1293 173.506 59.4566 173.514 59.6621 173.317C59.8676 173.12 59.8752 172.792 59.6784 172.586V172.587Z" fill="#285B35"/>
<path fill-rule="evenodd" clip-rule="evenodd" d="M55.5812 168.686C52.7529 165.951 48.5229 164.593 44.9475 164.228C41.3722 163.864 38.4525 164.493 38.2427 165.731C37.7174 168.846 50.1692 170.925 55.5801 168.685L55.5812 168.686ZM52.6691 164.547C51.5459 160.775 52.2896 156.39 53.613 153.047C54.9364 149.702 56.8393 147.397 58.0343 147.782C61.0388 148.749 57.1481 160.77 52.6691 164.547ZM49.6016 159.969C46.7733 157.234 42.5433 155.875 38.968 155.511C35.3926 155.146 32.4729 155.775 32.2642 157.014C31.7389 160.129 44.1907 162.208 49.6016 159.968V159.969ZM45.774 153.774C45.4129 149.854 47.0016 145.702 48.9546 142.682C50.9076 139.663 53.2259 137.777 54.322 138.388C57.0785 139.927 50.9065 150.95 45.774 153.774ZM43.2947 149.004C40.4664 146.269 36.2364 144.91 32.6611 144.547C29.0857 144.182 26.166 144.811 25.9562 146.05C25.431 149.165 37.8827 151.244 43.2936 149.004H43.2947ZM41.1156 143.836C40.7545 139.917 42.3432 135.764 44.2962 132.745C46.2492 129.725 48.5675 127.839 49.6636 128.452C52.4201 129.991 46.2481 141.014 41.1156 143.837V143.836ZM38.4558 138.03C36.0929 134.884 32.1282 132.877 28.6551 131.954C25.182 131.031 22.1992 131.192 21.798 132.382C20.79 135.376 32.7589 139.39 38.4558 138.029V138.03ZM36.3528 131.417C36.7105 127.496 39.0278 123.703 41.4983 121.09C43.9678 118.476 46.5906 117.044 47.5573 117.846C49.9876 119.862 41.9137 129.575 36.3539 131.417H36.3528ZM34.9011 126.029C32.8503 122.67 29.0966 120.292 25.7278 119.04C22.3591 117.788 19.3742 117.662 18.8609 118.809C17.5702 121.693 29.1009 126.837 34.9011 126.029ZM33.842 120.325C34.6434 116.47 37.3782 112.967 40.1293 110.652C42.8804 108.337 45.6489 107.213 46.5177 108.12C48.7023 110.399 39.5758 119.129 33.842 120.323V120.325ZM32.9003 115.163C31.1757 111.626 27.6645 108.902 24.4284 107.336C21.1934 105.771 18.2335 105.363 17.6148 106.456C16.0576 109.203 27.0501 115.417 32.9003 115.162V115.163ZM32.4871 109.986C33.3222 106.14 36.0864 102.659 38.857 100.369C41.6277 98.0789 44.406 96.9784 45.2672 97.8927C47.4322 100.192 38.2307 108.841 32.4871 109.986ZM32.076 104.429C31.2203 100.587 28.4365 97.121 25.6528 94.8462C22.8691 92.5713 20.0853 91.4872 19.2295 92.4059C17.0776 94.7166 26.327 103.315 32.076 104.429ZM32.2424 98.29C33.3124 94.5022 36.2853 91.1988 39.192 89.0828C42.0986 86.968 44.9388 86.0406 45.7424 87.0072C47.7617 89.4344 38.0458 97.502 32.2424 98.29ZM32.5512 94.5686C32.2707 90.6426 30.0274 86.8036 27.609 84.1435C25.1907 81.4822 22.5972 79.9987 21.6153 80.7813C19.1458 82.7492 27.0283 92.6192 32.5512 94.5686ZM32.8459 91.4317C35.4252 88.4603 36.5572 84.1609 36.7323 80.5679C36.9073 76.975 36.1255 74.0895 34.8783 73.9458C31.7433 73.5844 30.3253 86.1408 32.8459 91.4317Z" fill="#337544"/>
<path fill-rule="evenodd" clip-rule="evenodd" d="M36.1451 223.711C36.1451 223.711 14.196 211.145 16.4676 199.629C18.2824 190.427 33.1036 197.108 33.1036 197.108C33.1036 197.108 12.1093 183.211 16.4676 173.872C20.5496 165.123 31.491 172.397 31.491 172.397C31.491 172.397 12.4301 146.607 25.9529 138.774C40.312 130.457 48.1738 165.674 48.1738 165.674C48.1738 165.674 50.9684 151.797 59.735 153.556C69.166 155.449 66.2289 185.918 66.2289 185.918C66.2289 185.918 71.903 172.501 79.8203 178.027C89.6471 184.886 81.1611 223.71 81.1611 223.71H36.1451V223.711Z" fill="#539D55"/>
<path fill-rule="evenodd" clip-rule="evenodd" d="M66.0312 165.298C67.3219 174.574 66.228 185.919 66.228 185.919C66.228 185.919 71.902 172.503 79.8193 178.029C80.313 178.373 80.7599 178.798 81.1644 179.296L80.0586 223.711L34.3716 222.628C29.1956 219.341 14.593 209.128 16.4666 199.629C18.2814 190.427 33.1026 197.108 33.1026 197.108C33.1026 197.108 12.1083 183.211 16.4666 173.872C16.7134 173.344 16.9853 172.874 17.2778 172.457C18.251 181.573 26.6468 192.83 41.0124 193.667C58.95 194.712 64.2957 176.53 66.0312 165.297V165.298Z" fill="#3B7D4F"/>
<path fill-rule="evenodd" clip-rule="evenodd" d="M21.4978 169.699C26.1181 168.827 31.4898 172.398 31.4898 172.398C31.4898 172.398 12.4289 146.608 25.9517 138.775C40.3108 130.458 48.1727 165.675 48.1727 165.675C48.1727 165.675 50.9673 151.798 59.7339 153.557C59.7632 153.562 59.7926 153.569 59.8198 153.576C58.7117 157.484 57.5384 162.363 57.1763 166.531C56.4325 175.093 50.5432 183.705 37.6532 180.607C32.5033 179.37 26.042 174.01 21.4978 169.699Z" fill="#74B357"/>
<path fill-rule="evenodd" clip-rule="evenodd" d="M63.2682 223.711H64.8471L61.8263 216.841L74.5032 189.403C74.6706 189.04 74.5129 188.61 74.1508 188.443C73.7887 188.275 73.3592 188.433 73.1918 188.795L61.0499 215.076L49.7029 189.274L55.6564 167.867C55.763 167.483 55.5379 167.083 55.154 166.975C54.7702 166.869 54.3711 167.094 54.2646 167.478L48.7841 187.183L36.1257 158.4C35.9648 158.034 35.5385 157.868 35.1731 158.028C34.8078 158.188 34.6425 158.616 34.8023 158.982L47.3955 187.619L29.5742 179.943C29.2077 179.785 28.7825 179.955 28.6249 180.322C28.4672 180.689 28.6368 181.114 29.0033 181.272L48.2513 189.563L59.6309 215.437L31.625 205.303C31.2498 205.167 30.8355 205.362 30.6996 205.737C30.5637 206.113 30.7583 206.527 31.1335 206.663L60.4355 217.267L63.2693 223.711H63.2682Z" fill="#367843"/>
<path fill-rule="evenodd" clip-rule="evenodd" d="M27.2982 223.711C18.0151 204.669 34.9578 199.734 39.5814 216.088C39.5814 216.088 31.1334 186.201 40.8928 182.932C49.5757 180.024 54.9126 196.399 58.4662 215.391C58.4662 215.391 50.2661 171.569 62.8419 168.739C77.3586 165.472 76.9508 223.899 76.9508 223.899L27.2993 223.711H27.2982Z" fill="#70BA55"/>
<path fill-rule="evenodd" clip-rule="evenodd" d="M27.2755 223.664C20.0367 208.767 28.8707 202.528 35.2505 208.4C33.8445 208.368 31.8034 208.64 29.7602 210.032C26.4067 212.318 27.1276 222.026 27.2755 223.664ZM37.2208 205.293C35.7322 196.38 35.0515 184.888 40.8919 182.932C44.5314 181.713 47.5837 183.882 50.1619 188.212C48.5091 186.515 46.5616 185.667 44.4118 186.869C39.0292 189.88 37.5993 199.972 37.2198 205.293H37.2208ZM56.1774 197.248C55.2694 184.83 55.7827 170.327 62.841 168.739C65.7933 168.075 68.129 169.962 69.9765 173.393C62.0744 175.392 57.4964 191.778 56.1774 197.248Z" fill="#90D466"/>
<path fill-rule="evenodd" clip-rule="evenodd" d="M52.8833 193.966C55.1418 199.8 56.9621 207.361 58.4649 215.392C58.4649 215.392 57.322 209.281 56.5435 201.478C57.7983 207.568 60.4146 218.597 62.9036 223.847L56.6631 223.823C57.8483 213.164 53.6031 196.655 52.8833 193.967V193.966ZM36.4288 209.662C37.7022 211.238 38.8124 213.369 39.5812 216.088C39.5812 216.088 39.081 214.32 38.4644 211.595C39.7193 215.136 41.9234 219.946 44.8811 223.777L37.1269 223.748C39.2821 220.298 36.7779 210.918 36.4277 209.662H36.4288Z" fill="#4C954C"/>
<path fill-rule="evenodd" clip-rule="evenodd" d="M286.045 172.587C286.045 172.587 318.769 138.318 312.2 90.1778C312.162 89.8948 312.36 89.6347 312.642 89.5955C312.924 89.5574 313.184 89.7544 313.223 90.0374C319.861 138.677 286.791 173.3 286.791 173.3C286.594 173.506 286.267 173.514 286.061 173.317C285.855 173.12 285.848 172.792 286.045 172.586V172.587Z" fill="#285B35"/>
<path fill-rule="evenodd" clip-rule="evenodd" d="M290.143 168.686C292.971 165.951 297.201 164.593 300.777 164.228C304.352 163.864 307.272 164.493 307.482 165.731C308.007 168.846 295.555 170.925 290.144 168.685L290.143 168.686ZM293.054 164.547C294.177 160.775 293.434 156.39 292.11 153.047C290.787 149.702 288.884 147.397 287.689 147.782C284.684 148.749 288.575 160.77 293.054 164.547ZM296.122 159.969C298.95 157.234 303.18 155.875 306.755 155.511C310.331 155.146 313.25 155.775 313.46 157.014C313.985 160.129 301.534 162.208 296.123 159.968L296.122 159.969ZM299.949 153.774C300.31 149.854 298.722 145.702 296.769 142.682C294.816 139.663 292.498 137.777 291.401 138.388C288.645 139.927 294.817 150.95 299.949 153.774ZM302.428 149.004C305.257 146.269 309.487 144.91 313.062 144.547C316.637 144.182 319.557 144.811 319.767 146.05C320.292 149.165 307.84 151.244 302.43 149.004H302.428ZM304.608 143.836C304.969 139.917 303.38 135.764 301.427 132.745C299.474 129.725 297.157 127.839 296.06 128.452C293.303 129.991 299.475 141.014 304.608 143.837V143.836ZM307.267 138.03C309.631 134.884 313.595 132.877 317.068 131.954C320.541 131.031 323.524 131.192 323.925 132.382C324.933 135.376 312.964 139.39 307.267 138.029V138.03ZM309.37 131.417C309.013 127.496 306.695 123.703 304.226 121.09C301.756 118.476 299.135 117.044 298.167 117.846C295.737 119.862 303.811 129.575 309.37 131.417ZM310.822 126.029C312.873 122.67 316.627 120.292 319.995 119.04C323.364 117.788 326.349 117.662 326.862 118.809C328.153 121.693 316.622 126.837 310.822 126.029ZM311.882 120.325C311.081 116.47 308.346 112.967 305.595 110.652C302.844 108.337 300.076 107.213 299.206 108.12C297.022 110.399 306.148 119.129 311.881 120.323L311.882 120.325ZM312.824 115.163C314.549 111.626 318.06 108.902 321.296 107.336C324.531 105.771 327.491 105.363 328.109 106.456C329.667 109.203 318.675 115.417 312.824 115.162V115.163ZM313.237 109.986C312.402 106.14 309.638 102.659 306.867 100.369C304.097 98.0789 301.318 96.9784 300.457 97.8927C298.292 100.192 307.494 108.841 313.237 109.986ZM313.648 104.429C314.504 100.587 317.288 97.121 320.071 94.8462C322.855 92.5713 325.639 91.4872 326.495 92.4059C328.647 94.7166 319.397 103.315 313.647 104.429H313.648ZM313.482 98.29C312.412 94.5022 309.439 91.1988 306.532 89.0828C303.626 86.968 300.785 86.0406 299.982 87.0072C297.963 89.4344 307.678 97.502 313.482 98.29ZM313.173 94.5686C313.454 90.6426 315.697 86.8036 318.115 84.1435C320.534 81.4822 323.127 79.9987 324.109 80.7813C326.578 82.7492 318.696 92.6192 313.173 94.5686ZM312.878 91.4317C310.299 88.4603 309.167 84.1609 308.992 80.5679C308.817 76.975 309.599 74.0895 310.846 73.9458C313.981 73.5844 315.399 86.1408 312.878 91.4317Z" fill="#337544"/>
<path fill-rule="evenodd" clip-rule="evenodd" d="M309.578 223.711C309.578 223.711 331.527 211.145 329.256 199.629C327.441 190.427 312.62 197.108 312.62 197.108C312.62 197.108 333.614 183.211 329.256 173.872C325.174 165.123 314.232 172.397 314.232 172.397C314.232 172.397 333.293 146.607 319.77 138.774C305.411 130.457 297.55 165.674 297.55 165.674C297.55 165.674 294.755 151.797 285.988 153.556C276.557 155.449 279.494 185.918 279.494 185.918C279.494 185.918 273.82 172.501 265.903 178.027C256.076 184.886 264.562 223.71 264.562 223.71H309.577L309.578 223.711Z" fill="#539D55"/>
<path fill-rule="evenodd" clip-rule="evenodd" d="M279.691 165.298C278.401 174.574 279.495 185.919 279.495 185.919C279.495 185.919 273.821 172.503 265.903 178.029C265.41 178.373 264.963 178.798 264.558 179.296L265.664 223.711L311.351 222.628C316.526 219.341 331.13 209.128 329.257 199.629C327.442 190.427 312.621 197.108 312.621 197.108C312.621 197.108 333.615 183.211 329.257 173.872C329.01 173.344 328.738 172.874 328.446 172.457C327.473 181.573 319.077 192.83 304.711 193.667C286.774 194.712 281.428 176.53 279.692 165.297L279.691 165.298Z" fill="#3B7D4F"/>
<path fill-rule="evenodd" clip-rule="evenodd" d="M324.225 169.699C319.605 168.827 314.233 172.398 314.233 172.398C314.233 172.398 333.294 146.608 319.771 138.775C305.412 130.458 297.55 165.675 297.55 165.675C297.55 165.675 294.756 151.798 285.989 153.557C285.96 153.562 285.931 153.569 285.903 153.576C287.011 157.484 288.185 162.363 288.547 166.531C289.291 175.093 295.18 183.705 308.07 180.607C313.22 179.37 319.681 174.01 324.225 169.699Z" fill="#74B357"/>
<path fill-rule="evenodd" clip-rule="evenodd" d="M282.454 223.711H280.875L283.896 216.841L271.219 189.403C271.052 189.04 271.209 188.61 271.572 188.443C271.934 188.275 272.363 188.433 272.531 188.795L284.673 215.076L296.019 189.274L290.066 167.867C289.959 167.483 290.185 167.083 290.568 166.975C290.952 166.869 291.351 167.094 291.459 167.478L296.939 187.183L309.598 158.4C309.759 158.034 310.185 157.868 310.55 158.028C310.916 158.188 311.081 158.616 310.921 158.982L298.328 187.619L316.149 179.943C316.516 179.785 316.941 179.955 317.099 180.322C317.256 180.689 317.087 181.114 316.72 181.272L297.472 189.563L286.093 215.437L314.099 205.303C314.474 205.167 314.888 205.362 315.024 205.737C315.16 206.113 314.965 206.527 314.59 206.663L285.288 217.267L282.454 223.711Z" fill="#367843"/>
<path fill-rule="evenodd" clip-rule="evenodd" d="M318.425 223.711C327.708 204.669 310.766 199.734 306.142 216.088C306.142 216.088 314.59 186.201 304.831 182.932C296.148 180.024 290.811 196.399 287.257 215.391C287.257 215.391 295.457 171.569 282.882 168.739C268.365 165.472 268.773 223.899 268.773 223.899L318.424 223.711H318.425Z" fill="#70BA55"/>
<path fill-rule="evenodd" clip-rule="evenodd" d="M318.448 223.664C325.687 208.767 316.853 202.528 310.473 208.4C311.879 208.368 313.92 208.64 315.963 210.032C319.317 212.318 318.596 222.026 318.448 223.664ZM308.503 205.293C309.991 196.38 310.672 184.888 304.832 182.932C301.191 181.713 298.14 183.882 295.562 188.212C297.214 186.515 299.162 185.667 301.312 186.869C306.694 189.88 308.124 199.972 308.504 205.293H308.503ZM289.546 197.248C290.454 184.83 289.941 170.327 282.883 168.739C279.93 168.075 277.595 169.962 275.747 173.393C283.649 175.392 288.226 191.778 289.546 197.248Z" fill="#90D466"/>
<path fill-rule="evenodd" clip-rule="evenodd" d="M292.84 193.966C290.583 199.8 288.761 207.361 287.259 215.392C287.259 215.392 288.401 209.281 289.18 201.478C287.925 207.568 285.309 218.597 282.82 223.847L289.061 223.823C287.876 213.164 292.121 196.655 292.84 193.967V193.966ZM309.295 209.662C308.021 211.238 306.911 213.369 306.142 216.088C306.142 216.088 306.642 214.32 307.259 211.595C306.004 215.136 303.8 219.946 300.842 223.777L308.597 223.748C306.441 220.298 308.946 210.918 309.296 209.662H309.295Z" fill="#4C954C"/>
<path fill-rule="evenodd" clip-rule="evenodd" d="M332.208 225.45C332.208 224.595 331.514 223.9 330.66 223.9H11.3395C10.4848 223.9 9.79102 224.595 9.79102 225.45C9.79102 226.306 10.4848 227 11.3395 227H330.66C331.514 227 332.208 226.306 332.208 225.45Z" fill="#62719E"/>
<path fill-rule="evenodd" clip-rule="evenodd" d="M236.367 49.0922C239.787 45.8323 246.997 45.668 251.491 50.3907C254.942 54.0185 251.389 59.6131 258.007 61.2719C263.04 62.5345 264.659 69.9773 263.35 74.0884C262.711 76.0955 263.279 78.1886 264.478 80.1097C265.839 82.292 268.013 84.2556 270.149 85.6259C278.837 91.1977 274.848 100.092 273.581 105.248H210.344C210.344 105.248 206.318 96.3929 214.166 88.9969C218.754 84.6746 220.388 79.4251 218.386 74.9145C215.59 68.6168 216.864 60.9781 221.492 58.4333C225.579 56.1856 224.097 53.6768 226.199 50.3907C227.704 48.0375 232.53 46.1208 236.366 49.0922H236.367Z" fill="#803A0F"/>
<path fill-rule="evenodd" clip-rule="evenodd" d="M209.497 102.131C208.992 98.8919 209.225 93.6554 214.168 88.998C218.756 84.6757 220.39 79.4262 218.388 74.9156C215.593 68.6179 216.866 60.9792 221.494 58.4344C225.581 56.1867 224.099 53.6779 226.201 50.3918C227.706 48.0386 232.532 46.1219 236.368 49.0933C239.788 45.8334 246.998 45.6691 251.492 50.3918C254.943 54.0196 251.39 59.6142 258.008 61.273C263.041 62.5356 264.66 69.9784 263.351 74.0895C262.712 76.0966 263.28 78.1897 264.479 80.1108C265.84 82.2931 268.014 84.2567 270.151 85.627C276.181 89.4954 276.103 94.9637 275.068 99.6724H274.062C275.058 90.1201 267.648 84.8085 264.927 82.3073C262.205 79.806 261.745 77.505 262.192 73.9774C262.879 68.5591 260.712 62.3582 257.692 62.0023C253.236 61.4777 252.284 58.1786 251.901 55.3998C251.518 52.621 249.184 49.4122 245.553 48.7309C241.339 47.9396 235.866 50.2079 235.866 50.2079C230.744 47.3246 226.803 51.2626 225.563 55.3998C224.625 58.5323 226.044 57.5462 221.354 60.6124C216.873 63.5414 219.793 73.0958 220.588 75.9888C222.051 81.3157 218.476 87.3511 215.687 89.5487C211.275 93.0263 211.954 101.882 211.954 101.882L209.497 102.129V102.131Z" fill="#AA5822"/>
<path fill-rule="evenodd" clip-rule="evenodd" d="M225.543 65.1C225.543 65.1 222.677 70.416 224.837 79.6906C227.286 90.2148 217.692 88.8662 217.692 99.6723H264.065C264.065 99.6723 267.336 93.047 261.129 86.8254C257.825 83.5133 254.255 84.2545 253.422 79.6906C252.554 74.9374 249.524 76.3687 247.938 73.9785C245.799 70.7556 245.555 65.8119 245.555 65.8119L225.544 65.1H225.543Z" fill="#6B2B0B"/>
<path fill-rule="evenodd" clip-rule="evenodd" d="M212.222 177.291L213.604 223.915H276.84L278.886 174.989L212.223 177.291H212.222Z" fill="#202D67"/>
<path fill-rule="evenodd" clip-rule="evenodd" d="M212.435 184.506C215.837 184.66 258.98 186.542 273.065 183.212L271.15 223.915H276.839L278.884 174.989L212.222 177.291L212.436 184.506H212.435ZM242.331 197.365L246.841 223.915H242.993L242.329 197.365H242.331Z" fill="#161F50"/>
<path fill-rule="evenodd" clip-rule="evenodd" d="M242.168 223.915H242.994L242.747 197.775C242.745 197.547 242.558 197.364 242.331 197.366C242.103 197.368 241.92 197.555 241.922 197.783L242.168 223.915Z" fill="#0C112B"/>
<path fill-rule="evenodd" clip-rule="evenodd" d="M173.942 121.068C173.942 121.068 166.259 114.355 163.795 115.589C161.932 116.52 163.723 119.098 164.509 119.884C164.509 119.884 161.488 118.472 157.362 117.127C154.419 116.168 151.885 125.244 153.29 128.209C155.261 132.367 164.971 134.806 166.828 134.314L173.942 121.068Z" fill="#FCBDD1"/>
<path fill-rule="evenodd" clip-rule="evenodd" d="M170.099 118.078C172.195 119.541 173.942 121.068 173.942 121.068L166.828 134.314C164.971 134.806 155.261 132.367 153.29 128.209C152.903 127.393 152.815 126.113 152.952 124.707C155.257 126.379 160.566 130.081 162.875 130.477L170.1 118.078H170.099Z" fill="#FA95B5"/>
<path fill-rule="evenodd" clip-rule="evenodd" d="M248.206 73.9774L250.084 98.0419L234.157 99.6713V82.6752C240.769 80.9903 244.285 80.6996 248.206 73.9774Z" fill="#FCBDD1"/>
<path fill-rule="evenodd" clip-rule="evenodd" d="M248.926 83.4033C245.297 88.0064 238.769 90.6916 234.157 90.8538V84.6877C240.769 83.0028 244.579 82.7122 248.501 75.9899L248.926 83.4033Z" fill="#E5668A"/>
<path fill-rule="evenodd" clip-rule="evenodd" d="M234.157 92.1556C234.157 92.1556 233.627 97.7741 238.256 97.6718C243.753 97.5499 249.271 90.8549 249.271 90.8549C249.271 90.8549 277.474 94.5316 284.434 103.619C291.395 112.707 294.78 128.76 292.152 139.818C289.87 149.412 279.896 156.417 279.896 156.417C279.896 156.417 280.804 172.836 279.896 176.32C278.988 179.803 213.058 181.482 210.032 177.999C207.005 174.515 212.22 144.365 212.22 144.365C212.22 144.365 210.265 150.826 199.056 152.936C189.105 154.809 162.185 138.001 162.185 138.001L172.24 116.17L196.448 127.712C196.448 127.712 204.265 105.257 210.03 100.329C217.018 94.3553 234.154 92.1566 234.154 92.1566L234.157 92.1556Z" fill="#E64C5E"/>
<path fill-rule="evenodd" clip-rule="evenodd" d="M246.533 93.6173C248.201 92.1534 249.273 90.8538 249.273 90.8538C249.273 90.8538 277.475 94.5305 284.436 103.618C290.32 111.299 293.648 123.959 292.95 134.37C291.873 129.391 286.77 107.597 278.886 102.131C271.137 96.7597 248.927 93.2244 248.927 93.2244L246.534 93.6173H246.533ZM197.673 124.357C200.098 117.906 205.656 104.069 210.032 100.328C217.019 94.3542 234.156 92.1555 234.156 92.1555C234.156 92.1555 233.976 94.0549 234.736 95.6244C230.312 96.5975 216.431 99.766 212.221 102.131C207.686 104.678 199.29 121.126 197.672 124.357H197.673Z" fill="#F06C7C"/>
<path fill-rule="evenodd" clip-rule="evenodd" d="M269.424 116.169L279.896 156.417C279.896 156.417 280.804 172.836 279.896 176.32C279.741 176.913 277.703 177.453 274.414 177.925C277.278 172.856 274.99 162.536 274.127 162.934C265.091 167.108 251.67 170.172 251.67 170.172C251.349 169.509 251.036 168.864 250.729 168.231C248.11 169.656 243.27 170.641 240.729 170.172C237.231 169.527 232.107 160.119 234.111 156.613C235.259 154.604 239.226 153.608 239.226 153.608C237.726 153.566 235.793 153.068 236.417 150.968C236.833 149.57 240.335 148.276 243.201 148.075C242.926 147.047 242.663 145.969 242.413 144.83L267.256 133.45L269.424 116.17V116.169ZM173.251 144.302C175.446 144.908 192.242 149.39 201.167 147.046C208.543 145.109 209.314 137.204 209.314 137.204C209.314 137.204 208.198 123.436 216.276 122.664C216.276 122.664 209.003 127.684 212.773 137.204L212.222 145.005C212.162 145.154 212.101 145.301 212.04 145.446C212.154 144.752 212.222 144.363 212.222 144.363C212.222 144.363 210.266 150.824 199.058 152.933C193.302 154.016 181.869 148.851 173.251 144.302Z" fill="#C13142"/>
<path fill-rule="evenodd" clip-rule="evenodd" d="M234.156 92.0794C234.156 92.0794 233.928 97.6642 238.256 97.6707C243.518 97.6783 249.278 90.8538 249.278 90.8538C250.915 88.9131 253.834 90.3749 253.372 91.4775C253.372 91.4775 244.928 101.638 236.713 100.688C231.601 100.097 230.485 93.158 230.485 93.158C230.218 91.4611 233.679 90.5272 234.155 92.0794H234.156Z" fill="white"/>
<path fill-rule="evenodd" clip-rule="evenodd" d="M176.88 118.381L166.316 140.463C163.772 138.989 162.185 138 162.185 138L172.24 116.169L176.88 118.381Z" fill="white"/>
<path fill-rule="evenodd" clip-rule="evenodd" d="M226.428 59.6262C226.428 59.6262 223.872 71.6536 225.239 78.0993C225.773 80.6137 230.063 85.245 233.171 86.0875C236.781 87.066 243.37 83.7767 245.426 82.291C247.736 80.6202 249.68 76.2729 249.68 76.2729C249.68 76.2729 254.248 78.3257 254.768 72.6255C255.142 68.5352 249.534 67.9376 248.467 73.1001V60.9519L226.428 59.6262Z" fill="#FCBDD1"/>
<path fill-rule="evenodd" clip-rule="evenodd" d="M226.144 61.0836C225.908 62.3648 225.568 64.3773 225.294 66.6598C227.119 66.4453 233.636 65.7095 235.729 63.2388C235.729 63.2388 238.998 67.2475 245.447 66.7098L247.896 74.3649V61.0836H226.144Z" fill="#FA8BAB"/>
<path d="M241.327 78.8482C242.236 78.8482 242.972 78.1109 242.972 77.2014C242.972 76.2919 242.236 75.5546 241.327 75.5546C240.418 75.5546 239.682 76.2919 239.682 77.2014C239.682 78.1109 240.418 78.8482 241.327 78.8482Z" fill="#FF5858"/>
<path d="M228.616 77.3995C229.525 77.3995 230.262 76.6622 230.262 75.7526C230.262 74.8431 229.525 74.1058 228.616 74.1058C227.708 74.1058 226.971 74.8431 226.971 75.7526C226.971 76.6622 227.708 77.3995 228.616 77.3995Z" fill="#FF5858"/>
<path fill-rule="evenodd" clip-rule="evenodd" d="M250.707 74.0471C250.748 73.6128 251.156 73.0968 251.736 73.0631C251.994 73.0479 252.285 73.1317 252.595 73.3483C252.717 73.4343 252.887 73.4038 252.973 73.2808C253.059 73.1578 253.029 72.988 252.906 72.902C252.474 72.6005 252.065 72.4982 251.703 72.52C250.835 72.5711 250.226 73.3461 250.164 73.9959C250.15 74.145 250.26 74.2778 250.409 74.292C250.558 74.3061 250.691 74.1962 250.705 74.0471H250.707Z" fill="#CB4670"/>
<path fill-rule="evenodd" clip-rule="evenodd" d="M248.49 73.05L247.819 74.846L246.478 65.69C246.478 65.69 239.433 66.3245 235.748 62.405C235.748 62.405 232.73 65.5463 225.237 65.0314L225.756 57.1674L250.318 59.6262L248.489 73.05H248.49Z" fill="#803A0F"/>
<path fill-rule="evenodd" clip-rule="evenodd" d="M225.579 65.0521L225.567 65.0315C225.567 65.0315 234.147 63.9974 235.425 60.7931C235.425 60.7931 240.536 64.78 247.429 65.0315L248.035 74.268L247.819 74.846L246.478 65.69C246.478 65.69 239.433 66.3245 235.748 62.4051C235.748 62.4051 232.821 65.4516 225.578 65.0532L225.579 65.0521Z" fill="#6B2B0B"/>
<path fill-rule="evenodd" clip-rule="evenodd" d="M235.118 73.2394C235.118 73.2394 233.954 74.7458 233.32 75.9725C233.149 76.3045 233.016 76.6169 232.949 76.877C232.899 77.0697 232.886 77.2395 232.906 77.3777C232.896 77.7706 233.174 78.0373 233.553 78.1864C234.005 78.3638 234.584 78.3725 234.584 78.3725C234.734 78.3747 234.857 78.2539 234.859 78.1037C234.862 77.9535 234.741 77.8305 234.591 77.8283C234.591 77.8283 234.119 77.824 233.752 77.6803C233.596 77.6193 233.439 77.5464 233.451 77.381C233.453 77.3559 233.451 77.332 233.447 77.307C233.431 77.2286 233.447 77.1284 233.476 77.0131C233.535 76.7845 233.653 76.5124 233.803 76.2229C234.418 75.0332 235.549 73.5736 235.549 73.5736C235.64 73.4549 235.619 73.2841 235.5 73.1915C235.381 73.1001 235.211 73.1208 235.118 73.2394Z" fill="#E6567F"/>
<path fill-rule="evenodd" clip-rule="evenodd" d="M235.601 81.7054C235.601 81.7054 236.186 81.9002 236.889 81.8665C237.619 81.8316 238.467 81.553 238.957 80.6082C239.025 80.4754 238.973 80.3111 238.84 80.2414C238.707 80.1729 238.543 80.2251 238.474 80.3579C238.094 81.0915 237.429 81.2961 236.862 81.3233C236.268 81.3516 235.772 81.1895 235.772 81.1895C235.629 81.1427 235.475 81.2199 235.428 81.3625C235.381 81.5051 235.459 81.6586 235.601 81.7065V81.7054Z" fill="#E03333"/>
<path fill-rule="evenodd" clip-rule="evenodd" d="M229.419 71.462C230.417 70.9733 231.892 70.7469 232.61 72.2174C232.689 72.3795 232.884 72.4459 233.046 72.3676C233.208 72.2881 233.274 72.0922 233.196 71.9311C232.276 70.0481 230.411 70.2505 229.132 70.8753C228.97 70.9548 228.904 71.1507 228.982 71.3118C229.061 71.474 229.256 71.5404 229.418 71.462H229.419Z" fill="#672808"/>
<path fill-rule="evenodd" clip-rule="evenodd" d="M238.876 73.0185C238.876 73.0185 240.25 71.6612 242.446 73.0653C242.598 73.1622 242.799 73.1175 242.896 72.9662C242.993 72.8139 242.948 72.6125 242.797 72.5156C241.734 71.8364 240.828 71.7091 240.126 71.7907C239.029 71.9181 238.41 72.5624 238.41 72.5624C238.284 72.6909 238.286 72.8977 238.414 73.0239C238.542 73.1502 238.749 73.148 238.875 73.0185H238.876Z" fill="#672808"/>
<path fill-rule="evenodd" clip-rule="evenodd" d="M227.617 69.3842C227.617 69.3842 231.549 66.8078 234.661 69.5681C234.841 69.727 235.116 69.7107 235.276 69.5311C235.434 69.3515 235.418 69.0761 235.239 68.9161C231.662 65.7433 227.144 68.6527 227.144 68.6527C226.943 68.7833 226.885 69.0533 227.016 69.2546C227.146 69.456 227.416 69.5137 227.617 69.3831V69.3842Z" fill="#CA6B12"/>
<path fill-rule="evenodd" clip-rule="evenodd" d="M237.893 69.9099C240.233 69.271 242.544 69.6617 244.572 71.6351C244.744 71.8027 245.02 71.7983 245.187 71.6264C245.355 71.4544 245.35 71.1779 245.179 71.0103C242.897 68.791 240.297 68.3512 237.665 69.0696C237.433 69.1327 237.296 69.3722 237.359 69.604C237.422 69.8359 237.661 69.973 237.893 69.9099Z" fill="#CA6B12"/>
<path fill-rule="evenodd" clip-rule="evenodd" d="M248.621 149.376C248.621 149.376 238.852 149.276 238.153 151.629C237.529 153.729 241.404 153.689 242.903 153.732C242.903 153.732 236.582 154.77 235.433 156.779C233.429 160.285 238.346 167.315 241.845 167.96C245.728 168.678 253.553 163.673 253.553 163.673L248.621 149.377V149.376Z" fill="#FCBDD1"/>
<path fill-rule="evenodd" clip-rule="evenodd" d="M238.565 165.948C238.728 166.11 238.894 166.265 239.062 166.412L244.979 163.922C245.137 163.856 245.211 163.674 245.145 163.516C245.078 163.359 244.897 163.284 244.739 163.351L238.566 165.948H238.565ZM236.215 162.826C236.315 163.008 236.42 163.189 236.529 163.366L243.54 160.416C243.697 160.35 243.771 160.168 243.705 160.01C243.639 159.853 243.457 159.779 243.299 159.845L236.214 162.826H236.215ZM235.017 159.426C235.043 159.633 235.08 159.842 235.126 160.053L242.59 156.913C242.748 156.846 242.822 156.665 242.756 156.507C242.689 156.349 242.508 156.275 242.35 156.341L235.017 159.427V159.426Z" fill="#D43D6D"/>
<path fill-rule="evenodd" clip-rule="evenodd" d="M243.675 149.618C246.195 149.351 248.623 149.376 248.623 149.376L253.554 163.672C253.554 163.672 245.729 168.676 241.846 167.959C240.972 167.798 240.007 167.237 239.085 166.432C242.047 166.205 246.255 165.587 247.187 163.907C248.534 161.48 244.385 151.318 243.675 149.618Z" fill="#FA95B5"/>
<path fill-rule="evenodd" clip-rule="evenodd" d="M286.43 116.169C288.885 124.058 294.069 132.983 292.152 139.816C290.425 145.976 285.517 152.773 279.935 156.37C272.392 161.229 252.174 166.962 252.174 166.962C248.783 159.946 246.164 154.922 244.261 146.251L270.129 135.585L269.424 116.168H286.43V116.169Z" fill="#E64C5E"/>
<path fill-rule="evenodd" clip-rule="evenodd" d="M249.145 144.238C250.485 149.02 253.632 158.902 256.871 165.554C254.049 166.431 252.174 166.962 252.174 166.962C250.391 163.274 245.599 153.88 244.261 146.225L249.145 144.237V144.238Z" fill="white"/>
<path fill-rule="evenodd" clip-rule="evenodd" d="M252.262 167.261C252.262 167.261 273.618 160.903 280.106 156.629C280.248 156.535 280.288 156.342 280.194 156.2C280.1 156.057 279.908 156.017 279.764 156.112C273.316 160.36 252.085 166.666 252.085 166.666C251.92 166.715 251.827 166.887 251.876 167.052C251.925 167.216 252.097 167.31 252.261 167.261H252.262ZM270.497 135.511L274.954 133.737C275.112 133.674 275.191 133.494 275.126 133.335C275.063 133.176 274.883 133.097 274.724 133.162L270.522 134.834L269.793 116.154C269.784 115.926 269.592 115.748 269.364 115.756C269.137 115.765 268.959 115.958 268.967 116.185L269.705 135.053C266.983 136.201 244.1 145.845 244.1 145.845C243.89 145.934 243.791 146.176 243.879 146.386C243.967 146.596 244.21 146.695 244.421 146.607L270.289 135.704C270.381 135.665 270.453 135.595 270.496 135.511H270.497ZM216.029 122.332C213.974 123.87 212.404 125.605 211.685 127.996C210.978 130.346 211.092 133.346 212.435 137.448L211.811 144.196C211.79 144.424 211.956 144.625 212.184 144.646C212.411 144.667 212.612 144.5 212.633 144.273L213.265 137.438C213.27 137.382 213.263 137.325 213.245 137.271C211.949 133.34 211.8 130.478 212.475 128.234C213.143 126.016 214.616 124.42 216.523 122.993C216.706 122.856 216.743 122.597 216.607 122.414C216.471 122.232 216.211 122.195 216.029 122.331V122.332ZM196.19 127.853L198.692 132.145C198.778 132.293 198.969 132.343 199.116 132.257C199.264 132.171 199.314 131.981 199.227 131.833L196.725 127.541C196.639 127.393 196.449 127.343 196.301 127.43C196.153 127.516 196.103 127.706 196.19 127.854V127.853Z" fill="#610C1A"/>
<path fill-rule="evenodd" clip-rule="evenodd" d="M162.11 158.355C162.11 158.355 167.122 158.053 169.038 151.457C170.581 146.148 169.33 141.494 167.486 137.982C165.238 133.696 162.11 131.112 162.11 131.112V158.356V158.355Z" fill="#2A62DA"/>
<path fill-rule="evenodd" clip-rule="evenodd" d="M110.37 71.0397V84.6268C105.255 86.9778 99.9079 86.3171 94.4492 84.1936L95.9455 62.3463C99.71 67.5719 104.625 70.8819 110.37 71.0408V71.0397Z" fill="#FCBDD1"/>
<path fill-rule="evenodd" clip-rule="evenodd" d="M95.3506 71.0397L95.9465 62.3452C99.711 67.5708 104.625 70.8808 110.371 71.0397V77.8338C106.816 77.7042 99.1847 78.5587 95.3506 71.0397Z" fill="#E5668A"/>
<path fill-rule="evenodd" clip-rule="evenodd" d="M139.099 167.892V223.915H107.044L106.717 196.528L104.834 223.915H67.6089V166.095L139.098 167.892H139.099Z" fill="#212E66"/>
<path fill-rule="evenodd" clip-rule="evenodd" d="M112.426 223.915H107.044L106.753 199.523L107.212 186.75L112.425 223.915H112.426ZM74.0984 223.915H67.6099V166.095L139.099 167.892V174.143C127.63 175.587 75.4554 175.548 75.4554 175.548L74.0973 223.915H74.0984Z" fill="#1A2556"/>
<path fill-rule="evenodd" clip-rule="evenodd" d="M127.821 167.608L127.825 167.628C127.931 168.173 128.057 168.713 128.205 169.248C128.313 169.638 128.432 170.025 128.563 170.408C129.357 172.738 130.581 174.952 132.328 176.701C132.625 176.998 132.937 177.282 133.261 177.549C133.781 177.976 134.336 178.359 134.916 178.698V223.914H135.743V179.136C136.737 179.616 137.85 179.991 139.099 180.227V179.38C131.53 177.845 129.292 170.806 128.663 167.627L127.822 167.607L127.821 167.608ZM81.7841 166.451C81.5981 167.939 80.6543 173.387 76.5754 176.811C76.4341 176.836 76.3177 176.932 76.2655 177.062C74.2191 178.666 71.4255 179.762 67.6186 179.676H67.6099V180.504C71.3211 180.585 74.1223 179.607 76.2362 178.124V223.915H77.0626V177.492C81.4568 173.827 82.4332 167.952 82.6137 166.473L81.7852 166.452L81.7841 166.451Z" fill="#7C88BB"/>
<path fill-rule="evenodd" clip-rule="evenodd" d="M90.3008 62.3452C90.3008 62.3452 91.909 67.4576 95.8933 67.5077V62.6869L90.3008 62.3452Z" fill="#6E2B08"/>
<path fill-rule="evenodd" clip-rule="evenodd" d="M94.4494 79.1987C94.4494 79.1987 99.7266 85.4747 104.631 85.1884C109.054 84.9304 110.37 80.52 110.37 80.52C110.37 80.52 119.299 81.4735 127.856 83.5285C133.261 84.8259 138.518 86.5631 141.286 88.777C149.026 94.967 160.383 127.877 160.383 127.877H142.469C142.469 127.877 143.608 165.529 141.286 167.892C138.963 170.255 68.1649 171.267 65.8042 167.958C63.4434 164.649 65.8042 153.376 65.8042 153.376C65.8042 153.376 45.7472 141.213 44.7522 131.029C43.7725 121.009 55.6577 92.6334 64.2731 86.1136C71.7685 80.4417 94.4483 79.2008 94.4483 79.2008L94.4494 79.1987Z" fill="#4481EE"/>
<path fill-rule="evenodd" clip-rule="evenodd" d="M65.3647 153.102V151.47L83.9625 105.858L82.9795 110.202H153.548C157.45 119.374 160.384 127.877 160.384 127.877H142.47C142.47 127.877 143.267 154.21 142.169 164.213L107.422 164.68C105.429 166.537 102.487 168.944 99.2534 170.07C96.4327 170.073 93.6446 170.059 90.9512 170.025C87.7912 169.243 84.1702 167.662 82.1987 164.68C80.4882 166.118 78.9191 167.338 78.345 167.409L65.3647 157.516V155.861C65.5964 154.373 65.8051 153.376 65.8051 153.376C65.8051 153.376 65.6496 153.282 65.3647 153.103V153.102Z" fill="#2A62DA"/>
<path fill-rule="evenodd" clip-rule="evenodd" d="M94.545 78.8068C94.545 78.8068 99.6155 85.6684 104.861 85.0055C108.925 84.4918 110.624 79.8343 110.624 79.8343C111.267 78.4215 114.98 79.338 114.423 81.0273C114.423 81.0273 111.053 88.7748 104.861 88.789C94.7788 88.8118 90.3335 79.8343 90.3335 79.8343C89.9573 78.5325 92.7736 76.6702 94.5439 78.8068H94.545Z" fill="#D7E4FB"/>
<path d="M116.029 119.232H84.2593V160.247H116.029V119.232Z" fill="#F39420"/>
<path fill-rule="evenodd" clip-rule="evenodd" d="M84.2594 128.799L99.6178 143.958C100.034 144.334 97.2407 146.928 95.3791 149.254C97.9073 149.991 101.772 151.46 102.583 153.153C103.855 155.808 98.5445 155.96 98.5445 155.96C98.5445 155.96 101.002 159.05 106.509 159.903C106.889 159.961 107.174 160.081 107.374 160.249H84.2583V128.8L84.2594 128.799Z" fill="#D86E0C"/>
<path fill-rule="evenodd" clip-rule="evenodd" d="M116.029 119.232H84.2593V160.247H89.3613V122.82H116.029V119.232Z" fill="#D6770A"/>
<path fill-rule="evenodd" clip-rule="evenodd" d="M84.2593 128.799V160.248H89.3613V133.834L84.2593 128.799Z" fill="#A35309"/>
<path d="M162.177 119.232H116.028V160.247H162.177V119.232Z" fill="#FFC35C"/>
<path d="M162.177 119.232H116.028V122.82H162.177V119.232Z" fill="#F7A026"/>
<path fill-rule="evenodd" clip-rule="evenodd" d="M162.177 119.232H116.028V122.82H156.851V160.247H162.177V119.232Z" fill="#F9A52F"/>
<path fill-rule="evenodd" clip-rule="evenodd" d="M162.178 155.875V137.175C160.663 136.467 158.64 136.074 158.032 136.703C156.672 138.111 158.116 140.27 159.476 141.102C159.476 141.102 155.185 139.115 153.03 139.739C150.877 140.363 150.998 151.856 153.627 154.666C155.12 156.262 160.039 156.095 162.178 155.875Z" fill="#F7A026"/>
<path d="M118.568 111.323H82.1987V119.439H118.568V111.323Z" fill="#FBAE41"/>
<path d="M110.291 111.323H82.1987V116.887H110.291V111.323Z" fill="#FFC369"/>
<path d="M164.174 111.323H118.567V119.439H164.174V111.323Z" fill="#FFC86B"/>
<path d="M164.173 111.323H123.941V116.887H164.173V111.323Z" fill="#FFD792"/>
<path fill-rule="evenodd" clip-rule="evenodd" d="M116.242 119.664L162.179 119.542L162.177 118.922L84.2583 119.128V119.749H116.029C116.111 119.749 116.186 119.716 116.242 119.664Z" fill="#814806"/>
<path d="M154.322 130.892H122.553V143.111H154.322V130.892Z" fill="#ECA731"/>
<path d="M154.988 130.21H123.218V142.429H154.988V130.21Z" fill="#FFF9F0"/>
<path fill-rule="evenodd" clip-rule="evenodd" d="M128.776 129.076L126.478 126.789L119.26 134.054L121.558 136.341L128.776 129.076Z" fill="#FFE8C0"/>
<path fill-rule="evenodd" clip-rule="evenodd" d="M158.478 139.939L156.181 137.653L148.962 144.918L151.26 147.205L158.478 139.939Z" fill="#FFE8C0"/>
<path fill-rule="evenodd" clip-rule="evenodd" d="M165.453 139.987C163.894 138.219 159.656 136.139 158.534 137.3C157.173 138.707 159.023 140.414 160.383 141.245C160.383 141.245 155.78 139.363 153.627 139.986C151.474 140.61 150.998 150.47 153.627 153.279C155.382 155.154 161.868 154.827 163.013 154.528C166.593 153.592 167.611 142.434 165.453 139.986V139.987Z" fill="#FCBDD1"/>
<path fill-rule="evenodd" clip-rule="evenodd" d="M164.98 139.513C165.156 139.672 165.315 139.831 165.454 139.987C167.613 142.435 166.594 153.593 163.014 154.529C161.869 154.828 155.383 155.155 153.629 153.281C152.903 152.506 152.414 151.194 152.131 149.688C154.219 150.77 158.149 152.363 161.558 151.226C164.919 150.104 165.016 141.756 164.98 139.513Z" fill="#F797B5"/>
<path fill-rule="evenodd" clip-rule="evenodd" d="M152.182 149.952C152.228 150.172 152.278 150.386 152.332 150.595L160.22 151.567C160.39 151.588 160.544 151.467 160.566 151.297C160.587 151.128 160.466 150.973 160.297 150.951L152.182 149.952ZM151.83 146.367C151.831 146.575 151.836 146.784 151.843 146.994L160.222 148.026C160.391 148.046 160.546 147.925 160.567 147.756C160.588 147.586 160.467 147.431 160.298 147.409L151.831 146.367H151.83ZM152.128 142.861C152.09 143.059 152.055 143.262 152.024 143.473L160.222 144.483C160.391 144.503 160.546 144.382 160.567 144.213C160.588 144.043 160.467 143.888 160.298 143.867L152.129 142.861H152.128Z" fill="#CF6E8D"/>
<path fill-rule="evenodd" clip-rule="evenodd" d="M91.9166 148.789C91.9166 148.789 100.352 150.835 101.489 153.21C102.761 155.865 97.0187 155.297 97.0187 155.297C97.0187 155.297 100.224 159.627 105.731 160.478C109.854 161.116 103.67 168.301 95.3778 167.946C91.9525 167.799 83.8286 165.733 81.4048 160.05L91.9156 148.791L91.9166 148.789Z" fill="#FCBDD1"/>
<path fill-rule="evenodd" clip-rule="evenodd" d="M103.349 165.929C101.268 167.163 98.4706 168.078 95.3803 167.945C91.955 167.798 83.831 165.732 81.4072 160.049L91.918 148.79C91.918 148.79 93.1228 149.082 94.6843 149.574C92.9336 151.62 88.5384 157.246 89.2952 161.386C89.8084 164.197 97.6377 165.884 103.349 165.931V165.929Z" fill="#F797B5"/>
<path fill-rule="evenodd" clip-rule="evenodd" d="M95.7509 167.956C93.5456 167.09 91.0816 165.822 89.2058 164.039C89.0819 163.921 89.0764 163.724 89.195 163.6C89.3124 163.476 89.5092 163.471 89.6332 163.589C91.8547 165.7 94.9245 167.066 97.3581 167.89C96.8339 167.941 96.2978 167.965 95.752 167.956H95.7509ZM101.517 166.844C98.9054 166.085 94.8777 164.579 92.119 161.958C91.995 161.84 91.9896 161.643 92.1081 161.519C92.2255 161.395 92.4224 161.389 92.5463 161.508C95.491 164.305 99.9232 165.793 102.393 166.447C102.111 166.587 101.819 166.72 101.517 166.844ZM105.783 164.034C104.123 163.682 97.9855 162.18 94.2166 158.599C94.0926 158.481 94.0872 158.284 94.2057 158.16C94.3242 158.036 94.5199 158.031 94.6439 158.149C98.676 161.98 105.499 163.355 106.25 163.497C106.11 163.674 105.956 163.855 105.784 164.034H105.783Z" fill="#CF6E8D"/>
<path fill-rule="evenodd" clip-rule="evenodd" d="M51.445 105.858H83.9614L77.3914 124.635L96.1957 144.781C97.6169 146.062 81.1037 163.604 78.5495 163.917L66.9002 154.343C66.9002 154.343 45.6905 141.212 44.6945 131.027C44.1791 125.749 47.5424 114.089 51.4439 105.857L51.445 105.858Z" fill="#4481EE"/>
<path fill-rule="evenodd" clip-rule="evenodd" d="M77.1335 123.87L72.1228 118.651C71.9651 118.486 71.7031 118.481 71.5389 118.639C71.3747 118.796 71.3692 119.059 71.5269 119.223L76.9965 124.92L96.263 145.018C96.4207 145.183 96.6827 145.188 96.8469 145.03C97.0111 144.872 97.0166 144.61 96.8589 144.446L77.7707 124.534L84.2875 106.617C84.3658 106.402 84.2549 106.165 84.0407 106.087C83.8264 106.008 83.5894 106.119 83.5111 106.334L77.1335 123.869V123.87Z" fill="#0A3073"/>
<path fill-rule="evenodd" clip-rule="evenodd" d="M78.6898 163.675L65.9205 153.406C65.7878 153.299 65.5921 153.32 65.4855 153.454C65.3789 153.586 65.3996 153.782 65.5333 153.889L78.3026 164.158C78.4353 164.265 78.631 164.244 78.7376 164.111C78.8442 163.978 78.8235 163.782 78.6898 163.675Z" fill="#0A3073"/>
<path fill-rule="evenodd" clip-rule="evenodd" d="M125.448 42.1501C125.448 42.1501 124.88 50.5529 122.205 55.489L120.038 43.2451L125.448 42.1501Z" fill="#612705"/>
<path fill-rule="evenodd" clip-rule="evenodd" d="M95.2385 57.9282C95.2385 57.9282 92.9375 53.3905 89.5003 55.6447C86.4001 57.6779 88.2683 64.964 94.7067 62.8295C94.7067 62.8295 96.7173 69.7009 102.098 72.6038C108.934 76.2925 119.861 73.123 122.16 68.8541C126.029 61.6692 120.531 43.2451 120.531 43.2451H95.2385V57.9282Z" fill="#FCBDD1"/>
<path fill-rule="evenodd" clip-rule="evenodd" d="M120.689 43.7948H95.6919L96.3911 60.3751C96.3911 60.3751 98.5267 51.9603 98.7116 50.6313C98.7116 50.6313 115.536 51.4378 118.545 49.7323C121.839 47.8645 119.588 46.3298 119.588 46.3298L121.411 46.5627C121.109 45.3208 120.847 44.3564 120.69 43.7948H120.689Z" fill="#EE86A0"/>
<path fill-rule="evenodd" clip-rule="evenodd" d="M93.3446 59.8885C93.3446 59.8885 93.2489 58.9938 92.5291 58.5726C92.1387 58.344 91.5547 58.2374 90.6805 58.5465C90.5108 58.6063 90.4217 58.7935 90.4815 58.9633C90.5413 59.1331 90.7283 59.2224 90.898 59.1625C91.5134 58.9448 91.9245 58.9753 92.1996 59.1364C92.6443 59.3965 92.6954 59.9549 92.6954 59.9549C92.7139 60.1345 92.8738 60.2651 93.0532 60.2466C93.2326 60.2281 93.3631 60.0681 93.3446 59.8885Z" fill="#D26185"/>
<path fill-rule="evenodd" clip-rule="evenodd" d="M95.2389 57.9285L96.3882 60.4613C96.3882 60.4613 97.6214 50.6892 97.5876 49.5921C97.5876 49.5921 112.371 50.8373 116.35 49.5921C121.608 47.9463 119.201 46.1221 116.35 45.5561C116.35 45.5561 125.809 47.6427 129.17 43.2464C134.119 36.7713 128.662 33.7193 124.681 34.9274C124.681 34.9274 128.781 33.5288 129.17 29.6746C129.696 24.4522 118.36 22.2253 111.253 28.3663C111.253 28.3663 115.651 23.9853 112.438 22.1251C109.003 20.1365 90.824 22.5104 90.7892 33.2556C90.7892 33.2556 87.7685 33.2458 85.8242 36.9846C83.7277 41.0151 88.1262 57.8033 88.1262 57.8033C88.1262 57.8033 88.9059 54.7393 91.9038 55.2455C93.9416 55.5894 95.2389 57.9296 95.2389 57.9296V57.9285Z" fill="#803A0F"/>
<path fill-rule="evenodd" clip-rule="evenodd" d="M85.8305 46.7401C85.887 44.7493 86.4351 35.0556 91.7535 34.1685C91.7535 34.1685 93.813 25.6264 102.774 23.7804C108.47 22.607 112.783 22.8563 113.047 25.9464C113.747 24.6174 114.046 23.0544 112.437 22.1238C109.002 20.1352 90.8227 22.5091 90.7879 33.2542C90.7879 33.2542 87.7671 33.2444 85.8229 36.9833C84.9334 38.6921 85.2128 42.6965 85.8294 46.7412L85.8305 46.7401ZM126.015 34.6812C129.16 34.4602 132.41 36.6219 130.638 40.8015C129.993 37.2967 126.938 35.233 126.015 34.6812ZM114.886 26.0531C121.655 23.0032 129.612 25.2781 129.169 29.6722C128.99 31.4376 128.033 32.6882 127.048 33.5253C127.531 32.3225 127.588 29.596 126.014 28.0602C123.4 25.5078 116.726 25.917 114.885 26.0531H114.886Z" fill="#A2581B"/>
<path fill-rule="evenodd" clip-rule="evenodd" d="M129.542 42.7335C129.425 42.9011 129.3 43.072 129.168 43.2451C126.053 47.3213 117.695 45.8247 116.494 45.5853C116.446 45.5755 116.397 45.5646 116.349 45.5548C116.349 45.5548 116.399 45.5657 116.494 45.5853C119.281 46.1828 121.519 47.9733 116.349 49.5907C112.37 50.8359 97.5872 49.5907 97.5872 49.5907C97.6209 50.6879 96.3878 60.46 96.3878 60.46L95.2384 57.9272C95.2384 57.9272 93.9412 55.587 91.9034 55.243C88.9054 54.7369 88.1258 57.8009 88.1258 57.8009C88.1258 57.8009 87.3983 55.0243 86.6763 51.4574C89.1762 51.341 93.2931 51.4302 95.2384 53.0379C95.2384 53.0379 95.6429 49.803 95.2384 46.1654C95.2384 46.1654 113.135 50.2765 117.713 48.0724C119.499 47.2125 116.869 45.2174 110.106 43.9406C110.106 43.9406 123.391 45.8127 129.542 42.7335Z" fill="#6E2B08"/>
<path d="M106.526 59.9212C107.074 59.9212 107.518 59.1829 107.518 58.2722C107.518 57.3615 107.074 56.6232 106.526 56.6232C105.978 56.6232 105.534 57.3615 105.534 58.2722C105.534 59.1829 105.978 59.9212 106.526 59.9212Z" fill="#53250E"/>
<path d="M116.654 59.697C117.202 59.697 117.646 58.9587 117.646 58.048C117.646 57.1373 117.202 56.399 116.654 56.399C116.106 56.399 115.662 57.1373 115.662 58.048C115.662 58.9587 116.106 59.697 116.654 59.697Z" fill="#53250E"/>
<path fill-rule="evenodd" clip-rule="evenodd" d="M120.377 54.6128C118.659 52.9671 116.274 51.8133 113.034 53.5799C112.797 53.7094 112.709 54.0066 112.838 54.2438C112.967 54.4811 113.264 54.5693 113.501 54.4398C116.236 52.9475 118.249 53.9304 119.698 55.3203C119.893 55.5075 120.204 55.501 120.39 55.3051C120.577 55.1102 120.57 54.799 120.375 54.6128H120.377Z" fill="#D17219"/>
<path fill-rule="evenodd" clip-rule="evenodd" d="M102.473 55.8395C104.039 53.9598 106.926 52.9791 109.657 54.4681C109.894 54.5976 110.192 54.5094 110.32 54.2721C110.449 54.0349 110.361 53.7366 110.124 53.6082C106.929 51.8656 103.552 53.0139 101.721 55.2126C101.548 55.4205 101.576 55.7296 101.783 55.9026C101.99 56.0757 102.299 56.0474 102.472 55.8406L102.473 55.8395Z" fill="#D17219"/>
<path fill-rule="evenodd" clip-rule="evenodd" d="M108.6 68.2815C108.6 68.2815 110.148 70.7349 113.398 69.5583C113.596 69.4865 113.698 69.2677 113.627 69.0707C113.555 68.8726 113.336 68.7703 113.14 68.8421C110.509 69.7945 109.24 67.869 109.24 67.869C109.126 67.6927 108.891 67.6415 108.714 67.7547C108.538 67.869 108.487 68.1041 108.6 68.2815Z" fill="#E82E2E"/>
<path fill-rule="evenodd" clip-rule="evenodd" d="M112.441 59.0461C112.441 59.0461 113.632 61.1 114.399 62.6195C114.668 63.155 114.889 63.6165 114.968 63.8821C114.591 64.6821 113.558 64.607 113.558 64.607C113.348 64.595 113.169 64.7561 113.157 64.9661C113.145 65.1762 113.306 65.3558 113.516 65.3678C113.516 65.3678 115.209 65.4429 115.724 64.0453C115.748 63.9811 115.753 63.9114 115.741 63.844C115.691 63.5729 115.43 62.9754 115.077 62.2755C114.302 60.7386 113.098 58.663 113.098 58.663C112.992 58.4812 112.76 58.4191 112.578 58.5247C112.397 58.6303 112.335 58.8632 112.44 59.045L112.441 59.0461Z" fill="#DF5E87"/>
<path d="M214.447 156.104H192.782V184.075H214.447V156.104Z" fill="#F4A22F"/>
<path fill-rule="evenodd" clip-rule="evenodd" d="M209.659 182.777V159.417H192.782V156.104H214.447V184.075H192.782V182.777H209.659Z" fill="#D6770A"/>
<path d="M192.781 156.104H161.31V184.075H192.781V156.104Z" fill="#FFC35C"/>
<path d="M189.881 162.383H165.042V180.238H189.881V162.383Z" fill="#FFD786"/>
<path fill-rule="evenodd" clip-rule="evenodd" d="M161.31 182.777H192.781V184.075H161.31V182.777ZM161.31 156.104H192.781V159.871H161.31V156.104Z" fill="#F9A52F"/>
<path d="M215.853 150.89H194.974V156.363H215.853V150.89Z" fill="#F9A939"/>
<path d="M194.974 150.89H159.95V156.425H194.974V150.89Z" fill="#FFC86B"/>
<path fill-rule="evenodd" clip-rule="evenodd" d="M161.31 156.69H214.446C214.627 156.69 214.773 156.544 214.773 156.363C214.773 156.182 214.627 156.036 214.446 156.036H161.31C161.129 156.036 160.983 156.182 160.983 156.363C160.983 156.544 161.129 156.69 161.31 156.69Z" fill="#814806"/>
<path d="M214.166 190.333H188.154V223.914H214.166V190.333Z" fill="#F4A22F"/>
<path fill-rule="evenodd" clip-rule="evenodd" d="M214.165 190.333V223.914H208.416V194.311H188.154V190.333H214.166H214.165Z" fill="#D6770A"/>
<path d="M188.154 190.333H150.37V223.914H188.154V190.333Z" fill="#FFC35C"/>
<path d="M184.671 199.348H154.85V220.784H184.671V199.348Z" fill="#FFD786"/>
<path d="M188.154 190.333H150.37V194.856H188.154V190.333Z" fill="#F9A52F"/>
<path d="M215.853 184.074H190.786V190.644H215.853V184.074Z" fill="#F9A939"/>
<path d="M190.785 184.074H148.735V190.719H190.785V184.074Z" fill="#FFC86B"/>
<path fill-rule="evenodd" clip-rule="evenodd" d="M150.37 190.971H214.165C214.346 190.971 214.491 190.825 214.491 190.645C214.491 190.464 214.346 190.318 214.165 190.318H150.37C150.189 190.318 150.043 190.464 150.043 190.645C150.043 190.825 150.189 190.971 150.37 190.971Z" fill="#814806"/>
</g>
<defs>
<clipPath id="clip0_108_10369">
<rect width="342" height="227" fill="white"/>
</clipPath>
</defs>
</svg>
