<svg width="16" height="22" viewBox="0 0 16 22" fill="none" xmlns="http://www.w3.org/2000/svg">
<g clip-path="url(#clip0_186_2451)">
<path d="M5.58183 0C5.58183 0 7.43411 8.79175 15.4409 7.82229C15.4409 7.82229 16.1697 11.5667 11.8154 14.4783C11.8154 14.4783 3.98985 13.8327 0 5.68442C0 5.68442 1.28691 2.05638 5.58183 0Z" fill="#E4F8FF"/>
<path d="M5.18102 1.16522C5.18102 1.16522 7.69758 8.87321 14.7465 8.61286C14.7465 8.61286 14.6829 11.4725 11.5979 13.7162C11.5979 13.7162 4.59483 12.9923 0.781982 5.78917C0.781982 5.78917 1.50561 2.97077 5.17998 1.16628L5.18102 1.16522Z" fill="#A0E2FA"/>
<path d="M6.09821 10.5349C8.50857 12.3595 11.4947 11.8292 12.2527 10.7963C13.0107 9.76227 11.0241 9.12938 8.61373 7.30372C6.20337 5.47912 4.28237 3.15391 3.52543 4.18687C2.76744 5.22088 3.68889 8.70921 6.09821 10.5349Z" fill="#E4F8FF"/>
<path d="M3.95758 7.7334C4.0794 7.77362 4.77387 9.12513 7.09469 10.5486C9.26245 12.0949 13.0566 13.711 15.8324 17.1157C15.8699 17.067 16.024 18.4969 15.9958 19.6759C15.9313 20.9014 15.6835 21.8741 14.0613 21.9894C14.1446 22.1566 12.2298 20.1415 9.03547 19.2684C5.98374 18.2143 1.65238 18.3021 0.174927 18.5085C0.179092 18.4958 0.242604 17.3771 0.663246 15.3165C1.10783 13.3025 1.90747 10.3444 3.95758 7.73446V7.7334Z" fill="#A0E2FA"/>
<path d="M3.78162 9.0542C3.86388 9.11347 4.74056 10.0374 7.04264 11.2937C9.21977 12.6187 12.8233 14.2751 15.4773 17.4004C15.3909 17.5189 16.0333 20.5246 13.7219 20.9787C13.775 21.1173 12.031 19.4112 9.13335 18.5624C6.3492 17.5729 2.4135 17.4406 0.691365 17.485C0.688241 17.4702 0.717395 16.7209 1.04954 15.1725C1.4025 13.6612 2.05949 11.3519 3.78058 9.0542H3.78162Z" fill="#E4F8FF"/>
<path d="M6.9083 16.9982C10.2661 17.7105 13.3803 18.6863 13.7864 18.0418C14.3018 17.4152 12.4308 14.9725 9.10209 13.3003C5.76299 11.5721 3.18604 11.4694 2.72375 13.0633C2.21564 14.7725 3.62542 16.214 6.90726 16.9982H6.9083Z" fill="#A0E2FA"/>
</g>
<defs>
<clipPath id="clip0_186_2451">
<rect width="16" height="22" fill="white"/>
</clipPath>
</defs>
</svg>
